%TF.GenerationSoftware,KiCad,Pcbnew,9.0.1*%
%TF.CreationDate,2026-01-25T23:03:19-05:00*%
%TF.ProjectId,BREAD_Slice,42524541-445f-4536-9c69-63652e6b6963,rev?*%
%TF.SameCoordinates,PX74eba40PY8552dc0*%
%TF.FileFunction,Legend,Top*%
%TF.FilePolarity,Positive*%
%FSLAX46Y46*%
G04 Gerber Fmt 4.6, Leading zero omitted, Abs format (unit mm)*
G04 Created by KiCad (PCBNEW 9.0.1) date 2026-01-25 23:03:19*
%MOMM*%
%LPD*%
G01*
G04 APERTURE LIST*
G04 Aperture macros list*
%AMRoundRect*
0 Rectangle with rounded corners*
0 $1 Rounding radius*
0 $2 $3 $4 $5 $6 $7 $8 $9 X,Y pos of 4 corners*
0 Add a 4 corners polygon primitive as box body*
4,1,4,$2,$3,$4,$5,$6,$7,$8,$9,$2,$3,0*
0 Add four circle primitives for the rounded corners*
1,1,$1+$1,$2,$3*
1,1,$1+$1,$4,$5*
1,1,$1+$1,$6,$7*
1,1,$1+$1,$8,$9*
0 Add four rect primitives between the rounded corners*
20,1,$1+$1,$2,$3,$4,$5,0*
20,1,$1+$1,$4,$5,$6,$7,0*
20,1,$1+$1,$6,$7,$8,$9,0*
20,1,$1+$1,$8,$9,$2,$3,0*%
G04 Aperture macros list end*
%ADD10C,0.100000*%
%ADD11C,0.300000*%
%ADD12C,0.125000*%
%ADD13C,0.150000*%
%ADD14C,0.200000*%
%ADD15C,0.120000*%
%ADD16C,0.127000*%
%ADD17C,0.177800*%
%ADD18C,0.010000*%
%ADD19R,1.600000X1.600000*%
%ADD20C,2.060000*%
%ADD21C,1.800000*%
%ADD22RoundRect,0.271739X-0.353261X-0.478261X0.353261X-0.478261X0.353261X0.478261X-0.353261X0.478261X0*%
%ADD23RoundRect,0.050000X-0.800000X-0.800000X0.800000X-0.800000X0.800000X0.800000X-0.800000X0.800000X0*%
%ADD24C,1.624000*%
%ADD25C,2.160000*%
%ADD26RoundRect,0.050000X1.078338X-0.689429X-0.689429X1.078338X-1.078338X0.689429X0.689429X-1.078338X0*%
%ADD27RoundRect,1.008333X-5.041667X-5.041667X5.041667X-5.041667X5.041667X5.041667X-5.041667X5.041667X0*%
%ADD28RoundRect,0.101600X-0.825500X-0.500000X0.825500X-0.500000X0.825500X0.500000X-0.825500X0.500000X0*%
%ADD29C,5.100000*%
%ADD30O,1.700000X1.700000*%
%ADD31RoundRect,0.050000X-0.850000X-0.850000X0.850000X-0.850000X0.850000X0.850000X-0.850000X0.850000X0*%
%ADD32RoundRect,0.050000X0.850000X-0.850000X0.850000X0.850000X-0.850000X0.850000X-0.850000X-0.850000X0*%
%ADD33RoundRect,0.260418X0.989582X-0.989582X0.989582X0.989582X-0.989582X0.989582X-0.989582X-0.989582X0*%
%ADD34C,2.500000*%
G04 APERTURE END LIST*
D10*
X56875000Y35640000D02*
X60875000Y35640000D01*
X60875000Y33100000D01*
X56875000Y33100000D01*
X56875000Y35640000D01*
X56875000Y53420000D02*
X60875000Y53420000D01*
X60875000Y50880000D01*
X56875000Y50880000D01*
X56875000Y53420000D01*
X60925000Y74300000D02*
X67825000Y74300000D01*
X67825000Y70800000D01*
X60925000Y70800000D01*
X60925000Y74300000D01*
X55675000Y73840000D02*
X59675000Y73840000D01*
X59675000Y71300000D01*
X55675000Y71300000D01*
X55675000Y73840000D01*
X60925000Y67300000D02*
X67825000Y67300000D01*
X67825000Y63800000D01*
X60925000Y63800000D01*
X60925000Y67300000D01*
X55675000Y84000000D02*
X59675000Y84000000D01*
X59675000Y81460000D01*
X55675000Y81460000D01*
X55675000Y84000000D01*
X60875000Y19800000D02*
X67775000Y19800000D01*
X67775000Y16300000D01*
X60875000Y16300000D01*
X60875000Y19800000D01*
X56875000Y43260000D02*
X60875000Y43260000D01*
X60875000Y40720000D01*
X56875000Y40720000D01*
X56875000Y43260000D01*
X60875000Y40800000D02*
X67775000Y40800000D01*
X67775000Y37300000D01*
X60875000Y37300000D01*
X60875000Y40800000D01*
X55675000Y91620000D02*
X59675000Y91620000D01*
X59675000Y89080000D01*
X55675000Y89080000D01*
X55675000Y91620000D01*
X60875000Y44300000D02*
X67775000Y44300000D01*
X67775000Y40800000D01*
X60875000Y40800000D01*
X60875000Y44300000D01*
X56875000Y48340000D02*
X60875000Y48340000D01*
X60875000Y45800000D01*
X56875000Y45800000D01*
X56875000Y48340000D01*
X56875000Y33100000D02*
X60875000Y33100000D01*
X60875000Y30560000D01*
X56875000Y30560000D01*
X56875000Y33100000D01*
X56875000Y30560000D02*
X60875000Y30560000D01*
X60875000Y28020000D01*
X56875000Y28020000D01*
X56875000Y30560000D01*
X56875000Y50880000D02*
X60875000Y50880000D01*
X60875000Y48340000D01*
X56875000Y48340000D01*
X56875000Y50880000D01*
X60875000Y58300000D02*
X67775000Y58300000D01*
X67775000Y54800000D01*
X60875000Y54800000D01*
X60875000Y58300000D01*
X60875000Y23300000D02*
X67775000Y23300000D01*
X67775000Y19800000D01*
X60875000Y19800000D01*
X60875000Y23300000D01*
X55675000Y86540000D02*
X59675000Y86540000D01*
X59675000Y84000000D01*
X55675000Y84000000D01*
X55675000Y86540000D01*
X56875000Y40720000D02*
X60875000Y40720000D01*
X60875000Y38180000D01*
X56875000Y38180000D01*
X56875000Y40720000D01*
X56875000Y45800000D02*
X60875000Y45800000D01*
X60875000Y43260000D01*
X56875000Y43260000D01*
X56875000Y45800000D01*
X60925000Y77800000D02*
X67825000Y77800000D01*
X67825000Y74300000D01*
X60925000Y74300000D01*
X60925000Y77800000D01*
X60875000Y51300000D02*
X67775000Y51300000D01*
X67775000Y47800000D01*
X60875000Y47800000D01*
X60875000Y51300000D01*
X60875000Y37300000D02*
X67775000Y37300000D01*
X67775000Y33800000D01*
X60875000Y33800000D01*
X60875000Y37300000D01*
X60925000Y88300000D02*
X67825000Y88300000D01*
X67825000Y84800000D01*
X60925000Y84800000D01*
X60925000Y88300000D01*
X60925000Y84800000D02*
X67825000Y84800000D01*
X67825000Y81300000D01*
X60925000Y81300000D01*
X60925000Y84800000D01*
X55675000Y89080000D02*
X59675000Y89080000D01*
X59675000Y86540000D01*
X55675000Y86540000D01*
X55675000Y89080000D01*
X60875000Y54800000D02*
X67775000Y54800000D01*
X67775000Y51300000D01*
X60875000Y51300000D01*
X60875000Y54800000D01*
X60925000Y81300000D02*
X67825000Y81300000D01*
X67825000Y77800000D01*
X60925000Y77800000D01*
X60925000Y81300000D01*
X55675000Y78920000D02*
X59675000Y78920000D01*
X59675000Y76380000D01*
X55675000Y76380000D01*
X55675000Y78920000D01*
X56875000Y25480000D02*
X60875000Y25480000D01*
X60875000Y22940000D01*
X56875000Y22940000D01*
X56875000Y25480000D01*
X60875000Y26800000D02*
X67775000Y26800000D01*
X67775000Y23300000D01*
X60875000Y23300000D01*
X60875000Y26800000D01*
X60875000Y30300000D02*
X67775000Y30300000D01*
X67775000Y26800000D01*
X60875000Y26800000D01*
X60875000Y30300000D01*
D11*
X12580000Y63360000D02*
X57855000Y63360000D01*
X57855000Y61060000D01*
X12580000Y61060000D01*
X12580000Y63360000D01*
X12650000Y96800000D02*
X57950000Y96800000D01*
X57950000Y94500000D01*
X12650000Y94500000D01*
X12650000Y96800000D01*
D10*
X55675000Y71300000D02*
X59675000Y71300000D01*
X59675000Y68760000D01*
X55675000Y68760000D01*
X55675000Y71300000D01*
X56875000Y28020000D02*
X60875000Y28020000D01*
X60875000Y25480000D01*
X56875000Y25480000D01*
X56875000Y28020000D01*
X56875000Y38180000D02*
X60875000Y38180000D01*
X60875000Y35640000D01*
X56875000Y35640000D01*
X56875000Y38180000D01*
X55675000Y76380000D02*
X59675000Y76380000D01*
X59675000Y73840000D01*
X55675000Y73840000D01*
X55675000Y76380000D01*
X60875000Y33800000D02*
X67775000Y33800000D01*
X67775000Y30300000D01*
X60875000Y30300000D01*
X60875000Y33800000D01*
X60925000Y70800000D02*
X67825000Y70800000D01*
X67825000Y67300000D01*
X60925000Y67300000D01*
X60925000Y70800000D01*
X60875000Y47800000D02*
X67775000Y47800000D01*
X67775000Y44300000D01*
X60875000Y44300000D01*
X60875000Y47800000D01*
X60925000Y63800000D02*
X67825000Y63800000D01*
X67825000Y60300000D01*
X60925000Y60300000D01*
X60925000Y63800000D01*
D12*
X61464378Y31603881D02*
X61121521Y31603881D01*
X61292950Y31603881D02*
X61292950Y32603881D01*
X61292950Y32603881D02*
X61235807Y32461024D01*
X61235807Y32461024D02*
X61178664Y32365786D01*
X61178664Y32365786D02*
X61121521Y32318167D01*
X61978665Y32603881D02*
X61864379Y32603881D01*
X61864379Y32603881D02*
X61807236Y32556262D01*
X61807236Y32556262D02*
X61778665Y32508643D01*
X61778665Y32508643D02*
X61721522Y32365786D01*
X61721522Y32365786D02*
X61692950Y32175310D01*
X61692950Y32175310D02*
X61692950Y31794358D01*
X61692950Y31794358D02*
X61721522Y31699120D01*
X61721522Y31699120D02*
X61750093Y31651500D01*
X61750093Y31651500D02*
X61807236Y31603881D01*
X61807236Y31603881D02*
X61921522Y31603881D01*
X61921522Y31603881D02*
X61978665Y31651500D01*
X61978665Y31651500D02*
X62007236Y31699120D01*
X62007236Y31699120D02*
X62035807Y31794358D01*
X62035807Y31794358D02*
X62035807Y32032453D01*
X62035807Y32032453D02*
X62007236Y32127691D01*
X62007236Y32127691D02*
X61978665Y32175310D01*
X61978665Y32175310D02*
X61921522Y32222929D01*
X61921522Y32222929D02*
X61807236Y32222929D01*
X61807236Y32222929D02*
X61750093Y32175310D01*
X61750093Y32175310D02*
X61721522Y32127691D01*
X61721522Y32127691D02*
X61692950Y32032453D01*
X61464378Y28103881D02*
X61121521Y28103881D01*
X61292950Y28103881D02*
X61292950Y29103881D01*
X61292950Y29103881D02*
X61235807Y28961024D01*
X61235807Y28961024D02*
X61178664Y28865786D01*
X61178664Y28865786D02*
X61121521Y28818167D01*
X61664379Y29103881D02*
X62064379Y29103881D01*
X62064379Y29103881D02*
X61807236Y28103881D01*
D13*
X620238Y51624610D02*
X544048Y51662705D01*
X544048Y51662705D02*
X429762Y51662705D01*
X429762Y51662705D02*
X315476Y51624610D01*
X315476Y51624610D02*
X239286Y51548420D01*
X239286Y51548420D02*
X201191Y51472229D01*
X201191Y51472229D02*
X163095Y51319848D01*
X163095Y51319848D02*
X163095Y51205562D01*
X163095Y51205562D02*
X201191Y51053181D01*
X201191Y51053181D02*
X239286Y50976991D01*
X239286Y50976991D02*
X315476Y50900800D01*
X315476Y50900800D02*
X429762Y50862705D01*
X429762Y50862705D02*
X505953Y50862705D01*
X505953Y50862705D02*
X620238Y50900800D01*
X620238Y50900800D02*
X658334Y50938896D01*
X658334Y50938896D02*
X658334Y51205562D01*
X658334Y51205562D02*
X505953Y51205562D01*
X1001191Y50862705D02*
X1001191Y51662705D01*
X1001191Y51662705D02*
X1458334Y50862705D01*
X1458334Y50862705D02*
X1458334Y51662705D01*
X1839286Y50862705D02*
X1839286Y51662705D01*
X1839286Y51662705D02*
X2029762Y51662705D01*
X2029762Y51662705D02*
X2144048Y51624610D01*
X2144048Y51624610D02*
X2220238Y51548420D01*
X2220238Y51548420D02*
X2258333Y51472229D01*
X2258333Y51472229D02*
X2296429Y51319848D01*
X2296429Y51319848D02*
X2296429Y51205562D01*
X2296429Y51205562D02*
X2258333Y51053181D01*
X2258333Y51053181D02*
X2220238Y50976991D01*
X2220238Y50976991D02*
X2144048Y50900800D01*
X2144048Y50900800D02*
X2029762Y50862705D01*
X2029762Y50862705D02*
X1839286Y50862705D01*
D12*
X61464378Y35103881D02*
X61121521Y35103881D01*
X61292950Y35103881D02*
X61292950Y36103881D01*
X61292950Y36103881D02*
X61235807Y35961024D01*
X61235807Y35961024D02*
X61178664Y35865786D01*
X61178664Y35865786D02*
X61121521Y35818167D01*
X62007236Y36103881D02*
X61721522Y36103881D01*
X61721522Y36103881D02*
X61692950Y35627691D01*
X61692950Y35627691D02*
X61721522Y35675310D01*
X61721522Y35675310D02*
X61778665Y35722929D01*
X61778665Y35722929D02*
X61921522Y35722929D01*
X61921522Y35722929D02*
X61978665Y35675310D01*
X61978665Y35675310D02*
X62007236Y35627691D01*
X62007236Y35627691D02*
X62035807Y35532453D01*
X62035807Y35532453D02*
X62035807Y35294358D01*
X62035807Y35294358D02*
X62007236Y35199120D01*
X62007236Y35199120D02*
X61978665Y35151500D01*
X61978665Y35151500D02*
X61921522Y35103881D01*
X61921522Y35103881D02*
X61778665Y35103881D01*
X61778665Y35103881D02*
X61721522Y35151500D01*
X61721522Y35151500D02*
X61692950Y35199120D01*
D14*
X40758304Y46377946D02*
X41558304Y46377946D01*
X41558304Y46377946D02*
X41558304Y46187470D01*
X41558304Y46187470D02*
X41520209Y46073184D01*
X41520209Y46073184D02*
X41444019Y45996994D01*
X41444019Y45996994D02*
X41367828Y45958899D01*
X41367828Y45958899D02*
X41215447Y45920803D01*
X41215447Y45920803D02*
X41101161Y45920803D01*
X41101161Y45920803D02*
X40948780Y45958899D01*
X40948780Y45958899D02*
X40872590Y45996994D01*
X40872590Y45996994D02*
X40796400Y46073184D01*
X40796400Y46073184D02*
X40758304Y46187470D01*
X40758304Y46187470D02*
X40758304Y46377946D01*
X40758304Y45158899D02*
X40758304Y45616042D01*
X40758304Y45387470D02*
X41558304Y45387470D01*
X41558304Y45387470D02*
X41444019Y45463661D01*
X41444019Y45463661D02*
X41367828Y45539851D01*
X41367828Y45539851D02*
X41329733Y45616042D01*
X40758304Y44396994D02*
X40758304Y44854137D01*
X40758304Y44625565D02*
X41558304Y44625565D01*
X41558304Y44625565D02*
X41444019Y44701756D01*
X41444019Y44701756D02*
X41367828Y44777946D01*
X41367828Y44777946D02*
X41329733Y44854137D01*
X40758304Y43444612D02*
X41558304Y43444612D01*
X41558304Y43444612D02*
X41558304Y43254136D01*
X41558304Y43254136D02*
X41520209Y43139850D01*
X41520209Y43139850D02*
X41444019Y43063660D01*
X41444019Y43063660D02*
X41367828Y43025565D01*
X41367828Y43025565D02*
X41215447Y42987469D01*
X41215447Y42987469D02*
X41101161Y42987469D01*
X41101161Y42987469D02*
X40948780Y43025565D01*
X40948780Y43025565D02*
X40872590Y43063660D01*
X40872590Y43063660D02*
X40796400Y43139850D01*
X40796400Y43139850D02*
X40758304Y43254136D01*
X40758304Y43254136D02*
X40758304Y43444612D01*
X40758304Y42225565D02*
X40758304Y42682708D01*
X40758304Y42454136D02*
X41558304Y42454136D01*
X41558304Y42454136D02*
X41444019Y42530327D01*
X41444019Y42530327D02*
X41367828Y42606517D01*
X41367828Y42606517D02*
X41329733Y42682708D01*
X41482114Y41920803D02*
X41520209Y41882707D01*
X41520209Y41882707D02*
X41558304Y41806517D01*
X41558304Y41806517D02*
X41558304Y41616041D01*
X41558304Y41616041D02*
X41520209Y41539850D01*
X41520209Y41539850D02*
X41482114Y41501755D01*
X41482114Y41501755D02*
X41405923Y41463660D01*
X41405923Y41463660D02*
X41329733Y41463660D01*
X41329733Y41463660D02*
X41215447Y41501755D01*
X41215447Y41501755D02*
X40758304Y41958898D01*
X40758304Y41958898D02*
X40758304Y41463660D01*
X40758304Y40511278D02*
X41558304Y40511278D01*
X41558304Y40511278D02*
X41558304Y40320802D01*
X41558304Y40320802D02*
X41520209Y40206516D01*
X41520209Y40206516D02*
X41444019Y40130326D01*
X41444019Y40130326D02*
X41367828Y40092231D01*
X41367828Y40092231D02*
X41215447Y40054135D01*
X41215447Y40054135D02*
X41101161Y40054135D01*
X41101161Y40054135D02*
X40948780Y40092231D01*
X40948780Y40092231D02*
X40872590Y40130326D01*
X40872590Y40130326D02*
X40796400Y40206516D01*
X40796400Y40206516D02*
X40758304Y40320802D01*
X40758304Y40320802D02*
X40758304Y40511278D01*
X40758304Y39292231D02*
X40758304Y39749374D01*
X40758304Y39520802D02*
X41558304Y39520802D01*
X41558304Y39520802D02*
X41444019Y39596993D01*
X41444019Y39596993D02*
X41367828Y39673183D01*
X41367828Y39673183D02*
X41329733Y39749374D01*
X41558304Y39025564D02*
X41558304Y38530326D01*
X41558304Y38530326D02*
X41253542Y38796992D01*
X41253542Y38796992D02*
X41253542Y38682707D01*
X41253542Y38682707D02*
X41215447Y38606516D01*
X41215447Y38606516D02*
X41177352Y38568421D01*
X41177352Y38568421D02*
X41101161Y38530326D01*
X41101161Y38530326D02*
X40910685Y38530326D01*
X40910685Y38530326D02*
X40834495Y38568421D01*
X40834495Y38568421D02*
X40796400Y38606516D01*
X40796400Y38606516D02*
X40758304Y38682707D01*
X40758304Y38682707D02*
X40758304Y38911278D01*
X40758304Y38911278D02*
X40796400Y38987469D01*
X40796400Y38987469D02*
X40834495Y39025564D01*
D12*
X61464378Y24603881D02*
X61121521Y24603881D01*
X61292950Y24603881D02*
X61292950Y25603881D01*
X61292950Y25603881D02*
X61235807Y25461024D01*
X61235807Y25461024D02*
X61178664Y25365786D01*
X61178664Y25365786D02*
X61121521Y25318167D01*
X61807236Y25175310D02*
X61750093Y25222929D01*
X61750093Y25222929D02*
X61721522Y25270548D01*
X61721522Y25270548D02*
X61692950Y25365786D01*
X61692950Y25365786D02*
X61692950Y25413405D01*
X61692950Y25413405D02*
X61721522Y25508643D01*
X61721522Y25508643D02*
X61750093Y25556262D01*
X61750093Y25556262D02*
X61807236Y25603881D01*
X61807236Y25603881D02*
X61921522Y25603881D01*
X61921522Y25603881D02*
X61978665Y25556262D01*
X61978665Y25556262D02*
X62007236Y25508643D01*
X62007236Y25508643D02*
X62035807Y25413405D01*
X62035807Y25413405D02*
X62035807Y25365786D01*
X62035807Y25365786D02*
X62007236Y25270548D01*
X62007236Y25270548D02*
X61978665Y25222929D01*
X61978665Y25222929D02*
X61921522Y25175310D01*
X61921522Y25175310D02*
X61807236Y25175310D01*
X61807236Y25175310D02*
X61750093Y25127691D01*
X61750093Y25127691D02*
X61721522Y25080072D01*
X61721522Y25080072D02*
X61692950Y24984834D01*
X61692950Y24984834D02*
X61692950Y24794358D01*
X61692950Y24794358D02*
X61721522Y24699120D01*
X61721522Y24699120D02*
X61750093Y24651500D01*
X61750093Y24651500D02*
X61807236Y24603881D01*
X61807236Y24603881D02*
X61921522Y24603881D01*
X61921522Y24603881D02*
X61978665Y24651500D01*
X61978665Y24651500D02*
X62007236Y24699120D01*
X62007236Y24699120D02*
X62035807Y24794358D01*
X62035807Y24794358D02*
X62035807Y24984834D01*
X62035807Y24984834D02*
X62007236Y25080072D01*
X62007236Y25080072D02*
X61978665Y25127691D01*
X61978665Y25127691D02*
X61921522Y25175310D01*
D14*
X59122054Y24637543D02*
X59169673Y24685162D01*
X59169673Y24685162D02*
X59264911Y24732781D01*
X59264911Y24732781D02*
X59503006Y24732781D01*
X59503006Y24732781D02*
X59598244Y24685162D01*
X59598244Y24685162D02*
X59645863Y24637543D01*
X59645863Y24637543D02*
X59693482Y24542305D01*
X59693482Y24542305D02*
X59693482Y24447067D01*
X59693482Y24447067D02*
X59645863Y24304210D01*
X59645863Y24304210D02*
X59074435Y23732781D01*
X59074435Y23732781D02*
X59693482Y23732781D01*
X60312530Y24732781D02*
X60407768Y24732781D01*
X60407768Y24732781D02*
X60503006Y24685162D01*
X60503006Y24685162D02*
X60550625Y24637543D01*
X60550625Y24637543D02*
X60598244Y24542305D01*
X60598244Y24542305D02*
X60645863Y24351829D01*
X60645863Y24351829D02*
X60645863Y24113734D01*
X60645863Y24113734D02*
X60598244Y23923258D01*
X60598244Y23923258D02*
X60550625Y23828020D01*
X60550625Y23828020D02*
X60503006Y23780400D01*
X60503006Y23780400D02*
X60407768Y23732781D01*
X60407768Y23732781D02*
X60312530Y23732781D01*
X60312530Y23732781D02*
X60217292Y23780400D01*
X60217292Y23780400D02*
X60169673Y23828020D01*
X60169673Y23828020D02*
X60122054Y23923258D01*
X60122054Y23923258D02*
X60074435Y24113734D01*
X60074435Y24113734D02*
X60074435Y24351829D01*
X60074435Y24351829D02*
X60122054Y24542305D01*
X60122054Y24542305D02*
X60169673Y24637543D01*
X60169673Y24637543D02*
X60217292Y24685162D01*
X60217292Y24685162D02*
X60312530Y24732781D01*
X59693482Y26272781D02*
X59122054Y26272781D01*
X59407768Y26272781D02*
X59407768Y27272781D01*
X59407768Y27272781D02*
X59312530Y27129924D01*
X59312530Y27129924D02*
X59217292Y27034686D01*
X59217292Y27034686D02*
X59122054Y26987067D01*
X60169673Y26272781D02*
X60360149Y26272781D01*
X60360149Y26272781D02*
X60455387Y26320400D01*
X60455387Y26320400D02*
X60503006Y26368020D01*
X60503006Y26368020D02*
X60598244Y26510877D01*
X60598244Y26510877D02*
X60645863Y26701353D01*
X60645863Y26701353D02*
X60645863Y27082305D01*
X60645863Y27082305D02*
X60598244Y27177543D01*
X60598244Y27177543D02*
X60550625Y27225162D01*
X60550625Y27225162D02*
X60455387Y27272781D01*
X60455387Y27272781D02*
X60264911Y27272781D01*
X60264911Y27272781D02*
X60169673Y27225162D01*
X60169673Y27225162D02*
X60122054Y27177543D01*
X60122054Y27177543D02*
X60074435Y27082305D01*
X60074435Y27082305D02*
X60074435Y26844210D01*
X60074435Y26844210D02*
X60122054Y26748972D01*
X60122054Y26748972D02*
X60169673Y26701353D01*
X60169673Y26701353D02*
X60264911Y26653734D01*
X60264911Y26653734D02*
X60455387Y26653734D01*
X60455387Y26653734D02*
X60550625Y26701353D01*
X60550625Y26701353D02*
X60598244Y26748972D01*
X60598244Y26748972D02*
X60645863Y26844210D01*
X58823244Y82929448D02*
X58823244Y82262781D01*
X58585149Y83310400D02*
X58347054Y82596115D01*
X58347054Y82596115D02*
X58966101Y82596115D01*
X61299435Y66107781D02*
X61966101Y66107781D01*
X61966101Y66107781D02*
X61537530Y65107781D01*
X61823244Y76274448D02*
X61823244Y75607781D01*
X61585149Y76655400D02*
X61347054Y75941115D01*
X61347054Y75941115D02*
X61966101Y75941115D01*
D12*
X61464378Y49103881D02*
X61121521Y49103881D01*
X61292950Y49103881D02*
X61292950Y50103881D01*
X61292950Y50103881D02*
X61235807Y49961024D01*
X61235807Y49961024D02*
X61178664Y49865786D01*
X61178664Y49865786D02*
X61121521Y49818167D01*
X62035807Y49103881D02*
X61692950Y49103881D01*
X61864379Y49103881D02*
X61864379Y50103881D01*
X61864379Y50103881D02*
X61807236Y49961024D01*
X61807236Y49961024D02*
X61750093Y49865786D01*
X61750093Y49865786D02*
X61692950Y49818167D01*
D14*
X59693482Y33892781D02*
X59122054Y33892781D01*
X59407768Y33892781D02*
X59407768Y34892781D01*
X59407768Y34892781D02*
X59312530Y34749924D01*
X59312530Y34749924D02*
X59217292Y34654686D01*
X59217292Y34654686D02*
X59122054Y34607067D01*
X60550625Y34892781D02*
X60360149Y34892781D01*
X60360149Y34892781D02*
X60264911Y34845162D01*
X60264911Y34845162D02*
X60217292Y34797543D01*
X60217292Y34797543D02*
X60122054Y34654686D01*
X60122054Y34654686D02*
X60074435Y34464210D01*
X60074435Y34464210D02*
X60074435Y34083258D01*
X60074435Y34083258D02*
X60122054Y33988020D01*
X60122054Y33988020D02*
X60169673Y33940400D01*
X60169673Y33940400D02*
X60264911Y33892781D01*
X60264911Y33892781D02*
X60455387Y33892781D01*
X60455387Y33892781D02*
X60550625Y33940400D01*
X60550625Y33940400D02*
X60598244Y33988020D01*
X60598244Y33988020D02*
X60645863Y34083258D01*
X60645863Y34083258D02*
X60645863Y34321353D01*
X60645863Y34321353D02*
X60598244Y34416591D01*
X60598244Y34416591D02*
X60550625Y34464210D01*
X60550625Y34464210D02*
X60455387Y34511829D01*
X60455387Y34511829D02*
X60264911Y34511829D01*
X60264911Y34511829D02*
X60169673Y34464210D01*
X60169673Y34464210D02*
X60122054Y34416591D01*
X60122054Y34416591D02*
X60074435Y34321353D01*
X59693482Y41512781D02*
X59122054Y41512781D01*
X59407768Y41512781D02*
X59407768Y42512781D01*
X59407768Y42512781D02*
X59312530Y42369924D01*
X59312530Y42369924D02*
X59217292Y42274686D01*
X59217292Y42274686D02*
X59122054Y42227067D01*
X60026816Y42512781D02*
X60645863Y42512781D01*
X60645863Y42512781D02*
X60312530Y42131829D01*
X60312530Y42131829D02*
X60455387Y42131829D01*
X60455387Y42131829D02*
X60550625Y42084210D01*
X60550625Y42084210D02*
X60598244Y42036591D01*
X60598244Y42036591D02*
X60645863Y41941353D01*
X60645863Y41941353D02*
X60645863Y41703258D01*
X60645863Y41703258D02*
X60598244Y41608020D01*
X60598244Y41608020D02*
X60550625Y41560400D01*
X60550625Y41560400D02*
X60455387Y41512781D01*
X60455387Y41512781D02*
X60169673Y41512781D01*
X60169673Y41512781D02*
X60074435Y41560400D01*
X60074435Y41560400D02*
X60026816Y41608020D01*
D13*
X55157142Y3145181D02*
X54680952Y3145181D01*
X54680952Y3145181D02*
X54680952Y4145181D01*
X55490476Y3668991D02*
X55823809Y3668991D01*
X55966666Y3145181D02*
X55490476Y3145181D01*
X55490476Y3145181D02*
X55490476Y4145181D01*
X55490476Y4145181D02*
X55966666Y4145181D01*
X56395238Y3145181D02*
X56395238Y4145181D01*
X56395238Y4145181D02*
X56633333Y4145181D01*
X56633333Y4145181D02*
X56776190Y4097562D01*
X56776190Y4097562D02*
X56871428Y4002324D01*
X56871428Y4002324D02*
X56919047Y3907086D01*
X56919047Y3907086D02*
X56966666Y3716610D01*
X56966666Y3716610D02*
X56966666Y3573753D01*
X56966666Y3573753D02*
X56919047Y3383277D01*
X56919047Y3383277D02*
X56871428Y3288039D01*
X56871428Y3288039D02*
X56776190Y3192800D01*
X56776190Y3192800D02*
X56633333Y3145181D01*
X56633333Y3145181D02*
X56395238Y3145181D01*
D14*
X58870863Y78182781D02*
X58394673Y78182781D01*
X58394673Y78182781D02*
X58347054Y77706591D01*
X58347054Y77706591D02*
X58394673Y77754210D01*
X58394673Y77754210D02*
X58489911Y77801829D01*
X58489911Y77801829D02*
X58728006Y77801829D01*
X58728006Y77801829D02*
X58823244Y77754210D01*
X58823244Y77754210D02*
X58870863Y77706591D01*
X58870863Y77706591D02*
X58918482Y77611353D01*
X58918482Y77611353D02*
X58918482Y77373258D01*
X58918482Y77373258D02*
X58870863Y77278020D01*
X58870863Y77278020D02*
X58823244Y77230400D01*
X58823244Y77230400D02*
X58728006Y77182781D01*
X58728006Y77182781D02*
X58489911Y77182781D01*
X58489911Y77182781D02*
X58394673Y77230400D01*
X58394673Y77230400D02*
X58347054Y77278020D01*
X61870863Y73107781D02*
X61394673Y73107781D01*
X61394673Y73107781D02*
X61347054Y72631591D01*
X61347054Y72631591D02*
X61394673Y72679210D01*
X61394673Y72679210D02*
X61489911Y72726829D01*
X61489911Y72726829D02*
X61728006Y72726829D01*
X61728006Y72726829D02*
X61823244Y72679210D01*
X61823244Y72679210D02*
X61870863Y72631591D01*
X61870863Y72631591D02*
X61918482Y72536353D01*
X61918482Y72536353D02*
X61918482Y72298258D01*
X61918482Y72298258D02*
X61870863Y72203020D01*
X61870863Y72203020D02*
X61823244Y72155400D01*
X61823244Y72155400D02*
X61728006Y72107781D01*
X61728006Y72107781D02*
X61489911Y72107781D01*
X61489911Y72107781D02*
X61394673Y72155400D01*
X61394673Y72155400D02*
X61347054Y72203020D01*
D13*
X620238Y40712705D02*
X163095Y40712705D01*
X391667Y40712705D02*
X391667Y41512705D01*
X391667Y41512705D02*
X315476Y41398420D01*
X315476Y41398420D02*
X239286Y41322229D01*
X239286Y41322229D02*
X163095Y41284134D01*
X925000Y41436515D02*
X963096Y41474610D01*
X963096Y41474610D02*
X1039286Y41512705D01*
X1039286Y41512705D02*
X1229762Y41512705D01*
X1229762Y41512705D02*
X1305953Y41474610D01*
X1305953Y41474610D02*
X1344048Y41436515D01*
X1344048Y41436515D02*
X1382143Y41360324D01*
X1382143Y41360324D02*
X1382143Y41284134D01*
X1382143Y41284134D02*
X1344048Y41169848D01*
X1344048Y41169848D02*
X886905Y40712705D01*
X886905Y40712705D02*
X1382143Y40712705D01*
X1610715Y41512705D02*
X1877382Y40712705D01*
X1877382Y40712705D02*
X2144048Y41512705D01*
D14*
X37733958Y9986877D02*
X38114911Y9986877D01*
X37657768Y9758305D02*
X37924435Y10558305D01*
X37924435Y10558305D02*
X38191101Y9758305D01*
X38914911Y9758305D02*
X38648244Y10139258D01*
X38457768Y9758305D02*
X38457768Y10558305D01*
X38457768Y10558305D02*
X38762530Y10558305D01*
X38762530Y10558305D02*
X38838720Y10520210D01*
X38838720Y10520210D02*
X38876815Y10482115D01*
X38876815Y10482115D02*
X38914911Y10405924D01*
X38914911Y10405924D02*
X38914911Y10291639D01*
X38914911Y10291639D02*
X38876815Y10215448D01*
X38876815Y10215448D02*
X38838720Y10177353D01*
X38838720Y10177353D02*
X38762530Y10139258D01*
X38762530Y10139258D02*
X38457768Y10139258D01*
X39257768Y10177353D02*
X39524434Y10177353D01*
X39638720Y9758305D02*
X39257768Y9758305D01*
X39257768Y9758305D02*
X39257768Y10558305D01*
X39257768Y10558305D02*
X39638720Y10558305D01*
X40248244Y10177353D02*
X39981578Y10177353D01*
X39981578Y9758305D02*
X39981578Y10558305D01*
X39981578Y10558305D02*
X40362530Y10558305D01*
X58299435Y85802781D02*
X58918482Y85802781D01*
X58918482Y85802781D02*
X58585149Y85421829D01*
X58585149Y85421829D02*
X58728006Y85421829D01*
X58728006Y85421829D02*
X58823244Y85374210D01*
X58823244Y85374210D02*
X58870863Y85326591D01*
X58870863Y85326591D02*
X58918482Y85231353D01*
X58918482Y85231353D02*
X58918482Y84993258D01*
X58918482Y84993258D02*
X58870863Y84898020D01*
X58870863Y84898020D02*
X58823244Y84850400D01*
X58823244Y84850400D02*
X58728006Y84802781D01*
X58728006Y84802781D02*
X58442292Y84802781D01*
X58442292Y84802781D02*
X58347054Y84850400D01*
X58347054Y84850400D02*
X58299435Y84898020D01*
X44020209Y15883899D02*
X44058304Y15960089D01*
X44058304Y15960089D02*
X44058304Y16074375D01*
X44058304Y16074375D02*
X44020209Y16188661D01*
X44020209Y16188661D02*
X43944019Y16264851D01*
X43944019Y16264851D02*
X43867828Y16302946D01*
X43867828Y16302946D02*
X43715447Y16341042D01*
X43715447Y16341042D02*
X43601161Y16341042D01*
X43601161Y16341042D02*
X43448780Y16302946D01*
X43448780Y16302946D02*
X43372590Y16264851D01*
X43372590Y16264851D02*
X43296400Y16188661D01*
X43296400Y16188661D02*
X43258304Y16074375D01*
X43258304Y16074375D02*
X43258304Y15998184D01*
X43258304Y15998184D02*
X43296400Y15883899D01*
X43296400Y15883899D02*
X43334495Y15845803D01*
X43334495Y15845803D02*
X43601161Y15845803D01*
X43601161Y15845803D02*
X43601161Y15998184D01*
X43258304Y15502946D02*
X44058304Y15502946D01*
X44058304Y15502946D02*
X43258304Y15045803D01*
X43258304Y15045803D02*
X44058304Y15045803D01*
X43258304Y14664851D02*
X44058304Y14664851D01*
X44058304Y14664851D02*
X44058304Y14474375D01*
X44058304Y14474375D02*
X44020209Y14360089D01*
X44020209Y14360089D02*
X43944019Y14283899D01*
X43944019Y14283899D02*
X43867828Y14245804D01*
X43867828Y14245804D02*
X43715447Y14207708D01*
X43715447Y14207708D02*
X43601161Y14207708D01*
X43601161Y14207708D02*
X43448780Y14245804D01*
X43448780Y14245804D02*
X43372590Y14283899D01*
X43372590Y14283899D02*
X43296400Y14360089D01*
X43296400Y14360089D02*
X43258304Y14474375D01*
X43258304Y14474375D02*
X43258304Y14664851D01*
D13*
X163095Y45850800D02*
X277381Y45812705D01*
X277381Y45812705D02*
X467857Y45812705D01*
X467857Y45812705D02*
X544048Y45850800D01*
X544048Y45850800D02*
X582143Y45888896D01*
X582143Y45888896D02*
X620238Y45965086D01*
X620238Y45965086D02*
X620238Y46041277D01*
X620238Y46041277D02*
X582143Y46117467D01*
X582143Y46117467D02*
X544048Y46155562D01*
X544048Y46155562D02*
X467857Y46193658D01*
X467857Y46193658D02*
X315476Y46231753D01*
X315476Y46231753D02*
X239286Y46269848D01*
X239286Y46269848D02*
X201191Y46307943D01*
X201191Y46307943D02*
X163095Y46384134D01*
X163095Y46384134D02*
X163095Y46460324D01*
X163095Y46460324D02*
X201191Y46536515D01*
X201191Y46536515D02*
X239286Y46574610D01*
X239286Y46574610D02*
X315476Y46612705D01*
X315476Y46612705D02*
X505953Y46612705D01*
X505953Y46612705D02*
X620238Y46574610D01*
X1115477Y46193658D02*
X1115477Y45812705D01*
X848810Y46612705D02*
X1115477Y46193658D01*
X1115477Y46193658D02*
X1382143Y46612705D01*
X1648810Y45812705D02*
X1648810Y46612705D01*
X1648810Y46612705D02*
X2105953Y45812705D01*
X2105953Y45812705D02*
X2105953Y46612705D01*
X2944048Y45888896D02*
X2905952Y45850800D01*
X2905952Y45850800D02*
X2791667Y45812705D01*
X2791667Y45812705D02*
X2715476Y45812705D01*
X2715476Y45812705D02*
X2601190Y45850800D01*
X2601190Y45850800D02*
X2525000Y45926991D01*
X2525000Y45926991D02*
X2486905Y46003181D01*
X2486905Y46003181D02*
X2448809Y46155562D01*
X2448809Y46155562D02*
X2448809Y46269848D01*
X2448809Y46269848D02*
X2486905Y46422229D01*
X2486905Y46422229D02*
X2525000Y46498420D01*
X2525000Y46498420D02*
X2601190Y46574610D01*
X2601190Y46574610D02*
X2715476Y46612705D01*
X2715476Y46612705D02*
X2791667Y46612705D01*
X2791667Y46612705D02*
X2905952Y46574610D01*
X2905952Y46574610D02*
X2944048Y46536515D01*
X620238Y38974610D02*
X544048Y39012705D01*
X544048Y39012705D02*
X429762Y39012705D01*
X429762Y39012705D02*
X315476Y38974610D01*
X315476Y38974610D02*
X239286Y38898420D01*
X239286Y38898420D02*
X201191Y38822229D01*
X201191Y38822229D02*
X163095Y38669848D01*
X163095Y38669848D02*
X163095Y38555562D01*
X163095Y38555562D02*
X201191Y38403181D01*
X201191Y38403181D02*
X239286Y38326991D01*
X239286Y38326991D02*
X315476Y38250800D01*
X315476Y38250800D02*
X429762Y38212705D01*
X429762Y38212705D02*
X505953Y38212705D01*
X505953Y38212705D02*
X620238Y38250800D01*
X620238Y38250800D02*
X658334Y38288896D01*
X658334Y38288896D02*
X658334Y38555562D01*
X658334Y38555562D02*
X505953Y38555562D01*
X1001191Y38212705D02*
X1001191Y39012705D01*
X1001191Y39012705D02*
X1458334Y38212705D01*
X1458334Y38212705D02*
X1458334Y39012705D01*
X1839286Y38212705D02*
X1839286Y39012705D01*
X1839286Y39012705D02*
X2029762Y39012705D01*
X2029762Y39012705D02*
X2144048Y38974610D01*
X2144048Y38974610D02*
X2220238Y38898420D01*
X2220238Y38898420D02*
X2258333Y38822229D01*
X2258333Y38822229D02*
X2296429Y38669848D01*
X2296429Y38669848D02*
X2296429Y38555562D01*
X2296429Y38555562D02*
X2258333Y38403181D01*
X2258333Y38403181D02*
X2220238Y38326991D01*
X2220238Y38326991D02*
X2144048Y38250800D01*
X2144048Y38250800D02*
X2029762Y38212705D01*
X2029762Y38212705D02*
X1839286Y38212705D01*
X9088878Y35629888D02*
X9041259Y35487031D01*
X9041259Y35487031D02*
X8993640Y35439412D01*
X8993640Y35439412D02*
X8898402Y35391793D01*
X8898402Y35391793D02*
X8755545Y35391793D01*
X8755545Y35391793D02*
X8660307Y35439412D01*
X8660307Y35439412D02*
X8612688Y35487031D01*
X8612688Y35487031D02*
X8565068Y35582269D01*
X8565068Y35582269D02*
X8565068Y35963221D01*
X8565068Y35963221D02*
X9565068Y35963221D01*
X9565068Y35963221D02*
X9565068Y35629888D01*
X9565068Y35629888D02*
X9517449Y35534650D01*
X9517449Y35534650D02*
X9469830Y35487031D01*
X9469830Y35487031D02*
X9374592Y35439412D01*
X9374592Y35439412D02*
X9279354Y35439412D01*
X9279354Y35439412D02*
X9184116Y35487031D01*
X9184116Y35487031D02*
X9136497Y35534650D01*
X9136497Y35534650D02*
X9088878Y35629888D01*
X9088878Y35629888D02*
X9088878Y35963221D01*
X8565068Y34391793D02*
X9041259Y34725126D01*
X8565068Y34963221D02*
X9565068Y34963221D01*
X9565068Y34963221D02*
X9565068Y34582269D01*
X9565068Y34582269D02*
X9517449Y34487031D01*
X9517449Y34487031D02*
X9469830Y34439412D01*
X9469830Y34439412D02*
X9374592Y34391793D01*
X9374592Y34391793D02*
X9231735Y34391793D01*
X9231735Y34391793D02*
X9136497Y34439412D01*
X9136497Y34439412D02*
X9088878Y34487031D01*
X9088878Y34487031D02*
X9041259Y34582269D01*
X9041259Y34582269D02*
X9041259Y34963221D01*
X9088878Y33963221D02*
X9088878Y33629888D01*
X8565068Y33487031D02*
X8565068Y33963221D01*
X8565068Y33963221D02*
X9565068Y33963221D01*
X9565068Y33963221D02*
X9565068Y33487031D01*
X8850783Y33106078D02*
X8850783Y32629888D01*
X8565068Y33201316D02*
X9565068Y32867983D01*
X9565068Y32867983D02*
X8565068Y32534650D01*
X8565068Y32201316D02*
X9565068Y32201316D01*
X9565068Y32201316D02*
X9565068Y31963221D01*
X9565068Y31963221D02*
X9517449Y31820364D01*
X9517449Y31820364D02*
X9422211Y31725126D01*
X9422211Y31725126D02*
X9326973Y31677507D01*
X9326973Y31677507D02*
X9136497Y31629888D01*
X9136497Y31629888D02*
X8993640Y31629888D01*
X8993640Y31629888D02*
X8803164Y31677507D01*
X8803164Y31677507D02*
X8707926Y31725126D01*
X8707926Y31725126D02*
X8612688Y31820364D01*
X8612688Y31820364D02*
X8565068Y31963221D01*
X8565068Y31963221D02*
X8565068Y32201316D01*
X8612688Y30487030D02*
X8565068Y30344173D01*
X8565068Y30344173D02*
X8565068Y30106078D01*
X8565068Y30106078D02*
X8612688Y30010840D01*
X8612688Y30010840D02*
X8660307Y29963221D01*
X8660307Y29963221D02*
X8755545Y29915602D01*
X8755545Y29915602D02*
X8850783Y29915602D01*
X8850783Y29915602D02*
X8946021Y29963221D01*
X8946021Y29963221D02*
X8993640Y30010840D01*
X8993640Y30010840D02*
X9041259Y30106078D01*
X9041259Y30106078D02*
X9088878Y30296554D01*
X9088878Y30296554D02*
X9136497Y30391792D01*
X9136497Y30391792D02*
X9184116Y30439411D01*
X9184116Y30439411D02*
X9279354Y30487030D01*
X9279354Y30487030D02*
X9374592Y30487030D01*
X9374592Y30487030D02*
X9469830Y30439411D01*
X9469830Y30439411D02*
X9517449Y30391792D01*
X9517449Y30391792D02*
X9565068Y30296554D01*
X9565068Y30296554D02*
X9565068Y30058459D01*
X9565068Y30058459D02*
X9517449Y29915602D01*
X8565068Y29344173D02*
X8612688Y29439411D01*
X8612688Y29439411D02*
X8707926Y29487030D01*
X8707926Y29487030D02*
X9565068Y29487030D01*
X8565068Y28963220D02*
X9231735Y28963220D01*
X9565068Y28963220D02*
X9517449Y29010839D01*
X9517449Y29010839D02*
X9469830Y28963220D01*
X9469830Y28963220D02*
X9517449Y28915601D01*
X9517449Y28915601D02*
X9565068Y28963220D01*
X9565068Y28963220D02*
X9469830Y28963220D01*
X8612688Y28058459D02*
X8565068Y28153697D01*
X8565068Y28153697D02*
X8565068Y28344173D01*
X8565068Y28344173D02*
X8612688Y28439411D01*
X8612688Y28439411D02*
X8660307Y28487030D01*
X8660307Y28487030D02*
X8755545Y28534649D01*
X8755545Y28534649D02*
X9041259Y28534649D01*
X9041259Y28534649D02*
X9136497Y28487030D01*
X9136497Y28487030D02*
X9184116Y28439411D01*
X9184116Y28439411D02*
X9231735Y28344173D01*
X9231735Y28344173D02*
X9231735Y28153697D01*
X9231735Y28153697D02*
X9184116Y28058459D01*
X8612688Y27248935D02*
X8565068Y27344173D01*
X8565068Y27344173D02*
X8565068Y27534649D01*
X8565068Y27534649D02*
X8612688Y27629887D01*
X8612688Y27629887D02*
X8707926Y27677506D01*
X8707926Y27677506D02*
X9088878Y27677506D01*
X9088878Y27677506D02*
X9184116Y27629887D01*
X9184116Y27629887D02*
X9231735Y27534649D01*
X9231735Y27534649D02*
X9231735Y27344173D01*
X9231735Y27344173D02*
X9184116Y27248935D01*
X9184116Y27248935D02*
X9088878Y27201316D01*
X9088878Y27201316D02*
X8993640Y27201316D01*
X8993640Y27201316D02*
X8898402Y27677506D01*
X7955124Y36106078D02*
X7955124Y35534650D01*
X6955124Y35820364D02*
X7955124Y35820364D01*
X7002744Y34820364D02*
X6955124Y34915602D01*
X6955124Y34915602D02*
X6955124Y35106078D01*
X6955124Y35106078D02*
X7002744Y35201316D01*
X7002744Y35201316D02*
X7097982Y35248935D01*
X7097982Y35248935D02*
X7478934Y35248935D01*
X7478934Y35248935D02*
X7574172Y35201316D01*
X7574172Y35201316D02*
X7621791Y35106078D01*
X7621791Y35106078D02*
X7621791Y34915602D01*
X7621791Y34915602D02*
X7574172Y34820364D01*
X7574172Y34820364D02*
X7478934Y34772745D01*
X7478934Y34772745D02*
X7383696Y34772745D01*
X7383696Y34772745D02*
X7288458Y35248935D01*
X6955124Y34344173D02*
X7621791Y34344173D01*
X7526553Y34344173D02*
X7574172Y34296554D01*
X7574172Y34296554D02*
X7621791Y34201316D01*
X7621791Y34201316D02*
X7621791Y34058459D01*
X7621791Y34058459D02*
X7574172Y33963221D01*
X7574172Y33963221D02*
X7478934Y33915602D01*
X7478934Y33915602D02*
X6955124Y33915602D01*
X7478934Y33915602D02*
X7574172Y33867983D01*
X7574172Y33867983D02*
X7621791Y33772745D01*
X7621791Y33772745D02*
X7621791Y33629888D01*
X7621791Y33629888D02*
X7574172Y33534649D01*
X7574172Y33534649D02*
X7478934Y33487030D01*
X7478934Y33487030D02*
X6955124Y33487030D01*
X7621791Y33010840D02*
X6621791Y33010840D01*
X7574172Y33010840D02*
X7621791Y32915602D01*
X7621791Y32915602D02*
X7621791Y32725126D01*
X7621791Y32725126D02*
X7574172Y32629888D01*
X7574172Y32629888D02*
X7526553Y32582269D01*
X7526553Y32582269D02*
X7431315Y32534650D01*
X7431315Y32534650D02*
X7145601Y32534650D01*
X7145601Y32534650D02*
X7050363Y32582269D01*
X7050363Y32582269D02*
X7002744Y32629888D01*
X7002744Y32629888D02*
X6955124Y32725126D01*
X6955124Y32725126D02*
X6955124Y32915602D01*
X6955124Y32915602D02*
X7002744Y33010840D01*
X6955124Y31963221D02*
X7002744Y32058459D01*
X7002744Y32058459D02*
X7097982Y32106078D01*
X7097982Y32106078D02*
X7955124Y32106078D01*
X6955124Y31153697D02*
X7478934Y31153697D01*
X7478934Y31153697D02*
X7574172Y31201316D01*
X7574172Y31201316D02*
X7621791Y31296554D01*
X7621791Y31296554D02*
X7621791Y31487030D01*
X7621791Y31487030D02*
X7574172Y31582268D01*
X7002744Y31153697D02*
X6955124Y31248935D01*
X6955124Y31248935D02*
X6955124Y31487030D01*
X6955124Y31487030D02*
X7002744Y31582268D01*
X7002744Y31582268D02*
X7097982Y31629887D01*
X7097982Y31629887D02*
X7193220Y31629887D01*
X7193220Y31629887D02*
X7288458Y31582268D01*
X7288458Y31582268D02*
X7336077Y31487030D01*
X7336077Y31487030D02*
X7336077Y31248935D01*
X7336077Y31248935D02*
X7383696Y31153697D01*
X7621791Y30820363D02*
X7621791Y30439411D01*
X7955124Y30677506D02*
X7097982Y30677506D01*
X7097982Y30677506D02*
X7002744Y30629887D01*
X7002744Y30629887D02*
X6955124Y30534649D01*
X6955124Y30534649D02*
X6955124Y30439411D01*
X7002744Y29725125D02*
X6955124Y29820363D01*
X6955124Y29820363D02*
X6955124Y30010839D01*
X6955124Y30010839D02*
X7002744Y30106077D01*
X7002744Y30106077D02*
X7097982Y30153696D01*
X7097982Y30153696D02*
X7478934Y30153696D01*
X7478934Y30153696D02*
X7574172Y30106077D01*
X7574172Y30106077D02*
X7621791Y30010839D01*
X7621791Y30010839D02*
X7621791Y29820363D01*
X7621791Y29820363D02*
X7574172Y29725125D01*
X7574172Y29725125D02*
X7478934Y29677506D01*
X7478934Y29677506D02*
X7383696Y29677506D01*
X7383696Y29677506D02*
X7288458Y30153696D01*
X7050363Y29248934D02*
X7002744Y29201315D01*
X7002744Y29201315D02*
X6955124Y29248934D01*
X6955124Y29248934D02*
X7002744Y29296553D01*
X7002744Y29296553D02*
X7050363Y29248934D01*
X7050363Y29248934D02*
X6955124Y29248934D01*
X7574172Y29248934D02*
X7526553Y29201315D01*
X7526553Y29201315D02*
X7478934Y29248934D01*
X7478934Y29248934D02*
X7526553Y29296553D01*
X7526553Y29296553D02*
X7574172Y29248934D01*
X7574172Y29248934D02*
X7478934Y29248934D01*
X5726133Y35963221D02*
X5726133Y35201316D01*
X6011847Y34725126D02*
X5726133Y33963221D01*
X5726133Y33963221D02*
X5440419Y34725126D01*
X6011847Y32867983D02*
X6011847Y32487031D01*
X6345180Y32725126D02*
X5488038Y32725126D01*
X5488038Y32725126D02*
X5392800Y32677507D01*
X5392800Y32677507D02*
X5345180Y32582269D01*
X5345180Y32582269D02*
X5345180Y32487031D01*
X5345180Y32153697D02*
X6345180Y32153697D01*
X5345180Y31725126D02*
X5868990Y31725126D01*
X5868990Y31725126D02*
X5964228Y31772745D01*
X5964228Y31772745D02*
X6011847Y31867983D01*
X6011847Y31867983D02*
X6011847Y32010840D01*
X6011847Y32010840D02*
X5964228Y32106078D01*
X5964228Y32106078D02*
X5916609Y32153697D01*
X5345180Y31248935D02*
X6345180Y31248935D01*
X6345180Y31248935D02*
X6345180Y30867983D01*
X6345180Y30867983D02*
X6297561Y30772745D01*
X6297561Y30772745D02*
X6249942Y30725126D01*
X6249942Y30725126D02*
X6154704Y30677507D01*
X6154704Y30677507D02*
X6011847Y30677507D01*
X6011847Y30677507D02*
X5916609Y30725126D01*
X5916609Y30725126D02*
X5868990Y30772745D01*
X5868990Y30772745D02*
X5821371Y30867983D01*
X5821371Y30867983D02*
X5821371Y31248935D01*
X5345180Y30248935D02*
X6011847Y30248935D01*
X5821371Y30248935D02*
X5916609Y30201316D01*
X5916609Y30201316D02*
X5964228Y30153697D01*
X5964228Y30153697D02*
X6011847Y30058459D01*
X6011847Y30058459D02*
X6011847Y29963221D01*
X5345180Y29487030D02*
X5392800Y29582268D01*
X5392800Y29582268D02*
X5440419Y29629887D01*
X5440419Y29629887D02*
X5535657Y29677506D01*
X5535657Y29677506D02*
X5821371Y29677506D01*
X5821371Y29677506D02*
X5916609Y29629887D01*
X5916609Y29629887D02*
X5964228Y29582268D01*
X5964228Y29582268D02*
X6011847Y29487030D01*
X6011847Y29487030D02*
X6011847Y29344173D01*
X6011847Y29344173D02*
X5964228Y29248935D01*
X5964228Y29248935D02*
X5916609Y29201316D01*
X5916609Y29201316D02*
X5821371Y29153697D01*
X5821371Y29153697D02*
X5535657Y29153697D01*
X5535657Y29153697D02*
X5440419Y29201316D01*
X5440419Y29201316D02*
X5392800Y29248935D01*
X5392800Y29248935D02*
X5345180Y29344173D01*
X5345180Y29344173D02*
X5345180Y29487030D01*
X6011847Y28867982D02*
X6011847Y28487030D01*
X6345180Y28725125D02*
X5488038Y28725125D01*
X5488038Y28725125D02*
X5392800Y28677506D01*
X5392800Y28677506D02*
X5345180Y28582268D01*
X5345180Y28582268D02*
X5345180Y28487030D01*
X5345180Y28010839D02*
X5392800Y28106077D01*
X5392800Y28106077D02*
X5440419Y28153696D01*
X5440419Y28153696D02*
X5535657Y28201315D01*
X5535657Y28201315D02*
X5821371Y28201315D01*
X5821371Y28201315D02*
X5916609Y28153696D01*
X5916609Y28153696D02*
X5964228Y28106077D01*
X5964228Y28106077D02*
X6011847Y28010839D01*
X6011847Y28010839D02*
X6011847Y27867982D01*
X6011847Y27867982D02*
X5964228Y27772744D01*
X5964228Y27772744D02*
X5916609Y27725125D01*
X5916609Y27725125D02*
X5821371Y27677506D01*
X5821371Y27677506D02*
X5535657Y27677506D01*
X5535657Y27677506D02*
X5440419Y27725125D01*
X5440419Y27725125D02*
X5392800Y27772744D01*
X5392800Y27772744D02*
X5345180Y27867982D01*
X5345180Y27867982D02*
X5345180Y28010839D01*
X3782856Y36010840D02*
X3735236Y35867983D01*
X3735236Y35867983D02*
X3735236Y35629888D01*
X3735236Y35629888D02*
X3782856Y35534650D01*
X3782856Y35534650D02*
X3830475Y35487031D01*
X3830475Y35487031D02*
X3925713Y35439412D01*
X3925713Y35439412D02*
X4020951Y35439412D01*
X4020951Y35439412D02*
X4116189Y35487031D01*
X4116189Y35487031D02*
X4163808Y35534650D01*
X4163808Y35534650D02*
X4211427Y35629888D01*
X4211427Y35629888D02*
X4259046Y35820364D01*
X4259046Y35820364D02*
X4306665Y35915602D01*
X4306665Y35915602D02*
X4354284Y35963221D01*
X4354284Y35963221D02*
X4449522Y36010840D01*
X4449522Y36010840D02*
X4544760Y36010840D01*
X4544760Y36010840D02*
X4639998Y35963221D01*
X4639998Y35963221D02*
X4687617Y35915602D01*
X4687617Y35915602D02*
X4735236Y35820364D01*
X4735236Y35820364D02*
X4735236Y35582269D01*
X4735236Y35582269D02*
X4687617Y35439412D01*
X3735236Y34534650D02*
X3735236Y35010840D01*
X3735236Y35010840D02*
X4735236Y35010840D01*
X3830475Y33629888D02*
X3782856Y33677507D01*
X3782856Y33677507D02*
X3735236Y33820364D01*
X3735236Y33820364D02*
X3735236Y33915602D01*
X3735236Y33915602D02*
X3782856Y34058459D01*
X3782856Y34058459D02*
X3878094Y34153697D01*
X3878094Y34153697D02*
X3973332Y34201316D01*
X3973332Y34201316D02*
X4163808Y34248935D01*
X4163808Y34248935D02*
X4306665Y34248935D01*
X4306665Y34248935D02*
X4497141Y34201316D01*
X4497141Y34201316D02*
X4592379Y34153697D01*
X4592379Y34153697D02*
X4687617Y34058459D01*
X4687617Y34058459D02*
X4735236Y33915602D01*
X4735236Y33915602D02*
X4735236Y33820364D01*
X4735236Y33820364D02*
X4687617Y33677507D01*
X4687617Y33677507D02*
X4639998Y33629888D01*
X3639998Y33439411D02*
X3639998Y32677507D01*
X3735236Y32439411D02*
X4735236Y32439411D01*
X4735236Y32439411D02*
X4735236Y32058459D01*
X4735236Y32058459D02*
X4687617Y31963221D01*
X4687617Y31963221D02*
X4639998Y31915602D01*
X4639998Y31915602D02*
X4544760Y31867983D01*
X4544760Y31867983D02*
X4401903Y31867983D01*
X4401903Y31867983D02*
X4306665Y31915602D01*
X4306665Y31915602D02*
X4259046Y31963221D01*
X4259046Y31963221D02*
X4211427Y32058459D01*
X4211427Y32058459D02*
X4211427Y32439411D01*
X3735236Y30867983D02*
X4211427Y31201316D01*
X3735236Y31439411D02*
X4735236Y31439411D01*
X4735236Y31439411D02*
X4735236Y31058459D01*
X4735236Y31058459D02*
X4687617Y30963221D01*
X4687617Y30963221D02*
X4639998Y30915602D01*
X4639998Y30915602D02*
X4544760Y30867983D01*
X4544760Y30867983D02*
X4401903Y30867983D01*
X4401903Y30867983D02*
X4306665Y30915602D01*
X4306665Y30915602D02*
X4259046Y30963221D01*
X4259046Y30963221D02*
X4211427Y31058459D01*
X4211427Y31058459D02*
X4211427Y31439411D01*
X4735236Y30582268D02*
X4735236Y30010840D01*
X3735236Y30296554D02*
X4735236Y30296554D01*
X4735236Y29487030D02*
X4735236Y29296554D01*
X4735236Y29296554D02*
X4687617Y29201316D01*
X4687617Y29201316D02*
X4592379Y29106078D01*
X4592379Y29106078D02*
X4401903Y29058459D01*
X4401903Y29058459D02*
X4068570Y29058459D01*
X4068570Y29058459D02*
X3878094Y29106078D01*
X3878094Y29106078D02*
X3782856Y29201316D01*
X3782856Y29201316D02*
X3735236Y29296554D01*
X3735236Y29296554D02*
X3735236Y29487030D01*
X3735236Y29487030D02*
X3782856Y29582268D01*
X3782856Y29582268D02*
X3878094Y29677506D01*
X3878094Y29677506D02*
X4068570Y29725125D01*
X4068570Y29725125D02*
X4401903Y29725125D01*
X4401903Y29725125D02*
X4592379Y29677506D01*
X4592379Y29677506D02*
X4687617Y29582268D01*
X4687617Y29582268D02*
X4735236Y29487030D01*
X2125292Y35391793D02*
X2601483Y35725126D01*
X2125292Y35963221D02*
X3125292Y35963221D01*
X3125292Y35963221D02*
X3125292Y35582269D01*
X3125292Y35582269D02*
X3077673Y35487031D01*
X3077673Y35487031D02*
X3030054Y35439412D01*
X3030054Y35439412D02*
X2934816Y35391793D01*
X2934816Y35391793D02*
X2791959Y35391793D01*
X2791959Y35391793D02*
X2696721Y35439412D01*
X2696721Y35439412D02*
X2649102Y35487031D01*
X2649102Y35487031D02*
X2601483Y35582269D01*
X2601483Y35582269D02*
X2601483Y35963221D01*
X3030054Y35010840D02*
X3077673Y34963221D01*
X3077673Y34963221D02*
X3125292Y34867983D01*
X3125292Y34867983D02*
X3125292Y34629888D01*
X3125292Y34629888D02*
X3077673Y34534650D01*
X3077673Y34534650D02*
X3030054Y34487031D01*
X3030054Y34487031D02*
X2934816Y34439412D01*
X2934816Y34439412D02*
X2839578Y34439412D01*
X2839578Y34439412D02*
X2696721Y34487031D01*
X2696721Y34487031D02*
X2125292Y35058459D01*
X2125292Y35058459D02*
X2125292Y34439412D01*
X3125292Y33058459D02*
X3125292Y32963221D01*
X3125292Y32963221D02*
X3077673Y32867983D01*
X3077673Y32867983D02*
X3030054Y32820364D01*
X3030054Y32820364D02*
X2934816Y32772745D01*
X2934816Y32772745D02*
X2744340Y32725126D01*
X2744340Y32725126D02*
X2506245Y32725126D01*
X2506245Y32725126D02*
X2315769Y32772745D01*
X2315769Y32772745D02*
X2220531Y32820364D01*
X2220531Y32820364D02*
X2172912Y32867983D01*
X2172912Y32867983D02*
X2125292Y32963221D01*
X2125292Y32963221D02*
X2125292Y33058459D01*
X2125292Y33058459D02*
X2172912Y33153697D01*
X2172912Y33153697D02*
X2220531Y33201316D01*
X2220531Y33201316D02*
X2315769Y33248935D01*
X2315769Y33248935D02*
X2506245Y33296554D01*
X2506245Y33296554D02*
X2744340Y33296554D01*
X2744340Y33296554D02*
X2934816Y33248935D01*
X2934816Y33248935D02*
X3030054Y33201316D01*
X3030054Y33201316D02*
X3077673Y33153697D01*
X3077673Y33153697D02*
X3125292Y33058459D01*
X2791959Y31867983D02*
X2125292Y31867983D01*
X3172912Y32106078D02*
X2458626Y32344173D01*
X2458626Y32344173D02*
X2458626Y31725126D01*
X2506245Y31344173D02*
X2506245Y30582268D01*
X3030054Y30153697D02*
X3077673Y30106078D01*
X3077673Y30106078D02*
X3125292Y30010840D01*
X3125292Y30010840D02*
X3125292Y29772745D01*
X3125292Y29772745D02*
X3077673Y29677507D01*
X3077673Y29677507D02*
X3030054Y29629888D01*
X3030054Y29629888D02*
X2934816Y29582269D01*
X2934816Y29582269D02*
X2839578Y29582269D01*
X2839578Y29582269D02*
X2696721Y29629888D01*
X2696721Y29629888D02*
X2125292Y30201316D01*
X2125292Y30201316D02*
X2125292Y29582269D01*
X3125292Y28963221D02*
X3125292Y28867983D01*
X3125292Y28867983D02*
X3077673Y28772745D01*
X3077673Y28772745D02*
X3030054Y28725126D01*
X3030054Y28725126D02*
X2934816Y28677507D01*
X2934816Y28677507D02*
X2744340Y28629888D01*
X2744340Y28629888D02*
X2506245Y28629888D01*
X2506245Y28629888D02*
X2315769Y28677507D01*
X2315769Y28677507D02*
X2220531Y28725126D01*
X2220531Y28725126D02*
X2172912Y28772745D01*
X2172912Y28772745D02*
X2125292Y28867983D01*
X2125292Y28867983D02*
X2125292Y28963221D01*
X2125292Y28963221D02*
X2172912Y29058459D01*
X2172912Y29058459D02*
X2220531Y29106078D01*
X2220531Y29106078D02*
X2315769Y29153697D01*
X2315769Y29153697D02*
X2506245Y29201316D01*
X2506245Y29201316D02*
X2744340Y29201316D01*
X2744340Y29201316D02*
X2934816Y29153697D01*
X2934816Y29153697D02*
X3030054Y29106078D01*
X3030054Y29106078D02*
X3077673Y29058459D01*
X3077673Y29058459D02*
X3125292Y28963221D01*
X3030054Y28248935D02*
X3077673Y28201316D01*
X3077673Y28201316D02*
X3125292Y28106078D01*
X3125292Y28106078D02*
X3125292Y27867983D01*
X3125292Y27867983D02*
X3077673Y27772745D01*
X3077673Y27772745D02*
X3030054Y27725126D01*
X3030054Y27725126D02*
X2934816Y27677507D01*
X2934816Y27677507D02*
X2839578Y27677507D01*
X2839578Y27677507D02*
X2696721Y27725126D01*
X2696721Y27725126D02*
X2125292Y28296554D01*
X2125292Y28296554D02*
X2125292Y27677507D01*
X3125292Y26772745D02*
X3125292Y27248935D01*
X3125292Y27248935D02*
X2649102Y27296554D01*
X2649102Y27296554D02*
X2696721Y27248935D01*
X2696721Y27248935D02*
X2744340Y27153697D01*
X2744340Y27153697D02*
X2744340Y26915602D01*
X2744340Y26915602D02*
X2696721Y26820364D01*
X2696721Y26820364D02*
X2649102Y26772745D01*
X2649102Y26772745D02*
X2553864Y26725126D01*
X2553864Y26725126D02*
X2315769Y26725126D01*
X2315769Y26725126D02*
X2220531Y26772745D01*
X2220531Y26772745D02*
X2172912Y26820364D01*
X2172912Y26820364D02*
X2125292Y26915602D01*
X2125292Y26915602D02*
X2125292Y27153697D01*
X2125292Y27153697D02*
X2172912Y27248935D01*
X2172912Y27248935D02*
X2220531Y27296554D01*
X620238Y61824610D02*
X544048Y61862705D01*
X544048Y61862705D02*
X429762Y61862705D01*
X429762Y61862705D02*
X315476Y61824610D01*
X315476Y61824610D02*
X239286Y61748420D01*
X239286Y61748420D02*
X201191Y61672229D01*
X201191Y61672229D02*
X163095Y61519848D01*
X163095Y61519848D02*
X163095Y61405562D01*
X163095Y61405562D02*
X201191Y61253181D01*
X201191Y61253181D02*
X239286Y61176991D01*
X239286Y61176991D02*
X315476Y61100800D01*
X315476Y61100800D02*
X429762Y61062705D01*
X429762Y61062705D02*
X505953Y61062705D01*
X505953Y61062705D02*
X620238Y61100800D01*
X620238Y61100800D02*
X658334Y61138896D01*
X658334Y61138896D02*
X658334Y61405562D01*
X658334Y61405562D02*
X505953Y61405562D01*
X1001191Y61062705D02*
X1001191Y61862705D01*
X1001191Y61862705D02*
X1458334Y61062705D01*
X1458334Y61062705D02*
X1458334Y61862705D01*
X1839286Y61062705D02*
X1839286Y61862705D01*
X1839286Y61862705D02*
X2029762Y61862705D01*
X2029762Y61862705D02*
X2144048Y61824610D01*
X2144048Y61824610D02*
X2220238Y61748420D01*
X2220238Y61748420D02*
X2258333Y61672229D01*
X2258333Y61672229D02*
X2296429Y61519848D01*
X2296429Y61519848D02*
X2296429Y61405562D01*
X2296429Y61405562D02*
X2258333Y61253181D01*
X2258333Y61253181D02*
X2220238Y61176991D01*
X2220238Y61176991D02*
X2144048Y61100800D01*
X2144048Y61100800D02*
X2029762Y61062705D01*
X2029762Y61062705D02*
X1839286Y61062705D01*
D14*
X59693482Y44052781D02*
X59122054Y44052781D01*
X59407768Y44052781D02*
X59407768Y45052781D01*
X59407768Y45052781D02*
X59312530Y44909924D01*
X59312530Y44909924D02*
X59217292Y44814686D01*
X59217292Y44814686D02*
X59122054Y44767067D01*
X60074435Y44957543D02*
X60122054Y45005162D01*
X60122054Y45005162D02*
X60217292Y45052781D01*
X60217292Y45052781D02*
X60455387Y45052781D01*
X60455387Y45052781D02*
X60550625Y45005162D01*
X60550625Y45005162D02*
X60598244Y44957543D01*
X60598244Y44957543D02*
X60645863Y44862305D01*
X60645863Y44862305D02*
X60645863Y44767067D01*
X60645863Y44767067D02*
X60598244Y44624210D01*
X60598244Y44624210D02*
X60026816Y44052781D01*
X60026816Y44052781D02*
X60645863Y44052781D01*
X12095209Y96133899D02*
X12133304Y96210089D01*
X12133304Y96210089D02*
X12133304Y96324375D01*
X12133304Y96324375D02*
X12095209Y96438661D01*
X12095209Y96438661D02*
X12019019Y96514851D01*
X12019019Y96514851D02*
X11942828Y96552946D01*
X11942828Y96552946D02*
X11790447Y96591042D01*
X11790447Y96591042D02*
X11676161Y96591042D01*
X11676161Y96591042D02*
X11523780Y96552946D01*
X11523780Y96552946D02*
X11447590Y96514851D01*
X11447590Y96514851D02*
X11371400Y96438661D01*
X11371400Y96438661D02*
X11333304Y96324375D01*
X11333304Y96324375D02*
X11333304Y96248184D01*
X11333304Y96248184D02*
X11371400Y96133899D01*
X11371400Y96133899D02*
X11409495Y96095803D01*
X11409495Y96095803D02*
X11676161Y96095803D01*
X11676161Y96095803D02*
X11676161Y96248184D01*
X11333304Y95752946D02*
X12133304Y95752946D01*
X12133304Y95752946D02*
X11333304Y95295803D01*
X11333304Y95295803D02*
X12133304Y95295803D01*
X11333304Y94914851D02*
X12133304Y94914851D01*
X12133304Y94914851D02*
X12133304Y94724375D01*
X12133304Y94724375D02*
X12095209Y94610089D01*
X12095209Y94610089D02*
X12019019Y94533899D01*
X12019019Y94533899D02*
X11942828Y94495804D01*
X11942828Y94495804D02*
X11790447Y94457708D01*
X11790447Y94457708D02*
X11676161Y94457708D01*
X11676161Y94457708D02*
X11523780Y94495804D01*
X11523780Y94495804D02*
X11447590Y94533899D01*
X11447590Y94533899D02*
X11371400Y94610089D01*
X11371400Y94610089D02*
X11333304Y94724375D01*
X11333304Y94724375D02*
X11333304Y94914851D01*
X40811876Y32466042D02*
X40811876Y32085089D01*
X40583304Y32542232D02*
X41383304Y32275565D01*
X41383304Y32275565D02*
X40583304Y32008899D01*
X41383304Y31818423D02*
X41383304Y31285089D01*
X41383304Y31285089D02*
X40583304Y31627947D01*
X40811876Y29799375D02*
X40811876Y29418422D01*
X40583304Y29875565D02*
X41383304Y29608898D01*
X41383304Y29608898D02*
X40583304Y29342232D01*
X41383304Y28732708D02*
X41383304Y28885089D01*
X41383304Y28885089D02*
X41345209Y28961280D01*
X41345209Y28961280D02*
X41307114Y28999375D01*
X41307114Y28999375D02*
X41192828Y29075565D01*
X41192828Y29075565D02*
X41040447Y29113661D01*
X41040447Y29113661D02*
X40735685Y29113661D01*
X40735685Y29113661D02*
X40659495Y29075565D01*
X40659495Y29075565D02*
X40621400Y29037470D01*
X40621400Y29037470D02*
X40583304Y28961280D01*
X40583304Y28961280D02*
X40583304Y28808899D01*
X40583304Y28808899D02*
X40621400Y28732708D01*
X40621400Y28732708D02*
X40659495Y28694613D01*
X40659495Y28694613D02*
X40735685Y28656518D01*
X40735685Y28656518D02*
X40926161Y28656518D01*
X40926161Y28656518D02*
X41002352Y28694613D01*
X41002352Y28694613D02*
X41040447Y28732708D01*
X41040447Y28732708D02*
X41078542Y28808899D01*
X41078542Y28808899D02*
X41078542Y28961280D01*
X41078542Y28961280D02*
X41040447Y29037470D01*
X41040447Y29037470D02*
X41002352Y29075565D01*
X41002352Y29075565D02*
X40926161Y29113661D01*
X40811876Y27132708D02*
X40811876Y26751755D01*
X40583304Y27208898D02*
X41383304Y26942231D01*
X41383304Y26942231D02*
X40583304Y26675565D01*
X41383304Y26485089D02*
X41383304Y25989851D01*
X41383304Y25989851D02*
X41078542Y26256517D01*
X41078542Y26256517D02*
X41078542Y26142232D01*
X41078542Y26142232D02*
X41040447Y26066041D01*
X41040447Y26066041D02*
X41002352Y26027946D01*
X41002352Y26027946D02*
X40926161Y25989851D01*
X40926161Y25989851D02*
X40735685Y25989851D01*
X40735685Y25989851D02*
X40659495Y26027946D01*
X40659495Y26027946D02*
X40621400Y26066041D01*
X40621400Y26066041D02*
X40583304Y26142232D01*
X40583304Y26142232D02*
X40583304Y26370803D01*
X40583304Y26370803D02*
X40621400Y26446994D01*
X40621400Y26446994D02*
X40659495Y26485089D01*
X40811876Y24466041D02*
X40811876Y24085088D01*
X40583304Y24542231D02*
X41383304Y24275564D01*
X41383304Y24275564D02*
X40583304Y24008898D01*
X41307114Y23780327D02*
X41345209Y23742231D01*
X41345209Y23742231D02*
X41383304Y23666041D01*
X41383304Y23666041D02*
X41383304Y23475565D01*
X41383304Y23475565D02*
X41345209Y23399374D01*
X41345209Y23399374D02*
X41307114Y23361279D01*
X41307114Y23361279D02*
X41230923Y23323184D01*
X41230923Y23323184D02*
X41154733Y23323184D01*
X41154733Y23323184D02*
X41040447Y23361279D01*
X41040447Y23361279D02*
X40583304Y23818422D01*
X40583304Y23818422D02*
X40583304Y23323184D01*
X40811876Y22408898D02*
X40811876Y22027945D01*
X40583304Y22485088D02*
X41383304Y22218421D01*
X41383304Y22218421D02*
X40583304Y21951755D01*
X40583304Y21266041D02*
X40583304Y21723184D01*
X40583304Y21494612D02*
X41383304Y21494612D01*
X41383304Y21494612D02*
X41269019Y21570803D01*
X41269019Y21570803D02*
X41192828Y21646993D01*
X41192828Y21646993D02*
X41154733Y21723184D01*
X40811876Y19742231D02*
X40811876Y19361278D01*
X40583304Y19818421D02*
X41383304Y19551754D01*
X41383304Y19551754D02*
X40583304Y19285088D01*
X41383304Y18866040D02*
X41383304Y18789850D01*
X41383304Y18789850D02*
X41345209Y18713659D01*
X41345209Y18713659D02*
X41307114Y18675564D01*
X41307114Y18675564D02*
X41230923Y18637469D01*
X41230923Y18637469D02*
X41078542Y18599374D01*
X41078542Y18599374D02*
X40888066Y18599374D01*
X40888066Y18599374D02*
X40735685Y18637469D01*
X40735685Y18637469D02*
X40659495Y18675564D01*
X40659495Y18675564D02*
X40621400Y18713659D01*
X40621400Y18713659D02*
X40583304Y18789850D01*
X40583304Y18789850D02*
X40583304Y18866040D01*
X40583304Y18866040D02*
X40621400Y18942231D01*
X40621400Y18942231D02*
X40659495Y18980326D01*
X40659495Y18980326D02*
X40735685Y19018421D01*
X40735685Y19018421D02*
X40888066Y19056517D01*
X40888066Y19056517D02*
X41078542Y19056517D01*
X41078542Y19056517D02*
X41230923Y19018421D01*
X41230923Y19018421D02*
X41307114Y18980326D01*
X41307114Y18980326D02*
X41345209Y18942231D01*
X41345209Y18942231D02*
X41383304Y18866040D01*
D12*
X61464378Y52603881D02*
X61121521Y52603881D01*
X61292950Y52603881D02*
X61292950Y53603881D01*
X61292950Y53603881D02*
X61235807Y53461024D01*
X61235807Y53461024D02*
X61178664Y53365786D01*
X61178664Y53365786D02*
X61121521Y53318167D01*
X61835807Y53603881D02*
X61892950Y53603881D01*
X61892950Y53603881D02*
X61950093Y53556262D01*
X61950093Y53556262D02*
X61978665Y53508643D01*
X61978665Y53508643D02*
X62007236Y53413405D01*
X62007236Y53413405D02*
X62035807Y53222929D01*
X62035807Y53222929D02*
X62035807Y52984834D01*
X62035807Y52984834D02*
X62007236Y52794358D01*
X62007236Y52794358D02*
X61978665Y52699120D01*
X61978665Y52699120D02*
X61950093Y52651500D01*
X61950093Y52651500D02*
X61892950Y52603881D01*
X61892950Y52603881D02*
X61835807Y52603881D01*
X61835807Y52603881D02*
X61778665Y52651500D01*
X61778665Y52651500D02*
X61750093Y52699120D01*
X61750093Y52699120D02*
X61721522Y52794358D01*
X61721522Y52794358D02*
X61692950Y52984834D01*
X61692950Y52984834D02*
X61692950Y53222929D01*
X61692950Y53222929D02*
X61721522Y53413405D01*
X61721522Y53413405D02*
X61750093Y53508643D01*
X61750093Y53508643D02*
X61778665Y53556262D01*
X61778665Y53556262D02*
X61835807Y53603881D01*
D14*
X59693482Y49132781D02*
X59122054Y49132781D01*
X59407768Y49132781D02*
X59407768Y50132781D01*
X59407768Y50132781D02*
X59312530Y49989924D01*
X59312530Y49989924D02*
X59217292Y49894686D01*
X59217292Y49894686D02*
X59122054Y49847067D01*
X60312530Y50132781D02*
X60407768Y50132781D01*
X60407768Y50132781D02*
X60503006Y50085162D01*
X60503006Y50085162D02*
X60550625Y50037543D01*
X60550625Y50037543D02*
X60598244Y49942305D01*
X60598244Y49942305D02*
X60645863Y49751829D01*
X60645863Y49751829D02*
X60645863Y49513734D01*
X60645863Y49513734D02*
X60598244Y49323258D01*
X60598244Y49323258D02*
X60550625Y49228020D01*
X60550625Y49228020D02*
X60503006Y49180400D01*
X60503006Y49180400D02*
X60407768Y49132781D01*
X60407768Y49132781D02*
X60312530Y49132781D01*
X60312530Y49132781D02*
X60217292Y49180400D01*
X60217292Y49180400D02*
X60169673Y49228020D01*
X60169673Y49228020D02*
X60122054Y49323258D01*
X60122054Y49323258D02*
X60074435Y49513734D01*
X60074435Y49513734D02*
X60074435Y49751829D01*
X60074435Y49751829D02*
X60122054Y49942305D01*
X60122054Y49942305D02*
X60169673Y50037543D01*
X60169673Y50037543D02*
X60217292Y50085162D01*
X60217292Y50085162D02*
X60312530Y50132781D01*
X27597054Y50483305D02*
X27597054Y51283305D01*
X27597054Y51283305D02*
X27787530Y51283305D01*
X27787530Y51283305D02*
X27901816Y51245210D01*
X27901816Y51245210D02*
X27978006Y51169020D01*
X27978006Y51169020D02*
X28016101Y51092829D01*
X28016101Y51092829D02*
X28054197Y50940448D01*
X28054197Y50940448D02*
X28054197Y50826162D01*
X28054197Y50826162D02*
X28016101Y50673781D01*
X28016101Y50673781D02*
X27978006Y50597591D01*
X27978006Y50597591D02*
X27901816Y50521400D01*
X27901816Y50521400D02*
X27787530Y50483305D01*
X27787530Y50483305D02*
X27597054Y50483305D01*
X28739911Y51283305D02*
X28587530Y51283305D01*
X28587530Y51283305D02*
X28511339Y51245210D01*
X28511339Y51245210D02*
X28473244Y51207115D01*
X28473244Y51207115D02*
X28397054Y51092829D01*
X28397054Y51092829D02*
X28358958Y50940448D01*
X28358958Y50940448D02*
X28358958Y50635686D01*
X28358958Y50635686D02*
X28397054Y50559496D01*
X28397054Y50559496D02*
X28435149Y50521400D01*
X28435149Y50521400D02*
X28511339Y50483305D01*
X28511339Y50483305D02*
X28663720Y50483305D01*
X28663720Y50483305D02*
X28739911Y50521400D01*
X28739911Y50521400D02*
X28778006Y50559496D01*
X28778006Y50559496D02*
X28816101Y50635686D01*
X28816101Y50635686D02*
X28816101Y50826162D01*
X28816101Y50826162D02*
X28778006Y50902353D01*
X28778006Y50902353D02*
X28739911Y50940448D01*
X28739911Y50940448D02*
X28663720Y50978543D01*
X28663720Y50978543D02*
X28511339Y50978543D01*
X28511339Y50978543D02*
X28435149Y50940448D01*
X28435149Y50940448D02*
X28397054Y50902353D01*
X28397054Y50902353D02*
X28358958Y50826162D01*
X30378007Y50483305D02*
X30378007Y51283305D01*
X30378007Y51283305D02*
X30568483Y51283305D01*
X30568483Y51283305D02*
X30682769Y51245210D01*
X30682769Y51245210D02*
X30758959Y51169020D01*
X30758959Y51169020D02*
X30797054Y51092829D01*
X30797054Y51092829D02*
X30835150Y50940448D01*
X30835150Y50940448D02*
X30835150Y50826162D01*
X30835150Y50826162D02*
X30797054Y50673781D01*
X30797054Y50673781D02*
X30758959Y50597591D01*
X30758959Y50597591D02*
X30682769Y50521400D01*
X30682769Y50521400D02*
X30568483Y50483305D01*
X30568483Y50483305D02*
X30378007Y50483305D01*
X31101816Y51283305D02*
X31635150Y51283305D01*
X31635150Y51283305D02*
X31292292Y50483305D01*
X33158960Y50483305D02*
X33158960Y51283305D01*
X33158960Y51283305D02*
X33349436Y51283305D01*
X33349436Y51283305D02*
X33463722Y51245210D01*
X33463722Y51245210D02*
X33539912Y51169020D01*
X33539912Y51169020D02*
X33578007Y51092829D01*
X33578007Y51092829D02*
X33616103Y50940448D01*
X33616103Y50940448D02*
X33616103Y50826162D01*
X33616103Y50826162D02*
X33578007Y50673781D01*
X33578007Y50673781D02*
X33539912Y50597591D01*
X33539912Y50597591D02*
X33463722Y50521400D01*
X33463722Y50521400D02*
X33349436Y50483305D01*
X33349436Y50483305D02*
X33158960Y50483305D01*
X34073245Y50940448D02*
X33997055Y50978543D01*
X33997055Y50978543D02*
X33958960Y51016639D01*
X33958960Y51016639D02*
X33920864Y51092829D01*
X33920864Y51092829D02*
X33920864Y51130924D01*
X33920864Y51130924D02*
X33958960Y51207115D01*
X33958960Y51207115D02*
X33997055Y51245210D01*
X33997055Y51245210D02*
X34073245Y51283305D01*
X34073245Y51283305D02*
X34225626Y51283305D01*
X34225626Y51283305D02*
X34301817Y51245210D01*
X34301817Y51245210D02*
X34339912Y51207115D01*
X34339912Y51207115D02*
X34378007Y51130924D01*
X34378007Y51130924D02*
X34378007Y51092829D01*
X34378007Y51092829D02*
X34339912Y51016639D01*
X34339912Y51016639D02*
X34301817Y50978543D01*
X34301817Y50978543D02*
X34225626Y50940448D01*
X34225626Y50940448D02*
X34073245Y50940448D01*
X34073245Y50940448D02*
X33997055Y50902353D01*
X33997055Y50902353D02*
X33958960Y50864258D01*
X33958960Y50864258D02*
X33920864Y50788067D01*
X33920864Y50788067D02*
X33920864Y50635686D01*
X33920864Y50635686D02*
X33958960Y50559496D01*
X33958960Y50559496D02*
X33997055Y50521400D01*
X33997055Y50521400D02*
X34073245Y50483305D01*
X34073245Y50483305D02*
X34225626Y50483305D01*
X34225626Y50483305D02*
X34301817Y50521400D01*
X34301817Y50521400D02*
X34339912Y50559496D01*
X34339912Y50559496D02*
X34378007Y50635686D01*
X34378007Y50635686D02*
X34378007Y50788067D01*
X34378007Y50788067D02*
X34339912Y50864258D01*
X34339912Y50864258D02*
X34301817Y50902353D01*
X34301817Y50902353D02*
X34225626Y50940448D01*
X35939913Y50483305D02*
X35939913Y51283305D01*
X35939913Y51283305D02*
X36130389Y51283305D01*
X36130389Y51283305D02*
X36244675Y51245210D01*
X36244675Y51245210D02*
X36320865Y51169020D01*
X36320865Y51169020D02*
X36358960Y51092829D01*
X36358960Y51092829D02*
X36397056Y50940448D01*
X36397056Y50940448D02*
X36397056Y50826162D01*
X36397056Y50826162D02*
X36358960Y50673781D01*
X36358960Y50673781D02*
X36320865Y50597591D01*
X36320865Y50597591D02*
X36244675Y50521400D01*
X36244675Y50521400D02*
X36130389Y50483305D01*
X36130389Y50483305D02*
X35939913Y50483305D01*
X36778008Y50483305D02*
X36930389Y50483305D01*
X36930389Y50483305D02*
X37006579Y50521400D01*
X37006579Y50521400D02*
X37044675Y50559496D01*
X37044675Y50559496D02*
X37120865Y50673781D01*
X37120865Y50673781D02*
X37158960Y50826162D01*
X37158960Y50826162D02*
X37158960Y51130924D01*
X37158960Y51130924D02*
X37120865Y51207115D01*
X37120865Y51207115D02*
X37082770Y51245210D01*
X37082770Y51245210D02*
X37006579Y51283305D01*
X37006579Y51283305D02*
X36854198Y51283305D01*
X36854198Y51283305D02*
X36778008Y51245210D01*
X36778008Y51245210D02*
X36739913Y51207115D01*
X36739913Y51207115D02*
X36701817Y51130924D01*
X36701817Y51130924D02*
X36701817Y50940448D01*
X36701817Y50940448D02*
X36739913Y50864258D01*
X36739913Y50864258D02*
X36778008Y50826162D01*
X36778008Y50826162D02*
X36854198Y50788067D01*
X36854198Y50788067D02*
X37006579Y50788067D01*
X37006579Y50788067D02*
X37082770Y50826162D01*
X37082770Y50826162D02*
X37120865Y50864258D01*
X37120865Y50864258D02*
X37158960Y50940448D01*
X38720866Y50483305D02*
X38720866Y51283305D01*
X38720866Y51283305D02*
X38911342Y51283305D01*
X38911342Y51283305D02*
X39025628Y51245210D01*
X39025628Y51245210D02*
X39101818Y51169020D01*
X39101818Y51169020D02*
X39139913Y51092829D01*
X39139913Y51092829D02*
X39178009Y50940448D01*
X39178009Y50940448D02*
X39178009Y50826162D01*
X39178009Y50826162D02*
X39139913Y50673781D01*
X39139913Y50673781D02*
X39101818Y50597591D01*
X39101818Y50597591D02*
X39025628Y50521400D01*
X39025628Y50521400D02*
X38911342Y50483305D01*
X38911342Y50483305D02*
X38720866Y50483305D01*
X39939913Y50483305D02*
X39482770Y50483305D01*
X39711342Y50483305D02*
X39711342Y51283305D01*
X39711342Y51283305D02*
X39635151Y51169020D01*
X39635151Y51169020D02*
X39558961Y51092829D01*
X39558961Y51092829D02*
X39482770Y51054734D01*
X40435152Y51283305D02*
X40511342Y51283305D01*
X40511342Y51283305D02*
X40587533Y51245210D01*
X40587533Y51245210D02*
X40625628Y51207115D01*
X40625628Y51207115D02*
X40663723Y51130924D01*
X40663723Y51130924D02*
X40701818Y50978543D01*
X40701818Y50978543D02*
X40701818Y50788067D01*
X40701818Y50788067D02*
X40663723Y50635686D01*
X40663723Y50635686D02*
X40625628Y50559496D01*
X40625628Y50559496D02*
X40587533Y50521400D01*
X40587533Y50521400D02*
X40511342Y50483305D01*
X40511342Y50483305D02*
X40435152Y50483305D01*
X40435152Y50483305D02*
X40358961Y50521400D01*
X40358961Y50521400D02*
X40320866Y50559496D01*
X40320866Y50559496D02*
X40282771Y50635686D01*
X40282771Y50635686D02*
X40244675Y50788067D01*
X40244675Y50788067D02*
X40244675Y50978543D01*
X40244675Y50978543D02*
X40282771Y51130924D01*
X40282771Y51130924D02*
X40320866Y51207115D01*
X40320866Y51207115D02*
X40358961Y51245210D01*
X40358961Y51245210D02*
X40435152Y51283305D01*
X59617292Y51657781D02*
X59807768Y51657781D01*
X59807768Y51657781D02*
X59903006Y51705400D01*
X59903006Y51705400D02*
X59950625Y51753020D01*
X59950625Y51753020D02*
X60045863Y51895877D01*
X60045863Y51895877D02*
X60093482Y52086353D01*
X60093482Y52086353D02*
X60093482Y52467305D01*
X60093482Y52467305D02*
X60045863Y52562543D01*
X60045863Y52562543D02*
X59998244Y52610162D01*
X59998244Y52610162D02*
X59903006Y52657781D01*
X59903006Y52657781D02*
X59712530Y52657781D01*
X59712530Y52657781D02*
X59617292Y52610162D01*
X59617292Y52610162D02*
X59569673Y52562543D01*
X59569673Y52562543D02*
X59522054Y52467305D01*
X59522054Y52467305D02*
X59522054Y52229210D01*
X59522054Y52229210D02*
X59569673Y52133972D01*
X59569673Y52133972D02*
X59617292Y52086353D01*
X59617292Y52086353D02*
X59712530Y52038734D01*
X59712530Y52038734D02*
X59903006Y52038734D01*
X59903006Y52038734D02*
X59998244Y52086353D01*
X59998244Y52086353D02*
X60045863Y52133972D01*
X60045863Y52133972D02*
X60093482Y52229210D01*
X58347054Y88247543D02*
X58394673Y88295162D01*
X58394673Y88295162D02*
X58489911Y88342781D01*
X58489911Y88342781D02*
X58728006Y88342781D01*
X58728006Y88342781D02*
X58823244Y88295162D01*
X58823244Y88295162D02*
X58870863Y88247543D01*
X58870863Y88247543D02*
X58918482Y88152305D01*
X58918482Y88152305D02*
X58918482Y88057067D01*
X58918482Y88057067D02*
X58870863Y87914210D01*
X58870863Y87914210D02*
X58299435Y87342781D01*
X58299435Y87342781D02*
X58918482Y87342781D01*
X58299435Y73102781D02*
X58966101Y73102781D01*
X58966101Y73102781D02*
X58537530Y72102781D01*
D12*
X61464378Y42103881D02*
X61121521Y42103881D01*
X61292950Y42103881D02*
X61292950Y43103881D01*
X61292950Y43103881D02*
X61235807Y42961024D01*
X61235807Y42961024D02*
X61178664Y42865786D01*
X61178664Y42865786D02*
X61121521Y42818167D01*
X61664379Y43103881D02*
X62035807Y43103881D01*
X62035807Y43103881D02*
X61835807Y42722929D01*
X61835807Y42722929D02*
X61921522Y42722929D01*
X61921522Y42722929D02*
X61978665Y42675310D01*
X61978665Y42675310D02*
X62007236Y42627691D01*
X62007236Y42627691D02*
X62035807Y42532453D01*
X62035807Y42532453D02*
X62035807Y42294358D01*
X62035807Y42294358D02*
X62007236Y42199120D01*
X62007236Y42199120D02*
X61978665Y42151500D01*
X61978665Y42151500D02*
X61921522Y42103881D01*
X61921522Y42103881D02*
X61750093Y42103881D01*
X61750093Y42103881D02*
X61692950Y42151500D01*
X61692950Y42151500D02*
X61664379Y42199120D01*
X61121521Y18508643D02*
X61150093Y18556262D01*
X61150093Y18556262D02*
X61207236Y18603881D01*
X61207236Y18603881D02*
X61350093Y18603881D01*
X61350093Y18603881D02*
X61407236Y18556262D01*
X61407236Y18556262D02*
X61435807Y18508643D01*
X61435807Y18508643D02*
X61464378Y18413405D01*
X61464378Y18413405D02*
X61464378Y18318167D01*
X61464378Y18318167D02*
X61435807Y18175310D01*
X61435807Y18175310D02*
X61092950Y17603881D01*
X61092950Y17603881D02*
X61464378Y17603881D01*
X61835807Y18603881D02*
X61892950Y18603881D01*
X61892950Y18603881D02*
X61950093Y18556262D01*
X61950093Y18556262D02*
X61978665Y18508643D01*
X61978665Y18508643D02*
X62007236Y18413405D01*
X62007236Y18413405D02*
X62035807Y18222929D01*
X62035807Y18222929D02*
X62035807Y17984834D01*
X62035807Y17984834D02*
X62007236Y17794358D01*
X62007236Y17794358D02*
X61978665Y17699120D01*
X61978665Y17699120D02*
X61950093Y17651500D01*
X61950093Y17651500D02*
X61892950Y17603881D01*
X61892950Y17603881D02*
X61835807Y17603881D01*
X61835807Y17603881D02*
X61778665Y17651500D01*
X61778665Y17651500D02*
X61750093Y17699120D01*
X61750093Y17699120D02*
X61721522Y17794358D01*
X61721522Y17794358D02*
X61692950Y17984834D01*
X61692950Y17984834D02*
X61692950Y18222929D01*
X61692950Y18222929D02*
X61721522Y18413405D01*
X61721522Y18413405D02*
X61750093Y18508643D01*
X61750093Y18508643D02*
X61778665Y18556262D01*
X61778665Y18556262D02*
X61835807Y18603881D01*
D14*
X59693482Y28812781D02*
X59122054Y28812781D01*
X59407768Y28812781D02*
X59407768Y29812781D01*
X59407768Y29812781D02*
X59312530Y29669924D01*
X59312530Y29669924D02*
X59217292Y29574686D01*
X59217292Y29574686D02*
X59122054Y29527067D01*
X60264911Y29384210D02*
X60169673Y29431829D01*
X60169673Y29431829D02*
X60122054Y29479448D01*
X60122054Y29479448D02*
X60074435Y29574686D01*
X60074435Y29574686D02*
X60074435Y29622305D01*
X60074435Y29622305D02*
X60122054Y29717543D01*
X60122054Y29717543D02*
X60169673Y29765162D01*
X60169673Y29765162D02*
X60264911Y29812781D01*
X60264911Y29812781D02*
X60455387Y29812781D01*
X60455387Y29812781D02*
X60550625Y29765162D01*
X60550625Y29765162D02*
X60598244Y29717543D01*
X60598244Y29717543D02*
X60645863Y29622305D01*
X60645863Y29622305D02*
X60645863Y29574686D01*
X60645863Y29574686D02*
X60598244Y29479448D01*
X60598244Y29479448D02*
X60550625Y29431829D01*
X60550625Y29431829D02*
X60455387Y29384210D01*
X60455387Y29384210D02*
X60264911Y29384210D01*
X60264911Y29384210D02*
X60169673Y29336591D01*
X60169673Y29336591D02*
X60122054Y29288972D01*
X60122054Y29288972D02*
X60074435Y29193734D01*
X60074435Y29193734D02*
X60074435Y29003258D01*
X60074435Y29003258D02*
X60122054Y28908020D01*
X60122054Y28908020D02*
X60169673Y28860400D01*
X60169673Y28860400D02*
X60264911Y28812781D01*
X60264911Y28812781D02*
X60455387Y28812781D01*
X60455387Y28812781D02*
X60550625Y28860400D01*
X60550625Y28860400D02*
X60598244Y28908020D01*
X60598244Y28908020D02*
X60645863Y29003258D01*
X60645863Y29003258D02*
X60645863Y29193734D01*
X60645863Y29193734D02*
X60598244Y29288972D01*
X60598244Y29288972D02*
X60550625Y29336591D01*
X60550625Y29336591D02*
X60455387Y29384210D01*
X58823244Y75642781D02*
X58632768Y75642781D01*
X58632768Y75642781D02*
X58537530Y75595162D01*
X58537530Y75595162D02*
X58489911Y75547543D01*
X58489911Y75547543D02*
X58394673Y75404686D01*
X58394673Y75404686D02*
X58347054Y75214210D01*
X58347054Y75214210D02*
X58347054Y74833258D01*
X58347054Y74833258D02*
X58394673Y74738020D01*
X58394673Y74738020D02*
X58442292Y74690400D01*
X58442292Y74690400D02*
X58537530Y74642781D01*
X58537530Y74642781D02*
X58728006Y74642781D01*
X58728006Y74642781D02*
X58823244Y74690400D01*
X58823244Y74690400D02*
X58870863Y74738020D01*
X58870863Y74738020D02*
X58918482Y74833258D01*
X58918482Y74833258D02*
X58918482Y75071353D01*
X58918482Y75071353D02*
X58870863Y75166591D01*
X58870863Y75166591D02*
X58823244Y75214210D01*
X58823244Y75214210D02*
X58728006Y75261829D01*
X58728006Y75261829D02*
X58537530Y75261829D01*
X58537530Y75261829D02*
X58442292Y75214210D01*
X58442292Y75214210D02*
X58394673Y75166591D01*
X58394673Y75166591D02*
X58347054Y75071353D01*
D13*
X201190Y48781753D02*
X467856Y48781753D01*
X582142Y48362705D02*
X201190Y48362705D01*
X201190Y48362705D02*
X201190Y49162705D01*
X201190Y49162705D02*
X582142Y49162705D01*
X886904Y48400800D02*
X1001190Y48362705D01*
X1001190Y48362705D02*
X1191666Y48362705D01*
X1191666Y48362705D02*
X1267857Y48400800D01*
X1267857Y48400800D02*
X1305952Y48438896D01*
X1305952Y48438896D02*
X1344047Y48515086D01*
X1344047Y48515086D02*
X1344047Y48591277D01*
X1344047Y48591277D02*
X1305952Y48667467D01*
X1305952Y48667467D02*
X1267857Y48705562D01*
X1267857Y48705562D02*
X1191666Y48743658D01*
X1191666Y48743658D02*
X1039285Y48781753D01*
X1039285Y48781753D02*
X963095Y48819848D01*
X963095Y48819848D02*
X925000Y48857943D01*
X925000Y48857943D02*
X886904Y48934134D01*
X886904Y48934134D02*
X886904Y49010324D01*
X886904Y49010324D02*
X925000Y49086515D01*
X925000Y49086515D02*
X963095Y49124610D01*
X963095Y49124610D02*
X1039285Y49162705D01*
X1039285Y49162705D02*
X1229762Y49162705D01*
X1229762Y49162705D02*
X1344047Y49124610D01*
X1572619Y49162705D02*
X2029762Y49162705D01*
X1801190Y48362705D02*
X1801190Y49162705D01*
X2448810Y49162705D02*
X2601191Y49162705D01*
X2601191Y49162705D02*
X2677381Y49124610D01*
X2677381Y49124610D02*
X2753572Y49048420D01*
X2753572Y49048420D02*
X2791667Y48896039D01*
X2791667Y48896039D02*
X2791667Y48629372D01*
X2791667Y48629372D02*
X2753572Y48476991D01*
X2753572Y48476991D02*
X2677381Y48400800D01*
X2677381Y48400800D02*
X2601191Y48362705D01*
X2601191Y48362705D02*
X2448810Y48362705D01*
X2448810Y48362705D02*
X2372619Y48400800D01*
X2372619Y48400800D02*
X2296429Y48476991D01*
X2296429Y48476991D02*
X2258333Y48629372D01*
X2258333Y48629372D02*
X2258333Y48896039D01*
X2258333Y48896039D02*
X2296429Y49048420D01*
X2296429Y49048420D02*
X2372619Y49124610D01*
X2372619Y49124610D02*
X2448810Y49162705D01*
X3134524Y48362705D02*
X3134524Y49162705D01*
X3134524Y49162705D02*
X3439286Y49162705D01*
X3439286Y49162705D02*
X3515476Y49124610D01*
X3515476Y49124610D02*
X3553571Y49086515D01*
X3553571Y49086515D02*
X3591667Y49010324D01*
X3591667Y49010324D02*
X3591667Y48896039D01*
X3591667Y48896039D02*
X3553571Y48819848D01*
X3553571Y48819848D02*
X3515476Y48781753D01*
X3515476Y48781753D02*
X3439286Y48743658D01*
X3439286Y48743658D02*
X3134524Y48743658D01*
D14*
X61299435Y80107781D02*
X61918482Y80107781D01*
X61918482Y80107781D02*
X61585149Y79726829D01*
X61585149Y79726829D02*
X61728006Y79726829D01*
X61728006Y79726829D02*
X61823244Y79679210D01*
X61823244Y79679210D02*
X61870863Y79631591D01*
X61870863Y79631591D02*
X61918482Y79536353D01*
X61918482Y79536353D02*
X61918482Y79298258D01*
X61918482Y79298258D02*
X61870863Y79203020D01*
X61870863Y79203020D02*
X61823244Y79155400D01*
X61823244Y79155400D02*
X61728006Y79107781D01*
X61728006Y79107781D02*
X61442292Y79107781D01*
X61442292Y79107781D02*
X61347054Y79155400D01*
X61347054Y79155400D02*
X61299435Y79203020D01*
X61537530Y62179210D02*
X61442292Y62226829D01*
X61442292Y62226829D02*
X61394673Y62274448D01*
X61394673Y62274448D02*
X61347054Y62369686D01*
X61347054Y62369686D02*
X61347054Y62417305D01*
X61347054Y62417305D02*
X61394673Y62512543D01*
X61394673Y62512543D02*
X61442292Y62560162D01*
X61442292Y62560162D02*
X61537530Y62607781D01*
X61537530Y62607781D02*
X61728006Y62607781D01*
X61728006Y62607781D02*
X61823244Y62560162D01*
X61823244Y62560162D02*
X61870863Y62512543D01*
X61870863Y62512543D02*
X61918482Y62417305D01*
X61918482Y62417305D02*
X61918482Y62369686D01*
X61918482Y62369686D02*
X61870863Y62274448D01*
X61870863Y62274448D02*
X61823244Y62226829D01*
X61823244Y62226829D02*
X61728006Y62179210D01*
X61728006Y62179210D02*
X61537530Y62179210D01*
X61537530Y62179210D02*
X61442292Y62131591D01*
X61442292Y62131591D02*
X61394673Y62083972D01*
X61394673Y62083972D02*
X61347054Y61988734D01*
X61347054Y61988734D02*
X61347054Y61798258D01*
X61347054Y61798258D02*
X61394673Y61703020D01*
X61394673Y61703020D02*
X61442292Y61655400D01*
X61442292Y61655400D02*
X61537530Y61607781D01*
X61537530Y61607781D02*
X61728006Y61607781D01*
X61728006Y61607781D02*
X61823244Y61655400D01*
X61823244Y61655400D02*
X61870863Y61703020D01*
X61870863Y61703020D02*
X61918482Y61798258D01*
X61918482Y61798258D02*
X61918482Y61988734D01*
X61918482Y61988734D02*
X61870863Y62083972D01*
X61870863Y62083972D02*
X61823244Y62131591D01*
X61823244Y62131591D02*
X61728006Y62179210D01*
X44183304Y34346994D02*
X44183304Y34727946D01*
X44183304Y34727946D02*
X43802352Y34766042D01*
X43802352Y34766042D02*
X43840447Y34727946D01*
X43840447Y34727946D02*
X43878542Y34651756D01*
X43878542Y34651756D02*
X43878542Y34461280D01*
X43878542Y34461280D02*
X43840447Y34385089D01*
X43840447Y34385089D02*
X43802352Y34346994D01*
X43802352Y34346994D02*
X43726161Y34308899D01*
X43726161Y34308899D02*
X43535685Y34308899D01*
X43535685Y34308899D02*
X43459495Y34346994D01*
X43459495Y34346994D02*
X43421400Y34385089D01*
X43421400Y34385089D02*
X43383304Y34461280D01*
X43383304Y34461280D02*
X43383304Y34651756D01*
X43383304Y34651756D02*
X43421400Y34727946D01*
X43421400Y34727946D02*
X43459495Y34766042D01*
X44183304Y34080327D02*
X43383304Y33813660D01*
X43383304Y33813660D02*
X44183304Y33546994D01*
X42729197Y37208305D02*
X42462530Y37589258D01*
X42272054Y37208305D02*
X42272054Y38008305D01*
X42272054Y38008305D02*
X42576816Y38008305D01*
X42576816Y38008305D02*
X42653006Y37970210D01*
X42653006Y37970210D02*
X42691101Y37932115D01*
X42691101Y37932115D02*
X42729197Y37855924D01*
X42729197Y37855924D02*
X42729197Y37741639D01*
X42729197Y37741639D02*
X42691101Y37665448D01*
X42691101Y37665448D02*
X42653006Y37627353D01*
X42653006Y37627353D02*
X42576816Y37589258D01*
X42576816Y37589258D02*
X42272054Y37589258D01*
X43072054Y37627353D02*
X43338720Y37627353D01*
X43453006Y37208305D02*
X43072054Y37208305D01*
X43072054Y37208305D02*
X43072054Y38008305D01*
X43072054Y38008305D02*
X43453006Y38008305D01*
X43757768Y37246400D02*
X43872054Y37208305D01*
X43872054Y37208305D02*
X44062530Y37208305D01*
X44062530Y37208305D02*
X44138721Y37246400D01*
X44138721Y37246400D02*
X44176816Y37284496D01*
X44176816Y37284496D02*
X44214911Y37360686D01*
X44214911Y37360686D02*
X44214911Y37436877D01*
X44214911Y37436877D02*
X44176816Y37513067D01*
X44176816Y37513067D02*
X44138721Y37551162D01*
X44138721Y37551162D02*
X44062530Y37589258D01*
X44062530Y37589258D02*
X43910149Y37627353D01*
X43910149Y37627353D02*
X43833959Y37665448D01*
X43833959Y37665448D02*
X43795864Y37703543D01*
X43795864Y37703543D02*
X43757768Y37779734D01*
X43757768Y37779734D02*
X43757768Y37855924D01*
X43757768Y37855924D02*
X43795864Y37932115D01*
X43795864Y37932115D02*
X43833959Y37970210D01*
X43833959Y37970210D02*
X43910149Y38008305D01*
X43910149Y38008305D02*
X44100626Y38008305D01*
X44100626Y38008305D02*
X44214911Y37970210D01*
X44557769Y37627353D02*
X44824435Y37627353D01*
X44938721Y37208305D02*
X44557769Y37208305D01*
X44557769Y37208305D02*
X44557769Y38008305D01*
X44557769Y38008305D02*
X44938721Y38008305D01*
X45167293Y38008305D02*
X45624436Y38008305D01*
X45395864Y37208305D02*
X45395864Y38008305D01*
D13*
X201191Y43262705D02*
X201191Y44062705D01*
X582143Y43262705D02*
X582143Y44062705D01*
X582143Y44062705D02*
X1039286Y43262705D01*
X1039286Y43262705D02*
X1039286Y44062705D01*
X1305952Y44062705D02*
X1763095Y44062705D01*
X1534523Y43262705D02*
X1534523Y44062705D01*
D12*
X61464378Y21103881D02*
X61121521Y21103881D01*
X61292950Y21103881D02*
X61292950Y22103881D01*
X61292950Y22103881D02*
X61235807Y21961024D01*
X61235807Y21961024D02*
X61178664Y21865786D01*
X61178664Y21865786D02*
X61121521Y21818167D01*
X61750093Y21103881D02*
X61864379Y21103881D01*
X61864379Y21103881D02*
X61921522Y21151500D01*
X61921522Y21151500D02*
X61950093Y21199120D01*
X61950093Y21199120D02*
X62007236Y21341977D01*
X62007236Y21341977D02*
X62035807Y21532453D01*
X62035807Y21532453D02*
X62035807Y21913405D01*
X62035807Y21913405D02*
X62007236Y22008643D01*
X62007236Y22008643D02*
X61978665Y22056262D01*
X61978665Y22056262D02*
X61921522Y22103881D01*
X61921522Y22103881D02*
X61807236Y22103881D01*
X61807236Y22103881D02*
X61750093Y22056262D01*
X61750093Y22056262D02*
X61721522Y22008643D01*
X61721522Y22008643D02*
X61692950Y21913405D01*
X61692950Y21913405D02*
X61692950Y21675310D01*
X61692950Y21675310D02*
X61721522Y21580072D01*
X61721522Y21580072D02*
X61750093Y21532453D01*
X61750093Y21532453D02*
X61807236Y21484834D01*
X61807236Y21484834D02*
X61921522Y21484834D01*
X61921522Y21484834D02*
X61978665Y21532453D01*
X61978665Y21532453D02*
X62007236Y21580072D01*
X62007236Y21580072D02*
X62035807Y21675310D01*
D13*
X163095Y53450800D02*
X277381Y53412705D01*
X277381Y53412705D02*
X467857Y53412705D01*
X467857Y53412705D02*
X544048Y53450800D01*
X544048Y53450800D02*
X582143Y53488896D01*
X582143Y53488896D02*
X620238Y53565086D01*
X620238Y53565086D02*
X620238Y53641277D01*
X620238Y53641277D02*
X582143Y53717467D01*
X582143Y53717467D02*
X544048Y53755562D01*
X544048Y53755562D02*
X467857Y53793658D01*
X467857Y53793658D02*
X315476Y53831753D01*
X315476Y53831753D02*
X239286Y53869848D01*
X239286Y53869848D02*
X201191Y53907943D01*
X201191Y53907943D02*
X163095Y53984134D01*
X163095Y53984134D02*
X163095Y54060324D01*
X163095Y54060324D02*
X201191Y54136515D01*
X201191Y54136515D02*
X239286Y54174610D01*
X239286Y54174610D02*
X315476Y54212705D01*
X315476Y54212705D02*
X505953Y54212705D01*
X505953Y54212705D02*
X620238Y54174610D01*
X963096Y53412705D02*
X963096Y54212705D01*
X963096Y54212705D02*
X1153572Y54212705D01*
X1153572Y54212705D02*
X1267858Y54174610D01*
X1267858Y54174610D02*
X1344048Y54098420D01*
X1344048Y54098420D02*
X1382143Y54022229D01*
X1382143Y54022229D02*
X1420239Y53869848D01*
X1420239Y53869848D02*
X1420239Y53755562D01*
X1420239Y53755562D02*
X1382143Y53603181D01*
X1382143Y53603181D02*
X1344048Y53526991D01*
X1344048Y53526991D02*
X1267858Y53450800D01*
X1267858Y53450800D02*
X1153572Y53412705D01*
X1153572Y53412705D02*
X963096Y53412705D01*
X1725000Y53641277D02*
X2105953Y53641277D01*
X1648810Y53412705D02*
X1915477Y54212705D01*
X1915477Y54212705D02*
X2182143Y53412705D01*
D14*
X12025209Y62668899D02*
X12063304Y62745089D01*
X12063304Y62745089D02*
X12063304Y62859375D01*
X12063304Y62859375D02*
X12025209Y62973661D01*
X12025209Y62973661D02*
X11949019Y63049851D01*
X11949019Y63049851D02*
X11872828Y63087946D01*
X11872828Y63087946D02*
X11720447Y63126042D01*
X11720447Y63126042D02*
X11606161Y63126042D01*
X11606161Y63126042D02*
X11453780Y63087946D01*
X11453780Y63087946D02*
X11377590Y63049851D01*
X11377590Y63049851D02*
X11301400Y62973661D01*
X11301400Y62973661D02*
X11263304Y62859375D01*
X11263304Y62859375D02*
X11263304Y62783184D01*
X11263304Y62783184D02*
X11301400Y62668899D01*
X11301400Y62668899D02*
X11339495Y62630803D01*
X11339495Y62630803D02*
X11606161Y62630803D01*
X11606161Y62630803D02*
X11606161Y62783184D01*
X11263304Y62287946D02*
X12063304Y62287946D01*
X12063304Y62287946D02*
X11263304Y61830803D01*
X11263304Y61830803D02*
X12063304Y61830803D01*
X11263304Y61449851D02*
X12063304Y61449851D01*
X12063304Y61449851D02*
X12063304Y61259375D01*
X12063304Y61259375D02*
X12025209Y61145089D01*
X12025209Y61145089D02*
X11949019Y61068899D01*
X11949019Y61068899D02*
X11872828Y61030804D01*
X11872828Y61030804D02*
X11720447Y60992708D01*
X11720447Y60992708D02*
X11606161Y60992708D01*
X11606161Y60992708D02*
X11453780Y61030804D01*
X11453780Y61030804D02*
X11377590Y61068899D01*
X11377590Y61068899D02*
X11301400Y61145089D01*
X11301400Y61145089D02*
X11263304Y61259375D01*
X11263304Y61259375D02*
X11263304Y61449851D01*
X61392292Y56132781D02*
X61582768Y56132781D01*
X61582768Y56132781D02*
X61678006Y56180400D01*
X61678006Y56180400D02*
X61725625Y56228020D01*
X61725625Y56228020D02*
X61820863Y56370877D01*
X61820863Y56370877D02*
X61868482Y56561353D01*
X61868482Y56561353D02*
X61868482Y56942305D01*
X61868482Y56942305D02*
X61820863Y57037543D01*
X61820863Y57037543D02*
X61773244Y57085162D01*
X61773244Y57085162D02*
X61678006Y57132781D01*
X61678006Y57132781D02*
X61487530Y57132781D01*
X61487530Y57132781D02*
X61392292Y57085162D01*
X61392292Y57085162D02*
X61344673Y57037543D01*
X61344673Y57037543D02*
X61297054Y56942305D01*
X61297054Y56942305D02*
X61297054Y56704210D01*
X61297054Y56704210D02*
X61344673Y56608972D01*
X61344673Y56608972D02*
X61392292Y56561353D01*
X61392292Y56561353D02*
X61487530Y56513734D01*
X61487530Y56513734D02*
X61678006Y56513734D01*
X61678006Y56513734D02*
X61773244Y56561353D01*
X61773244Y56561353D02*
X61820863Y56608972D01*
X61820863Y56608972D02*
X61868482Y56704210D01*
X61823244Y69607781D02*
X61632768Y69607781D01*
X61632768Y69607781D02*
X61537530Y69560162D01*
X61537530Y69560162D02*
X61489911Y69512543D01*
X61489911Y69512543D02*
X61394673Y69369686D01*
X61394673Y69369686D02*
X61347054Y69179210D01*
X61347054Y69179210D02*
X61347054Y68798258D01*
X61347054Y68798258D02*
X61394673Y68703020D01*
X61394673Y68703020D02*
X61442292Y68655400D01*
X61442292Y68655400D02*
X61537530Y68607781D01*
X61537530Y68607781D02*
X61728006Y68607781D01*
X61728006Y68607781D02*
X61823244Y68655400D01*
X61823244Y68655400D02*
X61870863Y68703020D01*
X61870863Y68703020D02*
X61918482Y68798258D01*
X61918482Y68798258D02*
X61918482Y69036353D01*
X61918482Y69036353D02*
X61870863Y69131591D01*
X61870863Y69131591D02*
X61823244Y69179210D01*
X61823244Y69179210D02*
X61728006Y69226829D01*
X61728006Y69226829D02*
X61537530Y69226829D01*
X61537530Y69226829D02*
X61442292Y69179210D01*
X61442292Y69179210D02*
X61394673Y69131591D01*
X61394673Y69131591D02*
X61347054Y69036353D01*
X59693482Y31352781D02*
X59122054Y31352781D01*
X59407768Y31352781D02*
X59407768Y32352781D01*
X59407768Y32352781D02*
X59312530Y32209924D01*
X59312530Y32209924D02*
X59217292Y32114686D01*
X59217292Y32114686D02*
X59122054Y32067067D01*
X60026816Y32352781D02*
X60693482Y32352781D01*
X60693482Y32352781D02*
X60264911Y31352781D01*
D13*
X163095Y56000800D02*
X277381Y55962705D01*
X277381Y55962705D02*
X467857Y55962705D01*
X467857Y55962705D02*
X544048Y56000800D01*
X544048Y56000800D02*
X582143Y56038896D01*
X582143Y56038896D02*
X620238Y56115086D01*
X620238Y56115086D02*
X620238Y56191277D01*
X620238Y56191277D02*
X582143Y56267467D01*
X582143Y56267467D02*
X544048Y56305562D01*
X544048Y56305562D02*
X467857Y56343658D01*
X467857Y56343658D02*
X315476Y56381753D01*
X315476Y56381753D02*
X239286Y56419848D01*
X239286Y56419848D02*
X201191Y56457943D01*
X201191Y56457943D02*
X163095Y56534134D01*
X163095Y56534134D02*
X163095Y56610324D01*
X163095Y56610324D02*
X201191Y56686515D01*
X201191Y56686515D02*
X239286Y56724610D01*
X239286Y56724610D02*
X315476Y56762705D01*
X315476Y56762705D02*
X505953Y56762705D01*
X505953Y56762705D02*
X620238Y56724610D01*
X1420239Y56038896D02*
X1382143Y56000800D01*
X1382143Y56000800D02*
X1267858Y55962705D01*
X1267858Y55962705D02*
X1191667Y55962705D01*
X1191667Y55962705D02*
X1077381Y56000800D01*
X1077381Y56000800D02*
X1001191Y56076991D01*
X1001191Y56076991D02*
X963096Y56153181D01*
X963096Y56153181D02*
X925000Y56305562D01*
X925000Y56305562D02*
X925000Y56419848D01*
X925000Y56419848D02*
X963096Y56572229D01*
X963096Y56572229D02*
X1001191Y56648420D01*
X1001191Y56648420D02*
X1077381Y56724610D01*
X1077381Y56724610D02*
X1191667Y56762705D01*
X1191667Y56762705D02*
X1267858Y56762705D01*
X1267858Y56762705D02*
X1382143Y56724610D01*
X1382143Y56724610D02*
X1420239Y56686515D01*
X2144048Y55962705D02*
X1763096Y55962705D01*
X1763096Y55962705D02*
X1763096Y56762705D01*
X27966009Y12452858D02*
X27966009Y13405239D01*
X28537438Y12262382D02*
X26537438Y12929048D01*
X26537438Y12929048D02*
X28537438Y13595715D01*
X28537438Y15405239D02*
X27585057Y14738572D01*
X28537438Y14262382D02*
X26537438Y14262382D01*
X26537438Y14262382D02*
X26537438Y15024287D01*
X26537438Y15024287D02*
X26632676Y15214763D01*
X26632676Y15214763D02*
X26727914Y15310001D01*
X26727914Y15310001D02*
X26918390Y15405239D01*
X26918390Y15405239D02*
X27204104Y15405239D01*
X27204104Y15405239D02*
X27394580Y15310001D01*
X27394580Y15310001D02*
X27489819Y15214763D01*
X27489819Y15214763D02*
X27585057Y15024287D01*
X27585057Y15024287D02*
X27585057Y14262382D01*
X28537438Y16262382D02*
X26537438Y16262382D01*
X26537438Y16262382D02*
X26537438Y16738572D01*
X26537438Y16738572D02*
X26632676Y17024287D01*
X26632676Y17024287D02*
X26823152Y17214763D01*
X26823152Y17214763D02*
X27013628Y17310001D01*
X27013628Y17310001D02*
X27394580Y17405239D01*
X27394580Y17405239D02*
X27680295Y17405239D01*
X27680295Y17405239D02*
X28061247Y17310001D01*
X28061247Y17310001D02*
X28251723Y17214763D01*
X28251723Y17214763D02*
X28442200Y17024287D01*
X28442200Y17024287D02*
X28537438Y16738572D01*
X28537438Y16738572D02*
X28537438Y16262382D01*
X26537438Y18262382D02*
X28156485Y18262382D01*
X28156485Y18262382D02*
X28346961Y18357620D01*
X28346961Y18357620D02*
X28442200Y18452858D01*
X28442200Y18452858D02*
X28537438Y18643334D01*
X28537438Y18643334D02*
X28537438Y19024287D01*
X28537438Y19024287D02*
X28442200Y19214763D01*
X28442200Y19214763D02*
X28346961Y19310001D01*
X28346961Y19310001D02*
X28156485Y19405239D01*
X28156485Y19405239D02*
X26537438Y19405239D01*
X28537438Y20357620D02*
X26537438Y20357620D01*
X28537438Y21310001D02*
X26537438Y21310001D01*
X26537438Y21310001D02*
X28537438Y22452858D01*
X28537438Y22452858D02*
X26537438Y22452858D01*
X26537438Y23786191D02*
X26537438Y24167144D01*
X26537438Y24167144D02*
X26632676Y24357620D01*
X26632676Y24357620D02*
X26823152Y24548096D01*
X26823152Y24548096D02*
X27204104Y24643334D01*
X27204104Y24643334D02*
X27870771Y24643334D01*
X27870771Y24643334D02*
X28251723Y24548096D01*
X28251723Y24548096D02*
X28442200Y24357620D01*
X28442200Y24357620D02*
X28537438Y24167144D01*
X28537438Y24167144D02*
X28537438Y23786191D01*
X28537438Y23786191D02*
X28442200Y23595715D01*
X28442200Y23595715D02*
X28251723Y23405239D01*
X28251723Y23405239D02*
X27870771Y23310001D01*
X27870771Y23310001D02*
X27204104Y23310001D01*
X27204104Y23310001D02*
X26823152Y23405239D01*
X26823152Y23405239D02*
X26632676Y23595715D01*
X26632676Y23595715D02*
X26537438Y23786191D01*
X28537438Y27024287D02*
X26537438Y27024287D01*
X26537438Y27024287D02*
X28537438Y28167144D01*
X28537438Y28167144D02*
X26537438Y28167144D01*
X27966009Y29024287D02*
X27966009Y29976668D01*
X28537438Y28833811D02*
X26537438Y29500477D01*
X26537438Y29500477D02*
X28537438Y30167144D01*
X28537438Y30833811D02*
X26537438Y30833811D01*
X26537438Y30833811D02*
X28537438Y31976668D01*
X28537438Y31976668D02*
X26537438Y31976668D01*
X26537438Y33310001D02*
X26537438Y33690954D01*
X26537438Y33690954D02*
X26632676Y33881430D01*
X26632676Y33881430D02*
X26823152Y34071906D01*
X26823152Y34071906D02*
X27204104Y34167144D01*
X27204104Y34167144D02*
X27870771Y34167144D01*
X27870771Y34167144D02*
X28251723Y34071906D01*
X28251723Y34071906D02*
X28442200Y33881430D01*
X28442200Y33881430D02*
X28537438Y33690954D01*
X28537438Y33690954D02*
X28537438Y33310001D01*
X28537438Y33310001D02*
X28442200Y33119525D01*
X28442200Y33119525D02*
X28251723Y32929049D01*
X28251723Y32929049D02*
X27870771Y32833811D01*
X27870771Y32833811D02*
X27204104Y32833811D01*
X27204104Y32833811D02*
X26823152Y32929049D01*
X26823152Y32929049D02*
X26632676Y33119525D01*
X26632676Y33119525D02*
X26537438Y33310001D01*
D14*
X58918482Y89882781D02*
X58347054Y89882781D01*
X58632768Y89882781D02*
X58632768Y90882781D01*
X58632768Y90882781D02*
X58537530Y90739924D01*
X58537530Y90739924D02*
X58442292Y90644686D01*
X58442292Y90644686D02*
X58347054Y90597067D01*
D12*
X61464378Y38603881D02*
X61121521Y38603881D01*
X61292950Y38603881D02*
X61292950Y39603881D01*
X61292950Y39603881D02*
X61235807Y39461024D01*
X61235807Y39461024D02*
X61178664Y39365786D01*
X61178664Y39365786D02*
X61121521Y39318167D01*
X61978665Y39270548D02*
X61978665Y38603881D01*
X61835807Y39651500D02*
X61692950Y38937215D01*
X61692950Y38937215D02*
X62064379Y38937215D01*
D14*
X59693482Y36432781D02*
X59122054Y36432781D01*
X59407768Y36432781D02*
X59407768Y37432781D01*
X59407768Y37432781D02*
X59312530Y37289924D01*
X59312530Y37289924D02*
X59217292Y37194686D01*
X59217292Y37194686D02*
X59122054Y37147067D01*
X60598244Y37432781D02*
X60122054Y37432781D01*
X60122054Y37432781D02*
X60074435Y36956591D01*
X60074435Y36956591D02*
X60122054Y37004210D01*
X60122054Y37004210D02*
X60217292Y37051829D01*
X60217292Y37051829D02*
X60455387Y37051829D01*
X60455387Y37051829D02*
X60550625Y37004210D01*
X60550625Y37004210D02*
X60598244Y36956591D01*
X60598244Y36956591D02*
X60645863Y36861353D01*
X60645863Y36861353D02*
X60645863Y36623258D01*
X60645863Y36623258D02*
X60598244Y36528020D01*
X60598244Y36528020D02*
X60550625Y36480400D01*
X60550625Y36480400D02*
X60455387Y36432781D01*
X60455387Y36432781D02*
X60217292Y36432781D01*
X60217292Y36432781D02*
X60122054Y36480400D01*
X60122054Y36480400D02*
X60074435Y36528020D01*
X61347054Y83512543D02*
X61394673Y83560162D01*
X61394673Y83560162D02*
X61489911Y83607781D01*
X61489911Y83607781D02*
X61728006Y83607781D01*
X61728006Y83607781D02*
X61823244Y83560162D01*
X61823244Y83560162D02*
X61870863Y83512543D01*
X61870863Y83512543D02*
X61918482Y83417305D01*
X61918482Y83417305D02*
X61918482Y83322067D01*
X61918482Y83322067D02*
X61870863Y83179210D01*
X61870863Y83179210D02*
X61299435Y82607781D01*
X61299435Y82607781D02*
X61918482Y82607781D01*
X59693482Y46592781D02*
X59122054Y46592781D01*
X59407768Y46592781D02*
X59407768Y47592781D01*
X59407768Y47592781D02*
X59312530Y47449924D01*
X59312530Y47449924D02*
X59217292Y47354686D01*
X59217292Y47354686D02*
X59122054Y47307067D01*
X60645863Y46592781D02*
X60074435Y46592781D01*
X60360149Y46592781D02*
X60360149Y47592781D01*
X60360149Y47592781D02*
X60264911Y47449924D01*
X60264911Y47449924D02*
X60169673Y47354686D01*
X60169673Y47354686D02*
X60074435Y47307067D01*
D13*
X620238Y58512705D02*
X163095Y58512705D01*
X391667Y58512705D02*
X391667Y59312705D01*
X391667Y59312705D02*
X315476Y59198420D01*
X315476Y59198420D02*
X239286Y59122229D01*
X239286Y59122229D02*
X163095Y59084134D01*
X925000Y59236515D02*
X963096Y59274610D01*
X963096Y59274610D02*
X1039286Y59312705D01*
X1039286Y59312705D02*
X1229762Y59312705D01*
X1229762Y59312705D02*
X1305953Y59274610D01*
X1305953Y59274610D02*
X1344048Y59236515D01*
X1344048Y59236515D02*
X1382143Y59160324D01*
X1382143Y59160324D02*
X1382143Y59084134D01*
X1382143Y59084134D02*
X1344048Y58969848D01*
X1344048Y58969848D02*
X886905Y58512705D01*
X886905Y58512705D02*
X1382143Y58512705D01*
X1610715Y59312705D02*
X1877382Y58512705D01*
X1877382Y58512705D02*
X2144048Y59312705D01*
D14*
X58537530Y70134210D02*
X58442292Y70181829D01*
X58442292Y70181829D02*
X58394673Y70229448D01*
X58394673Y70229448D02*
X58347054Y70324686D01*
X58347054Y70324686D02*
X58347054Y70372305D01*
X58347054Y70372305D02*
X58394673Y70467543D01*
X58394673Y70467543D02*
X58442292Y70515162D01*
X58442292Y70515162D02*
X58537530Y70562781D01*
X58537530Y70562781D02*
X58728006Y70562781D01*
X58728006Y70562781D02*
X58823244Y70515162D01*
X58823244Y70515162D02*
X58870863Y70467543D01*
X58870863Y70467543D02*
X58918482Y70372305D01*
X58918482Y70372305D02*
X58918482Y70324686D01*
X58918482Y70324686D02*
X58870863Y70229448D01*
X58870863Y70229448D02*
X58823244Y70181829D01*
X58823244Y70181829D02*
X58728006Y70134210D01*
X58728006Y70134210D02*
X58537530Y70134210D01*
X58537530Y70134210D02*
X58442292Y70086591D01*
X58442292Y70086591D02*
X58394673Y70038972D01*
X58394673Y70038972D02*
X58347054Y69943734D01*
X58347054Y69943734D02*
X58347054Y69753258D01*
X58347054Y69753258D02*
X58394673Y69658020D01*
X58394673Y69658020D02*
X58442292Y69610400D01*
X58442292Y69610400D02*
X58537530Y69562781D01*
X58537530Y69562781D02*
X58728006Y69562781D01*
X58728006Y69562781D02*
X58823244Y69610400D01*
X58823244Y69610400D02*
X58870863Y69658020D01*
X58870863Y69658020D02*
X58918482Y69753258D01*
X58918482Y69753258D02*
X58918482Y69943734D01*
X58918482Y69943734D02*
X58870863Y70038972D01*
X58870863Y70038972D02*
X58823244Y70086591D01*
X58823244Y70086591D02*
X58728006Y70134210D01*
D12*
X61464378Y45603881D02*
X61121521Y45603881D01*
X61292950Y45603881D02*
X61292950Y46603881D01*
X61292950Y46603881D02*
X61235807Y46461024D01*
X61235807Y46461024D02*
X61178664Y46365786D01*
X61178664Y46365786D02*
X61121521Y46318167D01*
X61692950Y46508643D02*
X61721522Y46556262D01*
X61721522Y46556262D02*
X61778665Y46603881D01*
X61778665Y46603881D02*
X61921522Y46603881D01*
X61921522Y46603881D02*
X61978665Y46556262D01*
X61978665Y46556262D02*
X62007236Y46508643D01*
X62007236Y46508643D02*
X62035807Y46413405D01*
X62035807Y46413405D02*
X62035807Y46318167D01*
X62035807Y46318167D02*
X62007236Y46175310D01*
X62007236Y46175310D02*
X61664379Y45603881D01*
X61664379Y45603881D02*
X62035807Y45603881D01*
D14*
X61918482Y86107781D02*
X61347054Y86107781D01*
X61632768Y86107781D02*
X61632768Y87107781D01*
X61632768Y87107781D02*
X61537530Y86964924D01*
X61537530Y86964924D02*
X61442292Y86869686D01*
X61442292Y86869686D02*
X61347054Y86822067D01*
X59693482Y38972781D02*
X59122054Y38972781D01*
X59407768Y38972781D02*
X59407768Y39972781D01*
X59407768Y39972781D02*
X59312530Y39829924D01*
X59312530Y39829924D02*
X59217292Y39734686D01*
X59217292Y39734686D02*
X59122054Y39687067D01*
X60550625Y39639448D02*
X60550625Y38972781D01*
X60312530Y40020400D02*
X60074435Y39306115D01*
X60074435Y39306115D02*
X60693482Y39306115D01*
D13*
X38347319Y86970833D02*
X37871128Y86637500D01*
X38347319Y86399405D02*
X37347319Y86399405D01*
X37347319Y86399405D02*
X37347319Y86780357D01*
X37347319Y86780357D02*
X37394938Y86875595D01*
X37394938Y86875595D02*
X37442557Y86923214D01*
X37442557Y86923214D02*
X37537795Y86970833D01*
X37537795Y86970833D02*
X37680652Y86970833D01*
X37680652Y86970833D02*
X37775890Y86923214D01*
X37775890Y86923214D02*
X37823509Y86875595D01*
X37823509Y86875595D02*
X37871128Y86780357D01*
X37871128Y86780357D02*
X37871128Y86399405D01*
X38299700Y87780357D02*
X38347319Y87685119D01*
X38347319Y87685119D02*
X38347319Y87494643D01*
X38347319Y87494643D02*
X38299700Y87399405D01*
X38299700Y87399405D02*
X38204461Y87351786D01*
X38204461Y87351786D02*
X37823509Y87351786D01*
X37823509Y87351786D02*
X37728271Y87399405D01*
X37728271Y87399405D02*
X37680652Y87494643D01*
X37680652Y87494643D02*
X37680652Y87685119D01*
X37680652Y87685119D02*
X37728271Y87780357D01*
X37728271Y87780357D02*
X37823509Y87827976D01*
X37823509Y87827976D02*
X37918747Y87827976D01*
X37918747Y87827976D02*
X38013985Y87351786D01*
X37680652Y88113691D02*
X37680652Y88494643D01*
X38347319Y88256548D02*
X37490176Y88256548D01*
X37490176Y88256548D02*
X37394938Y88304167D01*
X37394938Y88304167D02*
X37347319Y88399405D01*
X37347319Y88399405D02*
X37347319Y88494643D01*
X37347319Y88970834D02*
X37585414Y88970834D01*
X37490176Y88732739D02*
X37585414Y88970834D01*
X37585414Y88970834D02*
X37490176Y89208929D01*
X37775890Y88827977D02*
X37585414Y88970834D01*
X37585414Y88970834D02*
X37775890Y89113691D01*
X37347319Y89732739D02*
X37585414Y89732739D01*
X37490176Y89494644D02*
X37585414Y89732739D01*
X37585414Y89732739D02*
X37490176Y89970834D01*
X37775890Y89589882D02*
X37585414Y89732739D01*
X37585414Y89732739D02*
X37775890Y89875596D01*
X18067319Y86970833D02*
X17591128Y86637500D01*
X18067319Y86399405D02*
X17067319Y86399405D01*
X17067319Y86399405D02*
X17067319Y86780357D01*
X17067319Y86780357D02*
X17114938Y86875595D01*
X17114938Y86875595D02*
X17162557Y86923214D01*
X17162557Y86923214D02*
X17257795Y86970833D01*
X17257795Y86970833D02*
X17400652Y86970833D01*
X17400652Y86970833D02*
X17495890Y86923214D01*
X17495890Y86923214D02*
X17543509Y86875595D01*
X17543509Y86875595D02*
X17591128Y86780357D01*
X17591128Y86780357D02*
X17591128Y86399405D01*
X18019700Y87780357D02*
X18067319Y87685119D01*
X18067319Y87685119D02*
X18067319Y87494643D01*
X18067319Y87494643D02*
X18019700Y87399405D01*
X18019700Y87399405D02*
X17924461Y87351786D01*
X17924461Y87351786D02*
X17543509Y87351786D01*
X17543509Y87351786D02*
X17448271Y87399405D01*
X17448271Y87399405D02*
X17400652Y87494643D01*
X17400652Y87494643D02*
X17400652Y87685119D01*
X17400652Y87685119D02*
X17448271Y87780357D01*
X17448271Y87780357D02*
X17543509Y87827976D01*
X17543509Y87827976D02*
X17638747Y87827976D01*
X17638747Y87827976D02*
X17733985Y87351786D01*
X17400652Y88113691D02*
X17400652Y88494643D01*
X18067319Y88256548D02*
X17210176Y88256548D01*
X17210176Y88256548D02*
X17114938Y88304167D01*
X17114938Y88304167D02*
X17067319Y88399405D01*
X17067319Y88399405D02*
X17067319Y88494643D01*
X17067319Y88970834D02*
X17305414Y88970834D01*
X17210176Y88732739D02*
X17305414Y88970834D01*
X17305414Y88970834D02*
X17210176Y89208929D01*
X17495890Y88827977D02*
X17305414Y88970834D01*
X17305414Y88970834D02*
X17495890Y89113691D01*
X17067319Y89732739D02*
X17305414Y89732739D01*
X17210176Y89494644D02*
X17305414Y89732739D01*
X17305414Y89732739D02*
X17210176Y89970834D01*
X17495890Y89589882D02*
X17305414Y89732739D01*
X17305414Y89732739D02*
X17495890Y89875596D01*
D10*
X56897580Y79008334D02*
X57373771Y79341667D01*
X56897580Y79579762D02*
X57897580Y79579762D01*
X57897580Y79579762D02*
X57897580Y79198810D01*
X57897580Y79198810D02*
X57849961Y79103572D01*
X57849961Y79103572D02*
X57802342Y79055953D01*
X57802342Y79055953D02*
X57707104Y79008334D01*
X57707104Y79008334D02*
X57564247Y79008334D01*
X57564247Y79008334D02*
X57469009Y79055953D01*
X57469009Y79055953D02*
X57421390Y79103572D01*
X57421390Y79103572D02*
X57373771Y79198810D01*
X57373771Y79198810D02*
X57373771Y79579762D01*
X57421390Y78579762D02*
X57421390Y78246429D01*
X56897580Y78103572D02*
X56897580Y78579762D01*
X56897580Y78579762D02*
X57897580Y78579762D01*
X57897580Y78579762D02*
X57897580Y78103572D01*
X57421390Y77341667D02*
X57421390Y77675000D01*
X56897580Y77675000D02*
X57897580Y77675000D01*
X57897580Y77675000D02*
X57897580Y77198810D01*
X57897580Y76675000D02*
X57659485Y76675000D01*
X57754723Y76913095D02*
X57659485Y76675000D01*
X57659485Y76675000D02*
X57754723Y76436905D01*
X57469009Y76817857D02*
X57659485Y76675000D01*
X57659485Y76675000D02*
X57469009Y76532143D01*
X57897580Y75913095D02*
X57659485Y75913095D01*
X57754723Y76151190D02*
X57659485Y75913095D01*
X57659485Y75913095D02*
X57754723Y75675000D01*
X57469009Y76055952D02*
X57659485Y75913095D01*
X57659485Y75913095D02*
X57469009Y75770238D01*
X13587419Y81402667D02*
X13111228Y81069334D01*
X13587419Y80831239D02*
X12587419Y80831239D01*
X12587419Y80831239D02*
X12587419Y81212191D01*
X12587419Y81212191D02*
X12635038Y81307429D01*
X12635038Y81307429D02*
X12682657Y81355048D01*
X12682657Y81355048D02*
X12777895Y81402667D01*
X12777895Y81402667D02*
X12920752Y81402667D01*
X12920752Y81402667D02*
X13015990Y81355048D01*
X13015990Y81355048D02*
X13063609Y81307429D01*
X13063609Y81307429D02*
X13111228Y81212191D01*
X13111228Y81212191D02*
X13111228Y80831239D01*
X13063609Y81831239D02*
X13063609Y82164572D01*
X13587419Y82307429D02*
X13587419Y81831239D01*
X13587419Y81831239D02*
X12587419Y81831239D01*
X12587419Y81831239D02*
X12587419Y82307429D01*
X13063609Y83069334D02*
X13063609Y82736001D01*
X13587419Y82736001D02*
X12587419Y82736001D01*
X12587419Y82736001D02*
X12587419Y83212191D01*
X12587419Y83736001D02*
X12825514Y83736001D01*
X12730276Y83497906D02*
X12825514Y83736001D01*
X12825514Y83736001D02*
X12730276Y83974096D01*
X13015990Y83593144D02*
X12825514Y83736001D01*
X12825514Y83736001D02*
X13015990Y83878858D01*
X12587419Y84497906D02*
X12825514Y84497906D01*
X12730276Y84259811D02*
X12825514Y84497906D01*
X12825514Y84497906D02*
X12730276Y84736001D01*
X13015990Y84355049D02*
X12825514Y84497906D01*
X12825514Y84497906D02*
X13015990Y84640763D01*
X5795238Y24592581D02*
X5795238Y25592581D01*
X5795238Y25116391D02*
X6366666Y25116391D01*
X6366666Y24592581D02*
X6366666Y25592581D01*
X7223809Y24640200D02*
X7128571Y24592581D01*
X7128571Y24592581D02*
X6938095Y24592581D01*
X6938095Y24592581D02*
X6842857Y24640200D01*
X6842857Y24640200D02*
X6795238Y24735439D01*
X6795238Y24735439D02*
X6795238Y25116391D01*
X6795238Y25116391D02*
X6842857Y25211629D01*
X6842857Y25211629D02*
X6938095Y25259248D01*
X6938095Y25259248D02*
X7128571Y25259248D01*
X7128571Y25259248D02*
X7223809Y25211629D01*
X7223809Y25211629D02*
X7271428Y25116391D01*
X7271428Y25116391D02*
X7271428Y25021153D01*
X7271428Y25021153D02*
X6795238Y24925915D01*
X8128571Y24592581D02*
X8128571Y25116391D01*
X8128571Y25116391D02*
X8080952Y25211629D01*
X8080952Y25211629D02*
X7985714Y25259248D01*
X7985714Y25259248D02*
X7795238Y25259248D01*
X7795238Y25259248D02*
X7700000Y25211629D01*
X8128571Y24640200D02*
X8033333Y24592581D01*
X8033333Y24592581D02*
X7795238Y24592581D01*
X7795238Y24592581D02*
X7700000Y24640200D01*
X7700000Y24640200D02*
X7652381Y24735439D01*
X7652381Y24735439D02*
X7652381Y24830677D01*
X7652381Y24830677D02*
X7700000Y24925915D01*
X7700000Y24925915D02*
X7795238Y24973534D01*
X7795238Y24973534D02*
X8033333Y24973534D01*
X8033333Y24973534D02*
X8128571Y25021153D01*
X8461905Y25259248D02*
X8842857Y25259248D01*
X8604762Y25592581D02*
X8604762Y24735439D01*
X8604762Y24735439D02*
X8652381Y24640200D01*
X8652381Y24640200D02*
X8747619Y24592581D01*
X8747619Y24592581D02*
X8842857Y24592581D01*
X9890477Y24640200D02*
X10033334Y24592581D01*
X10033334Y24592581D02*
X10271429Y24592581D01*
X10271429Y24592581D02*
X10366667Y24640200D01*
X10366667Y24640200D02*
X10414286Y24687820D01*
X10414286Y24687820D02*
X10461905Y24783058D01*
X10461905Y24783058D02*
X10461905Y24878296D01*
X10461905Y24878296D02*
X10414286Y24973534D01*
X10414286Y24973534D02*
X10366667Y25021153D01*
X10366667Y25021153D02*
X10271429Y25068772D01*
X10271429Y25068772D02*
X10080953Y25116391D01*
X10080953Y25116391D02*
X9985715Y25164010D01*
X9985715Y25164010D02*
X9938096Y25211629D01*
X9938096Y25211629D02*
X9890477Y25306867D01*
X9890477Y25306867D02*
X9890477Y25402105D01*
X9890477Y25402105D02*
X9938096Y25497343D01*
X9938096Y25497343D02*
X9985715Y25544962D01*
X9985715Y25544962D02*
X10080953Y25592581D01*
X10080953Y25592581D02*
X10319048Y25592581D01*
X10319048Y25592581D02*
X10461905Y25544962D01*
X10890477Y24592581D02*
X10890477Y25259248D01*
X10890477Y25592581D02*
X10842858Y25544962D01*
X10842858Y25544962D02*
X10890477Y25497343D01*
X10890477Y25497343D02*
X10938096Y25544962D01*
X10938096Y25544962D02*
X10890477Y25592581D01*
X10890477Y25592581D02*
X10890477Y25497343D01*
X11366667Y25259248D02*
X11366667Y24592581D01*
X11366667Y25164010D02*
X11414286Y25211629D01*
X11414286Y25211629D02*
X11509524Y25259248D01*
X11509524Y25259248D02*
X11652381Y25259248D01*
X11652381Y25259248D02*
X11747619Y25211629D01*
X11747619Y25211629D02*
X11795238Y25116391D01*
X11795238Y25116391D02*
X11795238Y24592581D01*
X12271429Y24592581D02*
X12271429Y25592581D01*
X12366667Y24973534D02*
X12652381Y24592581D01*
X12652381Y25259248D02*
X12271429Y24878296D01*
D13*
X16071714Y44554896D02*
X16547904Y44554896D01*
X15976476Y44269181D02*
X16309809Y45269181D01*
X16309809Y45269181D02*
X16643142Y44269181D01*
X17500285Y44269181D02*
X16928857Y44269181D01*
X17214571Y44269181D02*
X17214571Y45269181D01*
X17214571Y45269181D02*
X17119333Y45126324D01*
X17119333Y45126324D02*
X17024095Y45031086D01*
X17024095Y45031086D02*
X16928857Y44983467D01*
X26368095Y7345181D02*
X26368095Y6535658D01*
X26368095Y6535658D02*
X26415714Y6440420D01*
X26415714Y6440420D02*
X26463333Y6392800D01*
X26463333Y6392800D02*
X26558571Y6345181D01*
X26558571Y6345181D02*
X26749047Y6345181D01*
X26749047Y6345181D02*
X26844285Y6392800D01*
X26844285Y6392800D02*
X26891904Y6440420D01*
X26891904Y6440420D02*
X26939523Y6535658D01*
X26939523Y6535658D02*
X26939523Y7345181D01*
X27368095Y6392800D02*
X27510952Y6345181D01*
X27510952Y6345181D02*
X27749047Y6345181D01*
X27749047Y6345181D02*
X27844285Y6392800D01*
X27844285Y6392800D02*
X27891904Y6440420D01*
X27891904Y6440420D02*
X27939523Y6535658D01*
X27939523Y6535658D02*
X27939523Y6630896D01*
X27939523Y6630896D02*
X27891904Y6726134D01*
X27891904Y6726134D02*
X27844285Y6773753D01*
X27844285Y6773753D02*
X27749047Y6821372D01*
X27749047Y6821372D02*
X27558571Y6868991D01*
X27558571Y6868991D02*
X27463333Y6916610D01*
X27463333Y6916610D02*
X27415714Y6964229D01*
X27415714Y6964229D02*
X27368095Y7059467D01*
X27368095Y7059467D02*
X27368095Y7154705D01*
X27368095Y7154705D02*
X27415714Y7249943D01*
X27415714Y7249943D02*
X27463333Y7297562D01*
X27463333Y7297562D02*
X27558571Y7345181D01*
X27558571Y7345181D02*
X27796666Y7345181D01*
X27796666Y7345181D02*
X27939523Y7297562D01*
X28701428Y6868991D02*
X28844285Y6821372D01*
X28844285Y6821372D02*
X28891904Y6773753D01*
X28891904Y6773753D02*
X28939523Y6678515D01*
X28939523Y6678515D02*
X28939523Y6535658D01*
X28939523Y6535658D02*
X28891904Y6440420D01*
X28891904Y6440420D02*
X28844285Y6392800D01*
X28844285Y6392800D02*
X28749047Y6345181D01*
X28749047Y6345181D02*
X28368095Y6345181D01*
X28368095Y6345181D02*
X28368095Y7345181D01*
X28368095Y7345181D02*
X28701428Y7345181D01*
X28701428Y7345181D02*
X28796666Y7297562D01*
X28796666Y7297562D02*
X28844285Y7249943D01*
X28844285Y7249943D02*
X28891904Y7154705D01*
X28891904Y7154705D02*
X28891904Y7059467D01*
X28891904Y7059467D02*
X28844285Y6964229D01*
X28844285Y6964229D02*
X28796666Y6916610D01*
X28796666Y6916610D02*
X28701428Y6868991D01*
X28701428Y6868991D02*
X28368095Y6868991D01*
X43466666Y45565181D02*
X43466666Y44850896D01*
X43466666Y44850896D02*
X43419047Y44708039D01*
X43419047Y44708039D02*
X43323809Y44612800D01*
X43323809Y44612800D02*
X43180952Y44565181D01*
X43180952Y44565181D02*
X43085714Y44565181D01*
X43847619Y45565181D02*
X44466666Y45565181D01*
X44466666Y45565181D02*
X44133333Y45184229D01*
X44133333Y45184229D02*
X44276190Y45184229D01*
X44276190Y45184229D02*
X44371428Y45136610D01*
X44371428Y45136610D02*
X44419047Y45088991D01*
X44419047Y45088991D02*
X44466666Y44993753D01*
X44466666Y44993753D02*
X44466666Y44755658D01*
X44466666Y44755658D02*
X44419047Y44660420D01*
X44419047Y44660420D02*
X44371428Y44612800D01*
X44371428Y44612800D02*
X44276190Y44565181D01*
X44276190Y44565181D02*
X43990476Y44565181D01*
X43990476Y44565181D02*
X43895238Y44612800D01*
X43895238Y44612800D02*
X43847619Y44660420D01*
X45516666Y32520181D02*
X45516666Y31805896D01*
X45516666Y31805896D02*
X45469047Y31663039D01*
X45469047Y31663039D02*
X45373809Y31567800D01*
X45373809Y31567800D02*
X45230952Y31520181D01*
X45230952Y31520181D02*
X45135714Y31520181D01*
X45945238Y32424943D02*
X45992857Y32472562D01*
X45992857Y32472562D02*
X46088095Y32520181D01*
X46088095Y32520181D02*
X46326190Y32520181D01*
X46326190Y32520181D02*
X46421428Y32472562D01*
X46421428Y32472562D02*
X46469047Y32424943D01*
X46469047Y32424943D02*
X46516666Y32329705D01*
X46516666Y32329705D02*
X46516666Y32234467D01*
X46516666Y32234467D02*
X46469047Y32091610D01*
X46469047Y32091610D02*
X45897619Y31520181D01*
X45897619Y31520181D02*
X46516666Y31520181D01*
X25839819Y48366667D02*
X26554104Y48366667D01*
X26554104Y48366667D02*
X26696961Y48319048D01*
X26696961Y48319048D02*
X26792200Y48223810D01*
X26792200Y48223810D02*
X26839819Y48080953D01*
X26839819Y48080953D02*
X26839819Y47985715D01*
X25839819Y49319048D02*
X25839819Y48842858D01*
X25839819Y48842858D02*
X26316009Y48795239D01*
X26316009Y48795239D02*
X26268390Y48842858D01*
X26268390Y48842858D02*
X26220771Y48938096D01*
X26220771Y48938096D02*
X26220771Y49176191D01*
X26220771Y49176191D02*
X26268390Y49271429D01*
X26268390Y49271429D02*
X26316009Y49319048D01*
X26316009Y49319048D02*
X26411247Y49366667D01*
X26411247Y49366667D02*
X26649342Y49366667D01*
X26649342Y49366667D02*
X26744580Y49319048D01*
X26744580Y49319048D02*
X26792200Y49271429D01*
X26792200Y49271429D02*
X26839819Y49176191D01*
X26839819Y49176191D02*
X26839819Y48938096D01*
X26839819Y48938096D02*
X26792200Y48842858D01*
X26792200Y48842858D02*
X26744580Y48795239D01*
X38641666Y34915181D02*
X38641666Y34200896D01*
X38641666Y34200896D02*
X38594047Y34058039D01*
X38594047Y34058039D02*
X38498809Y33962800D01*
X38498809Y33962800D02*
X38355952Y33915181D01*
X38355952Y33915181D02*
X38260714Y33915181D01*
X39546428Y34915181D02*
X39355952Y34915181D01*
X39355952Y34915181D02*
X39260714Y34867562D01*
X39260714Y34867562D02*
X39213095Y34819943D01*
X39213095Y34819943D02*
X39117857Y34677086D01*
X39117857Y34677086D02*
X39070238Y34486610D01*
X39070238Y34486610D02*
X39070238Y34105658D01*
X39070238Y34105658D02*
X39117857Y34010420D01*
X39117857Y34010420D02*
X39165476Y33962800D01*
X39165476Y33962800D02*
X39260714Y33915181D01*
X39260714Y33915181D02*
X39451190Y33915181D01*
X39451190Y33915181D02*
X39546428Y33962800D01*
X39546428Y33962800D02*
X39594047Y34010420D01*
X39594047Y34010420D02*
X39641666Y34105658D01*
X39641666Y34105658D02*
X39641666Y34343753D01*
X39641666Y34343753D02*
X39594047Y34438991D01*
X39594047Y34438991D02*
X39546428Y34486610D01*
X39546428Y34486610D02*
X39451190Y34534229D01*
X39451190Y34534229D02*
X39260714Y34534229D01*
X39260714Y34534229D02*
X39165476Y34486610D01*
X39165476Y34486610D02*
X39117857Y34438991D01*
X39117857Y34438991D02*
X39070238Y34343753D01*
X-1113334Y64765181D02*
X-1113334Y64050896D01*
X-1113334Y64050896D02*
X-1160953Y63908039D01*
X-1160953Y63908039D02*
X-1256191Y63812800D01*
X-1256191Y63812800D02*
X-1399048Y63765181D01*
X-1399048Y63765181D02*
X-1494286Y63765181D01*
X-113334Y63765181D02*
X-684762Y63765181D01*
X-399048Y63765181D02*
X-399048Y64765181D01*
X-399048Y64765181D02*
X-494286Y64622324D01*
X-494286Y64622324D02*
X-589524Y64527086D01*
X-589524Y64527086D02*
X-684762Y64479467D01*
X40816666Y15645181D02*
X40816666Y14930896D01*
X40816666Y14930896D02*
X40769047Y14788039D01*
X40769047Y14788039D02*
X40673809Y14692800D01*
X40673809Y14692800D02*
X40530952Y14645181D01*
X40530952Y14645181D02*
X40435714Y14645181D01*
X41721428Y15311848D02*
X41721428Y14645181D01*
X41483333Y15692800D02*
X41245238Y14978515D01*
X41245238Y14978515D02*
X41864285Y14978515D01*
X45616666Y23595181D02*
X45616666Y22880896D01*
X45616666Y22880896D02*
X45569047Y22738039D01*
X45569047Y22738039D02*
X45473809Y22642800D01*
X45473809Y22642800D02*
X45330952Y22595181D01*
X45330952Y22595181D02*
X45235714Y22595181D01*
X46235714Y23166610D02*
X46140476Y23214229D01*
X46140476Y23214229D02*
X46092857Y23261848D01*
X46092857Y23261848D02*
X46045238Y23357086D01*
X46045238Y23357086D02*
X46045238Y23404705D01*
X46045238Y23404705D02*
X46092857Y23499943D01*
X46092857Y23499943D02*
X46140476Y23547562D01*
X46140476Y23547562D02*
X46235714Y23595181D01*
X46235714Y23595181D02*
X46426190Y23595181D01*
X46426190Y23595181D02*
X46521428Y23547562D01*
X46521428Y23547562D02*
X46569047Y23499943D01*
X46569047Y23499943D02*
X46616666Y23404705D01*
X46616666Y23404705D02*
X46616666Y23357086D01*
X46616666Y23357086D02*
X46569047Y23261848D01*
X46569047Y23261848D02*
X46521428Y23214229D01*
X46521428Y23214229D02*
X46426190Y23166610D01*
X46426190Y23166610D02*
X46235714Y23166610D01*
X46235714Y23166610D02*
X46140476Y23118991D01*
X46140476Y23118991D02*
X46092857Y23071372D01*
X46092857Y23071372D02*
X46045238Y22976134D01*
X46045238Y22976134D02*
X46045238Y22785658D01*
X46045238Y22785658D02*
X46092857Y22690420D01*
X46092857Y22690420D02*
X46140476Y22642800D01*
X46140476Y22642800D02*
X46235714Y22595181D01*
X46235714Y22595181D02*
X46426190Y22595181D01*
X46426190Y22595181D02*
X46521428Y22642800D01*
X46521428Y22642800D02*
X46569047Y22690420D01*
X46569047Y22690420D02*
X46616666Y22785658D01*
X46616666Y22785658D02*
X46616666Y22976134D01*
X46616666Y22976134D02*
X46569047Y23071372D01*
X46569047Y23071372D02*
X46521428Y23118991D01*
X46521428Y23118991D02*
X46426190Y23166610D01*
X38466666Y38295181D02*
X38466666Y37580896D01*
X38466666Y37580896D02*
X38419047Y37438039D01*
X38419047Y37438039D02*
X38323809Y37342800D01*
X38323809Y37342800D02*
X38180952Y37295181D01*
X38180952Y37295181D02*
X38085714Y37295181D01*
X38847619Y38295181D02*
X39514285Y38295181D01*
X39514285Y38295181D02*
X39085714Y37295181D01*
D15*
%TO.C,REF\u002A\u002A*%
X38920000Y59160000D02*
X38920000Y57240000D01*
X38920000Y57240000D02*
X41780000Y57240000D01*
X41780000Y59160000D02*
X38920000Y59160000D01*
X28720000Y59160000D02*
X28720000Y57240000D01*
X28720000Y57240000D02*
X31580000Y57240000D01*
X31580000Y59160000D02*
X28720000Y59160000D01*
X38940000Y54260000D02*
X38940000Y52340000D01*
X38940000Y52340000D02*
X41800000Y52340000D01*
X41800000Y54260000D02*
X38940000Y54260000D01*
X38940000Y56660000D02*
X38940000Y54740000D01*
X38940000Y54740000D02*
X41800000Y54740000D01*
X41800000Y56660000D02*
X38940000Y56660000D01*
X28740000Y54260000D02*
X28740000Y52340000D01*
X28740000Y52340000D02*
X31600000Y52340000D01*
X31600000Y54260000D02*
X28740000Y54260000D01*
X28740000Y56660000D02*
X28740000Y54740000D01*
X28740000Y54740000D02*
X31600000Y54740000D01*
X31600000Y56660000D02*
X28740000Y56660000D01*
D16*
%TO.C,Ref\u002A\u002A*%
X34976000Y80200000D02*
X36754000Y80200000D01*
X36754000Y81216000D02*
X41326000Y81216000D01*
X36754000Y80200000D02*
X36754000Y81216000D01*
X36754000Y79184000D02*
X36754000Y80200000D01*
X41326000Y81216000D02*
X41326000Y80454000D01*
X41326000Y80454000D02*
X41834000Y80454000D01*
X41326000Y79692000D02*
X41326000Y79184000D01*
X41326000Y79184000D02*
X36754000Y79184000D01*
X41834000Y81216000D02*
X46406000Y81216000D01*
X41834000Y80454000D02*
X41834000Y81216000D01*
X41834000Y79692000D02*
X41326000Y79692000D01*
X41834000Y79184000D02*
X41834000Y79692000D01*
X46406000Y81216000D02*
X46406000Y80200000D01*
X46406000Y80200000D02*
X46406000Y79184000D01*
X46406000Y80200000D02*
X48184000Y80200000D01*
X46406000Y79184000D02*
X41834000Y79184000D01*
X14696000Y80200000D02*
X16474000Y80200000D01*
X16474000Y81216000D02*
X21046000Y81216000D01*
X16474000Y80200000D02*
X16474000Y81216000D01*
X16474000Y79184000D02*
X16474000Y80200000D01*
X21046000Y81216000D02*
X21046000Y80454000D01*
X21046000Y80454000D02*
X21554000Y80454000D01*
X21046000Y79692000D02*
X21046000Y79184000D01*
X21046000Y79184000D02*
X16474000Y79184000D01*
X21554000Y81216000D02*
X26126000Y81216000D01*
X21554000Y80454000D02*
X21554000Y81216000D01*
X21554000Y79692000D02*
X21046000Y79692000D01*
X21554000Y79184000D02*
X21554000Y79692000D01*
X26126000Y81216000D02*
X26126000Y80200000D01*
X26126000Y80200000D02*
X26126000Y79184000D01*
X26126000Y80200000D02*
X27904000Y80200000D01*
X26126000Y79184000D02*
X21554000Y79184000D01*
%TO.C,REF\u002A\u002A*%
D10*
X58005000Y66035000D02*
X12465000Y66035000D01*
X12465000Y63485000D01*
X58005000Y63485000D01*
X58005000Y66035000D01*
X58005000Y63485000D02*
X12465000Y63485000D01*
X12465000Y60935000D01*
X58005000Y60935000D01*
X58005000Y63485000D01*
X12480000Y94376000D02*
X58020000Y94376000D01*
X58020000Y96926000D01*
X12480000Y96926000D01*
X12480000Y94376000D01*
X12480000Y96926000D02*
X58020000Y96926000D01*
X58020000Y99476000D01*
X12480000Y99476000D01*
X12480000Y96926000D01*
D13*
%TO.C,*%
X11728937Y51649843D02*
X13779547Y53700453D01*
X13779547Y53700453D02*
X13425993Y54054007D01*
X11375383Y52003397D02*
X11728937Y51649843D01*
X13425993Y54054007D02*
X11375383Y52003397D01*
X11758225Y51367001D02*
G75*
G02*
X11558227Y51367001I-99999J0D01*
G01*
X11558227Y51367001D02*
G75*
G02*
X11758225Y51367001I99999J0D01*
G01*
X18745101Y51654289D02*
X20795711Y53704899D01*
X20795711Y53704899D02*
X20442157Y54058453D01*
X18391547Y52007843D02*
X18745101Y51654289D01*
X20442157Y54058453D02*
X18391547Y52007843D01*
X18774389Y51371447D02*
G75*
G02*
X18574391Y51371447I-99999J0D01*
G01*
X18574391Y51371447D02*
G75*
G02*
X18774389Y51371447I99999J0D01*
G01*
D17*
%TO.C,D1*%
X48000000Y6667231D02*
X53000000Y6667231D01*
X48000000Y6467231D02*
X48000000Y6667231D01*
X48000000Y3167231D02*
X48000000Y4867231D01*
X48000000Y1667231D02*
X48000000Y1467231D01*
X48000000Y1467231D02*
X53000000Y1467231D01*
X53000000Y6667231D02*
X53000000Y6467231D01*
X53000000Y4967231D02*
X53000000Y3967231D01*
X53000000Y3967231D02*
X50400000Y1467231D01*
X53000000Y3967231D02*
X53000000Y3167231D01*
X53000000Y1467231D02*
X53000000Y1667231D01*
D14*
X53075000Y1073481D02*
G75*
G02*
X52875000Y1073481I-100000J0D01*
G01*
X52875000Y1073481D02*
G75*
G02*
X53075000Y1073481I100000J0D01*
G01*
D15*
%TO.C,A1*%
X18610000Y46300000D02*
X18610000Y43630000D01*
X18610000Y41090000D02*
X18610000Y2860000D01*
X18610000Y2860000D02*
X23690000Y2860000D01*
X21280000Y43630000D02*
X18610000Y43630000D01*
X21280000Y41090000D02*
X18610000Y41090000D01*
X21280000Y41090000D02*
X21280000Y43630000D01*
X21280000Y41090000D02*
X21280000Y5530000D01*
X21280000Y5530000D02*
X18610000Y5530000D01*
X23690000Y10740000D02*
X31570000Y10740000D01*
X23690000Y320000D02*
X23690000Y10740000D01*
X31570000Y10740000D02*
X31570000Y320000D01*
X31570000Y320000D02*
X23690000Y320000D01*
X33980000Y43630000D02*
X33980000Y5530000D01*
X33980000Y43630000D02*
X36650000Y43630000D01*
X33980000Y5530000D02*
X36650000Y5530000D01*
X36650000Y46300000D02*
X18610000Y46300000D01*
X36650000Y2860000D02*
X31570000Y2860000D01*
X36650000Y2860000D02*
X36650000Y46300000D01*
D18*
%TO.C,Logo1*%
X5682872Y71150977D02*
X5786471Y71148382D01*
X5875632Y71144246D01*
X5943928Y71138563D01*
X5984934Y71131331D01*
X5993326Y71126971D01*
X6001792Y71102698D01*
X6015565Y71047426D01*
X6033450Y70966662D01*
X6054252Y70865912D01*
X6076777Y70750683D01*
X6088582Y70687902D01*
X6110849Y70568787D01*
X6131021Y70462565D01*
X6148085Y70374427D01*
X6161031Y70309566D01*
X6168845Y70273174D01*
X6170578Y70267184D01*
X6190110Y70257061D01*
X6237157Y70235662D01*
X6304997Y70205839D01*
X6386909Y70170445D01*
X6476172Y70132332D01*
X6566065Y70094353D01*
X6649865Y70059360D01*
X6720853Y70030206D01*
X6772306Y70009743D01*
X6797503Y70000823D01*
X6798604Y70000657D01*
X6818481Y70010769D01*
X6864223Y70039117D01*
X6931283Y70082723D01*
X7015116Y70138606D01*
X7111174Y70203787D01*
X7166350Y70241679D01*
X7267519Y70310725D01*
X7359370Y70372050D01*
X7437256Y70422663D01*
X7496531Y70459571D01*
X7532549Y70479782D01*
X7540623Y70482701D01*
X7559416Y70470153D01*
X7599543Y70435463D01*
X7656507Y70383063D01*
X7725815Y70317384D01*
X7802969Y70242856D01*
X7883475Y70163913D01*
X7962837Y70084983D01*
X8036560Y70010500D01*
X8100148Y69944894D01*
X8149106Y69892596D01*
X8178939Y69858039D01*
X8186058Y69846478D01*
X8176047Y69827654D01*
X8147922Y69782631D01*
X8104546Y69715787D01*
X8048782Y69631499D01*
X7983494Y69534144D01*
X7933754Y69460707D01*
X7681449Y69089667D01*
X7936445Y68471095D01*
X8381069Y68387275D01*
X8825693Y68303454D01*
X8825693Y67378006D01*
X8381069Y67294186D01*
X7936445Y67210365D01*
X7808947Y66901080D01*
X7681449Y66591794D01*
X7933754Y66220754D01*
X8004004Y66116843D01*
X8066728Y66022913D01*
X8119062Y65943348D01*
X8158143Y65882530D01*
X8181107Y65844843D01*
X8186058Y65834579D01*
X8173324Y65816090D01*
X8138118Y65776580D01*
X8084938Y65720478D01*
X8018282Y65652213D01*
X7942646Y65576214D01*
X7862528Y65496908D01*
X7782426Y65418725D01*
X7706836Y65346093D01*
X7640255Y65283441D01*
X7587182Y65235197D01*
X7552113Y65205790D01*
X7540377Y65198759D01*
X7518740Y65208877D01*
X7471338Y65237241D01*
X7402807Y65280871D01*
X7317785Y65336782D01*
X7220907Y65401994D01*
X7165650Y65439781D01*
X7064752Y65508657D01*
X6973701Y65569860D01*
X6897030Y65620422D01*
X6839272Y65657372D01*
X6804957Y65677742D01*
X6797746Y65680803D01*
X6777252Y65673864D01*
X6729487Y65654949D01*
X6661168Y65626913D01*
X6579011Y65592609D01*
X6489730Y65554891D01*
X6400042Y65516613D01*
X6316662Y65480630D01*
X6246306Y65449794D01*
X6195690Y65426961D01*
X6171529Y65414983D01*
X6170578Y65414276D01*
X6165964Y65395469D01*
X6155672Y65345382D01*
X6140713Y65269207D01*
X6122099Y65172135D01*
X6100841Y65059357D01*
X6088582Y64993558D01*
X6065638Y64873050D01*
X6043805Y64764203D01*
X6024278Y64672524D01*
X6008252Y64603519D01*
X5996921Y64562696D01*
X5993326Y64554489D01*
X5968994Y64546452D01*
X5914041Y64539967D01*
X5834892Y64535030D01*
X5737974Y64531636D01*
X5629713Y64529782D01*
X5516535Y64529462D01*
X5404865Y64530673D01*
X5301132Y64533410D01*
X5211759Y64537669D01*
X5143174Y64543445D01*
X5101803Y64550733D01*
X5093190Y64555105D01*
X5082867Y64581236D01*
X5068108Y64636607D01*
X5050648Y64713893D01*
X5032220Y64805770D01*
X5026259Y64837842D01*
X4997934Y64992476D01*
X4975124Y65114625D01*
X4956920Y65208327D01*
X4942417Y65277616D01*
X4930708Y65326529D01*
X4920885Y65359103D01*
X4912044Y65379372D01*
X4903276Y65391374D01*
X4901543Y65393053D01*
X4873629Y65409816D01*
X4819305Y65435386D01*
X4745223Y65467212D01*
X4658035Y65502740D01*
X4564392Y65539417D01*
X4470948Y65574689D01*
X4384353Y65606004D01*
X4311260Y65630807D01*
X4258322Y65646546D01*
X4232189Y65650668D01*
X4231274Y65650324D01*
X4209914Y65636359D01*
X4162916Y65604678D01*
X4095173Y65558609D01*
X4011577Y65501482D01*
X3917018Y65436627D01*
X3890146Y65418157D01*
X3792725Y65352301D01*
X3703837Y65294350D01*
X3628588Y65247462D01*
X3572080Y65214793D01*
X3539419Y65199500D01*
X3535407Y65198759D01*
X3514316Y65211608D01*
X3472536Y65247112D01*
X3414555Y65300707D01*
X3344865Y65367829D01*
X3267955Y65443913D01*
X3188317Y65524396D01*
X3110439Y65604713D01*
X3038814Y65680301D01*
X2977930Y65746595D01*
X2932279Y65799031D01*
X2906350Y65833045D01*
X2902117Y65842455D01*
X2912088Y65864357D01*
X2938980Y65909200D01*
X2978264Y65969679D01*
X3009883Y66016211D01*
X3067902Y66100525D01*
X3136216Y66200374D01*
X3204421Y66300527D01*
X3240925Y66354373D01*
X3364200Y66536629D01*
X3281480Y66689619D01*
X3245241Y66759318D01*
X3217074Y66818586D01*
X3201009Y66858689D01*
X3198774Y66868897D01*
X3215278Y66881171D01*
X3261918Y66905387D01*
X3334391Y66939737D01*
X3428394Y66982412D01*
X3539626Y67031606D01*
X3663785Y67085510D01*
X3796568Y67142316D01*
X3933673Y67200218D01*
X4070798Y67257407D01*
X4203642Y67312076D01*
X4327902Y67362416D01*
X4439275Y67406620D01*
X4533461Y67442881D01*
X4606156Y67469391D01*
X4653059Y67484342D01*
X4669167Y67486746D01*
X4689714Y67467689D01*
X4723067Y67425964D01*
X4762298Y67370294D01*
X4765401Y67365622D01*
X4880577Y67221736D01*
X5014947Y67105717D01*
X5164216Y67018570D01*
X5324087Y66961301D01*
X5490263Y66934914D01*
X5658448Y66940415D01*
X5824345Y66978810D01*
X5983658Y67051105D01*
X6018513Y67072374D01*
X6159263Y67183004D01*
X6272286Y67313698D01*
X6356997Y67459936D01*
X6412806Y67617192D01*
X6439126Y67780943D01*
X6435370Y67946667D01*
X6400950Y68109838D01*
X6335277Y68265935D01*
X6237765Y68410433D01*
X6198187Y68455131D01*
X6074297Y68568888D01*
X5943876Y68651782D01*
X5797685Y68708644D01*
X5652912Y68740313D01*
X5490140Y68748131D01*
X5326560Y68722062D01*
X5167702Y68664755D01*
X5019094Y68578856D01*
X4886265Y68467014D01*
X4774744Y68331877D01*
X4762989Y68314117D01*
X4724492Y68257850D01*
X4691137Y68215077D01*
X4669840Y68194628D01*
X4669167Y68194331D01*
X4646129Y68198721D01*
X4593843Y68216124D01*
X4516610Y68244732D01*
X4418732Y68282735D01*
X4304509Y68328326D01*
X4178242Y68379697D01*
X4044233Y68435038D01*
X3906782Y68492542D01*
X3770192Y68550399D01*
X3638763Y68606802D01*
X3516795Y68659942D01*
X3408591Y68708010D01*
X3318451Y68749199D01*
X3250677Y68781699D01*
X3209570Y68803703D01*
X3198774Y68812564D01*
X3207181Y68839640D01*
X3229728Y68890303D01*
X3262387Y68955817D01*
X3281480Y68991841D01*
X3364200Y69144832D01*
X3240925Y69327088D01*
X3177772Y69420125D01*
X3108273Y69521985D01*
X3042835Y69617438D01*
X3009883Y69665250D01*
X2964727Y69732495D01*
X2928943Y69789436D01*
X2907062Y69828646D01*
X2902437Y69841381D01*
X2914915Y69859917D01*
X2949748Y69900941D01*
X3003322Y69960475D01*
X3072017Y70034542D01*
X3152219Y70119165D01*
X3203714Y70172685D01*
X3295714Y70266319D01*
X3378001Y70347241D01*
X3447055Y70412177D01*
X3499356Y70457858D01*
X3531384Y70481011D01*
X3537884Y70483232D01*
X3562606Y70472924D01*
X3612595Y70444439D01*
X3682788Y70400937D01*
X3768125Y70345577D01*
X3863544Y70281520D01*
X3890146Y70263303D01*
X3986833Y70196927D01*
X4073883Y70137378D01*
X4146405Y70087984D01*
X4199507Y70052075D01*
X4228297Y70032981D01*
X4231274Y70031136D01*
X4254218Y70033895D01*
X4304664Y70048538D01*
X4375959Y70072513D01*
X4461453Y70103266D01*
X4554493Y70138244D01*
X4648426Y70174893D01*
X4736601Y70210661D01*
X4812366Y70242994D01*
X4869069Y70269338D01*
X4900057Y70287142D01*
X4901543Y70288407D01*
X4910399Y70299294D01*
X4919157Y70317682D01*
X4928723Y70347606D01*
X4940004Y70393103D01*
X4953907Y70458209D01*
X4971337Y70546961D01*
X4993202Y70663393D01*
X5020409Y70811542D01*
X5026259Y70843618D01*
X5044626Y70938686D01*
X5062595Y71021565D01*
X5078431Y71084930D01*
X5090400Y71121458D01*
X5093190Y71126356D01*
X5117928Y71134427D01*
X5173210Y71140987D01*
X5252611Y71146033D01*
X5349704Y71149559D01*
X5458062Y71151561D01*
X5571260Y71152036D01*
X5682872Y71150977D01*
G36*
X5682872Y71150977D02*
G01*
X5786471Y71148382D01*
X5875632Y71144246D01*
X5943928Y71138563D01*
X5984934Y71131331D01*
X5993326Y71126971D01*
X6001792Y71102698D01*
X6015565Y71047426D01*
X6033450Y70966662D01*
X6054252Y70865912D01*
X6076777Y70750683D01*
X6088582Y70687902D01*
X6110849Y70568787D01*
X6131021Y70462565D01*
X6148085Y70374427D01*
X6161031Y70309566D01*
X6168845Y70273174D01*
X6170578Y70267184D01*
X6190110Y70257061D01*
X6237157Y70235662D01*
X6304997Y70205839D01*
X6386909Y70170445D01*
X6476172Y70132332D01*
X6566065Y70094353D01*
X6649865Y70059360D01*
X6720853Y70030206D01*
X6772306Y70009743D01*
X6797503Y70000823D01*
X6798604Y70000657D01*
X6818481Y70010769D01*
X6864223Y70039117D01*
X6931283Y70082723D01*
X7015116Y70138606D01*
X7111174Y70203787D01*
X7166350Y70241679D01*
X7267519Y70310725D01*
X7359370Y70372050D01*
X7437256Y70422663D01*
X7496531Y70459571D01*
X7532549Y70479782D01*
X7540623Y70482701D01*
X7559416Y70470153D01*
X7599543Y70435463D01*
X7656507Y70383063D01*
X7725815Y70317384D01*
X7802969Y70242856D01*
X7883475Y70163913D01*
X7962837Y70084983D01*
X8036560Y70010500D01*
X8100148Y69944894D01*
X8149106Y69892596D01*
X8178939Y69858039D01*
X8186058Y69846478D01*
X8176047Y69827654D01*
X8147922Y69782631D01*
X8104546Y69715787D01*
X8048782Y69631499D01*
X7983494Y69534144D01*
X7933754Y69460707D01*
X7681449Y69089667D01*
X7936445Y68471095D01*
X8381069Y68387275D01*
X8825693Y68303454D01*
X8825693Y67378006D01*
X8381069Y67294186D01*
X7936445Y67210365D01*
X7808947Y66901080D01*
X7681449Y66591794D01*
X7933754Y66220754D01*
X8004004Y66116843D01*
X8066728Y66022913D01*
X8119062Y65943348D01*
X8158143Y65882530D01*
X8181107Y65844843D01*
X8186058Y65834579D01*
X8173324Y65816090D01*
X8138118Y65776580D01*
X8084938Y65720478D01*
X8018282Y65652213D01*
X7942646Y65576214D01*
X7862528Y65496908D01*
X7782426Y65418725D01*
X7706836Y65346093D01*
X7640255Y65283441D01*
X7587182Y65235197D01*
X7552113Y65205790D01*
X7540377Y65198759D01*
X7518740Y65208877D01*
X7471338Y65237241D01*
X7402807Y65280871D01*
X7317785Y65336782D01*
X7220907Y65401994D01*
X7165650Y65439781D01*
X7064752Y65508657D01*
X6973701Y65569860D01*
X6897030Y65620422D01*
X6839272Y65657372D01*
X6804957Y65677742D01*
X6797746Y65680803D01*
X6777252Y65673864D01*
X6729487Y65654949D01*
X6661168Y65626913D01*
X6579011Y65592609D01*
X6489730Y65554891D01*
X6400042Y65516613D01*
X6316662Y65480630D01*
X6246306Y65449794D01*
X6195690Y65426961D01*
X6171529Y65414983D01*
X6170578Y65414276D01*
X6165964Y65395469D01*
X6155672Y65345382D01*
X6140713Y65269207D01*
X6122099Y65172135D01*
X6100841Y65059357D01*
X6088582Y64993558D01*
X6065638Y64873050D01*
X6043805Y64764203D01*
X6024278Y64672524D01*
X6008252Y64603519D01*
X5996921Y64562696D01*
X5993326Y64554489D01*
X5968994Y64546452D01*
X5914041Y64539967D01*
X5834892Y64535030D01*
X5737974Y64531636D01*
X5629713Y64529782D01*
X5516535Y64529462D01*
X5404865Y64530673D01*
X5301132Y64533410D01*
X5211759Y64537669D01*
X5143174Y64543445D01*
X5101803Y64550733D01*
X5093190Y64555105D01*
X5082867Y64581236D01*
X5068108Y64636607D01*
X5050648Y64713893D01*
X5032220Y64805770D01*
X5026259Y64837842D01*
X4997934Y64992476D01*
X4975124Y65114625D01*
X4956920Y65208327D01*
X4942417Y65277616D01*
X4930708Y65326529D01*
X4920885Y65359103D01*
X4912044Y65379372D01*
X4903276Y65391374D01*
X4901543Y65393053D01*
X4873629Y65409816D01*
X4819305Y65435386D01*
X4745223Y65467212D01*
X4658035Y65502740D01*
X4564392Y65539417D01*
X4470948Y65574689D01*
X4384353Y65606004D01*
X4311260Y65630807D01*
X4258322Y65646546D01*
X4232189Y65650668D01*
X4231274Y65650324D01*
X4209914Y65636359D01*
X4162916Y65604678D01*
X4095173Y65558609D01*
X4011577Y65501482D01*
X3917018Y65436627D01*
X3890146Y65418157D01*
X3792725Y65352301D01*
X3703837Y65294350D01*
X3628588Y65247462D01*
X3572080Y65214793D01*
X3539419Y65199500D01*
X3535407Y65198759D01*
X3514316Y65211608D01*
X3472536Y65247112D01*
X3414555Y65300707D01*
X3344865Y65367829D01*
X3267955Y65443913D01*
X3188317Y65524396D01*
X3110439Y65604713D01*
X3038814Y65680301D01*
X2977930Y65746595D01*
X2932279Y65799031D01*
X2906350Y65833045D01*
X2902117Y65842455D01*
X2912088Y65864357D01*
X2938980Y65909200D01*
X2978264Y65969679D01*
X3009883Y66016211D01*
X3067902Y66100525D01*
X3136216Y66200374D01*
X3204421Y66300527D01*
X3240925Y66354373D01*
X3364200Y66536629D01*
X3281480Y66689619D01*
X3245241Y66759318D01*
X3217074Y66818586D01*
X3201009Y66858689D01*
X3198774Y66868897D01*
X3215278Y66881171D01*
X3261918Y66905387D01*
X3334391Y66939737D01*
X3428394Y66982412D01*
X3539626Y67031606D01*
X3663785Y67085510D01*
X3796568Y67142316D01*
X3933673Y67200218D01*
X4070798Y67257407D01*
X4203642Y67312076D01*
X4327902Y67362416D01*
X4439275Y67406620D01*
X4533461Y67442881D01*
X4606156Y67469391D01*
X4653059Y67484342D01*
X4669167Y67486746D01*
X4689714Y67467689D01*
X4723067Y67425964D01*
X4762298Y67370294D01*
X4765401Y67365622D01*
X4880577Y67221736D01*
X5014947Y67105717D01*
X5164216Y67018570D01*
X5324087Y66961301D01*
X5490263Y66934914D01*
X5658448Y66940415D01*
X5824345Y66978810D01*
X5983658Y67051105D01*
X6018513Y67072374D01*
X6159263Y67183004D01*
X6272286Y67313698D01*
X6356997Y67459936D01*
X6412806Y67617192D01*
X6439126Y67780943D01*
X6435370Y67946667D01*
X6400950Y68109838D01*
X6335277Y68265935D01*
X6237765Y68410433D01*
X6198187Y68455131D01*
X6074297Y68568888D01*
X5943876Y68651782D01*
X5797685Y68708644D01*
X5652912Y68740313D01*
X5490140Y68748131D01*
X5326560Y68722062D01*
X5167702Y68664755D01*
X5019094Y68578856D01*
X4886265Y68467014D01*
X4774744Y68331877D01*
X4762989Y68314117D01*
X4724492Y68257850D01*
X4691137Y68215077D01*
X4669840Y68194628D01*
X4669167Y68194331D01*
X4646129Y68198721D01*
X4593843Y68216124D01*
X4516610Y68244732D01*
X4418732Y68282735D01*
X4304509Y68328326D01*
X4178242Y68379697D01*
X4044233Y68435038D01*
X3906782Y68492542D01*
X3770192Y68550399D01*
X3638763Y68606802D01*
X3516795Y68659942D01*
X3408591Y68708010D01*
X3318451Y68749199D01*
X3250677Y68781699D01*
X3209570Y68803703D01*
X3198774Y68812564D01*
X3207181Y68839640D01*
X3229728Y68890303D01*
X3262387Y68955817D01*
X3281480Y68991841D01*
X3364200Y69144832D01*
X3240925Y69327088D01*
X3177772Y69420125D01*
X3108273Y69521985D01*
X3042835Y69617438D01*
X3009883Y69665250D01*
X2964727Y69732495D01*
X2928943Y69789436D01*
X2907062Y69828646D01*
X2902437Y69841381D01*
X2914915Y69859917D01*
X2949748Y69900941D01*
X3003322Y69960475D01*
X3072017Y70034542D01*
X3152219Y70119165D01*
X3203714Y70172685D01*
X3295714Y70266319D01*
X3378001Y70347241D01*
X3447055Y70412177D01*
X3499356Y70457858D01*
X3531384Y70481011D01*
X3537884Y70483232D01*
X3562606Y70472924D01*
X3612595Y70444439D01*
X3682788Y70400937D01*
X3768125Y70345577D01*
X3863544Y70281520D01*
X3890146Y70263303D01*
X3986833Y70196927D01*
X4073883Y70137378D01*
X4146405Y70087984D01*
X4199507Y70052075D01*
X4228297Y70032981D01*
X4231274Y70031136D01*
X4254218Y70033895D01*
X4304664Y70048538D01*
X4375959Y70072513D01*
X4461453Y70103266D01*
X4554493Y70138244D01*
X4648426Y70174893D01*
X4736601Y70210661D01*
X4812366Y70242994D01*
X4869069Y70269338D01*
X4900057Y70287142D01*
X4901543Y70288407D01*
X4910399Y70299294D01*
X4919157Y70317682D01*
X4928723Y70347606D01*
X4940004Y70393103D01*
X4953907Y70458209D01*
X4971337Y70546961D01*
X4993202Y70663393D01*
X5020409Y70811542D01*
X5026259Y70843618D01*
X5044626Y70938686D01*
X5062595Y71021565D01*
X5078431Y71084930D01*
X5090400Y71121458D01*
X5093190Y71126356D01*
X5117928Y71134427D01*
X5173210Y71140987D01*
X5252611Y71146033D01*
X5349704Y71149559D01*
X5458062Y71151561D01*
X5571260Y71152036D01*
X5682872Y71150977D01*
G37*
D15*
%TO.C,J3*%
X42420000Y44020000D02*
X43800000Y44020000D01*
X42420000Y42640000D02*
X42420000Y44020000D01*
X42420000Y41370000D02*
X42420000Y38720000D01*
X42420000Y41370000D02*
X45180000Y41370000D01*
X42420000Y38720000D02*
X45180000Y38720000D01*
X45180000Y41370000D02*
X45180000Y38720000D01*
%TO.C,J2*%
X42345000Y33305000D02*
X43725000Y33305000D01*
X42345000Y31925000D02*
X42345000Y33305000D01*
X42345000Y30655000D02*
X42345000Y25465000D01*
X42345000Y30655000D02*
X45105000Y30655000D01*
X42345000Y25465000D02*
X45105000Y25465000D01*
X45105000Y30655000D02*
X45105000Y25465000D01*
%TO.C,J5*%
X27385000Y47320000D02*
X27385000Y48700000D01*
X28765000Y47320000D02*
X27385000Y47320000D01*
X30035000Y47320000D02*
X40305000Y47320000D01*
X30035000Y47320000D02*
X30035000Y50080000D01*
X40305000Y47320000D02*
X40305000Y50080000D01*
X30035000Y50080000D02*
X40305000Y50080000D01*
%TO.C,J6*%
X37595000Y33370000D02*
X38975000Y33370000D01*
X37595000Y31990000D02*
X37595000Y33370000D01*
X37595000Y30720000D02*
X37595000Y17910000D01*
X37595000Y30720000D02*
X40355000Y30720000D01*
X37595000Y17910000D02*
X40355000Y17910000D01*
X40355000Y30720000D02*
X40355000Y17910000D01*
%TO.C,REF\u002A\u002A*%
X62155000Y15805000D02*
X69395000Y15805000D01*
X62155000Y15805000D02*
X62155000Y58745000D01*
X67775000Y15805000D02*
X67775000Y58745000D01*
X69395000Y15805000D02*
X69395000Y17725000D01*
X69395000Y18325000D02*
X69395000Y58745000D01*
X62155000Y58745000D02*
X69395000Y58745000D01*
X70005000Y17585000D02*
X69395000Y18025000D01*
X70005000Y18465000D01*
X70005000Y17585000D01*
G36*
X70005000Y17585000D02*
G01*
X69395000Y18025000D01*
X70005000Y18465000D01*
X70005000Y17585000D01*
G37*
X62180000Y59830000D02*
X69420000Y59830000D01*
X62180000Y59830000D02*
X62180000Y88770000D01*
X67800000Y59830000D02*
X67800000Y88770000D01*
X69420000Y59830000D02*
X69420000Y61750000D01*
X69420000Y62350000D02*
X69420000Y88770000D01*
X62180000Y88770000D02*
X69420000Y88770000D01*
X70030000Y61610000D02*
X69420000Y62050000D01*
X70030000Y62490000D01*
X70030000Y61610000D01*
G36*
X70030000Y61610000D02*
G01*
X69420000Y62050000D01*
X70030000Y62490000D01*
X70030000Y61610000D01*
G37*
%TO.C,J1*%
X-6490000Y62780000D02*
X-6490000Y37260000D01*
X-6490000Y62780000D02*
X2140000Y62780000D01*
X-6490000Y62660000D02*
X2140000Y62660000D01*
X-6490000Y62541905D02*
X2140000Y62541905D01*
X-6490000Y62423810D02*
X2140000Y62423810D01*
X-6490000Y62305715D02*
X2140000Y62305715D01*
X-6490000Y62187620D02*
X2140000Y62187620D01*
X-6490000Y62069525D02*
X2140000Y62069525D01*
X-6490000Y61951430D02*
X2140000Y61951430D01*
X-6490000Y61833335D02*
X2140000Y61833335D01*
X-6490000Y61715240D02*
X2140000Y61715240D01*
X-6490000Y61597145D02*
X2140000Y61597145D01*
X-6490000Y61479050D02*
X2140000Y61479050D01*
X-6490000Y61360955D02*
X2140000Y61360955D01*
X-6490000Y61242860D02*
X2140000Y61242860D01*
X-6490000Y61124765D02*
X2140000Y61124765D01*
X-6490000Y61006670D02*
X2140000Y61006670D01*
X-6490000Y60888575D02*
X2140000Y60888575D01*
X-6490000Y60770480D02*
X2140000Y60770480D01*
X-6490000Y60652385D02*
X2140000Y60652385D01*
X-6490000Y60534290D02*
X2140000Y60534290D01*
X-6490000Y60416195D02*
X2140000Y60416195D01*
X-6490000Y60298100D02*
X2140000Y60298100D01*
X-6490000Y60180000D02*
X2140000Y60180000D01*
X-6490000Y57640000D02*
X2140000Y57640000D01*
X-6490000Y55100000D02*
X2140000Y55100000D01*
X-6490000Y52560000D02*
X2140000Y52560000D01*
X-6490000Y50020000D02*
X2140000Y50020000D01*
X-6490000Y47480000D02*
X2140000Y47480000D01*
X-6490000Y44940000D02*
X2140000Y44940000D01*
X-6490000Y42400000D02*
X2140000Y42400000D01*
X-6490000Y39860000D02*
X2140000Y39860000D01*
X-6490000Y37260000D02*
X2140000Y37260000D01*
X2140000Y62780000D02*
X2140000Y37260000D01*
X2140000Y61810000D02*
X2490000Y61810000D01*
X2140000Y61090000D02*
X2490000Y61090000D01*
X2140000Y59270000D02*
X2550000Y59270000D01*
X2140000Y58550000D02*
X2550000Y58550000D01*
X2140000Y56730000D02*
X2550000Y56730000D01*
X2140000Y56010000D02*
X2550000Y56010000D01*
X2140000Y54190000D02*
X2550000Y54190000D01*
X2140000Y53470000D02*
X2550000Y53470000D01*
X2140000Y51650000D02*
X2550000Y51650000D01*
X2140000Y50930000D02*
X2550000Y50930000D01*
X2140000Y49110000D02*
X2550000Y49110000D01*
X2140000Y48390000D02*
X2550000Y48390000D01*
X2140000Y46570000D02*
X2550000Y46570000D01*
X2140000Y45850000D02*
X2550000Y45850000D01*
X2140000Y44030000D02*
X2550000Y44030000D01*
X2140000Y43310000D02*
X2550000Y43310000D01*
X2140000Y41490000D02*
X2550000Y41490000D01*
X2140000Y40770000D02*
X2550000Y40770000D01*
X2140000Y38950000D02*
X2550000Y38950000D01*
X2140000Y38230000D02*
X2550000Y38230000D01*
X3600000Y62780000D02*
X4710000Y62780000D01*
X4710000Y62780000D02*
X4710000Y61450000D01*
%TO.C,J4*%
X37570000Y16355000D02*
X38950000Y16355000D01*
X37570000Y14975000D02*
X37570000Y16355000D01*
X37570000Y13705000D02*
X37570000Y11055000D01*
X37570000Y13705000D02*
X40330000Y13705000D01*
X37570000Y11055000D02*
X40330000Y11055000D01*
X40330000Y13705000D02*
X40330000Y11055000D01*
%TO.C,J8*%
X42345000Y24680000D02*
X43725000Y24680000D01*
X42345000Y23300000D02*
X42345000Y24680000D01*
X42345000Y22030000D02*
X42345000Y16840000D01*
X42345000Y22030000D02*
X45105000Y22030000D01*
X42345000Y16840000D02*
X45105000Y16840000D01*
X45105000Y22030000D02*
X45105000Y16840000D01*
%TO.C,J7*%
X37545000Y46480000D02*
X38925000Y46480000D01*
X37545000Y45100000D02*
X37545000Y46480000D01*
X37545000Y43830000D02*
X37545000Y38640000D01*
X37545000Y43830000D02*
X40305000Y43830000D01*
X37545000Y38640000D02*
X40305000Y38640000D01*
X40305000Y43830000D02*
X40305000Y38640000D01*
%TD*%
D19*
%TO.C,Ref\u002A\u002A*%
X33960000Y80200000D03*
X49200000Y80200000D03*
%TD*%
%TO.C,Ref\u002A\u002A*%
X13680000Y80200000D03*
X28920000Y80200000D03*
%TD*%
D20*
%TO.C,*%
X14373516Y48361797D03*
X17516606Y47912784D03*
X17067593Y51055874D03*
X10781414Y57342053D03*
X7638324Y57791066D03*
X8087337Y54647976D03*
%TD*%
%TO.C,*%
X21389680Y48366243D03*
X24532770Y47917230D03*
X24083757Y51060320D03*
X17797578Y57346499D03*
X14654488Y57795512D03*
X15103501Y54652422D03*
%TD*%
%LPC*%
D21*
%TO.C,REF\u002A\u002A*%
X36980000Y58200000D03*
D22*
X39755000Y58200000D03*
X41805000Y58200000D03*
D21*
X44600000Y58200000D03*
%TD*%
%TO.C,REF\u002A\u002A*%
X26780000Y58200000D03*
D22*
X29555000Y58200000D03*
X31605000Y58200000D03*
D21*
X34400000Y58200000D03*
%TD*%
%TO.C,REF\u002A\u002A*%
X37000000Y53300000D03*
D22*
X39775000Y53300000D03*
X41825000Y53300000D03*
D21*
X44620000Y53300000D03*
%TD*%
%TO.C,REF\u002A\u002A*%
X37000000Y55700000D03*
D22*
X39775000Y55700000D03*
X41825000Y55700000D03*
D21*
X44620000Y55700000D03*
%TD*%
%TO.C,REF\u002A\u002A*%
X26800000Y53300000D03*
D22*
X29575000Y53300000D03*
X31625000Y53300000D03*
D21*
X34420000Y53300000D03*
%TD*%
%TO.C,REF\u002A\u002A*%
X26800000Y55700000D03*
D22*
X29575000Y55700000D03*
X31625000Y55700000D03*
D21*
X34420000Y55700000D03*
%TD*%
D23*
%TO.C,Ref\u002A\u002A*%
X33960000Y80200000D03*
X37770000Y80200000D03*
X45390000Y80200000D03*
X49200000Y80200000D03*
X40310000Y80200000D03*
X42850000Y80200000D03*
%TD*%
%TO.C,Ref\u002A\u002A*%
X13680000Y80200000D03*
X17490000Y80200000D03*
X25110000Y80200000D03*
X28920000Y80200000D03*
X20030000Y80200000D03*
X22570000Y80200000D03*
%TD*%
D24*
%TO.C,REF\u002A\u002A*%
X47940000Y57235000D03*
X50480000Y57235000D03*
X53020000Y57235000D03*
X55560000Y57235000D03*
X58100000Y57235000D03*
X47940000Y54695000D03*
X50480000Y54695000D03*
X53020000Y54695000D03*
X55560000Y54695000D03*
X58100000Y54695000D03*
X47940000Y52155000D03*
X50480000Y52155000D03*
X53020000Y52155000D03*
X55560000Y52155000D03*
X58100000Y52155000D03*
X47940000Y49615000D03*
X50480000Y49615000D03*
X53020000Y49615000D03*
X55560000Y49615000D03*
X58100000Y49615000D03*
X47940000Y47075000D03*
X50480000Y47075000D03*
X53020000Y47075000D03*
X55560000Y47075000D03*
X58100000Y47075000D03*
X47940000Y44535000D03*
X50480000Y44535000D03*
X53020000Y44535000D03*
X55560000Y44535000D03*
X58100000Y44535000D03*
X47940000Y41995000D03*
X50480000Y41995000D03*
X53020000Y41995000D03*
X55560000Y41995000D03*
X58100000Y41995000D03*
X47940000Y39455000D03*
X50480000Y39455000D03*
X53020000Y39455000D03*
X55560000Y39455000D03*
X58100000Y39455000D03*
X47940000Y36915000D03*
X50480000Y36915000D03*
X53020000Y36915000D03*
X55560000Y36915000D03*
X58100000Y36915000D03*
X47940000Y34375000D03*
X50480000Y34375000D03*
X53020000Y34375000D03*
X55560000Y34375000D03*
X58100000Y34375000D03*
X47940000Y31835000D03*
X50480000Y31835000D03*
X53020000Y31835000D03*
X55560000Y31835000D03*
X58100000Y31835000D03*
X47940000Y29295000D03*
X50480000Y29295000D03*
X53020000Y29295000D03*
X55560000Y29295000D03*
X58100000Y29295000D03*
X47940000Y26755000D03*
X50480000Y26755000D03*
X53020000Y26755000D03*
X55560000Y26755000D03*
X58100000Y26755000D03*
X47940000Y24215000D03*
X50480000Y24215000D03*
X53020000Y24215000D03*
X55560000Y24215000D03*
X58100000Y24215000D03*
X47940000Y21675000D03*
X50480000Y21675000D03*
X53020000Y21675000D03*
X55560000Y21675000D03*
X58100000Y21675000D03*
X47940000Y19135000D03*
X50480000Y19135000D03*
X53020000Y19135000D03*
X55560000Y19135000D03*
X58100000Y19135000D03*
X47940000Y16595000D03*
X50480000Y16595000D03*
X53020000Y16595000D03*
X55560000Y16595000D03*
X58100000Y16595000D03*
X47940000Y14055000D03*
X50480000Y14055000D03*
X53020000Y14055000D03*
X55560000Y14055000D03*
X58100000Y14055000D03*
X47940000Y11515000D03*
X50480000Y11515000D03*
X53020000Y11515000D03*
X55560000Y11515000D03*
X58100000Y11515000D03*
X47940000Y8975000D03*
X50480000Y8975000D03*
X53020000Y8975000D03*
X55560000Y8975000D03*
X58100000Y8975000D03*
%TD*%
%TO.C,REF\u002A\u002A*%
X56855000Y77675000D03*
X56845000Y64745000D03*
X56855000Y75135000D03*
X56845000Y62205000D03*
X56855000Y72595000D03*
X54305000Y64745000D03*
X56855000Y70055000D03*
X54305000Y62205000D03*
X56855000Y67515000D03*
X51765000Y64745000D03*
X54315000Y77675000D03*
X51765000Y62205000D03*
X54315000Y75135000D03*
X49225000Y64745000D03*
X54315000Y72595000D03*
X49225000Y62205000D03*
X54315000Y70055000D03*
X46685000Y64745000D03*
X54315000Y67515000D03*
X46685000Y62205000D03*
X51775000Y77675000D03*
X44145000Y64745000D03*
X51775000Y75135000D03*
X44145000Y62205000D03*
X51775000Y72595000D03*
X41605000Y64745000D03*
X51775000Y70055000D03*
X41605000Y62205000D03*
X51775000Y67515000D03*
X39065000Y64745000D03*
X49235000Y77675000D03*
X39065000Y62205000D03*
X49235000Y75135000D03*
X36525000Y64745000D03*
X49235000Y72595000D03*
X36525000Y62205000D03*
X49235000Y70055000D03*
X33985000Y64745000D03*
X49235000Y67515000D03*
X33985000Y62205000D03*
X46695000Y77675000D03*
X31445000Y64745000D03*
X46695000Y75135000D03*
X31445000Y62205000D03*
X46695000Y72595000D03*
X28905000Y64745000D03*
X46695000Y70055000D03*
X28905000Y62205000D03*
X46695000Y67515000D03*
X26365000Y64745000D03*
X44155000Y77675000D03*
X26365000Y62205000D03*
X44155000Y75135000D03*
X23825000Y64745000D03*
X44155000Y72595000D03*
X23825000Y62205000D03*
X44155000Y70055000D03*
X21285000Y64745000D03*
X44155000Y67515000D03*
X21285000Y62205000D03*
X41615000Y77675000D03*
X18745000Y64745000D03*
X41615000Y75135000D03*
X18745000Y62205000D03*
X41615000Y72595000D03*
X16205000Y64745000D03*
X41615000Y70055000D03*
X16205000Y62205000D03*
X41615000Y67515000D03*
X13665000Y64745000D03*
X39075000Y77675000D03*
X13665000Y62205000D03*
X39075000Y75135000D03*
X39075000Y72595000D03*
X39075000Y70055000D03*
X39075000Y67515000D03*
X36535000Y77675000D03*
X36535000Y75135000D03*
X36535000Y72595000D03*
X36535000Y70055000D03*
X36535000Y67515000D03*
X33995000Y77675000D03*
X33995000Y75135000D03*
X33995000Y72595000D03*
X33995000Y70055000D03*
X33995000Y67515000D03*
X31455000Y77675000D03*
X31455000Y75135000D03*
X31455000Y72595000D03*
X31455000Y70055000D03*
X31455000Y67515000D03*
X28915000Y77675000D03*
X28915000Y75135000D03*
X28915000Y72595000D03*
X28915000Y70055000D03*
X28915000Y67515000D03*
X26375000Y77675000D03*
X26375000Y75135000D03*
X26375000Y72595000D03*
X26375000Y70055000D03*
X26375000Y67515000D03*
X23835000Y77675000D03*
X23835000Y75135000D03*
X23835000Y72595000D03*
X23835000Y70055000D03*
X23835000Y67515000D03*
X21295000Y77675000D03*
X21295000Y75135000D03*
X21295000Y72595000D03*
X21295000Y70055000D03*
X21295000Y67515000D03*
X18755000Y77675000D03*
X18755000Y75135000D03*
X18755000Y72595000D03*
X18755000Y70055000D03*
X18755000Y67515000D03*
X16215000Y77675000D03*
X16215000Y75135000D03*
X16215000Y72595000D03*
X16215000Y70055000D03*
X16215000Y67515000D03*
X13675000Y77675000D03*
X13675000Y75135000D03*
X13675000Y72595000D03*
X13675000Y70055000D03*
X13675000Y67515000D03*
%TD*%
%TO.C,REF\u002A\u002A*%
X13630000Y82736000D03*
X13640000Y95666000D03*
X13630000Y85276000D03*
X13640000Y98206000D03*
X13630000Y87816000D03*
X16180000Y95666000D03*
X13630000Y90356000D03*
X16180000Y98206000D03*
X13630000Y92896000D03*
X18720000Y95666000D03*
X16170000Y82736000D03*
X18720000Y98206000D03*
X16170000Y85276000D03*
X21260000Y95666000D03*
X16170000Y87816000D03*
X21260000Y98206000D03*
X16170000Y90356000D03*
X23800000Y95666000D03*
X16170000Y92896000D03*
X23800000Y98206000D03*
X18710000Y82736000D03*
X26340000Y95666000D03*
X18710000Y85276000D03*
X26340000Y98206000D03*
X18710000Y87816000D03*
X28880000Y95666000D03*
X18710000Y90356000D03*
X28880000Y98206000D03*
X18710000Y92896000D03*
X31420000Y95666000D03*
X21250000Y82736000D03*
X31420000Y98206000D03*
X21250000Y85276000D03*
X33960000Y95666000D03*
X21250000Y87816000D03*
X33960000Y98206000D03*
X21250000Y90356000D03*
X36500000Y95666000D03*
X21250000Y92896000D03*
X36500000Y98206000D03*
X23790000Y82736000D03*
X39040000Y95666000D03*
X23790000Y85276000D03*
X39040000Y98206000D03*
X23790000Y87816000D03*
X41580000Y95666000D03*
X23790000Y90356000D03*
X41580000Y98206000D03*
X23790000Y92896000D03*
X44120000Y95666000D03*
X26330000Y82736000D03*
X44120000Y98206000D03*
X26330000Y85276000D03*
X46660000Y95666000D03*
X26330000Y87816000D03*
X46660000Y98206000D03*
X26330000Y90356000D03*
X49200000Y95666000D03*
X26330000Y92896000D03*
X49200000Y98206000D03*
X28870000Y82736000D03*
X51740000Y95666000D03*
X28870000Y85276000D03*
X51740000Y98206000D03*
X28870000Y87816000D03*
X54280000Y95666000D03*
X28870000Y90356000D03*
X54280000Y98206000D03*
X28870000Y92896000D03*
X56820000Y95666000D03*
X31410000Y82736000D03*
X56820000Y98206000D03*
X31410000Y85276000D03*
X31410000Y87816000D03*
X31410000Y90356000D03*
X31410000Y92896000D03*
X33950000Y82736000D03*
X33950000Y85276000D03*
X33950000Y87816000D03*
X33950000Y90356000D03*
X33950000Y92896000D03*
X36490000Y82736000D03*
X36490000Y85276000D03*
X36490000Y87816000D03*
X36490000Y90356000D03*
X36490000Y92896000D03*
X39030000Y82736000D03*
X39030000Y85276000D03*
X39030000Y87816000D03*
X39030000Y90356000D03*
X39030000Y92896000D03*
X41570000Y82736000D03*
X41570000Y85276000D03*
X41570000Y87816000D03*
X41570000Y90356000D03*
X41570000Y92896000D03*
X44110000Y82736000D03*
X44110000Y85276000D03*
X44110000Y87816000D03*
X44110000Y90356000D03*
X44110000Y92896000D03*
X46650000Y82736000D03*
X46650000Y85276000D03*
X46650000Y87816000D03*
X46650000Y90356000D03*
X46650000Y92896000D03*
X49190000Y82736000D03*
X49190000Y85276000D03*
X49190000Y87816000D03*
X49190000Y90356000D03*
X49190000Y92896000D03*
X51730000Y82736000D03*
X51730000Y85276000D03*
X51730000Y87816000D03*
X51730000Y90356000D03*
X51730000Y92896000D03*
X54270000Y82736000D03*
X54270000Y85276000D03*
X54270000Y87816000D03*
X54270000Y90356000D03*
X54270000Y92896000D03*
X56810000Y82736000D03*
X56810000Y85276000D03*
X56810000Y87816000D03*
X56810000Y90356000D03*
X56810000Y92896000D03*
%TD*%
D25*
%TO.C,*%
X14373516Y48361797D03*
D26*
X13037084Y51048803D03*
D25*
X17516606Y47912784D03*
D26*
X13708836Y51720554D03*
D25*
X17067593Y51055874D03*
D26*
X14380587Y52392306D03*
X12117846Y54655047D03*
D25*
X10781414Y57342053D03*
D26*
X11446094Y53983296D03*
D25*
X7638324Y57791066D03*
D26*
X10774343Y53311544D03*
D25*
X8087337Y54647976D03*
%TD*%
%TO.C,*%
X21389680Y48366243D03*
D26*
X20053248Y51053249D03*
D25*
X24532770Y47917230D03*
D26*
X20725000Y51725000D03*
D25*
X24083757Y51060320D03*
D26*
X21396751Y52396752D03*
X19134010Y54659493D03*
D25*
X17797578Y57346499D03*
D26*
X18462258Y53987742D03*
D25*
X14654488Y57795512D03*
D26*
X17790507Y53315990D03*
D25*
X15103501Y54652422D03*
%TD*%
D27*
%TO.C,HS1*%
X9200000Y18350000D03*
%TD*%
D28*
%TO.C,D1*%
X47923000Y5667231D03*
X47923000Y2467231D03*
X53077000Y2467231D03*
X53077000Y5667231D03*
%TD*%
D29*
%TO.C,H1*%
X5000000Y95000000D03*
%TD*%
%TO.C,H2*%
X65000000Y95000000D03*
%TD*%
%TO.C,H3*%
X5000000Y5000000D03*
%TD*%
%TO.C,H4*%
X65000000Y5000000D03*
%TD*%
D23*
%TO.C,A1*%
X20010000Y42360000D03*
D30*
X20010000Y39820000D03*
X20010000Y37280000D03*
X20010000Y34740000D03*
X20010000Y32200000D03*
X20010000Y29660000D03*
X20010000Y27120000D03*
X20010000Y24580000D03*
X20010000Y22040000D03*
X20010000Y19500000D03*
X20010000Y16960000D03*
X20010000Y14420000D03*
X20010000Y11880000D03*
X20010000Y9340000D03*
X20010000Y6800000D03*
X35250000Y6800000D03*
X35250000Y9340000D03*
X35250000Y11880000D03*
X35250000Y14420000D03*
X35250000Y16960000D03*
X35250000Y19500000D03*
X35250000Y22040000D03*
X35250000Y24580000D03*
X35250000Y27120000D03*
X35250000Y29660000D03*
X35250000Y32200000D03*
X35250000Y34740000D03*
X35250000Y37280000D03*
X35250000Y39820000D03*
X35250000Y42360000D03*
%TD*%
D31*
%TO.C,J3*%
X43800000Y42640000D03*
D21*
X43800000Y40100000D03*
%TD*%
D31*
%TO.C,J2*%
X43725000Y31925000D03*
D21*
X43725000Y29385000D03*
X43725000Y26845000D03*
%TD*%
D32*
%TO.C,J5*%
X28765000Y48700000D03*
D21*
X31305000Y48700000D03*
X33845000Y48700000D03*
X36385000Y48700000D03*
X38925000Y48700000D03*
%TD*%
D31*
%TO.C,J6*%
X38975000Y31990000D03*
D21*
X38975000Y29450000D03*
X38975000Y26910000D03*
X38975000Y24370000D03*
X38975000Y21830000D03*
X38975000Y19290000D03*
%TD*%
D33*
%TO.C,REF\u002A\u002A*%
X65675000Y18025000D03*
D34*
X65675000Y21525000D03*
X65675000Y25025000D03*
X65675000Y28525000D03*
X65675000Y32025000D03*
X65675000Y35525000D03*
X65675000Y39025000D03*
X65675000Y42525000D03*
X65675000Y46025000D03*
X65675000Y49525000D03*
X65675000Y53025000D03*
X65675000Y56525000D03*
%TD*%
D33*
%TO.C,REF\u002A\u002A*%
X65700000Y62050000D03*
D34*
X65700000Y65550000D03*
X65700000Y69050000D03*
X65700000Y72550000D03*
X65700000Y76050000D03*
X65700000Y79550000D03*
X65700000Y83050000D03*
X65700000Y86550000D03*
%TD*%
D31*
%TO.C,J1*%
X3600000Y61450000D03*
D21*
X3600000Y58910000D03*
X3600000Y56370000D03*
X3600000Y53830000D03*
X3600000Y51290000D03*
X3600000Y48750000D03*
X3600000Y46210000D03*
X3600000Y43670000D03*
X3600000Y41130000D03*
X3600000Y38590000D03*
%TD*%
D31*
%TO.C,J4*%
X38950000Y14975000D03*
D21*
X38950000Y12435000D03*
%TD*%
D31*
%TO.C,J8*%
X43725000Y23300000D03*
D21*
X43725000Y20760000D03*
X43725000Y18220000D03*
%TD*%
D31*
%TO.C,J7*%
X38925000Y45100000D03*
D21*
X38925000Y42560000D03*
X38925000Y40020000D03*
%TD*%
%LPD*%
M02*
