M48
; DRILL file {KiCad 9.0.1} date 2026-01-25T23:03:20-0500
; FORMAT={-:-/ absolute / inch / decimal}
; #@! TF.CreationDate,2026-01-25T23:03:20-05:00
; #@! TF.GenerationSoftware,Kicad,Pcbnew,9.0.1
; #@! TF.FileFunction,Plated,1,2,PTH
FMAT,2
INCH
; #@! TA.AperFunction,Plated,PTH,ViaDrill
T1C0.0118
; #@! TA.AperFunction,Plated,PTH,ViaDrill
T2C0.0157
; #@! TA.AperFunction,Plated,PTH,ComponentDrill
T3C0.0300
; #@! TA.AperFunction,Plated,PTH,ViaDrill
T4C0.0315
; #@! TA.AperFunction,Plated,PTH,ComponentDrill
T5C0.0394
; #@! TA.AperFunction,Plated,PTH,ComponentDrill
T6C0.0472
%
G90
G05
T1
X0.2421Y0.6356
X0.2854Y0.7419
X0.2933Y0.86
X0.3209Y0.7419
X0.3366Y0.8285
X0.3366Y0.7695
X0.3839Y0.86
X1.126Y1.5679
T2
X0.1398Y0.6533
X0.1476Y0.5254
X0.2894Y0.9289
X0.561Y0.862
X0.561Y0.7478
X0.561Y0.551
X2.0866Y0.1535
T3
X0.5366Y3.6573
X0.5366Y3.5573
X0.5366Y3.4573
X0.5366Y3.3573
X0.5366Y3.2573
X0.537Y3.8664
X0.537Y3.7664
X0.538Y2.549
X0.538Y2.449
X0.5384Y3.0581
X0.5384Y2.9581
X0.5384Y2.8581
X0.5384Y2.7581
X0.5384Y2.6581
X0.6366Y3.6573
X0.6366Y3.5573
X0.6366Y3.4573
X0.6366Y3.3573
X0.6366Y3.2573
X0.637Y3.8664
X0.637Y3.7664
X0.638Y2.549
X0.638Y2.449
X0.6384Y3.0581
X0.6384Y2.9581
X0.6384Y2.8581
X0.6384Y2.7581
X0.6384Y2.6581
X0.7366Y3.6573
X0.7366Y3.5573
X0.7366Y3.4573
X0.7366Y3.3573
X0.7366Y3.2573
X0.737Y3.8664
X0.737Y3.7664
X0.738Y2.549
X0.738Y2.449
X0.7384Y3.0581
X0.7384Y2.9581
X0.7384Y2.8581
X0.7384Y2.7581
X0.7384Y2.6581
X0.8366Y3.6573
X0.8366Y3.5573
X0.8366Y3.4573
X0.8366Y3.3573
X0.8366Y3.2573
X0.837Y3.8664
X0.837Y3.7664
X0.838Y2.549
X0.838Y2.449
X0.8384Y3.0581
X0.8384Y2.9581
X0.8384Y2.8581
X0.8384Y2.7581
X0.8384Y2.6581
X0.9366Y3.6573
X0.9366Y3.5573
X0.9366Y3.4573
X0.9366Y3.3573
X0.9366Y3.2573
X0.937Y3.8664
X0.937Y3.7664
X0.938Y2.549
X0.938Y2.449
X0.9384Y3.0581
X0.9384Y2.9581
X0.9384Y2.8581
X0.9384Y2.7581
X0.9384Y2.6581
X1.0366Y3.6573
X1.0366Y3.5573
X1.0366Y3.4573
X1.0366Y3.3573
X1.0366Y3.2573
X1.037Y3.8664
X1.037Y3.7664
X1.038Y2.549
X1.038Y2.449
X1.0384Y3.0581
X1.0384Y2.9581
X1.0384Y2.8581
X1.0384Y2.7581
X1.0384Y2.6581
X1.1366Y3.6573
X1.1366Y3.5573
X1.1366Y3.4573
X1.1366Y3.3573
X1.1366Y3.2573
X1.137Y3.8664
X1.137Y3.7664
X1.138Y2.549
X1.138Y2.449
X1.1384Y3.0581
X1.1384Y2.9581
X1.1384Y2.8581
X1.1384Y2.7581
X1.1384Y2.6581
X1.2366Y3.6573
X1.2366Y3.5573
X1.2366Y3.4573
X1.2366Y3.3573
X1.2366Y3.2573
X1.237Y3.8664
X1.237Y3.7664
X1.238Y2.549
X1.238Y2.449
X1.2384Y3.0581
X1.2384Y2.9581
X1.2384Y2.8581
X1.2384Y2.7581
X1.2384Y2.6581
X1.3366Y3.6573
X1.3366Y3.5573
X1.3366Y3.4573
X1.3366Y3.3573
X1.3366Y3.2573
X1.337Y3.8664
X1.337Y3.7664
X1.338Y2.549
X1.338Y2.449
X1.3384Y3.0581
X1.3384Y2.9581
X1.3384Y2.8581
X1.3384Y2.7581
X1.3384Y2.6581
X1.4366Y3.6573
X1.4366Y3.5573
X1.4366Y3.4573
X1.4366Y3.3573
X1.4366Y3.2573
X1.437Y3.8664
X1.437Y3.7664
X1.438Y2.549
X1.438Y2.449
X1.4384Y3.0581
X1.4384Y2.9581
X1.4384Y2.8581
X1.4384Y2.7581
X1.4384Y2.6581
X1.5366Y3.6573
X1.5366Y3.5573
X1.5366Y3.4573
X1.5366Y3.3573
X1.5366Y3.2573
X1.537Y3.8664
X1.537Y3.7664
X1.538Y2.549
X1.538Y2.449
X1.5384Y3.0581
X1.5384Y2.9581
X1.5384Y2.8581
X1.5384Y2.7581
X1.5384Y2.6581
X1.6366Y3.6573
X1.6366Y3.5573
X1.6366Y3.4573
X1.6366Y3.3573
X1.6366Y3.2573
X1.637Y3.8664
X1.637Y3.7664
X1.638Y2.549
X1.638Y2.449
X1.6384Y3.0581
X1.6384Y2.9581
X1.6384Y2.8581
X1.6384Y2.7581
X1.6384Y2.6581
X1.7366Y3.6573
X1.7366Y3.5573
X1.7366Y3.4573
X1.7366Y3.3573
X1.7366Y3.2573
X1.737Y3.8664
X1.737Y3.7664
X1.738Y2.549
X1.738Y2.449
X1.7384Y3.0581
X1.7384Y2.9581
X1.7384Y2.8581
X1.7384Y2.7581
X1.7384Y2.6581
X1.8366Y3.6573
X1.8366Y3.5573
X1.8366Y3.4573
X1.8366Y3.3573
X1.8366Y3.2573
X1.837Y3.8664
X1.837Y3.7664
X1.838Y2.549
X1.838Y2.449
X1.8384Y3.0581
X1.8384Y2.9581
X1.8384Y2.8581
X1.8384Y2.7581
X1.8384Y2.6581
X1.8874Y2.2533
X1.8874Y2.1533
X1.8874Y2.0533
X1.8874Y1.9533
X1.8874Y1.8533
X1.8874Y1.7533
X1.8874Y1.6533
X1.8874Y1.5533
X1.8874Y1.4533
X1.8874Y1.3533
X1.8874Y1.2533
X1.8874Y1.1533
X1.8874Y1.0533
X1.8874Y0.9533
X1.8874Y0.8533
X1.8874Y0.7533
X1.8874Y0.6533
X1.8874Y0.5533
X1.8874Y0.4533
X1.8874Y0.3533
X1.9366Y3.6573
X1.9366Y3.5573
X1.9366Y3.4573
X1.9366Y3.3573
X1.9366Y3.2573
X1.937Y3.8664
X1.937Y3.7664
X1.938Y2.549
X1.938Y2.449
X1.9384Y3.0581
X1.9384Y2.9581
X1.9384Y2.8581
X1.9384Y2.7581
X1.9384Y2.6581
X1.9874Y2.2533
X1.9874Y2.1533
X1.9874Y2.0533
X1.9874Y1.9533
X1.9874Y1.8533
X1.9874Y1.7533
X1.9874Y1.6533
X1.9874Y1.5533
X1.9874Y1.4533
X1.9874Y1.3533
X1.9874Y1.2533
X1.9874Y1.1533
X1.9874Y1.0533
X1.9874Y0.9533
X1.9874Y0.8533
X1.9874Y0.7533
X1.9874Y0.6533
X1.9874Y0.5533
X1.9874Y0.4533
X1.9874Y0.3533
X2.0366Y3.6573
X2.0366Y3.5573
X2.0366Y3.4573
X2.0366Y3.3573
X2.0366Y3.2573
X2.037Y3.8664
X2.037Y3.7664
X2.038Y2.549
X2.038Y2.449
X2.0384Y3.0581
X2.0384Y2.9581
X2.0384Y2.8581
X2.0384Y2.7581
X2.0384Y2.6581
X2.0874Y2.2533
X2.0874Y2.1533
X2.0874Y2.0533
X2.0874Y1.9533
X2.0874Y1.8533
X2.0874Y1.7533
X2.0874Y1.6533
X2.0874Y1.5533
X2.0874Y1.4533
X2.0874Y1.3533
X2.0874Y1.2533
X2.0874Y1.1533
X2.0874Y1.0533
X2.0874Y0.9533
X2.0874Y0.8533
X2.0874Y0.7533
X2.0874Y0.6533
X2.0874Y0.5533
X2.0874Y0.4533
X2.0874Y0.3533
X2.1366Y3.6573
X2.1366Y3.5573
X2.1366Y3.4573
X2.1366Y3.3573
X2.1366Y3.2573
X2.137Y3.8664
X2.137Y3.7664
X2.138Y2.549
X2.138Y2.449
X2.1384Y3.0581
X2.1384Y2.9581
X2.1384Y2.8581
X2.1384Y2.7581
X2.1384Y2.6581
X2.1874Y2.2533
X2.1874Y2.1533
X2.1874Y2.0533
X2.1874Y1.9533
X2.1874Y1.8533
X2.1874Y1.7533
X2.1874Y1.6533
X2.1874Y1.5533
X2.1874Y1.4533
X2.1874Y1.3533
X2.1874Y1.2533
X2.1874Y1.1533
X2.1874Y1.0533
X2.1874Y0.9533
X2.1874Y0.8533
X2.1874Y0.7533
X2.1874Y0.6533
X2.1874Y0.5533
X2.1874Y0.4533
X2.1874Y0.3533
X2.2366Y3.6573
X2.2366Y3.5573
X2.2366Y3.4573
X2.2366Y3.3573
X2.2366Y3.2573
X2.237Y3.8664
X2.237Y3.7664
X2.238Y2.549
X2.238Y2.449
X2.2384Y3.0581
X2.2384Y2.9581
X2.2384Y2.8581
X2.2384Y2.7581
X2.2384Y2.6581
X2.2874Y2.2533
X2.2874Y2.1533
X2.2874Y2.0533
X2.2874Y1.9533
X2.2874Y1.8533
X2.2874Y1.7533
X2.2874Y1.6533
X2.2874Y1.5533
X2.2874Y1.4533
X2.2874Y1.3533
X2.2874Y1.2533
X2.2874Y1.1533
X2.2874Y1.0533
X2.2874Y0.9533
X2.2874Y0.8533
X2.2874Y0.7533
X2.2874Y0.6533
X2.2874Y0.5533
X2.2874Y0.4533
X2.2874Y0.3533
T4
X0.2008Y1.0276
X0.498Y0.4173
T5
X0.1417Y2.4193
X0.1417Y2.3193
X0.1417Y2.2193
X0.1417Y2.1193
X0.1417Y2.0193
X0.1417Y1.9193
X0.1417Y1.8193
X0.1417Y1.7193
X0.1417Y1.6193
X0.1417Y1.5193
X0.3007Y2.2752
X0.3184Y2.1515
X0.4245Y2.2576
X0.5386Y3.1575
X0.5659Y1.904
X0.5769Y2.2754
X0.5946Y2.1517
X0.672Y2.0101
X0.6896Y1.8863
X0.7007Y2.2577
X0.7878Y1.6677
X0.7878Y1.5677
X0.7878Y1.4677
X0.7878Y1.3677
X0.7878Y1.2677
X0.7878Y1.1677
X0.7878Y1.0677
X0.7878Y0.9677
X0.7878Y0.8677
X0.7878Y0.7677
X0.7878Y0.6677
X0.7878Y0.5677
X0.7878Y0.4677
X0.7878Y0.3677
X0.7878Y0.2677
X0.8421Y1.9042
X0.9482Y2.0102
X0.9659Y1.8865
X1.0543Y2.2913
X1.0551Y2.1929
X1.0551Y2.0984
X1.1325Y1.9173
X1.1386Y3.1575
X1.2325Y1.9173
X1.3325Y1.9173
X1.337Y3.1575
X1.3543Y2.2913
X1.3551Y2.1929
X1.3551Y2.0984
X1.3878Y1.6677
X1.3878Y1.5677
X1.3878Y1.4677
X1.3878Y1.3677
X1.3878Y1.2677
X1.3878Y1.1677
X1.3878Y1.0677
X1.3878Y0.9677
X1.3878Y0.8677
X1.3878Y0.7677
X1.3878Y0.6677
X1.3878Y0.5677
X1.3878Y0.4677
X1.3878Y0.3677
X1.3878Y0.2677
X1.4325Y1.9173
X1.4559Y2.2913
X1.4567Y2.1929
X1.4567Y2.0984
X1.5325Y1.9173
X1.5325Y1.7756
X1.5325Y1.6756
X1.5325Y1.5756
X1.5335Y0.5896
X1.5335Y0.4896
X1.5344Y1.2594
X1.5344Y1.1594
X1.5344Y1.0594
X1.5344Y0.9594
X1.5344Y0.8594
X1.5344Y0.7594
X1.7215Y1.2569
X1.7215Y1.1569
X1.7215Y1.0569
X1.7215Y0.9173
X1.7215Y0.8173
X1.7215Y0.7173
X1.7244Y1.6787
X1.7244Y1.5787
X1.7559Y2.2913
X1.7567Y2.1929
X1.7567Y2.0984
X1.937Y3.1575
T6
X2.5856Y2.2254
X2.5856Y2.0876
X2.5856Y1.9498
X2.5856Y1.812
X2.5856Y1.6742
X2.5856Y1.5364
X2.5856Y1.3986
X2.5856Y1.2608
X2.5856Y1.123
X2.5856Y0.9852
X2.5856Y0.8474
X2.5856Y0.7096
X2.5866Y3.4075
X2.5866Y3.2697
X2.5866Y3.1319
X2.5866Y2.9941
X2.5866Y2.8563
X2.5866Y2.7185
X2.5866Y2.5807
X2.5866Y2.4429
M30
