%TF.GenerationSoftware,KiCad,Pcbnew,9.0.1*%
%TF.CreationDate,2025-05-07T10:28:51-04:00*%
%TF.ProjectId,BREAD_Slice_connProto,42524541-445f-4536-9c69-63655f636f6e,rev?*%
%TF.SameCoordinates,PX74eba40PY8552dc0*%
%TF.FileFunction,Legend,Top*%
%TF.FilePolarity,Positive*%
%FSLAX46Y46*%
G04 Gerber Fmt 4.6, Leading zero omitted, Abs format (unit mm)*
G04 Created by KiCad (PCBNEW 9.0.1) date 2025-05-07 10:28:51*
%MOMM*%
%LPD*%
G01*
G04 APERTURE LIST*
G04 Aperture macros list*
%AMRoundRect*
0 Rectangle with rounded corners*
0 $1 Rounding radius*
0 $2 $3 $4 $5 $6 $7 $8 $9 X,Y pos of 4 corners*
0 Add a 4 corners polygon primitive as box body*
4,1,4,$2,$3,$4,$5,$6,$7,$8,$9,$2,$3,0*
0 Add four circle primitives for the rounded corners*
1,1,$1+$1,$2,$3*
1,1,$1+$1,$4,$5*
1,1,$1+$1,$6,$7*
1,1,$1+$1,$8,$9*
0 Add four rect primitives between the rounded corners*
20,1,$1+$1,$2,$3,$4,$5,0*
20,1,$1+$1,$4,$5,$6,$7,0*
20,1,$1+$1,$6,$7,$8,$9,0*
20,1,$1+$1,$8,$9,$2,$3,0*%
G04 Aperture macros list end*
%ADD10C,0.150000*%
%ADD11C,0.300000*%
%ADD12C,0.100000*%
%ADD13C,0.120000*%
%ADD14C,0.010000*%
%ADD15C,0.177800*%
%ADD16C,0.200000*%
%ADD17C,5.100000*%
%ADD18RoundRect,0.050000X-0.800000X-0.800000X0.800000X-0.800000X0.800000X0.800000X-0.800000X0.800000X0*%
%ADD19O,1.700000X1.700000*%
%ADD20RoundRect,0.050000X-0.850000X-0.850000X0.850000X-0.850000X0.850000X0.850000X-0.850000X0.850000X0*%
%ADD21O,1.800000X1.800000*%
%ADD22RoundRect,1.008333X-5.041667X-5.041667X5.041667X-5.041667X5.041667X5.041667X-5.041667X5.041667X0*%
%ADD23RoundRect,0.050000X1.200000X-1.200000X1.200000X1.200000X-1.200000X1.200000X-1.200000X-1.200000X0*%
%ADD24C,2.500000*%
%ADD25C,1.800000*%
%ADD26RoundRect,0.101600X-0.825500X-0.500000X0.825500X-0.500000X0.825500X0.500000X-0.825500X0.500000X0*%
G04 APERTURE END LIST*
D10*
X6686666Y51677610D02*
X6610476Y51715705D01*
X6610476Y51715705D02*
X6496190Y51715705D01*
X6496190Y51715705D02*
X6381904Y51677610D01*
X6381904Y51677610D02*
X6305714Y51601420D01*
X6305714Y51601420D02*
X6267619Y51525229D01*
X6267619Y51525229D02*
X6229523Y51372848D01*
X6229523Y51372848D02*
X6229523Y51258562D01*
X6229523Y51258562D02*
X6267619Y51106181D01*
X6267619Y51106181D02*
X6305714Y51029991D01*
X6305714Y51029991D02*
X6381904Y50953800D01*
X6381904Y50953800D02*
X6496190Y50915705D01*
X6496190Y50915705D02*
X6572381Y50915705D01*
X6572381Y50915705D02*
X6686666Y50953800D01*
X6686666Y50953800D02*
X6724762Y50991896D01*
X6724762Y50991896D02*
X6724762Y51258562D01*
X6724762Y51258562D02*
X6572381Y51258562D01*
X7067619Y50915705D02*
X7067619Y51715705D01*
X7067619Y51715705D02*
X7524762Y50915705D01*
X7524762Y50915705D02*
X7524762Y51715705D01*
X7905714Y50915705D02*
X7905714Y51715705D01*
X7905714Y51715705D02*
X8096190Y51715705D01*
X8096190Y51715705D02*
X8210476Y51677610D01*
X8210476Y51677610D02*
X8286666Y51601420D01*
X8286666Y51601420D02*
X8324761Y51525229D01*
X8324761Y51525229D02*
X8362857Y51372848D01*
X8362857Y51372848D02*
X8362857Y51258562D01*
X8362857Y51258562D02*
X8324761Y51106181D01*
X8324761Y51106181D02*
X8286666Y51029991D01*
X8286666Y51029991D02*
X8210476Y50953800D01*
X8210476Y50953800D02*
X8096190Y50915705D01*
X8096190Y50915705D02*
X7905714Y50915705D01*
X55157142Y3145181D02*
X54680952Y3145181D01*
X54680952Y3145181D02*
X54680952Y4145181D01*
X55490476Y3668991D02*
X55823809Y3668991D01*
X55966666Y3145181D02*
X55490476Y3145181D01*
X55490476Y3145181D02*
X55490476Y4145181D01*
X55490476Y4145181D02*
X55966666Y4145181D01*
X56395238Y3145181D02*
X56395238Y4145181D01*
X56395238Y4145181D02*
X56633333Y4145181D01*
X56633333Y4145181D02*
X56776190Y4097562D01*
X56776190Y4097562D02*
X56871428Y4002324D01*
X56871428Y4002324D02*
X56919047Y3907086D01*
X56919047Y3907086D02*
X56966666Y3716610D01*
X56966666Y3716610D02*
X56966666Y3573753D01*
X56966666Y3573753D02*
X56919047Y3383277D01*
X56919047Y3383277D02*
X56871428Y3288039D01*
X56871428Y3288039D02*
X56776190Y3192800D01*
X56776190Y3192800D02*
X56633333Y3145181D01*
X56633333Y3145181D02*
X56395238Y3145181D01*
X6686666Y40765705D02*
X6229523Y40765705D01*
X6458095Y40765705D02*
X6458095Y41565705D01*
X6458095Y41565705D02*
X6381904Y41451420D01*
X6381904Y41451420D02*
X6305714Y41375229D01*
X6305714Y41375229D02*
X6229523Y41337134D01*
X6991428Y41489515D02*
X7029524Y41527610D01*
X7029524Y41527610D02*
X7105714Y41565705D01*
X7105714Y41565705D02*
X7296190Y41565705D01*
X7296190Y41565705D02*
X7372381Y41527610D01*
X7372381Y41527610D02*
X7410476Y41489515D01*
X7410476Y41489515D02*
X7448571Y41413324D01*
X7448571Y41413324D02*
X7448571Y41337134D01*
X7448571Y41337134D02*
X7410476Y41222848D01*
X7410476Y41222848D02*
X6953333Y40765705D01*
X6953333Y40765705D02*
X7448571Y40765705D01*
X7677143Y41565705D02*
X7943810Y40765705D01*
X7943810Y40765705D02*
X8210476Y41565705D01*
D11*
X57214536Y46990895D02*
X58166917Y46990895D01*
X57024060Y46419466D02*
X57690726Y48419466D01*
X57690726Y48419466D02*
X58357393Y46419466D01*
X58833584Y48419466D02*
X60166917Y48419466D01*
X60166917Y48419466D02*
X59309774Y46419466D01*
X57214536Y43771007D02*
X58166917Y43771007D01*
X57024060Y43199578D02*
X57690726Y45199578D01*
X57690726Y45199578D02*
X58357393Y43199578D01*
X59881203Y45199578D02*
X59500250Y45199578D01*
X59500250Y45199578D02*
X59309774Y45104340D01*
X59309774Y45104340D02*
X59214536Y45009102D01*
X59214536Y45009102D02*
X59024060Y44723388D01*
X59024060Y44723388D02*
X58928822Y44342436D01*
X58928822Y44342436D02*
X58928822Y43580531D01*
X58928822Y43580531D02*
X59024060Y43390055D01*
X59024060Y43390055D02*
X59119298Y43294816D01*
X59119298Y43294816D02*
X59309774Y43199578D01*
X59309774Y43199578D02*
X59690727Y43199578D01*
X59690727Y43199578D02*
X59881203Y43294816D01*
X59881203Y43294816D02*
X59976441Y43390055D01*
X59976441Y43390055D02*
X60071679Y43580531D01*
X60071679Y43580531D02*
X60071679Y44056721D01*
X60071679Y44056721D02*
X59976441Y44247197D01*
X59976441Y44247197D02*
X59881203Y44342436D01*
X59881203Y44342436D02*
X59690727Y44437674D01*
X59690727Y44437674D02*
X59309774Y44437674D01*
X59309774Y44437674D02*
X59119298Y44342436D01*
X59119298Y44342436D02*
X59024060Y44247197D01*
X59024060Y44247197D02*
X58928822Y44056721D01*
X57214536Y40551119D02*
X58166917Y40551119D01*
X57024060Y39979690D02*
X57690726Y41979690D01*
X57690726Y41979690D02*
X58357393Y39979690D01*
X59976441Y41979690D02*
X59024060Y41979690D01*
X59024060Y41979690D02*
X58928822Y41027309D01*
X58928822Y41027309D02*
X59024060Y41122548D01*
X59024060Y41122548D02*
X59214536Y41217786D01*
X59214536Y41217786D02*
X59690727Y41217786D01*
X59690727Y41217786D02*
X59881203Y41122548D01*
X59881203Y41122548D02*
X59976441Y41027309D01*
X59976441Y41027309D02*
X60071679Y40836833D01*
X60071679Y40836833D02*
X60071679Y40360643D01*
X60071679Y40360643D02*
X59976441Y40170167D01*
X59976441Y40170167D02*
X59881203Y40074928D01*
X59881203Y40074928D02*
X59690727Y39979690D01*
X59690727Y39979690D02*
X59214536Y39979690D01*
X59214536Y39979690D02*
X59024060Y40074928D01*
X59024060Y40074928D02*
X58928822Y40170167D01*
X57214536Y37331231D02*
X58166917Y37331231D01*
X57024060Y36759802D02*
X57690726Y38759802D01*
X57690726Y38759802D02*
X58357393Y36759802D01*
X59881203Y38093136D02*
X59881203Y36759802D01*
X59405012Y38855040D02*
X58928822Y37426469D01*
X58928822Y37426469D02*
X60166917Y37426469D01*
X57214536Y34111343D02*
X58166917Y34111343D01*
X57024060Y33539914D02*
X57690726Y35539914D01*
X57690726Y35539914D02*
X58357393Y33539914D01*
X58833584Y35539914D02*
X60071679Y35539914D01*
X60071679Y35539914D02*
X59405012Y34778010D01*
X59405012Y34778010D02*
X59690727Y34778010D01*
X59690727Y34778010D02*
X59881203Y34682772D01*
X59881203Y34682772D02*
X59976441Y34587533D01*
X59976441Y34587533D02*
X60071679Y34397057D01*
X60071679Y34397057D02*
X60071679Y33920867D01*
X60071679Y33920867D02*
X59976441Y33730391D01*
X59976441Y33730391D02*
X59881203Y33635152D01*
X59881203Y33635152D02*
X59690727Y33539914D01*
X59690727Y33539914D02*
X59119298Y33539914D01*
X59119298Y33539914D02*
X58928822Y33635152D01*
X58928822Y33635152D02*
X58833584Y33730391D01*
X57214536Y30891455D02*
X58166917Y30891455D01*
X57024060Y30320026D02*
X57690726Y32320026D01*
X57690726Y32320026D02*
X58357393Y30320026D01*
X58928822Y32129550D02*
X59024060Y32224788D01*
X59024060Y32224788D02*
X59214536Y32320026D01*
X59214536Y32320026D02*
X59690727Y32320026D01*
X59690727Y32320026D02*
X59881203Y32224788D01*
X59881203Y32224788D02*
X59976441Y32129550D01*
X59976441Y32129550D02*
X60071679Y31939074D01*
X60071679Y31939074D02*
X60071679Y31748598D01*
X60071679Y31748598D02*
X59976441Y31462884D01*
X59976441Y31462884D02*
X58833584Y30320026D01*
X58833584Y30320026D02*
X60071679Y30320026D01*
X57214536Y27671567D02*
X58166917Y27671567D01*
X57024060Y27100138D02*
X57690726Y29100138D01*
X57690726Y29100138D02*
X58357393Y27100138D01*
X60071679Y27100138D02*
X58928822Y27100138D01*
X59500250Y27100138D02*
X59500250Y29100138D01*
X59500250Y29100138D02*
X59309774Y28814424D01*
X59309774Y28814424D02*
X59119298Y28623948D01*
X59119298Y28623948D02*
X58928822Y28528710D01*
X57214536Y24451679D02*
X58166917Y24451679D01*
X57024060Y23880250D02*
X57690726Y25880250D01*
X57690726Y25880250D02*
X58357393Y23880250D01*
X59405012Y25880250D02*
X59595489Y25880250D01*
X59595489Y25880250D02*
X59785965Y25785012D01*
X59785965Y25785012D02*
X59881203Y25689774D01*
X59881203Y25689774D02*
X59976441Y25499298D01*
X59976441Y25499298D02*
X60071679Y25118346D01*
X60071679Y25118346D02*
X60071679Y24642155D01*
X60071679Y24642155D02*
X59976441Y24261203D01*
X59976441Y24261203D02*
X59881203Y24070727D01*
X59881203Y24070727D02*
X59785965Y23975488D01*
X59785965Y23975488D02*
X59595489Y23880250D01*
X59595489Y23880250D02*
X59405012Y23880250D01*
X59405012Y23880250D02*
X59214536Y23975488D01*
X59214536Y23975488D02*
X59119298Y24070727D01*
X59119298Y24070727D02*
X59024060Y24261203D01*
X59024060Y24261203D02*
X58928822Y24642155D01*
X58928822Y24642155D02*
X58928822Y25118346D01*
X58928822Y25118346D02*
X59024060Y25499298D01*
X59024060Y25499298D02*
X59119298Y25689774D01*
X59119298Y25689774D02*
X59214536Y25785012D01*
X59214536Y25785012D02*
X59405012Y25880250D01*
X53595488Y21231791D02*
X54547869Y21231791D01*
X53405012Y20660362D02*
X54071678Y22660362D01*
X54071678Y22660362D02*
X54738345Y20660362D01*
X56547869Y20660362D02*
X55881202Y21612743D01*
X55405012Y20660362D02*
X55405012Y22660362D01*
X55405012Y22660362D02*
X56166917Y22660362D01*
X56166917Y22660362D02*
X56357393Y22565124D01*
X56357393Y22565124D02*
X56452631Y22469886D01*
X56452631Y22469886D02*
X56547869Y22279410D01*
X56547869Y22279410D02*
X56547869Y21993696D01*
X56547869Y21993696D02*
X56452631Y21803220D01*
X56452631Y21803220D02*
X56357393Y21707981D01*
X56357393Y21707981D02*
X56166917Y21612743D01*
X56166917Y21612743D02*
X55405012Y21612743D01*
X57405012Y21707981D02*
X58071679Y21707981D01*
X58357393Y20660362D02*
X57405012Y20660362D01*
X57405012Y20660362D02*
X57405012Y22660362D01*
X57405012Y22660362D02*
X58357393Y22660362D01*
X59881203Y21707981D02*
X59214536Y21707981D01*
X59214536Y20660362D02*
X59214536Y22660362D01*
X59214536Y22660362D02*
X60166917Y22660362D01*
D10*
X6229523Y45903800D02*
X6343809Y45865705D01*
X6343809Y45865705D02*
X6534285Y45865705D01*
X6534285Y45865705D02*
X6610476Y45903800D01*
X6610476Y45903800D02*
X6648571Y45941896D01*
X6648571Y45941896D02*
X6686666Y46018086D01*
X6686666Y46018086D02*
X6686666Y46094277D01*
X6686666Y46094277D02*
X6648571Y46170467D01*
X6648571Y46170467D02*
X6610476Y46208562D01*
X6610476Y46208562D02*
X6534285Y46246658D01*
X6534285Y46246658D02*
X6381904Y46284753D01*
X6381904Y46284753D02*
X6305714Y46322848D01*
X6305714Y46322848D02*
X6267619Y46360943D01*
X6267619Y46360943D02*
X6229523Y46437134D01*
X6229523Y46437134D02*
X6229523Y46513324D01*
X6229523Y46513324D02*
X6267619Y46589515D01*
X6267619Y46589515D02*
X6305714Y46627610D01*
X6305714Y46627610D02*
X6381904Y46665705D01*
X6381904Y46665705D02*
X6572381Y46665705D01*
X6572381Y46665705D02*
X6686666Y46627610D01*
X7181905Y46246658D02*
X7181905Y45865705D01*
X6915238Y46665705D02*
X7181905Y46246658D01*
X7181905Y46246658D02*
X7448571Y46665705D01*
X7715238Y45865705D02*
X7715238Y46665705D01*
X7715238Y46665705D02*
X8172381Y45865705D01*
X8172381Y45865705D02*
X8172381Y46665705D01*
X9010476Y45941896D02*
X8972380Y45903800D01*
X8972380Y45903800D02*
X8858095Y45865705D01*
X8858095Y45865705D02*
X8781904Y45865705D01*
X8781904Y45865705D02*
X8667618Y45903800D01*
X8667618Y45903800D02*
X8591428Y45979991D01*
X8591428Y45979991D02*
X8553333Y46056181D01*
X8553333Y46056181D02*
X8515237Y46208562D01*
X8515237Y46208562D02*
X8515237Y46322848D01*
X8515237Y46322848D02*
X8553333Y46475229D01*
X8553333Y46475229D02*
X8591428Y46551420D01*
X8591428Y46551420D02*
X8667618Y46627610D01*
X8667618Y46627610D02*
X8781904Y46665705D01*
X8781904Y46665705D02*
X8858095Y46665705D01*
X8858095Y46665705D02*
X8972380Y46627610D01*
X8972380Y46627610D02*
X9010476Y46589515D01*
X6686666Y39027610D02*
X6610476Y39065705D01*
X6610476Y39065705D02*
X6496190Y39065705D01*
X6496190Y39065705D02*
X6381904Y39027610D01*
X6381904Y39027610D02*
X6305714Y38951420D01*
X6305714Y38951420D02*
X6267619Y38875229D01*
X6267619Y38875229D02*
X6229523Y38722848D01*
X6229523Y38722848D02*
X6229523Y38608562D01*
X6229523Y38608562D02*
X6267619Y38456181D01*
X6267619Y38456181D02*
X6305714Y38379991D01*
X6305714Y38379991D02*
X6381904Y38303800D01*
X6381904Y38303800D02*
X6496190Y38265705D01*
X6496190Y38265705D02*
X6572381Y38265705D01*
X6572381Y38265705D02*
X6686666Y38303800D01*
X6686666Y38303800D02*
X6724762Y38341896D01*
X6724762Y38341896D02*
X6724762Y38608562D01*
X6724762Y38608562D02*
X6572381Y38608562D01*
X7067619Y38265705D02*
X7067619Y39065705D01*
X7067619Y39065705D02*
X7524762Y38265705D01*
X7524762Y38265705D02*
X7524762Y39065705D01*
X7905714Y38265705D02*
X7905714Y39065705D01*
X7905714Y39065705D02*
X8096190Y39065705D01*
X8096190Y39065705D02*
X8210476Y39027610D01*
X8210476Y39027610D02*
X8286666Y38951420D01*
X8286666Y38951420D02*
X8324761Y38875229D01*
X8324761Y38875229D02*
X8362857Y38722848D01*
X8362857Y38722848D02*
X8362857Y38608562D01*
X8362857Y38608562D02*
X8324761Y38456181D01*
X8324761Y38456181D02*
X8286666Y38379991D01*
X8286666Y38379991D02*
X8210476Y38303800D01*
X8210476Y38303800D02*
X8096190Y38265705D01*
X8096190Y38265705D02*
X7905714Y38265705D01*
X8688878Y35629888D02*
X8641259Y35487031D01*
X8641259Y35487031D02*
X8593640Y35439412D01*
X8593640Y35439412D02*
X8498402Y35391793D01*
X8498402Y35391793D02*
X8355545Y35391793D01*
X8355545Y35391793D02*
X8260307Y35439412D01*
X8260307Y35439412D02*
X8212688Y35487031D01*
X8212688Y35487031D02*
X8165068Y35582269D01*
X8165068Y35582269D02*
X8165068Y35963221D01*
X8165068Y35963221D02*
X9165068Y35963221D01*
X9165068Y35963221D02*
X9165068Y35629888D01*
X9165068Y35629888D02*
X9117449Y35534650D01*
X9117449Y35534650D02*
X9069830Y35487031D01*
X9069830Y35487031D02*
X8974592Y35439412D01*
X8974592Y35439412D02*
X8879354Y35439412D01*
X8879354Y35439412D02*
X8784116Y35487031D01*
X8784116Y35487031D02*
X8736497Y35534650D01*
X8736497Y35534650D02*
X8688878Y35629888D01*
X8688878Y35629888D02*
X8688878Y35963221D01*
X8165068Y34391793D02*
X8641259Y34725126D01*
X8165068Y34963221D02*
X9165068Y34963221D01*
X9165068Y34963221D02*
X9165068Y34582269D01*
X9165068Y34582269D02*
X9117449Y34487031D01*
X9117449Y34487031D02*
X9069830Y34439412D01*
X9069830Y34439412D02*
X8974592Y34391793D01*
X8974592Y34391793D02*
X8831735Y34391793D01*
X8831735Y34391793D02*
X8736497Y34439412D01*
X8736497Y34439412D02*
X8688878Y34487031D01*
X8688878Y34487031D02*
X8641259Y34582269D01*
X8641259Y34582269D02*
X8641259Y34963221D01*
X8688878Y33963221D02*
X8688878Y33629888D01*
X8165068Y33487031D02*
X8165068Y33963221D01*
X8165068Y33963221D02*
X9165068Y33963221D01*
X9165068Y33963221D02*
X9165068Y33487031D01*
X8450783Y33106078D02*
X8450783Y32629888D01*
X8165068Y33201316D02*
X9165068Y32867983D01*
X9165068Y32867983D02*
X8165068Y32534650D01*
X8165068Y32201316D02*
X9165068Y32201316D01*
X9165068Y32201316D02*
X9165068Y31963221D01*
X9165068Y31963221D02*
X9117449Y31820364D01*
X9117449Y31820364D02*
X9022211Y31725126D01*
X9022211Y31725126D02*
X8926973Y31677507D01*
X8926973Y31677507D02*
X8736497Y31629888D01*
X8736497Y31629888D02*
X8593640Y31629888D01*
X8593640Y31629888D02*
X8403164Y31677507D01*
X8403164Y31677507D02*
X8307926Y31725126D01*
X8307926Y31725126D02*
X8212688Y31820364D01*
X8212688Y31820364D02*
X8165068Y31963221D01*
X8165068Y31963221D02*
X8165068Y32201316D01*
X8212688Y30487030D02*
X8165068Y30344173D01*
X8165068Y30344173D02*
X8165068Y30106078D01*
X8165068Y30106078D02*
X8212688Y30010840D01*
X8212688Y30010840D02*
X8260307Y29963221D01*
X8260307Y29963221D02*
X8355545Y29915602D01*
X8355545Y29915602D02*
X8450783Y29915602D01*
X8450783Y29915602D02*
X8546021Y29963221D01*
X8546021Y29963221D02*
X8593640Y30010840D01*
X8593640Y30010840D02*
X8641259Y30106078D01*
X8641259Y30106078D02*
X8688878Y30296554D01*
X8688878Y30296554D02*
X8736497Y30391792D01*
X8736497Y30391792D02*
X8784116Y30439411D01*
X8784116Y30439411D02*
X8879354Y30487030D01*
X8879354Y30487030D02*
X8974592Y30487030D01*
X8974592Y30487030D02*
X9069830Y30439411D01*
X9069830Y30439411D02*
X9117449Y30391792D01*
X9117449Y30391792D02*
X9165068Y30296554D01*
X9165068Y30296554D02*
X9165068Y30058459D01*
X9165068Y30058459D02*
X9117449Y29915602D01*
X8165068Y29344173D02*
X8212688Y29439411D01*
X8212688Y29439411D02*
X8307926Y29487030D01*
X8307926Y29487030D02*
X9165068Y29487030D01*
X8165068Y28963220D02*
X8831735Y28963220D01*
X9165068Y28963220D02*
X9117449Y29010839D01*
X9117449Y29010839D02*
X9069830Y28963220D01*
X9069830Y28963220D02*
X9117449Y28915601D01*
X9117449Y28915601D02*
X9165068Y28963220D01*
X9165068Y28963220D02*
X9069830Y28963220D01*
X8212688Y28058459D02*
X8165068Y28153697D01*
X8165068Y28153697D02*
X8165068Y28344173D01*
X8165068Y28344173D02*
X8212688Y28439411D01*
X8212688Y28439411D02*
X8260307Y28487030D01*
X8260307Y28487030D02*
X8355545Y28534649D01*
X8355545Y28534649D02*
X8641259Y28534649D01*
X8641259Y28534649D02*
X8736497Y28487030D01*
X8736497Y28487030D02*
X8784116Y28439411D01*
X8784116Y28439411D02*
X8831735Y28344173D01*
X8831735Y28344173D02*
X8831735Y28153697D01*
X8831735Y28153697D02*
X8784116Y28058459D01*
X8212688Y27248935D02*
X8165068Y27344173D01*
X8165068Y27344173D02*
X8165068Y27534649D01*
X8165068Y27534649D02*
X8212688Y27629887D01*
X8212688Y27629887D02*
X8307926Y27677506D01*
X8307926Y27677506D02*
X8688878Y27677506D01*
X8688878Y27677506D02*
X8784116Y27629887D01*
X8784116Y27629887D02*
X8831735Y27534649D01*
X8831735Y27534649D02*
X8831735Y27344173D01*
X8831735Y27344173D02*
X8784116Y27248935D01*
X8784116Y27248935D02*
X8688878Y27201316D01*
X8688878Y27201316D02*
X8593640Y27201316D01*
X8593640Y27201316D02*
X8498402Y27677506D01*
X7555124Y36106078D02*
X7555124Y35534650D01*
X6555124Y35820364D02*
X7555124Y35820364D01*
X6602744Y34820364D02*
X6555124Y34915602D01*
X6555124Y34915602D02*
X6555124Y35106078D01*
X6555124Y35106078D02*
X6602744Y35201316D01*
X6602744Y35201316D02*
X6697982Y35248935D01*
X6697982Y35248935D02*
X7078934Y35248935D01*
X7078934Y35248935D02*
X7174172Y35201316D01*
X7174172Y35201316D02*
X7221791Y35106078D01*
X7221791Y35106078D02*
X7221791Y34915602D01*
X7221791Y34915602D02*
X7174172Y34820364D01*
X7174172Y34820364D02*
X7078934Y34772745D01*
X7078934Y34772745D02*
X6983696Y34772745D01*
X6983696Y34772745D02*
X6888458Y35248935D01*
X6555124Y34344173D02*
X7221791Y34344173D01*
X7126553Y34344173D02*
X7174172Y34296554D01*
X7174172Y34296554D02*
X7221791Y34201316D01*
X7221791Y34201316D02*
X7221791Y34058459D01*
X7221791Y34058459D02*
X7174172Y33963221D01*
X7174172Y33963221D02*
X7078934Y33915602D01*
X7078934Y33915602D02*
X6555124Y33915602D01*
X7078934Y33915602D02*
X7174172Y33867983D01*
X7174172Y33867983D02*
X7221791Y33772745D01*
X7221791Y33772745D02*
X7221791Y33629888D01*
X7221791Y33629888D02*
X7174172Y33534649D01*
X7174172Y33534649D02*
X7078934Y33487030D01*
X7078934Y33487030D02*
X6555124Y33487030D01*
X7221791Y33010840D02*
X6221791Y33010840D01*
X7174172Y33010840D02*
X7221791Y32915602D01*
X7221791Y32915602D02*
X7221791Y32725126D01*
X7221791Y32725126D02*
X7174172Y32629888D01*
X7174172Y32629888D02*
X7126553Y32582269D01*
X7126553Y32582269D02*
X7031315Y32534650D01*
X7031315Y32534650D02*
X6745601Y32534650D01*
X6745601Y32534650D02*
X6650363Y32582269D01*
X6650363Y32582269D02*
X6602744Y32629888D01*
X6602744Y32629888D02*
X6555124Y32725126D01*
X6555124Y32725126D02*
X6555124Y32915602D01*
X6555124Y32915602D02*
X6602744Y33010840D01*
X6555124Y31963221D02*
X6602744Y32058459D01*
X6602744Y32058459D02*
X6697982Y32106078D01*
X6697982Y32106078D02*
X7555124Y32106078D01*
X6555124Y31153697D02*
X7078934Y31153697D01*
X7078934Y31153697D02*
X7174172Y31201316D01*
X7174172Y31201316D02*
X7221791Y31296554D01*
X7221791Y31296554D02*
X7221791Y31487030D01*
X7221791Y31487030D02*
X7174172Y31582268D01*
X6602744Y31153697D02*
X6555124Y31248935D01*
X6555124Y31248935D02*
X6555124Y31487030D01*
X6555124Y31487030D02*
X6602744Y31582268D01*
X6602744Y31582268D02*
X6697982Y31629887D01*
X6697982Y31629887D02*
X6793220Y31629887D01*
X6793220Y31629887D02*
X6888458Y31582268D01*
X6888458Y31582268D02*
X6936077Y31487030D01*
X6936077Y31487030D02*
X6936077Y31248935D01*
X6936077Y31248935D02*
X6983696Y31153697D01*
X7221791Y30820363D02*
X7221791Y30439411D01*
X7555124Y30677506D02*
X6697982Y30677506D01*
X6697982Y30677506D02*
X6602744Y30629887D01*
X6602744Y30629887D02*
X6555124Y30534649D01*
X6555124Y30534649D02*
X6555124Y30439411D01*
X6602744Y29725125D02*
X6555124Y29820363D01*
X6555124Y29820363D02*
X6555124Y30010839D01*
X6555124Y30010839D02*
X6602744Y30106077D01*
X6602744Y30106077D02*
X6697982Y30153696D01*
X6697982Y30153696D02*
X7078934Y30153696D01*
X7078934Y30153696D02*
X7174172Y30106077D01*
X7174172Y30106077D02*
X7221791Y30010839D01*
X7221791Y30010839D02*
X7221791Y29820363D01*
X7221791Y29820363D02*
X7174172Y29725125D01*
X7174172Y29725125D02*
X7078934Y29677506D01*
X7078934Y29677506D02*
X6983696Y29677506D01*
X6983696Y29677506D02*
X6888458Y30153696D01*
X6650363Y29248934D02*
X6602744Y29201315D01*
X6602744Y29201315D02*
X6555124Y29248934D01*
X6555124Y29248934D02*
X6602744Y29296553D01*
X6602744Y29296553D02*
X6650363Y29248934D01*
X6650363Y29248934D02*
X6555124Y29248934D01*
X7174172Y29248934D02*
X7126553Y29201315D01*
X7126553Y29201315D02*
X7078934Y29248934D01*
X7078934Y29248934D02*
X7126553Y29296553D01*
X7126553Y29296553D02*
X7174172Y29248934D01*
X7174172Y29248934D02*
X7078934Y29248934D01*
X5326133Y35963221D02*
X5326133Y35201316D01*
X5611847Y34725126D02*
X5326133Y33963221D01*
X5326133Y33963221D02*
X5040419Y34725126D01*
X5040419Y32153698D02*
X4992800Y32201317D01*
X4992800Y32201317D02*
X4945180Y32344174D01*
X4945180Y32344174D02*
X4945180Y32439412D01*
X4945180Y32439412D02*
X4992800Y32582269D01*
X4992800Y32582269D02*
X5088038Y32677507D01*
X5088038Y32677507D02*
X5183276Y32725126D01*
X5183276Y32725126D02*
X5373752Y32772745D01*
X5373752Y32772745D02*
X5516609Y32772745D01*
X5516609Y32772745D02*
X5707085Y32725126D01*
X5707085Y32725126D02*
X5802323Y32677507D01*
X5802323Y32677507D02*
X5897561Y32582269D01*
X5897561Y32582269D02*
X5945180Y32439412D01*
X5945180Y32439412D02*
X5945180Y32344174D01*
X5945180Y32344174D02*
X5897561Y32201317D01*
X5897561Y32201317D02*
X5849942Y32153698D01*
X4945180Y31582269D02*
X4992800Y31677507D01*
X4992800Y31677507D02*
X5040419Y31725126D01*
X5040419Y31725126D02*
X5135657Y31772745D01*
X5135657Y31772745D02*
X5421371Y31772745D01*
X5421371Y31772745D02*
X5516609Y31725126D01*
X5516609Y31725126D02*
X5564228Y31677507D01*
X5564228Y31677507D02*
X5611847Y31582269D01*
X5611847Y31582269D02*
X5611847Y31439412D01*
X5611847Y31439412D02*
X5564228Y31344174D01*
X5564228Y31344174D02*
X5516609Y31296555D01*
X5516609Y31296555D02*
X5421371Y31248936D01*
X5421371Y31248936D02*
X5135657Y31248936D01*
X5135657Y31248936D02*
X5040419Y31296555D01*
X5040419Y31296555D02*
X4992800Y31344174D01*
X4992800Y31344174D02*
X4945180Y31439412D01*
X4945180Y31439412D02*
X4945180Y31582269D01*
X5611847Y30820364D02*
X4945180Y30820364D01*
X5516609Y30820364D02*
X5564228Y30772745D01*
X5564228Y30772745D02*
X5611847Y30677507D01*
X5611847Y30677507D02*
X5611847Y30534650D01*
X5611847Y30534650D02*
X5564228Y30439412D01*
X5564228Y30439412D02*
X5468990Y30391793D01*
X5468990Y30391793D02*
X4945180Y30391793D01*
X5611847Y29915602D02*
X4945180Y29915602D01*
X5516609Y29915602D02*
X5564228Y29867983D01*
X5564228Y29867983D02*
X5611847Y29772745D01*
X5611847Y29772745D02*
X5611847Y29629888D01*
X5611847Y29629888D02*
X5564228Y29534650D01*
X5564228Y29534650D02*
X5468990Y29487031D01*
X5468990Y29487031D02*
X4945180Y29487031D01*
X3382856Y36010840D02*
X3335236Y35867983D01*
X3335236Y35867983D02*
X3335236Y35629888D01*
X3335236Y35629888D02*
X3382856Y35534650D01*
X3382856Y35534650D02*
X3430475Y35487031D01*
X3430475Y35487031D02*
X3525713Y35439412D01*
X3525713Y35439412D02*
X3620951Y35439412D01*
X3620951Y35439412D02*
X3716189Y35487031D01*
X3716189Y35487031D02*
X3763808Y35534650D01*
X3763808Y35534650D02*
X3811427Y35629888D01*
X3811427Y35629888D02*
X3859046Y35820364D01*
X3859046Y35820364D02*
X3906665Y35915602D01*
X3906665Y35915602D02*
X3954284Y35963221D01*
X3954284Y35963221D02*
X4049522Y36010840D01*
X4049522Y36010840D02*
X4144760Y36010840D01*
X4144760Y36010840D02*
X4239998Y35963221D01*
X4239998Y35963221D02*
X4287617Y35915602D01*
X4287617Y35915602D02*
X4335236Y35820364D01*
X4335236Y35820364D02*
X4335236Y35582269D01*
X4335236Y35582269D02*
X4287617Y35439412D01*
X3335236Y34534650D02*
X3335236Y35010840D01*
X3335236Y35010840D02*
X4335236Y35010840D01*
X3430475Y33629888D02*
X3382856Y33677507D01*
X3382856Y33677507D02*
X3335236Y33820364D01*
X3335236Y33820364D02*
X3335236Y33915602D01*
X3335236Y33915602D02*
X3382856Y34058459D01*
X3382856Y34058459D02*
X3478094Y34153697D01*
X3478094Y34153697D02*
X3573332Y34201316D01*
X3573332Y34201316D02*
X3763808Y34248935D01*
X3763808Y34248935D02*
X3906665Y34248935D01*
X3906665Y34248935D02*
X4097141Y34201316D01*
X4097141Y34201316D02*
X4192379Y34153697D01*
X4192379Y34153697D02*
X4287617Y34058459D01*
X4287617Y34058459D02*
X4335236Y33915602D01*
X4335236Y33915602D02*
X4335236Y33820364D01*
X4335236Y33820364D02*
X4287617Y33677507D01*
X4287617Y33677507D02*
X4239998Y33629888D01*
X3239998Y33439411D02*
X3239998Y32677507D01*
X3335236Y32439411D02*
X4335236Y32439411D01*
X4335236Y32439411D02*
X4335236Y32058459D01*
X4335236Y32058459D02*
X4287617Y31963221D01*
X4287617Y31963221D02*
X4239998Y31915602D01*
X4239998Y31915602D02*
X4144760Y31867983D01*
X4144760Y31867983D02*
X4001903Y31867983D01*
X4001903Y31867983D02*
X3906665Y31915602D01*
X3906665Y31915602D02*
X3859046Y31963221D01*
X3859046Y31963221D02*
X3811427Y32058459D01*
X3811427Y32058459D02*
X3811427Y32439411D01*
X3335236Y30867983D02*
X3811427Y31201316D01*
X3335236Y31439411D02*
X4335236Y31439411D01*
X4335236Y31439411D02*
X4335236Y31058459D01*
X4335236Y31058459D02*
X4287617Y30963221D01*
X4287617Y30963221D02*
X4239998Y30915602D01*
X4239998Y30915602D02*
X4144760Y30867983D01*
X4144760Y30867983D02*
X4001903Y30867983D01*
X4001903Y30867983D02*
X3906665Y30915602D01*
X3906665Y30915602D02*
X3859046Y30963221D01*
X3859046Y30963221D02*
X3811427Y31058459D01*
X3811427Y31058459D02*
X3811427Y31439411D01*
X4335236Y30582268D02*
X4335236Y30010840D01*
X3335236Y30296554D02*
X4335236Y30296554D01*
X4335236Y29487030D02*
X4335236Y29296554D01*
X4335236Y29296554D02*
X4287617Y29201316D01*
X4287617Y29201316D02*
X4192379Y29106078D01*
X4192379Y29106078D02*
X4001903Y29058459D01*
X4001903Y29058459D02*
X3668570Y29058459D01*
X3668570Y29058459D02*
X3478094Y29106078D01*
X3478094Y29106078D02*
X3382856Y29201316D01*
X3382856Y29201316D02*
X3335236Y29296554D01*
X3335236Y29296554D02*
X3335236Y29487030D01*
X3335236Y29487030D02*
X3382856Y29582268D01*
X3382856Y29582268D02*
X3478094Y29677506D01*
X3478094Y29677506D02*
X3668570Y29725125D01*
X3668570Y29725125D02*
X4001903Y29725125D01*
X4001903Y29725125D02*
X4192379Y29677506D01*
X4192379Y29677506D02*
X4287617Y29582268D01*
X4287617Y29582268D02*
X4335236Y29487030D01*
X1725292Y35391793D02*
X2201483Y35725126D01*
X1725292Y35963221D02*
X2725292Y35963221D01*
X2725292Y35963221D02*
X2725292Y35582269D01*
X2725292Y35582269D02*
X2677673Y35487031D01*
X2677673Y35487031D02*
X2630054Y35439412D01*
X2630054Y35439412D02*
X2534816Y35391793D01*
X2534816Y35391793D02*
X2391959Y35391793D01*
X2391959Y35391793D02*
X2296721Y35439412D01*
X2296721Y35439412D02*
X2249102Y35487031D01*
X2249102Y35487031D02*
X2201483Y35582269D01*
X2201483Y35582269D02*
X2201483Y35963221D01*
X2630054Y35010840D02*
X2677673Y34963221D01*
X2677673Y34963221D02*
X2725292Y34867983D01*
X2725292Y34867983D02*
X2725292Y34629888D01*
X2725292Y34629888D02*
X2677673Y34534650D01*
X2677673Y34534650D02*
X2630054Y34487031D01*
X2630054Y34487031D02*
X2534816Y34439412D01*
X2534816Y34439412D02*
X2439578Y34439412D01*
X2439578Y34439412D02*
X2296721Y34487031D01*
X2296721Y34487031D02*
X1725292Y35058459D01*
X1725292Y35058459D02*
X1725292Y34439412D01*
X2725292Y33058459D02*
X2725292Y32963221D01*
X2725292Y32963221D02*
X2677673Y32867983D01*
X2677673Y32867983D02*
X2630054Y32820364D01*
X2630054Y32820364D02*
X2534816Y32772745D01*
X2534816Y32772745D02*
X2344340Y32725126D01*
X2344340Y32725126D02*
X2106245Y32725126D01*
X2106245Y32725126D02*
X1915769Y32772745D01*
X1915769Y32772745D02*
X1820531Y32820364D01*
X1820531Y32820364D02*
X1772912Y32867983D01*
X1772912Y32867983D02*
X1725292Y32963221D01*
X1725292Y32963221D02*
X1725292Y33058459D01*
X1725292Y33058459D02*
X1772912Y33153697D01*
X1772912Y33153697D02*
X1820531Y33201316D01*
X1820531Y33201316D02*
X1915769Y33248935D01*
X1915769Y33248935D02*
X2106245Y33296554D01*
X2106245Y33296554D02*
X2344340Y33296554D01*
X2344340Y33296554D02*
X2534816Y33248935D01*
X2534816Y33248935D02*
X2630054Y33201316D01*
X2630054Y33201316D02*
X2677673Y33153697D01*
X2677673Y33153697D02*
X2725292Y33058459D01*
X2391959Y31867983D02*
X1725292Y31867983D01*
X2772912Y32106078D02*
X2058626Y32344173D01*
X2058626Y32344173D02*
X2058626Y31725126D01*
X2106245Y31344173D02*
X2106245Y30582268D01*
X2630054Y30153697D02*
X2677673Y30106078D01*
X2677673Y30106078D02*
X2725292Y30010840D01*
X2725292Y30010840D02*
X2725292Y29772745D01*
X2725292Y29772745D02*
X2677673Y29677507D01*
X2677673Y29677507D02*
X2630054Y29629888D01*
X2630054Y29629888D02*
X2534816Y29582269D01*
X2534816Y29582269D02*
X2439578Y29582269D01*
X2439578Y29582269D02*
X2296721Y29629888D01*
X2296721Y29629888D02*
X1725292Y30201316D01*
X1725292Y30201316D02*
X1725292Y29582269D01*
X2725292Y28963221D02*
X2725292Y28867983D01*
X2725292Y28867983D02*
X2677673Y28772745D01*
X2677673Y28772745D02*
X2630054Y28725126D01*
X2630054Y28725126D02*
X2534816Y28677507D01*
X2534816Y28677507D02*
X2344340Y28629888D01*
X2344340Y28629888D02*
X2106245Y28629888D01*
X2106245Y28629888D02*
X1915769Y28677507D01*
X1915769Y28677507D02*
X1820531Y28725126D01*
X1820531Y28725126D02*
X1772912Y28772745D01*
X1772912Y28772745D02*
X1725292Y28867983D01*
X1725292Y28867983D02*
X1725292Y28963221D01*
X1725292Y28963221D02*
X1772912Y29058459D01*
X1772912Y29058459D02*
X1820531Y29106078D01*
X1820531Y29106078D02*
X1915769Y29153697D01*
X1915769Y29153697D02*
X2106245Y29201316D01*
X2106245Y29201316D02*
X2344340Y29201316D01*
X2344340Y29201316D02*
X2534816Y29153697D01*
X2534816Y29153697D02*
X2630054Y29106078D01*
X2630054Y29106078D02*
X2677673Y29058459D01*
X2677673Y29058459D02*
X2725292Y28963221D01*
X2630054Y28248935D02*
X2677673Y28201316D01*
X2677673Y28201316D02*
X2725292Y28106078D01*
X2725292Y28106078D02*
X2725292Y27867983D01*
X2725292Y27867983D02*
X2677673Y27772745D01*
X2677673Y27772745D02*
X2630054Y27725126D01*
X2630054Y27725126D02*
X2534816Y27677507D01*
X2534816Y27677507D02*
X2439578Y27677507D01*
X2439578Y27677507D02*
X2296721Y27725126D01*
X2296721Y27725126D02*
X1725292Y28296554D01*
X1725292Y28296554D02*
X1725292Y27677507D01*
X2725292Y26772745D02*
X2725292Y27248935D01*
X2725292Y27248935D02*
X2249102Y27296554D01*
X2249102Y27296554D02*
X2296721Y27248935D01*
X2296721Y27248935D02*
X2344340Y27153697D01*
X2344340Y27153697D02*
X2344340Y26915602D01*
X2344340Y26915602D02*
X2296721Y26820364D01*
X2296721Y26820364D02*
X2249102Y26772745D01*
X2249102Y26772745D02*
X2153864Y26725126D01*
X2153864Y26725126D02*
X1915769Y26725126D01*
X1915769Y26725126D02*
X1820531Y26772745D01*
X1820531Y26772745D02*
X1772912Y26820364D01*
X1772912Y26820364D02*
X1725292Y26915602D01*
X1725292Y26915602D02*
X1725292Y27153697D01*
X1725292Y27153697D02*
X1772912Y27248935D01*
X1772912Y27248935D02*
X1820531Y27296554D01*
D11*
X32930501Y82875940D02*
X32930501Y84247368D01*
X33616215Y83561654D02*
X32244786Y83561654D01*
X31816215Y85961654D02*
X31816215Y85104511D01*
X31816215Y85104511D02*
X32673358Y85018797D01*
X32673358Y85018797D02*
X32587643Y85104511D01*
X32587643Y85104511D02*
X32501929Y85275939D01*
X32501929Y85275939D02*
X32501929Y85704511D01*
X32501929Y85704511D02*
X32587643Y85875939D01*
X32587643Y85875939D02*
X32673358Y85961654D01*
X32673358Y85961654D02*
X32844786Y86047368D01*
X32844786Y86047368D02*
X33273358Y86047368D01*
X33273358Y86047368D02*
X33444786Y85961654D01*
X33444786Y85961654D02*
X33530501Y85875939D01*
X33530501Y85875939D02*
X33616215Y85704511D01*
X33616215Y85704511D02*
X33616215Y85275939D01*
X33616215Y85275939D02*
X33530501Y85104511D01*
X33530501Y85104511D02*
X33444786Y85018797D01*
X31816215Y86561654D02*
X33616215Y87161654D01*
X33616215Y87161654D02*
X31816215Y87761654D01*
X34799828Y85190226D02*
X34714114Y85018797D01*
X34714114Y85018797D02*
X34714114Y84761655D01*
X34714114Y84761655D02*
X34799828Y84504512D01*
X34799828Y84504512D02*
X34971257Y84333083D01*
X34971257Y84333083D02*
X35142685Y84247369D01*
X35142685Y84247369D02*
X35485542Y84161655D01*
X35485542Y84161655D02*
X35742685Y84161655D01*
X35742685Y84161655D02*
X36085542Y84247369D01*
X36085542Y84247369D02*
X36256971Y84333083D01*
X36256971Y84333083D02*
X36428400Y84504512D01*
X36428400Y84504512D02*
X36514114Y84761655D01*
X36514114Y84761655D02*
X36514114Y84933083D01*
X36514114Y84933083D02*
X36428400Y85190226D01*
X36428400Y85190226D02*
X36342685Y85275940D01*
X36342685Y85275940D02*
X35742685Y85275940D01*
X35742685Y85275940D02*
X35742685Y84933083D01*
X36514114Y86047369D02*
X34714114Y86047369D01*
X34714114Y86047369D02*
X36514114Y87075940D01*
X36514114Y87075940D02*
X34714114Y87075940D01*
X36514114Y87933083D02*
X34714114Y87933083D01*
X34714114Y87933083D02*
X34714114Y88361654D01*
X34714114Y88361654D02*
X34799828Y88618797D01*
X34799828Y88618797D02*
X34971257Y88790226D01*
X34971257Y88790226D02*
X35142685Y88875940D01*
X35142685Y88875940D02*
X35485542Y88961654D01*
X35485542Y88961654D02*
X35742685Y88961654D01*
X35742685Y88961654D02*
X36085542Y88875940D01*
X36085542Y88875940D02*
X36256971Y88790226D01*
X36256971Y88790226D02*
X36428400Y88618797D01*
X36428400Y88618797D02*
X36514114Y88361654D01*
X36514114Y88361654D02*
X36514114Y87933083D01*
D10*
X6686666Y61877610D02*
X6610476Y61915705D01*
X6610476Y61915705D02*
X6496190Y61915705D01*
X6496190Y61915705D02*
X6381904Y61877610D01*
X6381904Y61877610D02*
X6305714Y61801420D01*
X6305714Y61801420D02*
X6267619Y61725229D01*
X6267619Y61725229D02*
X6229523Y61572848D01*
X6229523Y61572848D02*
X6229523Y61458562D01*
X6229523Y61458562D02*
X6267619Y61306181D01*
X6267619Y61306181D02*
X6305714Y61229991D01*
X6305714Y61229991D02*
X6381904Y61153800D01*
X6381904Y61153800D02*
X6496190Y61115705D01*
X6496190Y61115705D02*
X6572381Y61115705D01*
X6572381Y61115705D02*
X6686666Y61153800D01*
X6686666Y61153800D02*
X6724762Y61191896D01*
X6724762Y61191896D02*
X6724762Y61458562D01*
X6724762Y61458562D02*
X6572381Y61458562D01*
X7067619Y61115705D02*
X7067619Y61915705D01*
X7067619Y61915705D02*
X7524762Y61115705D01*
X7524762Y61115705D02*
X7524762Y61915705D01*
X7905714Y61115705D02*
X7905714Y61915705D01*
X7905714Y61915705D02*
X8096190Y61915705D01*
X8096190Y61915705D02*
X8210476Y61877610D01*
X8210476Y61877610D02*
X8286666Y61801420D01*
X8286666Y61801420D02*
X8324761Y61725229D01*
X8324761Y61725229D02*
X8362857Y61572848D01*
X8362857Y61572848D02*
X8362857Y61458562D01*
X8362857Y61458562D02*
X8324761Y61306181D01*
X8324761Y61306181D02*
X8286666Y61229991D01*
X8286666Y61229991D02*
X8210476Y61153800D01*
X8210476Y61153800D02*
X8096190Y61115705D01*
X8096190Y61115705D02*
X7905714Y61115705D01*
D11*
X13230501Y82825940D02*
X13230501Y84197368D01*
X13916215Y83511654D02*
X12544786Y83511654D01*
X13916215Y85997368D02*
X13916215Y84968797D01*
X13916215Y85483082D02*
X12116215Y85483082D01*
X12116215Y85483082D02*
X12373358Y85311654D01*
X12373358Y85311654D02*
X12544786Y85140225D01*
X12544786Y85140225D02*
X12630501Y84968797D01*
X12287643Y86683083D02*
X12201929Y86768797D01*
X12201929Y86768797D02*
X12116215Y86940225D01*
X12116215Y86940225D02*
X12116215Y87368797D01*
X12116215Y87368797D02*
X12201929Y87540225D01*
X12201929Y87540225D02*
X12287643Y87625940D01*
X12287643Y87625940D02*
X12459072Y87711654D01*
X12459072Y87711654D02*
X12630501Y87711654D01*
X12630501Y87711654D02*
X12887643Y87625940D01*
X12887643Y87625940D02*
X13916215Y86597368D01*
X13916215Y86597368D02*
X13916215Y87711654D01*
X12116215Y88225940D02*
X13916215Y88825940D01*
X13916215Y88825940D02*
X12116215Y89425940D01*
X15099828Y85140226D02*
X15014114Y84968797D01*
X15014114Y84968797D02*
X15014114Y84711655D01*
X15014114Y84711655D02*
X15099828Y84454512D01*
X15099828Y84454512D02*
X15271257Y84283083D01*
X15271257Y84283083D02*
X15442685Y84197369D01*
X15442685Y84197369D02*
X15785542Y84111655D01*
X15785542Y84111655D02*
X16042685Y84111655D01*
X16042685Y84111655D02*
X16385542Y84197369D01*
X16385542Y84197369D02*
X16556971Y84283083D01*
X16556971Y84283083D02*
X16728400Y84454512D01*
X16728400Y84454512D02*
X16814114Y84711655D01*
X16814114Y84711655D02*
X16814114Y84883083D01*
X16814114Y84883083D02*
X16728400Y85140226D01*
X16728400Y85140226D02*
X16642685Y85225940D01*
X16642685Y85225940D02*
X16042685Y85225940D01*
X16042685Y85225940D02*
X16042685Y84883083D01*
X16814114Y85997369D02*
X15014114Y85997369D01*
X15014114Y85997369D02*
X16814114Y87025940D01*
X16814114Y87025940D02*
X15014114Y87025940D01*
X16814114Y87883083D02*
X15014114Y87883083D01*
X15014114Y87883083D02*
X15014114Y88311654D01*
X15014114Y88311654D02*
X15099828Y88568797D01*
X15099828Y88568797D02*
X15271257Y88740226D01*
X15271257Y88740226D02*
X15442685Y88825940D01*
X15442685Y88825940D02*
X15785542Y88911654D01*
X15785542Y88911654D02*
X16042685Y88911654D01*
X16042685Y88911654D02*
X16385542Y88825940D01*
X16385542Y88825940D02*
X16556971Y88740226D01*
X16556971Y88740226D02*
X16728400Y88568797D01*
X16728400Y88568797D02*
X16814114Y88311654D01*
X16814114Y88311654D02*
X16814114Y87883083D01*
X26530501Y82875940D02*
X26530501Y84247368D01*
X27216215Y83561654D02*
X25844786Y83561654D01*
X25416215Y85961654D02*
X25416215Y85104511D01*
X25416215Y85104511D02*
X26273358Y85018797D01*
X26273358Y85018797D02*
X26187643Y85104511D01*
X26187643Y85104511D02*
X26101929Y85275939D01*
X26101929Y85275939D02*
X26101929Y85704511D01*
X26101929Y85704511D02*
X26187643Y85875939D01*
X26187643Y85875939D02*
X26273358Y85961654D01*
X26273358Y85961654D02*
X26444786Y86047368D01*
X26444786Y86047368D02*
X26873358Y86047368D01*
X26873358Y86047368D02*
X27044786Y85961654D01*
X27044786Y85961654D02*
X27130501Y85875939D01*
X27130501Y85875939D02*
X27216215Y85704511D01*
X27216215Y85704511D02*
X27216215Y85275939D01*
X27216215Y85275939D02*
X27130501Y85104511D01*
X27130501Y85104511D02*
X27044786Y85018797D01*
X25416215Y86561654D02*
X27216215Y87161654D01*
X27216215Y87161654D02*
X25416215Y87761654D01*
X28399828Y85190226D02*
X28314114Y85018797D01*
X28314114Y85018797D02*
X28314114Y84761655D01*
X28314114Y84761655D02*
X28399828Y84504512D01*
X28399828Y84504512D02*
X28571257Y84333083D01*
X28571257Y84333083D02*
X28742685Y84247369D01*
X28742685Y84247369D02*
X29085542Y84161655D01*
X29085542Y84161655D02*
X29342685Y84161655D01*
X29342685Y84161655D02*
X29685542Y84247369D01*
X29685542Y84247369D02*
X29856971Y84333083D01*
X29856971Y84333083D02*
X30028400Y84504512D01*
X30028400Y84504512D02*
X30114114Y84761655D01*
X30114114Y84761655D02*
X30114114Y84933083D01*
X30114114Y84933083D02*
X30028400Y85190226D01*
X30028400Y85190226D02*
X29942685Y85275940D01*
X29942685Y85275940D02*
X29342685Y85275940D01*
X29342685Y85275940D02*
X29342685Y84933083D01*
X30114114Y86047369D02*
X28314114Y86047369D01*
X28314114Y86047369D02*
X30114114Y87075940D01*
X30114114Y87075940D02*
X28314114Y87075940D01*
X30114114Y87933083D02*
X28314114Y87933083D01*
X28314114Y87933083D02*
X28314114Y88361654D01*
X28314114Y88361654D02*
X28399828Y88618797D01*
X28399828Y88618797D02*
X28571257Y88790226D01*
X28571257Y88790226D02*
X28742685Y88875940D01*
X28742685Y88875940D02*
X29085542Y88961654D01*
X29085542Y88961654D02*
X29342685Y88961654D01*
X29342685Y88961654D02*
X29685542Y88875940D01*
X29685542Y88875940D02*
X29856971Y88790226D01*
X29856971Y88790226D02*
X30028400Y88618797D01*
X30028400Y88618797D02*
X30114114Y88361654D01*
X30114114Y88361654D02*
X30114114Y87933083D01*
D10*
X6267618Y48834753D02*
X6534284Y48834753D01*
X6648570Y48415705D02*
X6267618Y48415705D01*
X6267618Y48415705D02*
X6267618Y49215705D01*
X6267618Y49215705D02*
X6648570Y49215705D01*
X6953332Y48453800D02*
X7067618Y48415705D01*
X7067618Y48415705D02*
X7258094Y48415705D01*
X7258094Y48415705D02*
X7334285Y48453800D01*
X7334285Y48453800D02*
X7372380Y48491896D01*
X7372380Y48491896D02*
X7410475Y48568086D01*
X7410475Y48568086D02*
X7410475Y48644277D01*
X7410475Y48644277D02*
X7372380Y48720467D01*
X7372380Y48720467D02*
X7334285Y48758562D01*
X7334285Y48758562D02*
X7258094Y48796658D01*
X7258094Y48796658D02*
X7105713Y48834753D01*
X7105713Y48834753D02*
X7029523Y48872848D01*
X7029523Y48872848D02*
X6991428Y48910943D01*
X6991428Y48910943D02*
X6953332Y48987134D01*
X6953332Y48987134D02*
X6953332Y49063324D01*
X6953332Y49063324D02*
X6991428Y49139515D01*
X6991428Y49139515D02*
X7029523Y49177610D01*
X7029523Y49177610D02*
X7105713Y49215705D01*
X7105713Y49215705D02*
X7296190Y49215705D01*
X7296190Y49215705D02*
X7410475Y49177610D01*
X7639047Y49215705D02*
X8096190Y49215705D01*
X7867618Y48415705D02*
X7867618Y49215705D01*
X8515238Y49215705D02*
X8667619Y49215705D01*
X8667619Y49215705D02*
X8743809Y49177610D01*
X8743809Y49177610D02*
X8820000Y49101420D01*
X8820000Y49101420D02*
X8858095Y48949039D01*
X8858095Y48949039D02*
X8858095Y48682372D01*
X8858095Y48682372D02*
X8820000Y48529991D01*
X8820000Y48529991D02*
X8743809Y48453800D01*
X8743809Y48453800D02*
X8667619Y48415705D01*
X8667619Y48415705D02*
X8515238Y48415705D01*
X8515238Y48415705D02*
X8439047Y48453800D01*
X8439047Y48453800D02*
X8362857Y48529991D01*
X8362857Y48529991D02*
X8324761Y48682372D01*
X8324761Y48682372D02*
X8324761Y48949039D01*
X8324761Y48949039D02*
X8362857Y49101420D01*
X8362857Y49101420D02*
X8439047Y49177610D01*
X8439047Y49177610D02*
X8515238Y49215705D01*
X9200952Y48415705D02*
X9200952Y49215705D01*
X9200952Y49215705D02*
X9505714Y49215705D01*
X9505714Y49215705D02*
X9581904Y49177610D01*
X9581904Y49177610D02*
X9619999Y49139515D01*
X9619999Y49139515D02*
X9658095Y49063324D01*
X9658095Y49063324D02*
X9658095Y48949039D01*
X9658095Y48949039D02*
X9619999Y48872848D01*
X9619999Y48872848D02*
X9581904Y48834753D01*
X9581904Y48834753D02*
X9505714Y48796658D01*
X9505714Y48796658D02*
X9200952Y48796658D01*
X6267619Y43315705D02*
X6267619Y44115705D01*
X6648571Y43315705D02*
X6648571Y44115705D01*
X6648571Y44115705D02*
X7105714Y43315705D01*
X7105714Y43315705D02*
X7105714Y44115705D01*
X7372380Y44115705D02*
X7829523Y44115705D01*
X7600951Y43315705D02*
X7600951Y44115705D01*
D11*
X20180501Y82875940D02*
X20180501Y84247368D01*
X20866215Y83561654D02*
X19494786Y83561654D01*
X19066215Y84933082D02*
X19066215Y86047368D01*
X19066215Y86047368D02*
X19751929Y85447368D01*
X19751929Y85447368D02*
X19751929Y85704511D01*
X19751929Y85704511D02*
X19837643Y85875939D01*
X19837643Y85875939D02*
X19923358Y85961654D01*
X19923358Y85961654D02*
X20094786Y86047368D01*
X20094786Y86047368D02*
X20523358Y86047368D01*
X20523358Y86047368D02*
X20694786Y85961654D01*
X20694786Y85961654D02*
X20780501Y85875939D01*
X20780501Y85875939D02*
X20866215Y85704511D01*
X20866215Y85704511D02*
X20866215Y85190225D01*
X20866215Y85190225D02*
X20780501Y85018797D01*
X20780501Y85018797D02*
X20694786Y84933082D01*
X19066215Y86561654D02*
X20866215Y87161654D01*
X20866215Y87161654D02*
X19066215Y87761654D01*
X19066215Y88190225D02*
X19066215Y89304511D01*
X19066215Y89304511D02*
X19751929Y88704511D01*
X19751929Y88704511D02*
X19751929Y88961654D01*
X19751929Y88961654D02*
X19837643Y89133082D01*
X19837643Y89133082D02*
X19923358Y89218797D01*
X19923358Y89218797D02*
X20094786Y89304511D01*
X20094786Y89304511D02*
X20523358Y89304511D01*
X20523358Y89304511D02*
X20694786Y89218797D01*
X20694786Y89218797D02*
X20780501Y89133082D01*
X20780501Y89133082D02*
X20866215Y88961654D01*
X20866215Y88961654D02*
X20866215Y88447368D01*
X20866215Y88447368D02*
X20780501Y88275940D01*
X20780501Y88275940D02*
X20694786Y88190225D01*
X22049828Y85190226D02*
X21964114Y85018797D01*
X21964114Y85018797D02*
X21964114Y84761655D01*
X21964114Y84761655D02*
X22049828Y84504512D01*
X22049828Y84504512D02*
X22221257Y84333083D01*
X22221257Y84333083D02*
X22392685Y84247369D01*
X22392685Y84247369D02*
X22735542Y84161655D01*
X22735542Y84161655D02*
X22992685Y84161655D01*
X22992685Y84161655D02*
X23335542Y84247369D01*
X23335542Y84247369D02*
X23506971Y84333083D01*
X23506971Y84333083D02*
X23678400Y84504512D01*
X23678400Y84504512D02*
X23764114Y84761655D01*
X23764114Y84761655D02*
X23764114Y84933083D01*
X23764114Y84933083D02*
X23678400Y85190226D01*
X23678400Y85190226D02*
X23592685Y85275940D01*
X23592685Y85275940D02*
X22992685Y85275940D01*
X22992685Y85275940D02*
X22992685Y84933083D01*
X23764114Y86047369D02*
X21964114Y86047369D01*
X21964114Y86047369D02*
X23764114Y87075940D01*
X23764114Y87075940D02*
X21964114Y87075940D01*
X23764114Y87933083D02*
X21964114Y87933083D01*
X21964114Y87933083D02*
X21964114Y88361654D01*
X21964114Y88361654D02*
X22049828Y88618797D01*
X22049828Y88618797D02*
X22221257Y88790226D01*
X22221257Y88790226D02*
X22392685Y88875940D01*
X22392685Y88875940D02*
X22735542Y88961654D01*
X22735542Y88961654D02*
X22992685Y88961654D01*
X22992685Y88961654D02*
X23335542Y88875940D01*
X23335542Y88875940D02*
X23506971Y88790226D01*
X23506971Y88790226D02*
X23678400Y88618797D01*
X23678400Y88618797D02*
X23764114Y88361654D01*
X23764114Y88361654D02*
X23764114Y87933083D01*
D10*
X6229523Y53503800D02*
X6343809Y53465705D01*
X6343809Y53465705D02*
X6534285Y53465705D01*
X6534285Y53465705D02*
X6610476Y53503800D01*
X6610476Y53503800D02*
X6648571Y53541896D01*
X6648571Y53541896D02*
X6686666Y53618086D01*
X6686666Y53618086D02*
X6686666Y53694277D01*
X6686666Y53694277D02*
X6648571Y53770467D01*
X6648571Y53770467D02*
X6610476Y53808562D01*
X6610476Y53808562D02*
X6534285Y53846658D01*
X6534285Y53846658D02*
X6381904Y53884753D01*
X6381904Y53884753D02*
X6305714Y53922848D01*
X6305714Y53922848D02*
X6267619Y53960943D01*
X6267619Y53960943D02*
X6229523Y54037134D01*
X6229523Y54037134D02*
X6229523Y54113324D01*
X6229523Y54113324D02*
X6267619Y54189515D01*
X6267619Y54189515D02*
X6305714Y54227610D01*
X6305714Y54227610D02*
X6381904Y54265705D01*
X6381904Y54265705D02*
X6572381Y54265705D01*
X6572381Y54265705D02*
X6686666Y54227610D01*
X7029524Y53465705D02*
X7029524Y54265705D01*
X7029524Y54265705D02*
X7220000Y54265705D01*
X7220000Y54265705D02*
X7334286Y54227610D01*
X7334286Y54227610D02*
X7410476Y54151420D01*
X7410476Y54151420D02*
X7448571Y54075229D01*
X7448571Y54075229D02*
X7486667Y53922848D01*
X7486667Y53922848D02*
X7486667Y53808562D01*
X7486667Y53808562D02*
X7448571Y53656181D01*
X7448571Y53656181D02*
X7410476Y53579991D01*
X7410476Y53579991D02*
X7334286Y53503800D01*
X7334286Y53503800D02*
X7220000Y53465705D01*
X7220000Y53465705D02*
X7029524Y53465705D01*
X7791428Y53694277D02*
X8172381Y53694277D01*
X7715238Y53465705D02*
X7981905Y54265705D01*
X7981905Y54265705D02*
X8248571Y53465705D01*
X6229523Y56053800D02*
X6343809Y56015705D01*
X6343809Y56015705D02*
X6534285Y56015705D01*
X6534285Y56015705D02*
X6610476Y56053800D01*
X6610476Y56053800D02*
X6648571Y56091896D01*
X6648571Y56091896D02*
X6686666Y56168086D01*
X6686666Y56168086D02*
X6686666Y56244277D01*
X6686666Y56244277D02*
X6648571Y56320467D01*
X6648571Y56320467D02*
X6610476Y56358562D01*
X6610476Y56358562D02*
X6534285Y56396658D01*
X6534285Y56396658D02*
X6381904Y56434753D01*
X6381904Y56434753D02*
X6305714Y56472848D01*
X6305714Y56472848D02*
X6267619Y56510943D01*
X6267619Y56510943D02*
X6229523Y56587134D01*
X6229523Y56587134D02*
X6229523Y56663324D01*
X6229523Y56663324D02*
X6267619Y56739515D01*
X6267619Y56739515D02*
X6305714Y56777610D01*
X6305714Y56777610D02*
X6381904Y56815705D01*
X6381904Y56815705D02*
X6572381Y56815705D01*
X6572381Y56815705D02*
X6686666Y56777610D01*
X7486667Y56091896D02*
X7448571Y56053800D01*
X7448571Y56053800D02*
X7334286Y56015705D01*
X7334286Y56015705D02*
X7258095Y56015705D01*
X7258095Y56015705D02*
X7143809Y56053800D01*
X7143809Y56053800D02*
X7067619Y56129991D01*
X7067619Y56129991D02*
X7029524Y56206181D01*
X7029524Y56206181D02*
X6991428Y56358562D01*
X6991428Y56358562D02*
X6991428Y56472848D01*
X6991428Y56472848D02*
X7029524Y56625229D01*
X7029524Y56625229D02*
X7067619Y56701420D01*
X7067619Y56701420D02*
X7143809Y56777610D01*
X7143809Y56777610D02*
X7258095Y56815705D01*
X7258095Y56815705D02*
X7334286Y56815705D01*
X7334286Y56815705D02*
X7448571Y56777610D01*
X7448571Y56777610D02*
X7486667Y56739515D01*
X8210476Y56015705D02*
X7829524Y56015705D01*
X7829524Y56015705D02*
X7829524Y56815705D01*
X27966009Y12452858D02*
X27966009Y13405239D01*
X28537438Y12262382D02*
X26537438Y12929048D01*
X26537438Y12929048D02*
X28537438Y13595715D01*
X28537438Y15405239D02*
X27585057Y14738572D01*
X28537438Y14262382D02*
X26537438Y14262382D01*
X26537438Y14262382D02*
X26537438Y15024287D01*
X26537438Y15024287D02*
X26632676Y15214763D01*
X26632676Y15214763D02*
X26727914Y15310001D01*
X26727914Y15310001D02*
X26918390Y15405239D01*
X26918390Y15405239D02*
X27204104Y15405239D01*
X27204104Y15405239D02*
X27394580Y15310001D01*
X27394580Y15310001D02*
X27489819Y15214763D01*
X27489819Y15214763D02*
X27585057Y15024287D01*
X27585057Y15024287D02*
X27585057Y14262382D01*
X28537438Y16262382D02*
X26537438Y16262382D01*
X26537438Y16262382D02*
X26537438Y16738572D01*
X26537438Y16738572D02*
X26632676Y17024287D01*
X26632676Y17024287D02*
X26823152Y17214763D01*
X26823152Y17214763D02*
X27013628Y17310001D01*
X27013628Y17310001D02*
X27394580Y17405239D01*
X27394580Y17405239D02*
X27680295Y17405239D01*
X27680295Y17405239D02*
X28061247Y17310001D01*
X28061247Y17310001D02*
X28251723Y17214763D01*
X28251723Y17214763D02*
X28442200Y17024287D01*
X28442200Y17024287D02*
X28537438Y16738572D01*
X28537438Y16738572D02*
X28537438Y16262382D01*
X26537438Y18262382D02*
X28156485Y18262382D01*
X28156485Y18262382D02*
X28346961Y18357620D01*
X28346961Y18357620D02*
X28442200Y18452858D01*
X28442200Y18452858D02*
X28537438Y18643334D01*
X28537438Y18643334D02*
X28537438Y19024287D01*
X28537438Y19024287D02*
X28442200Y19214763D01*
X28442200Y19214763D02*
X28346961Y19310001D01*
X28346961Y19310001D02*
X28156485Y19405239D01*
X28156485Y19405239D02*
X26537438Y19405239D01*
X28537438Y20357620D02*
X26537438Y20357620D01*
X28537438Y21310001D02*
X26537438Y21310001D01*
X26537438Y21310001D02*
X28537438Y22452858D01*
X28537438Y22452858D02*
X26537438Y22452858D01*
X26537438Y23786191D02*
X26537438Y24167144D01*
X26537438Y24167144D02*
X26632676Y24357620D01*
X26632676Y24357620D02*
X26823152Y24548096D01*
X26823152Y24548096D02*
X27204104Y24643334D01*
X27204104Y24643334D02*
X27870771Y24643334D01*
X27870771Y24643334D02*
X28251723Y24548096D01*
X28251723Y24548096D02*
X28442200Y24357620D01*
X28442200Y24357620D02*
X28537438Y24167144D01*
X28537438Y24167144D02*
X28537438Y23786191D01*
X28537438Y23786191D02*
X28442200Y23595715D01*
X28442200Y23595715D02*
X28251723Y23405239D01*
X28251723Y23405239D02*
X27870771Y23310001D01*
X27870771Y23310001D02*
X27204104Y23310001D01*
X27204104Y23310001D02*
X26823152Y23405239D01*
X26823152Y23405239D02*
X26632676Y23595715D01*
X26632676Y23595715D02*
X26537438Y23786191D01*
X28537438Y27024287D02*
X26537438Y27024287D01*
X26537438Y27024287D02*
X28537438Y28167144D01*
X28537438Y28167144D02*
X26537438Y28167144D01*
X27966009Y29024287D02*
X27966009Y29976668D01*
X28537438Y28833811D02*
X26537438Y29500477D01*
X26537438Y29500477D02*
X28537438Y30167144D01*
X28537438Y30833811D02*
X26537438Y30833811D01*
X26537438Y30833811D02*
X28537438Y31976668D01*
X28537438Y31976668D02*
X26537438Y31976668D01*
X26537438Y33310001D02*
X26537438Y33690954D01*
X26537438Y33690954D02*
X26632676Y33881430D01*
X26632676Y33881430D02*
X26823152Y34071906D01*
X26823152Y34071906D02*
X27204104Y34167144D01*
X27204104Y34167144D02*
X27870771Y34167144D01*
X27870771Y34167144D02*
X28251723Y34071906D01*
X28251723Y34071906D02*
X28442200Y33881430D01*
X28442200Y33881430D02*
X28537438Y33690954D01*
X28537438Y33690954D02*
X28537438Y33310001D01*
X28537438Y33310001D02*
X28442200Y33119525D01*
X28442200Y33119525D02*
X28251723Y32929049D01*
X28251723Y32929049D02*
X27870771Y32833811D01*
X27870771Y32833811D02*
X27204104Y32833811D01*
X27204104Y32833811D02*
X26823152Y32929049D01*
X26823152Y32929049D02*
X26632676Y33119525D01*
X26632676Y33119525D02*
X26537438Y33310001D01*
X6686666Y58565705D02*
X6229523Y58565705D01*
X6458095Y58565705D02*
X6458095Y59365705D01*
X6458095Y59365705D02*
X6381904Y59251420D01*
X6381904Y59251420D02*
X6305714Y59175229D01*
X6305714Y59175229D02*
X6229523Y59137134D01*
X6991428Y59289515D02*
X7029524Y59327610D01*
X7029524Y59327610D02*
X7105714Y59365705D01*
X7105714Y59365705D02*
X7296190Y59365705D01*
X7296190Y59365705D02*
X7372381Y59327610D01*
X7372381Y59327610D02*
X7410476Y59289515D01*
X7410476Y59289515D02*
X7448571Y59213324D01*
X7448571Y59213324D02*
X7448571Y59137134D01*
X7448571Y59137134D02*
X7410476Y59022848D01*
X7410476Y59022848D02*
X6953333Y58565705D01*
X6953333Y58565705D02*
X7448571Y58565705D01*
X7677143Y59365705D02*
X7943810Y58565705D01*
X7943810Y58565705D02*
X8210476Y59365705D01*
D11*
X56874060Y79288774D02*
X56874060Y81388774D01*
X56874060Y81388774D02*
X57350250Y81388774D01*
X57350250Y81388774D02*
X57635965Y81288774D01*
X57635965Y81288774D02*
X57826441Y81088774D01*
X57826441Y81088774D02*
X57921679Y80888774D01*
X57921679Y80888774D02*
X58016917Y80488774D01*
X58016917Y80488774D02*
X58016917Y80188774D01*
X58016917Y80188774D02*
X57921679Y79788774D01*
X57921679Y79788774D02*
X57826441Y79588774D01*
X57826441Y79588774D02*
X57635965Y79388774D01*
X57635965Y79388774D02*
X57350250Y79288774D01*
X57350250Y79288774D02*
X56874060Y79288774D01*
X59731203Y81388774D02*
X59350250Y81388774D01*
X59350250Y81388774D02*
X59159774Y81288774D01*
X59159774Y81288774D02*
X59064536Y81188774D01*
X59064536Y81188774D02*
X58874060Y80888774D01*
X58874060Y80888774D02*
X58778822Y80488774D01*
X58778822Y80488774D02*
X58778822Y79688774D01*
X58778822Y79688774D02*
X58874060Y79488774D01*
X58874060Y79488774D02*
X58969298Y79388774D01*
X58969298Y79388774D02*
X59159774Y79288774D01*
X59159774Y79288774D02*
X59540727Y79288774D01*
X59540727Y79288774D02*
X59731203Y79388774D01*
X59731203Y79388774D02*
X59826441Y79488774D01*
X59826441Y79488774D02*
X59921679Y79688774D01*
X59921679Y79688774D02*
X59921679Y80188774D01*
X59921679Y80188774D02*
X59826441Y80388774D01*
X59826441Y80388774D02*
X59731203Y80488774D01*
X59731203Y80488774D02*
X59540727Y80588774D01*
X59540727Y80588774D02*
X59159774Y80588774D01*
X59159774Y80588774D02*
X58969298Y80488774D01*
X58969298Y80488774D02*
X58874060Y80388774D01*
X58874060Y80388774D02*
X58778822Y80188774D01*
X56874060Y75907892D02*
X56874060Y78007892D01*
X56874060Y78007892D02*
X57350250Y78007892D01*
X57350250Y78007892D02*
X57635965Y77907892D01*
X57635965Y77907892D02*
X57826441Y77707892D01*
X57826441Y77707892D02*
X57921679Y77507892D01*
X57921679Y77507892D02*
X58016917Y77107892D01*
X58016917Y77107892D02*
X58016917Y76807892D01*
X58016917Y76807892D02*
X57921679Y76407892D01*
X57921679Y76407892D02*
X57826441Y76207892D01*
X57826441Y76207892D02*
X57635965Y76007892D01*
X57635965Y76007892D02*
X57350250Y75907892D01*
X57350250Y75907892D02*
X56874060Y75907892D01*
X58683584Y78007892D02*
X60016917Y78007892D01*
X60016917Y78007892D02*
X59159774Y75907892D01*
X56874060Y72527010D02*
X56874060Y74627010D01*
X56874060Y74627010D02*
X57350250Y74627010D01*
X57350250Y74627010D02*
X57635965Y74527010D01*
X57635965Y74527010D02*
X57826441Y74327010D01*
X57826441Y74327010D02*
X57921679Y74127010D01*
X57921679Y74127010D02*
X58016917Y73727010D01*
X58016917Y73727010D02*
X58016917Y73427010D01*
X58016917Y73427010D02*
X57921679Y73027010D01*
X57921679Y73027010D02*
X57826441Y72827010D01*
X57826441Y72827010D02*
X57635965Y72627010D01*
X57635965Y72627010D02*
X57350250Y72527010D01*
X57350250Y72527010D02*
X56874060Y72527010D01*
X59159774Y73727010D02*
X58969298Y73827010D01*
X58969298Y73827010D02*
X58874060Y73927010D01*
X58874060Y73927010D02*
X58778822Y74127010D01*
X58778822Y74127010D02*
X58778822Y74227010D01*
X58778822Y74227010D02*
X58874060Y74427010D01*
X58874060Y74427010D02*
X58969298Y74527010D01*
X58969298Y74527010D02*
X59159774Y74627010D01*
X59159774Y74627010D02*
X59540727Y74627010D01*
X59540727Y74627010D02*
X59731203Y74527010D01*
X59731203Y74527010D02*
X59826441Y74427010D01*
X59826441Y74427010D02*
X59921679Y74227010D01*
X59921679Y74227010D02*
X59921679Y74127010D01*
X59921679Y74127010D02*
X59826441Y73927010D01*
X59826441Y73927010D02*
X59731203Y73827010D01*
X59731203Y73827010D02*
X59540727Y73727010D01*
X59540727Y73727010D02*
X59159774Y73727010D01*
X59159774Y73727010D02*
X58969298Y73627010D01*
X58969298Y73627010D02*
X58874060Y73527010D01*
X58874060Y73527010D02*
X58778822Y73327010D01*
X58778822Y73327010D02*
X58778822Y72927010D01*
X58778822Y72927010D02*
X58874060Y72727010D01*
X58874060Y72727010D02*
X58969298Y72627010D01*
X58969298Y72627010D02*
X59159774Y72527010D01*
X59159774Y72527010D02*
X59540727Y72527010D01*
X59540727Y72527010D02*
X59731203Y72627010D01*
X59731203Y72627010D02*
X59826441Y72727010D01*
X59826441Y72727010D02*
X59921679Y72927010D01*
X59921679Y72927010D02*
X59921679Y73327010D01*
X59921679Y73327010D02*
X59826441Y73527010D01*
X59826441Y73527010D02*
X59731203Y73627010D01*
X59731203Y73627010D02*
X59540727Y73727010D01*
X56874060Y69146128D02*
X56874060Y71246128D01*
X56874060Y71246128D02*
X57350250Y71246128D01*
X57350250Y71246128D02*
X57635965Y71146128D01*
X57635965Y71146128D02*
X57826441Y70946128D01*
X57826441Y70946128D02*
X57921679Y70746128D01*
X57921679Y70746128D02*
X58016917Y70346128D01*
X58016917Y70346128D02*
X58016917Y70046128D01*
X58016917Y70046128D02*
X57921679Y69646128D01*
X57921679Y69646128D02*
X57826441Y69446128D01*
X57826441Y69446128D02*
X57635965Y69246128D01*
X57635965Y69246128D02*
X57350250Y69146128D01*
X57350250Y69146128D02*
X56874060Y69146128D01*
X58969298Y69146128D02*
X59350250Y69146128D01*
X59350250Y69146128D02*
X59540727Y69246128D01*
X59540727Y69246128D02*
X59635965Y69346128D01*
X59635965Y69346128D02*
X59826441Y69646128D01*
X59826441Y69646128D02*
X59921679Y70046128D01*
X59921679Y70046128D02*
X59921679Y70846128D01*
X59921679Y70846128D02*
X59826441Y71046128D01*
X59826441Y71046128D02*
X59731203Y71146128D01*
X59731203Y71146128D02*
X59540727Y71246128D01*
X59540727Y71246128D02*
X59159774Y71246128D01*
X59159774Y71246128D02*
X58969298Y71146128D01*
X58969298Y71146128D02*
X58874060Y71046128D01*
X58874060Y71046128D02*
X58778822Y70846128D01*
X58778822Y70846128D02*
X58778822Y70346128D01*
X58778822Y70346128D02*
X58874060Y70146128D01*
X58874060Y70146128D02*
X58969298Y70046128D01*
X58969298Y70046128D02*
X59159774Y69946128D01*
X59159774Y69946128D02*
X59540727Y69946128D01*
X59540727Y69946128D02*
X59731203Y70046128D01*
X59731203Y70046128D02*
X59826441Y70146128D01*
X59826441Y70146128D02*
X59921679Y70346128D01*
X54969298Y65765246D02*
X54969298Y67865246D01*
X54969298Y67865246D02*
X55445488Y67865246D01*
X55445488Y67865246D02*
X55731203Y67765246D01*
X55731203Y67765246D02*
X55921679Y67565246D01*
X55921679Y67565246D02*
X56016917Y67365246D01*
X56016917Y67365246D02*
X56112155Y66965246D01*
X56112155Y66965246D02*
X56112155Y66665246D01*
X56112155Y66665246D02*
X56016917Y66265246D01*
X56016917Y66265246D02*
X55921679Y66065246D01*
X55921679Y66065246D02*
X55731203Y65865246D01*
X55731203Y65865246D02*
X55445488Y65765246D01*
X55445488Y65765246D02*
X54969298Y65765246D01*
X58016917Y65765246D02*
X56874060Y65765246D01*
X57445488Y65765246D02*
X57445488Y67865246D01*
X57445488Y67865246D02*
X57255012Y67565246D01*
X57255012Y67565246D02*
X57064536Y67365246D01*
X57064536Y67365246D02*
X56874060Y67265246D01*
X59255012Y67865246D02*
X59445489Y67865246D01*
X59445489Y67865246D02*
X59635965Y67765246D01*
X59635965Y67765246D02*
X59731203Y67665246D01*
X59731203Y67665246D02*
X59826441Y67465246D01*
X59826441Y67465246D02*
X59921679Y67065246D01*
X59921679Y67065246D02*
X59921679Y66565246D01*
X59921679Y66565246D02*
X59826441Y66165246D01*
X59826441Y66165246D02*
X59731203Y65965246D01*
X59731203Y65965246D02*
X59635965Y65865246D01*
X59635965Y65865246D02*
X59445489Y65765246D01*
X59445489Y65765246D02*
X59255012Y65765246D01*
X59255012Y65765246D02*
X59064536Y65865246D01*
X59064536Y65865246D02*
X58969298Y65965246D01*
X58969298Y65965246D02*
X58874060Y66165246D01*
X58874060Y66165246D02*
X58778822Y66565246D01*
X58778822Y66565246D02*
X58778822Y67065246D01*
X58778822Y67065246D02*
X58874060Y67465246D01*
X58874060Y67465246D02*
X58969298Y67665246D01*
X58969298Y67665246D02*
X59064536Y67765246D01*
X59064536Y67765246D02*
X59255012Y67865246D01*
X54969298Y62384364D02*
X54969298Y64484364D01*
X54969298Y64484364D02*
X55445488Y64484364D01*
X55445488Y64484364D02*
X55731203Y64384364D01*
X55731203Y64384364D02*
X55921679Y64184364D01*
X55921679Y64184364D02*
X56016917Y63984364D01*
X56016917Y63984364D02*
X56112155Y63584364D01*
X56112155Y63584364D02*
X56112155Y63284364D01*
X56112155Y63284364D02*
X56016917Y62884364D01*
X56016917Y62884364D02*
X55921679Y62684364D01*
X55921679Y62684364D02*
X55731203Y62484364D01*
X55731203Y62484364D02*
X55445488Y62384364D01*
X55445488Y62384364D02*
X54969298Y62384364D01*
X58016917Y62384364D02*
X56874060Y62384364D01*
X57445488Y62384364D02*
X57445488Y64484364D01*
X57445488Y64484364D02*
X57255012Y64184364D01*
X57255012Y64184364D02*
X57064536Y63984364D01*
X57064536Y63984364D02*
X56874060Y63884364D01*
X59921679Y62384364D02*
X58778822Y62384364D01*
X59350250Y62384364D02*
X59350250Y64484364D01*
X59350250Y64484364D02*
X59159774Y64184364D01*
X59159774Y64184364D02*
X58969298Y63984364D01*
X58969298Y63984364D02*
X58778822Y63884364D01*
X54969298Y59003482D02*
X54969298Y61103482D01*
X54969298Y61103482D02*
X55445488Y61103482D01*
X55445488Y61103482D02*
X55731203Y61003482D01*
X55731203Y61003482D02*
X55921679Y60803482D01*
X55921679Y60803482D02*
X56016917Y60603482D01*
X56016917Y60603482D02*
X56112155Y60203482D01*
X56112155Y60203482D02*
X56112155Y59903482D01*
X56112155Y59903482D02*
X56016917Y59503482D01*
X56016917Y59503482D02*
X55921679Y59303482D01*
X55921679Y59303482D02*
X55731203Y59103482D01*
X55731203Y59103482D02*
X55445488Y59003482D01*
X55445488Y59003482D02*
X54969298Y59003482D01*
X58016917Y59003482D02*
X56874060Y59003482D01*
X57445488Y59003482D02*
X57445488Y61103482D01*
X57445488Y61103482D02*
X57255012Y60803482D01*
X57255012Y60803482D02*
X57064536Y60603482D01*
X57064536Y60603482D02*
X56874060Y60503482D01*
X58778822Y60903482D02*
X58874060Y61003482D01*
X58874060Y61003482D02*
X59064536Y61103482D01*
X59064536Y61103482D02*
X59540727Y61103482D01*
X59540727Y61103482D02*
X59731203Y61003482D01*
X59731203Y61003482D02*
X59826441Y60903482D01*
X59826441Y60903482D02*
X59921679Y60703482D01*
X59921679Y60703482D02*
X59921679Y60503482D01*
X59921679Y60503482D02*
X59826441Y60203482D01*
X59826441Y60203482D02*
X58683584Y59003482D01*
X58683584Y59003482D02*
X59921679Y59003482D01*
X54969298Y55622600D02*
X54969298Y57722600D01*
X54969298Y57722600D02*
X55445488Y57722600D01*
X55445488Y57722600D02*
X55731203Y57622600D01*
X55731203Y57622600D02*
X55921679Y57422600D01*
X55921679Y57422600D02*
X56016917Y57222600D01*
X56016917Y57222600D02*
X56112155Y56822600D01*
X56112155Y56822600D02*
X56112155Y56522600D01*
X56112155Y56522600D02*
X56016917Y56122600D01*
X56016917Y56122600D02*
X55921679Y55922600D01*
X55921679Y55922600D02*
X55731203Y55722600D01*
X55731203Y55722600D02*
X55445488Y55622600D01*
X55445488Y55622600D02*
X54969298Y55622600D01*
X58016917Y55622600D02*
X56874060Y55622600D01*
X57445488Y55622600D02*
X57445488Y57722600D01*
X57445488Y57722600D02*
X57255012Y57422600D01*
X57255012Y57422600D02*
X57064536Y57222600D01*
X57064536Y57222600D02*
X56874060Y57122600D01*
X58683584Y57722600D02*
X59921679Y57722600D01*
X59921679Y57722600D02*
X59255012Y56922600D01*
X59255012Y56922600D02*
X59540727Y56922600D01*
X59540727Y56922600D02*
X59731203Y56822600D01*
X59731203Y56822600D02*
X59826441Y56722600D01*
X59826441Y56722600D02*
X59921679Y56522600D01*
X59921679Y56522600D02*
X59921679Y56022600D01*
X59921679Y56022600D02*
X59826441Y55822600D01*
X59826441Y55822600D02*
X59731203Y55722600D01*
X59731203Y55722600D02*
X59540727Y55622600D01*
X59540727Y55622600D02*
X58969298Y55622600D01*
X58969298Y55622600D02*
X58778822Y55722600D01*
X58778822Y55722600D02*
X58683584Y55822600D01*
D10*
X16071714Y44554896D02*
X16547904Y44554896D01*
X15976476Y44269181D02*
X16309809Y45269181D01*
X16309809Y45269181D02*
X16643142Y44269181D01*
X17500285Y44269181D02*
X16928857Y44269181D01*
X17214571Y44269181D02*
X17214571Y45269181D01*
X17214571Y45269181D02*
X17119333Y45126324D01*
X17119333Y45126324D02*
X17024095Y45031086D01*
X17024095Y45031086D02*
X16928857Y44983467D01*
X26368095Y7345181D02*
X26368095Y6535658D01*
X26368095Y6535658D02*
X26415714Y6440420D01*
X26415714Y6440420D02*
X26463333Y6392800D01*
X26463333Y6392800D02*
X26558571Y6345181D01*
X26558571Y6345181D02*
X26749047Y6345181D01*
X26749047Y6345181D02*
X26844285Y6392800D01*
X26844285Y6392800D02*
X26891904Y6440420D01*
X26891904Y6440420D02*
X26939523Y6535658D01*
X26939523Y6535658D02*
X26939523Y7345181D01*
X27368095Y6392800D02*
X27510952Y6345181D01*
X27510952Y6345181D02*
X27749047Y6345181D01*
X27749047Y6345181D02*
X27844285Y6392800D01*
X27844285Y6392800D02*
X27891904Y6440420D01*
X27891904Y6440420D02*
X27939523Y6535658D01*
X27939523Y6535658D02*
X27939523Y6630896D01*
X27939523Y6630896D02*
X27891904Y6726134D01*
X27891904Y6726134D02*
X27844285Y6773753D01*
X27844285Y6773753D02*
X27749047Y6821372D01*
X27749047Y6821372D02*
X27558571Y6868991D01*
X27558571Y6868991D02*
X27463333Y6916610D01*
X27463333Y6916610D02*
X27415714Y6964229D01*
X27415714Y6964229D02*
X27368095Y7059467D01*
X27368095Y7059467D02*
X27368095Y7154705D01*
X27368095Y7154705D02*
X27415714Y7249943D01*
X27415714Y7249943D02*
X27463333Y7297562D01*
X27463333Y7297562D02*
X27558571Y7345181D01*
X27558571Y7345181D02*
X27796666Y7345181D01*
X27796666Y7345181D02*
X27939523Y7297562D01*
X28701428Y6868991D02*
X28844285Y6821372D01*
X28844285Y6821372D02*
X28891904Y6773753D01*
X28891904Y6773753D02*
X28939523Y6678515D01*
X28939523Y6678515D02*
X28939523Y6535658D01*
X28939523Y6535658D02*
X28891904Y6440420D01*
X28891904Y6440420D02*
X28844285Y6392800D01*
X28844285Y6392800D02*
X28749047Y6345181D01*
X28749047Y6345181D02*
X28368095Y6345181D01*
X28368095Y6345181D02*
X28368095Y7345181D01*
X28368095Y7345181D02*
X28701428Y7345181D01*
X28701428Y7345181D02*
X28796666Y7297562D01*
X28796666Y7297562D02*
X28844285Y7249943D01*
X28844285Y7249943D02*
X28891904Y7154705D01*
X28891904Y7154705D02*
X28891904Y7059467D01*
X28891904Y7059467D02*
X28844285Y6964229D01*
X28844285Y6964229D02*
X28796666Y6916610D01*
X28796666Y6916610D02*
X28701428Y6868991D01*
X28701428Y6868991D02*
X28368095Y6868991D01*
X666666Y59445181D02*
X666666Y58730896D01*
X666666Y58730896D02*
X619047Y58588039D01*
X619047Y58588039D02*
X523809Y58492800D01*
X523809Y58492800D02*
X380952Y58445181D01*
X380952Y58445181D02*
X285714Y58445181D01*
X1666666Y58445181D02*
X1095238Y58445181D01*
X1380952Y58445181D02*
X1380952Y59445181D01*
X1380952Y59445181D02*
X1285714Y59302324D01*
X1285714Y59302324D02*
X1190476Y59207086D01*
X1190476Y59207086D02*
X1095238Y59159467D01*
D12*
X4520238Y11192581D02*
X4520238Y12192581D01*
X4520238Y11716391D02*
X5091666Y11716391D01*
X5091666Y11192581D02*
X5091666Y12192581D01*
X5948809Y11240200D02*
X5853571Y11192581D01*
X5853571Y11192581D02*
X5663095Y11192581D01*
X5663095Y11192581D02*
X5567857Y11240200D01*
X5567857Y11240200D02*
X5520238Y11335439D01*
X5520238Y11335439D02*
X5520238Y11716391D01*
X5520238Y11716391D02*
X5567857Y11811629D01*
X5567857Y11811629D02*
X5663095Y11859248D01*
X5663095Y11859248D02*
X5853571Y11859248D01*
X5853571Y11859248D02*
X5948809Y11811629D01*
X5948809Y11811629D02*
X5996428Y11716391D01*
X5996428Y11716391D02*
X5996428Y11621153D01*
X5996428Y11621153D02*
X5520238Y11525915D01*
X6853571Y11192581D02*
X6853571Y11716391D01*
X6853571Y11716391D02*
X6805952Y11811629D01*
X6805952Y11811629D02*
X6710714Y11859248D01*
X6710714Y11859248D02*
X6520238Y11859248D01*
X6520238Y11859248D02*
X6425000Y11811629D01*
X6853571Y11240200D02*
X6758333Y11192581D01*
X6758333Y11192581D02*
X6520238Y11192581D01*
X6520238Y11192581D02*
X6425000Y11240200D01*
X6425000Y11240200D02*
X6377381Y11335439D01*
X6377381Y11335439D02*
X6377381Y11430677D01*
X6377381Y11430677D02*
X6425000Y11525915D01*
X6425000Y11525915D02*
X6520238Y11573534D01*
X6520238Y11573534D02*
X6758333Y11573534D01*
X6758333Y11573534D02*
X6853571Y11621153D01*
X7186905Y11859248D02*
X7567857Y11859248D01*
X7329762Y12192581D02*
X7329762Y11335439D01*
X7329762Y11335439D02*
X7377381Y11240200D01*
X7377381Y11240200D02*
X7472619Y11192581D01*
X7472619Y11192581D02*
X7567857Y11192581D01*
X8615477Y11240200D02*
X8758334Y11192581D01*
X8758334Y11192581D02*
X8996429Y11192581D01*
X8996429Y11192581D02*
X9091667Y11240200D01*
X9091667Y11240200D02*
X9139286Y11287820D01*
X9139286Y11287820D02*
X9186905Y11383058D01*
X9186905Y11383058D02*
X9186905Y11478296D01*
X9186905Y11478296D02*
X9139286Y11573534D01*
X9139286Y11573534D02*
X9091667Y11621153D01*
X9091667Y11621153D02*
X8996429Y11668772D01*
X8996429Y11668772D02*
X8805953Y11716391D01*
X8805953Y11716391D02*
X8710715Y11764010D01*
X8710715Y11764010D02*
X8663096Y11811629D01*
X8663096Y11811629D02*
X8615477Y11906867D01*
X8615477Y11906867D02*
X8615477Y12002105D01*
X8615477Y12002105D02*
X8663096Y12097343D01*
X8663096Y12097343D02*
X8710715Y12144962D01*
X8710715Y12144962D02*
X8805953Y12192581D01*
X8805953Y12192581D02*
X9044048Y12192581D01*
X9044048Y12192581D02*
X9186905Y12144962D01*
X9615477Y11192581D02*
X9615477Y11859248D01*
X9615477Y12192581D02*
X9567858Y12144962D01*
X9567858Y12144962D02*
X9615477Y12097343D01*
X9615477Y12097343D02*
X9663096Y12144962D01*
X9663096Y12144962D02*
X9615477Y12192581D01*
X9615477Y12192581D02*
X9615477Y12097343D01*
X10091667Y11859248D02*
X10091667Y11192581D01*
X10091667Y11764010D02*
X10139286Y11811629D01*
X10139286Y11811629D02*
X10234524Y11859248D01*
X10234524Y11859248D02*
X10377381Y11859248D01*
X10377381Y11859248D02*
X10472619Y11811629D01*
X10472619Y11811629D02*
X10520238Y11716391D01*
X10520238Y11716391D02*
X10520238Y11192581D01*
X10996429Y11192581D02*
X10996429Y12192581D01*
X11091667Y11573534D02*
X11377381Y11192581D01*
X11377381Y11859248D02*
X10996429Y11478296D01*
D10*
X61704819Y34266667D02*
X62419104Y34266667D01*
X62419104Y34266667D02*
X62561961Y34219048D01*
X62561961Y34219048D02*
X62657200Y34123810D01*
X62657200Y34123810D02*
X62704819Y33980953D01*
X62704819Y33980953D02*
X62704819Y33885715D01*
X61704819Y34647620D02*
X61704819Y35266667D01*
X61704819Y35266667D02*
X62085771Y34933334D01*
X62085771Y34933334D02*
X62085771Y35076191D01*
X62085771Y35076191D02*
X62133390Y35171429D01*
X62133390Y35171429D02*
X62181009Y35219048D01*
X62181009Y35219048D02*
X62276247Y35266667D01*
X62276247Y35266667D02*
X62514342Y35266667D01*
X62514342Y35266667D02*
X62609580Y35219048D01*
X62609580Y35219048D02*
X62657200Y35171429D01*
X62657200Y35171429D02*
X62704819Y35076191D01*
X62704819Y35076191D02*
X62704819Y34790477D01*
X62704819Y34790477D02*
X62657200Y34695239D01*
X62657200Y34695239D02*
X62609580Y34647620D01*
X59594819Y68516667D02*
X60309104Y68516667D01*
X60309104Y68516667D02*
X60451961Y68469048D01*
X60451961Y68469048D02*
X60547200Y68373810D01*
X60547200Y68373810D02*
X60594819Y68230953D01*
X60594819Y68230953D02*
X60594819Y68135715D01*
X59690057Y68945239D02*
X59642438Y68992858D01*
X59642438Y68992858D02*
X59594819Y69088096D01*
X59594819Y69088096D02*
X59594819Y69326191D01*
X59594819Y69326191D02*
X59642438Y69421429D01*
X59642438Y69421429D02*
X59690057Y69469048D01*
X59690057Y69469048D02*
X59785295Y69516667D01*
X59785295Y69516667D02*
X59880533Y69516667D01*
X59880533Y69516667D02*
X60023390Y69469048D01*
X60023390Y69469048D02*
X60594819Y68897620D01*
X60594819Y68897620D02*
X60594819Y69516667D01*
X49761905Y3597412D02*
X49761905Y4597412D01*
X49761905Y4597412D02*
X50000000Y4597412D01*
X50000000Y4597412D02*
X50142857Y4549793D01*
X50142857Y4549793D02*
X50238095Y4454555D01*
X50238095Y4454555D02*
X50285714Y4359317D01*
X50285714Y4359317D02*
X50333333Y4168841D01*
X50333333Y4168841D02*
X50333333Y4025984D01*
X50333333Y4025984D02*
X50285714Y3835508D01*
X50285714Y3835508D02*
X50238095Y3740270D01*
X50238095Y3740270D02*
X50142857Y3645031D01*
X50142857Y3645031D02*
X50000000Y3597412D01*
X50000000Y3597412D02*
X49761905Y3597412D01*
X51285714Y3597412D02*
X50714286Y3597412D01*
X51000000Y3597412D02*
X51000000Y4597412D01*
X51000000Y4597412D02*
X50904762Y4454555D01*
X50904762Y4454555D02*
X50809524Y4359317D01*
X50809524Y4359317D02*
X50714286Y4311698D01*
D13*
%TO.C,A1*%
X18610000Y46300000D02*
X18610000Y43630000D01*
X18610000Y41090000D02*
X18610000Y2860000D01*
X18610000Y2860000D02*
X23690000Y2860000D01*
X21280000Y43630000D02*
X18610000Y43630000D01*
X21280000Y41090000D02*
X18610000Y41090000D01*
X21280000Y41090000D02*
X21280000Y43630000D01*
X21280000Y41090000D02*
X21280000Y5530000D01*
X21280000Y5530000D02*
X18610000Y5530000D01*
X23690000Y10740000D02*
X31570000Y10740000D01*
X23690000Y320000D02*
X23690000Y10740000D01*
X31570000Y10740000D02*
X31570000Y320000D01*
X31570000Y320000D02*
X23690000Y320000D01*
X33980000Y43630000D02*
X33980000Y5530000D01*
X33980000Y43630000D02*
X36650000Y43630000D01*
X33980000Y5530000D02*
X36650000Y5530000D01*
X36650000Y46300000D02*
X18610000Y46300000D01*
X36650000Y2860000D02*
X31570000Y2860000D01*
X36650000Y2860000D02*
X36650000Y46300000D01*
%TO.C,J1*%
X-6490000Y62780000D02*
X-6490000Y37260000D01*
X-6490000Y62780000D02*
X2140000Y62780000D01*
X-6490000Y62660000D02*
X2140000Y62660000D01*
X-6490000Y62541905D02*
X2140000Y62541905D01*
X-6490000Y62423810D02*
X2140000Y62423810D01*
X-6490000Y62305715D02*
X2140000Y62305715D01*
X-6490000Y62187620D02*
X2140000Y62187620D01*
X-6490000Y62069525D02*
X2140000Y62069525D01*
X-6490000Y61951430D02*
X2140000Y61951430D01*
X-6490000Y61833335D02*
X2140000Y61833335D01*
X-6490000Y61715240D02*
X2140000Y61715240D01*
X-6490000Y61597145D02*
X2140000Y61597145D01*
X-6490000Y61479050D02*
X2140000Y61479050D01*
X-6490000Y61360955D02*
X2140000Y61360955D01*
X-6490000Y61242860D02*
X2140000Y61242860D01*
X-6490000Y61124765D02*
X2140000Y61124765D01*
X-6490000Y61006670D02*
X2140000Y61006670D01*
X-6490000Y60888575D02*
X2140000Y60888575D01*
X-6490000Y60770480D02*
X2140000Y60770480D01*
X-6490000Y60652385D02*
X2140000Y60652385D01*
X-6490000Y60534290D02*
X2140000Y60534290D01*
X-6490000Y60416195D02*
X2140000Y60416195D01*
X-6490000Y60298100D02*
X2140000Y60298100D01*
X-6490000Y60180000D02*
X2140000Y60180000D01*
X-6490000Y57640000D02*
X2140000Y57640000D01*
X-6490000Y55100000D02*
X2140000Y55100000D01*
X-6490000Y52560000D02*
X2140000Y52560000D01*
X-6490000Y50020000D02*
X2140000Y50020000D01*
X-6490000Y47480000D02*
X2140000Y47480000D01*
X-6490000Y44940000D02*
X2140000Y44940000D01*
X-6490000Y42400000D02*
X2140000Y42400000D01*
X-6490000Y39860000D02*
X2140000Y39860000D01*
X-6490000Y37260000D02*
X2140000Y37260000D01*
X2140000Y62780000D02*
X2140000Y37260000D01*
X2140000Y61810000D02*
X2490000Y61810000D01*
X2140000Y61090000D02*
X2490000Y61090000D01*
X2140000Y59270000D02*
X2550000Y59270000D01*
X2140000Y58550000D02*
X2550000Y58550000D01*
X2140000Y56730000D02*
X2550000Y56730000D01*
X2140000Y56010000D02*
X2550000Y56010000D01*
X2140000Y54190000D02*
X2550000Y54190000D01*
X2140000Y53470000D02*
X2550000Y53470000D01*
X2140000Y51650000D02*
X2550000Y51650000D01*
X2140000Y50930000D02*
X2550000Y50930000D01*
X2140000Y49110000D02*
X2550000Y49110000D01*
X2140000Y48390000D02*
X2550000Y48390000D01*
X2140000Y46570000D02*
X2550000Y46570000D01*
X2140000Y45850000D02*
X2550000Y45850000D01*
X2140000Y44030000D02*
X2550000Y44030000D01*
X2140000Y43310000D02*
X2550000Y43310000D01*
X2140000Y41490000D02*
X2550000Y41490000D01*
X2140000Y40770000D02*
X2550000Y40770000D01*
X2140000Y38950000D02*
X2550000Y38950000D01*
X2140000Y38230000D02*
X2550000Y38230000D01*
X3600000Y62780000D02*
X4710000Y62780000D01*
X4710000Y62780000D02*
X4710000Y61450000D01*
D14*
%TO.C,Logo1*%
X5182872Y70600977D02*
X5286471Y70598382D01*
X5375632Y70594246D01*
X5443928Y70588563D01*
X5484934Y70581331D01*
X5493326Y70576971D01*
X5501792Y70552698D01*
X5515565Y70497426D01*
X5533450Y70416662D01*
X5554252Y70315912D01*
X5576777Y70200683D01*
X5588582Y70137902D01*
X5610849Y70018787D01*
X5631021Y69912565D01*
X5648085Y69824427D01*
X5661031Y69759566D01*
X5668845Y69723174D01*
X5670578Y69717184D01*
X5690110Y69707061D01*
X5737157Y69685662D01*
X5804997Y69655839D01*
X5886909Y69620445D01*
X5976172Y69582332D01*
X6066065Y69544353D01*
X6149865Y69509360D01*
X6220853Y69480206D01*
X6272306Y69459743D01*
X6297503Y69450823D01*
X6298604Y69450657D01*
X6318481Y69460769D01*
X6364223Y69489117D01*
X6431283Y69532723D01*
X6515116Y69588606D01*
X6611174Y69653787D01*
X6666350Y69691679D01*
X6767519Y69760725D01*
X6859370Y69822050D01*
X6937256Y69872663D01*
X6996531Y69909571D01*
X7032549Y69929782D01*
X7040623Y69932701D01*
X7059416Y69920153D01*
X7099543Y69885463D01*
X7156507Y69833063D01*
X7225815Y69767384D01*
X7302969Y69692856D01*
X7383475Y69613913D01*
X7462837Y69534983D01*
X7536560Y69460500D01*
X7600148Y69394894D01*
X7649106Y69342596D01*
X7678939Y69308039D01*
X7686058Y69296478D01*
X7676047Y69277654D01*
X7647922Y69232631D01*
X7604546Y69165787D01*
X7548782Y69081499D01*
X7483494Y68984144D01*
X7433754Y68910707D01*
X7181449Y68539667D01*
X7436445Y67921095D01*
X7881069Y67837275D01*
X8325693Y67753454D01*
X8325693Y66828006D01*
X7881069Y66744186D01*
X7436445Y66660365D01*
X7308947Y66351080D01*
X7181449Y66041794D01*
X7433754Y65670754D01*
X7504004Y65566843D01*
X7566728Y65472913D01*
X7619062Y65393348D01*
X7658143Y65332530D01*
X7681107Y65294843D01*
X7686058Y65284579D01*
X7673324Y65266090D01*
X7638118Y65226580D01*
X7584938Y65170478D01*
X7518282Y65102213D01*
X7442646Y65026214D01*
X7362528Y64946908D01*
X7282426Y64868725D01*
X7206836Y64796093D01*
X7140255Y64733441D01*
X7087182Y64685197D01*
X7052113Y64655790D01*
X7040377Y64648759D01*
X7018740Y64658877D01*
X6971338Y64687241D01*
X6902807Y64730871D01*
X6817785Y64786782D01*
X6720907Y64851994D01*
X6665650Y64889781D01*
X6564752Y64958657D01*
X6473701Y65019860D01*
X6397030Y65070422D01*
X6339272Y65107372D01*
X6304957Y65127742D01*
X6297746Y65130803D01*
X6277252Y65123864D01*
X6229487Y65104949D01*
X6161168Y65076913D01*
X6079011Y65042609D01*
X5989730Y65004891D01*
X5900042Y64966613D01*
X5816662Y64930630D01*
X5746306Y64899794D01*
X5695690Y64876961D01*
X5671529Y64864983D01*
X5670578Y64864276D01*
X5665964Y64845469D01*
X5655672Y64795382D01*
X5640713Y64719207D01*
X5622099Y64622135D01*
X5600841Y64509357D01*
X5588582Y64443558D01*
X5565638Y64323050D01*
X5543805Y64214203D01*
X5524278Y64122524D01*
X5508252Y64053519D01*
X5496921Y64012696D01*
X5493326Y64004489D01*
X5468994Y63996452D01*
X5414041Y63989967D01*
X5334892Y63985030D01*
X5237974Y63981636D01*
X5129713Y63979782D01*
X5016535Y63979462D01*
X4904865Y63980673D01*
X4801132Y63983410D01*
X4711759Y63987669D01*
X4643174Y63993445D01*
X4601803Y64000733D01*
X4593190Y64005105D01*
X4582867Y64031236D01*
X4568108Y64086607D01*
X4550648Y64163893D01*
X4532220Y64255770D01*
X4526259Y64287842D01*
X4497934Y64442476D01*
X4475124Y64564625D01*
X4456920Y64658327D01*
X4442417Y64727616D01*
X4430708Y64776529D01*
X4420885Y64809103D01*
X4412044Y64829372D01*
X4403276Y64841374D01*
X4401543Y64843053D01*
X4373629Y64859816D01*
X4319305Y64885386D01*
X4245223Y64917212D01*
X4158035Y64952740D01*
X4064392Y64989417D01*
X3970948Y65024689D01*
X3884353Y65056004D01*
X3811260Y65080807D01*
X3758322Y65096546D01*
X3732189Y65100668D01*
X3731274Y65100324D01*
X3709914Y65086359D01*
X3662916Y65054678D01*
X3595173Y65008609D01*
X3511577Y64951482D01*
X3417018Y64886627D01*
X3390146Y64868157D01*
X3292725Y64802301D01*
X3203837Y64744350D01*
X3128588Y64697462D01*
X3072080Y64664793D01*
X3039419Y64649500D01*
X3035407Y64648759D01*
X3014316Y64661608D01*
X2972536Y64697112D01*
X2914555Y64750707D01*
X2844865Y64817829D01*
X2767955Y64893913D01*
X2688317Y64974396D01*
X2610439Y65054713D01*
X2538814Y65130301D01*
X2477930Y65196595D01*
X2432279Y65249031D01*
X2406350Y65283045D01*
X2402117Y65292455D01*
X2412088Y65314357D01*
X2438980Y65359200D01*
X2478264Y65419679D01*
X2509883Y65466211D01*
X2567902Y65550525D01*
X2636216Y65650374D01*
X2704421Y65750527D01*
X2740925Y65804373D01*
X2864200Y65986629D01*
X2781480Y66139619D01*
X2745241Y66209318D01*
X2717074Y66268586D01*
X2701009Y66308689D01*
X2698774Y66318897D01*
X2715278Y66331171D01*
X2761918Y66355387D01*
X2834391Y66389737D01*
X2928394Y66432412D01*
X3039626Y66481606D01*
X3163785Y66535510D01*
X3296568Y66592316D01*
X3433673Y66650218D01*
X3570798Y66707407D01*
X3703642Y66762076D01*
X3827902Y66812416D01*
X3939275Y66856620D01*
X4033461Y66892881D01*
X4106156Y66919391D01*
X4153059Y66934342D01*
X4169167Y66936746D01*
X4189714Y66917689D01*
X4223067Y66875964D01*
X4262298Y66820294D01*
X4265401Y66815622D01*
X4380577Y66671736D01*
X4514947Y66555717D01*
X4664216Y66468570D01*
X4824087Y66411301D01*
X4990263Y66384914D01*
X5158448Y66390415D01*
X5324345Y66428810D01*
X5483658Y66501105D01*
X5518513Y66522374D01*
X5659263Y66633004D01*
X5772286Y66763698D01*
X5856997Y66909936D01*
X5912806Y67067192D01*
X5939126Y67230943D01*
X5935370Y67396667D01*
X5900950Y67559838D01*
X5835277Y67715935D01*
X5737765Y67860433D01*
X5698187Y67905131D01*
X5574297Y68018888D01*
X5443876Y68101782D01*
X5297685Y68158644D01*
X5152912Y68190313D01*
X4990140Y68198131D01*
X4826560Y68172062D01*
X4667702Y68114755D01*
X4519094Y68028856D01*
X4386265Y67917014D01*
X4274744Y67781877D01*
X4262989Y67764117D01*
X4224492Y67707850D01*
X4191137Y67665077D01*
X4169840Y67644628D01*
X4169167Y67644331D01*
X4146129Y67648721D01*
X4093843Y67666124D01*
X4016610Y67694732D01*
X3918732Y67732735D01*
X3804509Y67778326D01*
X3678242Y67829697D01*
X3544233Y67885038D01*
X3406782Y67942542D01*
X3270192Y68000399D01*
X3138763Y68056802D01*
X3016795Y68109942D01*
X2908591Y68158010D01*
X2818451Y68199199D01*
X2750677Y68231699D01*
X2709570Y68253703D01*
X2698774Y68262564D01*
X2707181Y68289640D01*
X2729728Y68340303D01*
X2762387Y68405817D01*
X2781480Y68441841D01*
X2864200Y68594832D01*
X2740925Y68777088D01*
X2677772Y68870125D01*
X2608273Y68971985D01*
X2542835Y69067438D01*
X2509883Y69115250D01*
X2464727Y69182495D01*
X2428943Y69239436D01*
X2407062Y69278646D01*
X2402437Y69291381D01*
X2414915Y69309917D01*
X2449748Y69350941D01*
X2503322Y69410475D01*
X2572017Y69484542D01*
X2652219Y69569165D01*
X2703714Y69622685D01*
X2795714Y69716319D01*
X2878001Y69797241D01*
X2947055Y69862177D01*
X2999356Y69907858D01*
X3031384Y69931011D01*
X3037884Y69933232D01*
X3062606Y69922924D01*
X3112595Y69894439D01*
X3182788Y69850937D01*
X3268125Y69795577D01*
X3363544Y69731520D01*
X3390146Y69713303D01*
X3486833Y69646927D01*
X3573883Y69587378D01*
X3646405Y69537984D01*
X3699507Y69502075D01*
X3728297Y69482981D01*
X3731274Y69481136D01*
X3754218Y69483895D01*
X3804664Y69498538D01*
X3875959Y69522513D01*
X3961453Y69553266D01*
X4054493Y69588244D01*
X4148426Y69624893D01*
X4236601Y69660661D01*
X4312366Y69692994D01*
X4369069Y69719338D01*
X4400057Y69737142D01*
X4401543Y69738407D01*
X4410399Y69749294D01*
X4419157Y69767682D01*
X4428723Y69797606D01*
X4440004Y69843103D01*
X4453907Y69908209D01*
X4471337Y69996961D01*
X4493202Y70113393D01*
X4520409Y70261542D01*
X4526259Y70293618D01*
X4544626Y70388686D01*
X4562595Y70471565D01*
X4578431Y70534930D01*
X4590400Y70571458D01*
X4593190Y70576356D01*
X4617928Y70584427D01*
X4673210Y70590987D01*
X4752611Y70596033D01*
X4849704Y70599559D01*
X4958062Y70601561D01*
X5071260Y70602036D01*
X5182872Y70600977D01*
G36*
X5182872Y70600977D02*
G01*
X5286471Y70598382D01*
X5375632Y70594246D01*
X5443928Y70588563D01*
X5484934Y70581331D01*
X5493326Y70576971D01*
X5501792Y70552698D01*
X5515565Y70497426D01*
X5533450Y70416662D01*
X5554252Y70315912D01*
X5576777Y70200683D01*
X5588582Y70137902D01*
X5610849Y70018787D01*
X5631021Y69912565D01*
X5648085Y69824427D01*
X5661031Y69759566D01*
X5668845Y69723174D01*
X5670578Y69717184D01*
X5690110Y69707061D01*
X5737157Y69685662D01*
X5804997Y69655839D01*
X5886909Y69620445D01*
X5976172Y69582332D01*
X6066065Y69544353D01*
X6149865Y69509360D01*
X6220853Y69480206D01*
X6272306Y69459743D01*
X6297503Y69450823D01*
X6298604Y69450657D01*
X6318481Y69460769D01*
X6364223Y69489117D01*
X6431283Y69532723D01*
X6515116Y69588606D01*
X6611174Y69653787D01*
X6666350Y69691679D01*
X6767519Y69760725D01*
X6859370Y69822050D01*
X6937256Y69872663D01*
X6996531Y69909571D01*
X7032549Y69929782D01*
X7040623Y69932701D01*
X7059416Y69920153D01*
X7099543Y69885463D01*
X7156507Y69833063D01*
X7225815Y69767384D01*
X7302969Y69692856D01*
X7383475Y69613913D01*
X7462837Y69534983D01*
X7536560Y69460500D01*
X7600148Y69394894D01*
X7649106Y69342596D01*
X7678939Y69308039D01*
X7686058Y69296478D01*
X7676047Y69277654D01*
X7647922Y69232631D01*
X7604546Y69165787D01*
X7548782Y69081499D01*
X7483494Y68984144D01*
X7433754Y68910707D01*
X7181449Y68539667D01*
X7436445Y67921095D01*
X7881069Y67837275D01*
X8325693Y67753454D01*
X8325693Y66828006D01*
X7881069Y66744186D01*
X7436445Y66660365D01*
X7308947Y66351080D01*
X7181449Y66041794D01*
X7433754Y65670754D01*
X7504004Y65566843D01*
X7566728Y65472913D01*
X7619062Y65393348D01*
X7658143Y65332530D01*
X7681107Y65294843D01*
X7686058Y65284579D01*
X7673324Y65266090D01*
X7638118Y65226580D01*
X7584938Y65170478D01*
X7518282Y65102213D01*
X7442646Y65026214D01*
X7362528Y64946908D01*
X7282426Y64868725D01*
X7206836Y64796093D01*
X7140255Y64733441D01*
X7087182Y64685197D01*
X7052113Y64655790D01*
X7040377Y64648759D01*
X7018740Y64658877D01*
X6971338Y64687241D01*
X6902807Y64730871D01*
X6817785Y64786782D01*
X6720907Y64851994D01*
X6665650Y64889781D01*
X6564752Y64958657D01*
X6473701Y65019860D01*
X6397030Y65070422D01*
X6339272Y65107372D01*
X6304957Y65127742D01*
X6297746Y65130803D01*
X6277252Y65123864D01*
X6229487Y65104949D01*
X6161168Y65076913D01*
X6079011Y65042609D01*
X5989730Y65004891D01*
X5900042Y64966613D01*
X5816662Y64930630D01*
X5746306Y64899794D01*
X5695690Y64876961D01*
X5671529Y64864983D01*
X5670578Y64864276D01*
X5665964Y64845469D01*
X5655672Y64795382D01*
X5640713Y64719207D01*
X5622099Y64622135D01*
X5600841Y64509357D01*
X5588582Y64443558D01*
X5565638Y64323050D01*
X5543805Y64214203D01*
X5524278Y64122524D01*
X5508252Y64053519D01*
X5496921Y64012696D01*
X5493326Y64004489D01*
X5468994Y63996452D01*
X5414041Y63989967D01*
X5334892Y63985030D01*
X5237974Y63981636D01*
X5129713Y63979782D01*
X5016535Y63979462D01*
X4904865Y63980673D01*
X4801132Y63983410D01*
X4711759Y63987669D01*
X4643174Y63993445D01*
X4601803Y64000733D01*
X4593190Y64005105D01*
X4582867Y64031236D01*
X4568108Y64086607D01*
X4550648Y64163893D01*
X4532220Y64255770D01*
X4526259Y64287842D01*
X4497934Y64442476D01*
X4475124Y64564625D01*
X4456920Y64658327D01*
X4442417Y64727616D01*
X4430708Y64776529D01*
X4420885Y64809103D01*
X4412044Y64829372D01*
X4403276Y64841374D01*
X4401543Y64843053D01*
X4373629Y64859816D01*
X4319305Y64885386D01*
X4245223Y64917212D01*
X4158035Y64952740D01*
X4064392Y64989417D01*
X3970948Y65024689D01*
X3884353Y65056004D01*
X3811260Y65080807D01*
X3758322Y65096546D01*
X3732189Y65100668D01*
X3731274Y65100324D01*
X3709914Y65086359D01*
X3662916Y65054678D01*
X3595173Y65008609D01*
X3511577Y64951482D01*
X3417018Y64886627D01*
X3390146Y64868157D01*
X3292725Y64802301D01*
X3203837Y64744350D01*
X3128588Y64697462D01*
X3072080Y64664793D01*
X3039419Y64649500D01*
X3035407Y64648759D01*
X3014316Y64661608D01*
X2972536Y64697112D01*
X2914555Y64750707D01*
X2844865Y64817829D01*
X2767955Y64893913D01*
X2688317Y64974396D01*
X2610439Y65054713D01*
X2538814Y65130301D01*
X2477930Y65196595D01*
X2432279Y65249031D01*
X2406350Y65283045D01*
X2402117Y65292455D01*
X2412088Y65314357D01*
X2438980Y65359200D01*
X2478264Y65419679D01*
X2509883Y65466211D01*
X2567902Y65550525D01*
X2636216Y65650374D01*
X2704421Y65750527D01*
X2740925Y65804373D01*
X2864200Y65986629D01*
X2781480Y66139619D01*
X2745241Y66209318D01*
X2717074Y66268586D01*
X2701009Y66308689D01*
X2698774Y66318897D01*
X2715278Y66331171D01*
X2761918Y66355387D01*
X2834391Y66389737D01*
X2928394Y66432412D01*
X3039626Y66481606D01*
X3163785Y66535510D01*
X3296568Y66592316D01*
X3433673Y66650218D01*
X3570798Y66707407D01*
X3703642Y66762076D01*
X3827902Y66812416D01*
X3939275Y66856620D01*
X4033461Y66892881D01*
X4106156Y66919391D01*
X4153059Y66934342D01*
X4169167Y66936746D01*
X4189714Y66917689D01*
X4223067Y66875964D01*
X4262298Y66820294D01*
X4265401Y66815622D01*
X4380577Y66671736D01*
X4514947Y66555717D01*
X4664216Y66468570D01*
X4824087Y66411301D01*
X4990263Y66384914D01*
X5158448Y66390415D01*
X5324345Y66428810D01*
X5483658Y66501105D01*
X5518513Y66522374D01*
X5659263Y66633004D01*
X5772286Y66763698D01*
X5856997Y66909936D01*
X5912806Y67067192D01*
X5939126Y67230943D01*
X5935370Y67396667D01*
X5900950Y67559838D01*
X5835277Y67715935D01*
X5737765Y67860433D01*
X5698187Y67905131D01*
X5574297Y68018888D01*
X5443876Y68101782D01*
X5297685Y68158644D01*
X5152912Y68190313D01*
X4990140Y68198131D01*
X4826560Y68172062D01*
X4667702Y68114755D01*
X4519094Y68028856D01*
X4386265Y67917014D01*
X4274744Y67781877D01*
X4262989Y67764117D01*
X4224492Y67707850D01*
X4191137Y67665077D01*
X4169840Y67644628D01*
X4169167Y67644331D01*
X4146129Y67648721D01*
X4093843Y67666124D01*
X4016610Y67694732D01*
X3918732Y67732735D01*
X3804509Y67778326D01*
X3678242Y67829697D01*
X3544233Y67885038D01*
X3406782Y67942542D01*
X3270192Y68000399D01*
X3138763Y68056802D01*
X3016795Y68109942D01*
X2908591Y68158010D01*
X2818451Y68199199D01*
X2750677Y68231699D01*
X2709570Y68253703D01*
X2698774Y68262564D01*
X2707181Y68289640D01*
X2729728Y68340303D01*
X2762387Y68405817D01*
X2781480Y68441841D01*
X2864200Y68594832D01*
X2740925Y68777088D01*
X2677772Y68870125D01*
X2608273Y68971985D01*
X2542835Y69067438D01*
X2509883Y69115250D01*
X2464727Y69182495D01*
X2428943Y69239436D01*
X2407062Y69278646D01*
X2402437Y69291381D01*
X2414915Y69309917D01*
X2449748Y69350941D01*
X2503322Y69410475D01*
X2572017Y69484542D01*
X2652219Y69569165D01*
X2703714Y69622685D01*
X2795714Y69716319D01*
X2878001Y69797241D01*
X2947055Y69862177D01*
X2999356Y69907858D01*
X3031384Y69931011D01*
X3037884Y69933232D01*
X3062606Y69922924D01*
X3112595Y69894439D01*
X3182788Y69850937D01*
X3268125Y69795577D01*
X3363544Y69731520D01*
X3390146Y69713303D01*
X3486833Y69646927D01*
X3573883Y69587378D01*
X3646405Y69537984D01*
X3699507Y69502075D01*
X3728297Y69482981D01*
X3731274Y69481136D01*
X3754218Y69483895D01*
X3804664Y69498538D01*
X3875959Y69522513D01*
X3961453Y69553266D01*
X4054493Y69588244D01*
X4148426Y69624893D01*
X4236601Y69660661D01*
X4312366Y69692994D01*
X4369069Y69719338D01*
X4400057Y69737142D01*
X4401543Y69738407D01*
X4410399Y69749294D01*
X4419157Y69767682D01*
X4428723Y69797606D01*
X4440004Y69843103D01*
X4453907Y69908209D01*
X4471337Y69996961D01*
X4493202Y70113393D01*
X4520409Y70261542D01*
X4526259Y70293618D01*
X4544626Y70388686D01*
X4562595Y70471565D01*
X4578431Y70534930D01*
X4590400Y70571458D01*
X4593190Y70576356D01*
X4617928Y70584427D01*
X4673210Y70590987D01*
X4752611Y70596033D01*
X4849704Y70599559D01*
X4958062Y70601561D01*
X5071260Y70602036D01*
X5182872Y70600977D01*
G37*
D13*
%TO.C,J3*%
X61040000Y49060000D02*
X68160000Y49060000D01*
X61040000Y20240000D02*
X61040000Y49060000D01*
X61040000Y20240000D02*
X68160000Y20240000D01*
X66600000Y20240000D02*
X66600000Y49060000D01*
X66660000Y20000000D02*
X68400000Y20000000D01*
X68160000Y20240000D02*
X68160000Y49060000D01*
X68400000Y20000000D02*
X68400000Y21500000D01*
X63067891Y21792258D02*
G75*
G02*
X63068000Y23008000I1432109J607742D01*
G01*
X63892258Y23832109D02*
G75*
G02*
X65108000Y23832000I607743J-1432112D01*
G01*
X65107742Y20967891D02*
G75*
G02*
X63892000Y20968000I-607742J1432109D01*
G01*
X65931385Y23007587D02*
G75*
G02*
X66055000Y22400000I-1431385J-607587D01*
G01*
X66055493Y22427011D02*
G75*
G02*
X65932000Y21792000I-1555481J-27013D01*
G01*
X66055000Y46900000D02*
G75*
G02*
X62945000Y46900000I-1555000J0D01*
G01*
X62945000Y46900000D02*
G75*
G02*
X66055000Y46900000I1555000J0D01*
G01*
X66055000Y43400000D02*
G75*
G02*
X62945000Y43400000I-1555000J0D01*
G01*
X62945000Y43400000D02*
G75*
G02*
X66055000Y43400000I1555000J0D01*
G01*
X66055000Y39900000D02*
G75*
G02*
X62945000Y39900000I-1555000J0D01*
G01*
X62945000Y39900000D02*
G75*
G02*
X66055000Y39900000I1555000J0D01*
G01*
X66055000Y36400000D02*
G75*
G02*
X62945000Y36400000I-1555000J0D01*
G01*
X62945000Y36400000D02*
G75*
G02*
X66055000Y36400000I1555000J0D01*
G01*
X66055000Y32900000D02*
G75*
G02*
X62945000Y32900000I-1555000J0D01*
G01*
X62945000Y32900000D02*
G75*
G02*
X66055000Y32900000I1555000J0D01*
G01*
X66055000Y29400000D02*
G75*
G02*
X62945000Y29400000I-1555000J0D01*
G01*
X62945000Y29400000D02*
G75*
G02*
X66055000Y29400000I1555000J0D01*
G01*
X66055000Y25900000D02*
G75*
G02*
X62945000Y25900000I-1555000J0D01*
G01*
X62945000Y25900000D02*
G75*
G02*
X66055000Y25900000I1555000J0D01*
G01*
%TO.C,J6*%
X31570000Y82090000D02*
X32950000Y82090000D01*
X31570000Y80710000D02*
X31570000Y82090000D01*
X31570000Y79440000D02*
X31570000Y56470000D01*
X31570000Y79440000D02*
X34220000Y79440000D01*
X31570000Y56470000D02*
X36870000Y56470000D01*
X34220000Y82090000D02*
X36870000Y82090000D01*
X34220000Y79440000D02*
X34220000Y82090000D01*
X36870000Y82090000D02*
X36870000Y56470000D01*
%TO.C,J2*%
X61140000Y83260000D02*
X68260000Y83260000D01*
X61140000Y54440000D02*
X61140000Y83260000D01*
X61140000Y54440000D02*
X68260000Y54440000D01*
X66700000Y54440000D02*
X66700000Y83260000D01*
X66760000Y54200000D02*
X68500000Y54200000D01*
X68260000Y54440000D02*
X68260000Y83260000D01*
X68500000Y54200000D02*
X68500000Y55700000D01*
X63167891Y55992258D02*
G75*
G02*
X63168000Y57208000I1432109J607742D01*
G01*
X63992258Y58032109D02*
G75*
G02*
X65208000Y58032000I607743J-1432112D01*
G01*
X65207742Y55167891D02*
G75*
G02*
X63992000Y55168000I-607742J1432109D01*
G01*
X66031385Y57207587D02*
G75*
G02*
X66155000Y56600000I-1431385J-607587D01*
G01*
X66155493Y56627011D02*
G75*
G02*
X66032000Y55992000I-1555481J-27013D01*
G01*
X66155000Y81100000D02*
G75*
G02*
X63045000Y81100000I-1555000J0D01*
G01*
X63045000Y81100000D02*
G75*
G02*
X66155000Y81100000I1555000J0D01*
G01*
X66155000Y77600000D02*
G75*
G02*
X63045000Y77600000I-1555000J0D01*
G01*
X63045000Y77600000D02*
G75*
G02*
X66155000Y77600000I1555000J0D01*
G01*
X66155000Y74100000D02*
G75*
G02*
X63045000Y74100000I-1555000J0D01*
G01*
X63045000Y74100000D02*
G75*
G02*
X66155000Y74100000I1555000J0D01*
G01*
X66155000Y70600000D02*
G75*
G02*
X63045000Y70600000I-1555000J0D01*
G01*
X63045000Y70600000D02*
G75*
G02*
X66155000Y70600000I1555000J0D01*
G01*
X66155000Y67100000D02*
G75*
G02*
X63045000Y67100000I-1555000J0D01*
G01*
X63045000Y67100000D02*
G75*
G02*
X66155000Y67100000I1555000J0D01*
G01*
X66155000Y63600000D02*
G75*
G02*
X63045000Y63600000I-1555000J0D01*
G01*
X63045000Y63600000D02*
G75*
G02*
X66155000Y63600000I1555000J0D01*
G01*
X66155000Y60100000D02*
G75*
G02*
X63045000Y60100000I-1555000J0D01*
G01*
X63045000Y60100000D02*
G75*
G02*
X66155000Y60100000I1555000J0D01*
G01*
D15*
%TO.C,D1*%
X48000000Y6667231D02*
X53000000Y6667231D01*
X48000000Y6467231D02*
X48000000Y6667231D01*
X48000000Y3167231D02*
X48000000Y4867231D01*
X48000000Y1667231D02*
X48000000Y1467231D01*
X48000000Y1467231D02*
X53000000Y1467231D01*
X53000000Y6667231D02*
X53000000Y6467231D01*
X53000000Y4967231D02*
X53000000Y3967231D01*
X53000000Y3967231D02*
X50400000Y1467231D01*
X53000000Y3967231D02*
X53000000Y3167231D01*
X53000000Y1467231D02*
X53000000Y1667231D01*
D16*
X53408182Y1107769D02*
G75*
G02*
X53208182Y1107769I-100000J0D01*
G01*
X53208182Y1107769D02*
G75*
G02*
X53408182Y1107769I100000J0D01*
G01*
D13*
%TO.C,J4*%
X11880000Y82040000D02*
X13260000Y82040000D01*
X11880000Y80660000D02*
X11880000Y82040000D01*
X11880000Y79390000D02*
X11880000Y56420000D01*
X11880000Y79390000D02*
X14530000Y79390000D01*
X11880000Y56420000D02*
X17180000Y56420000D01*
X14530000Y82040000D02*
X17180000Y82040000D01*
X14530000Y79390000D02*
X14530000Y82040000D01*
X17180000Y82040000D02*
X17180000Y56420000D01*
%TO.C,J5*%
X25270000Y82080000D02*
X26650000Y82080000D01*
X25270000Y80700000D02*
X25270000Y82080000D01*
X25270000Y79430000D02*
X25270000Y56460000D01*
X25270000Y79430000D02*
X27920000Y79430000D01*
X25270000Y56460000D02*
X30570000Y56460000D01*
X27920000Y82080000D02*
X30570000Y82080000D01*
X27920000Y79430000D02*
X27920000Y82080000D01*
X30570000Y82080000D02*
X30570000Y56460000D01*
%TO.C,J7*%
X18980000Y82090000D02*
X20360000Y82090000D01*
X18980000Y80710000D02*
X18980000Y82090000D01*
X18980000Y79440000D02*
X18980000Y56470000D01*
X18980000Y79440000D02*
X21630000Y79440000D01*
X18980000Y56470000D02*
X24280000Y56470000D01*
X21630000Y82090000D02*
X24280000Y82090000D01*
X21630000Y79440000D02*
X21630000Y82090000D01*
X24280000Y82090000D02*
X24280000Y56470000D01*
%TD*%
%LPC*%
D17*
%TO.C,H1*%
X5000000Y95000000D03*
%TD*%
%TO.C,H3*%
X65000000Y95000000D03*
%TD*%
%TO.C,H2*%
X5000000Y5000000D03*
%TD*%
%TO.C,H4*%
X65000000Y5000000D03*
%TD*%
D18*
%TO.C,A1*%
X20010000Y42360000D03*
D19*
X20010000Y39820000D03*
X20010000Y34740000D03*
X20010000Y32200000D03*
X20010000Y29660000D03*
X20010000Y27120000D03*
X20010000Y24580000D03*
X20010000Y22040000D03*
X20010000Y19500000D03*
X20010000Y16960000D03*
X20010000Y14420000D03*
X20010000Y11880000D03*
X20010000Y9340000D03*
X20010000Y6800000D03*
X35250000Y6800000D03*
X35250000Y9340000D03*
X35250000Y11880000D03*
X35250000Y14420000D03*
X35250000Y16960000D03*
X35250000Y19500000D03*
X35250000Y22040000D03*
X35250000Y24580000D03*
X35250000Y27120000D03*
X35250000Y29660000D03*
X35250000Y32200000D03*
X35250000Y34740000D03*
X35250000Y37280000D03*
X35250000Y39820000D03*
X35250000Y42360000D03*
%TD*%
D20*
%TO.C,J1*%
X3600000Y61450000D03*
D21*
X3600000Y58910000D03*
X3600000Y56370000D03*
X3600000Y53830000D03*
X3600000Y51290000D03*
X3600000Y48750000D03*
X3600000Y46210000D03*
X3600000Y43670000D03*
X3600000Y41130000D03*
X3600000Y38590000D03*
%TD*%
D22*
%TO.C,HS1*%
X9200000Y18350000D03*
%TD*%
D23*
%TO.C,J3*%
X64500000Y22400000D03*
D24*
X64500000Y25900000D03*
X64500000Y29400000D03*
X64500000Y32900000D03*
X64500000Y36400000D03*
X64500000Y39900000D03*
X64500000Y43400000D03*
X64500000Y46900000D03*
%TD*%
D20*
%TO.C,J6*%
X32950000Y80710000D03*
D25*
X35490000Y80710000D03*
X32950000Y78170000D03*
X35490000Y78170000D03*
X32950000Y75630000D03*
X35490000Y75630000D03*
X32950000Y73090000D03*
X35490000Y73090000D03*
X32950000Y70550000D03*
X35490000Y70550000D03*
X32950000Y68010000D03*
X35490000Y68010000D03*
X32950000Y65470000D03*
X35490000Y65470000D03*
X32950000Y62930000D03*
X35490000Y62930000D03*
X32950000Y60390000D03*
X35490000Y60390000D03*
X32950000Y57850000D03*
X35490000Y57850000D03*
%TD*%
D23*
%TO.C,J2*%
X64600000Y56600000D03*
D24*
X64600000Y60100000D03*
X64600000Y63600000D03*
X64600000Y67100000D03*
X64600000Y70600000D03*
X64600000Y74100000D03*
X64600000Y77600000D03*
X64600000Y81100000D03*
%TD*%
D26*
%TO.C,D1*%
X47923000Y5667231D03*
X47923000Y2467231D03*
X53077000Y2467231D03*
X53077000Y5667231D03*
%TD*%
D20*
%TO.C,J4*%
X13260000Y80660000D03*
D25*
X15800000Y80660000D03*
X13260000Y78120000D03*
X15800000Y78120000D03*
X13260000Y75580000D03*
X15800000Y75580000D03*
X13260000Y73040000D03*
X15800000Y73040000D03*
X13260000Y70500000D03*
X15800000Y70500000D03*
X13260000Y67960000D03*
X15800000Y67960000D03*
X13260000Y65420000D03*
X15800000Y65420000D03*
X13260000Y62880000D03*
X15800000Y62880000D03*
X13260000Y60340000D03*
X15800000Y60340000D03*
X13260000Y57800000D03*
X15800000Y57800000D03*
%TD*%
D20*
%TO.C,J5*%
X26650000Y80700000D03*
D25*
X29190000Y80700000D03*
X26650000Y78160000D03*
X29190000Y78160000D03*
X26650000Y75620000D03*
X29190000Y75620000D03*
X26650000Y73080000D03*
X29190000Y73080000D03*
X26650000Y70540000D03*
X29190000Y70540000D03*
X26650000Y68000000D03*
X29190000Y68000000D03*
X26650000Y65460000D03*
X29190000Y65460000D03*
X26650000Y62920000D03*
X29190000Y62920000D03*
X26650000Y60380000D03*
X29190000Y60380000D03*
X26650000Y57840000D03*
X29190000Y57840000D03*
%TD*%
D20*
%TO.C,J7*%
X20360000Y80710000D03*
D25*
X22900000Y80710000D03*
X20360000Y78170000D03*
X22900000Y78170000D03*
X20360000Y75630000D03*
X22900000Y75630000D03*
X20360000Y73090000D03*
X22900000Y73090000D03*
X20360000Y70550000D03*
X22900000Y70550000D03*
X20360000Y68010000D03*
X22900000Y68010000D03*
X20360000Y65470000D03*
X22900000Y65470000D03*
X20360000Y62930000D03*
X22900000Y62930000D03*
X20360000Y60390000D03*
X22900000Y60390000D03*
X20360000Y57850000D03*
X22900000Y57850000D03*
%TD*%
%LPD*%
M02*
