%TF.GenerationSoftware,KiCad,Pcbnew,9.0.1*%
%TF.CreationDate,2025-05-07T10:28:02-04:00*%
%TF.ProjectId,BREAD_Slice_smtProto,42524541-445f-4536-9c69-63655f736d74,rev?*%
%TF.SameCoordinates,PX74eba40PY8552dc0*%
%TF.FileFunction,Legend,Bot*%
%TF.FilePolarity,Positive*%
%FSLAX46Y46*%
G04 Gerber Fmt 4.6, Leading zero omitted, Abs format (unit mm)*
G04 Created by KiCad (PCBNEW 9.0.1) date 2025-05-07 10:28:02*
%MOMM*%
%LPD*%
G01*
G04 APERTURE LIST*
G04 Aperture macros list*
%AMRoundRect*
0 Rectangle with rounded corners*
0 $1 Rounding radius*
0 $2 $3 $4 $5 $6 $7 $8 $9 X,Y pos of 4 corners*
0 Add a 4 corners polygon primitive as box body*
4,1,4,$2,$3,$4,$5,$6,$7,$8,$9,$2,$3,0*
0 Add four circle primitives for the rounded corners*
1,1,$1+$1,$2,$3*
1,1,$1+$1,$4,$5*
1,1,$1+$1,$6,$7*
1,1,$1+$1,$8,$9*
0 Add four rect primitives between the rounded corners*
20,1,$1+$1,$2,$3,$4,$5,0*
20,1,$1+$1,$4,$5,$6,$7,0*
20,1,$1+$1,$6,$7,$8,$9,0*
20,1,$1+$1,$8,$9,$2,$3,0*%
G04 Aperture macros list end*
%ADD10C,0.120000*%
%ADD11C,0.150000*%
%ADD12RoundRect,0.050000X-0.850000X-0.850000X0.850000X-0.850000X0.850000X0.850000X-0.850000X0.850000X0*%
%ADD13C,1.800000*%
%ADD14C,5.100000*%
%ADD15RoundRect,0.050000X-0.800000X-0.800000X0.800000X-0.800000X0.800000X0.800000X-0.800000X0.800000X0*%
%ADD16O,1.700000X1.700000*%
%ADD17O,1.800000X1.800000*%
%ADD18O,2.000000X1.500000*%
%ADD19RoundRect,0.050000X0.800000X0.800000X-0.800000X0.800000X-0.800000X-0.800000X0.800000X-0.800000X0*%
%ADD20O,1.400000X2.000000*%
%ADD21O,1.500000X1.800000*%
%ADD22RoundRect,0.050000X0.850000X-0.850000X0.850000X0.850000X-0.850000X0.850000X-0.850000X-0.850000X0*%
%ADD23C,2.160000*%
%ADD24RoundRect,0.271739X0.353261X0.678261X-0.353261X0.678261X-0.353261X-0.678261X0.353261X-0.678261X0*%
%ADD25RoundRect,0.175000X-0.537500X-0.175000X0.537500X-0.175000X0.537500X0.175000X-0.537500X0.175000X0*%
%ADD26RoundRect,0.271739X-0.353261X-0.678261X0.353261X-0.678261X0.353261X0.678261X-0.353261X0.678261X0*%
%ADD27RoundRect,0.270000X-0.405000X-1.105000X0.405000X-1.105000X0.405000X1.105000X-0.405000X1.105000X0*%
G04 APERTURE END LIST*
D10*
X2150000Y27284000D02*
X3470000Y27284000D01*
X3950000Y27284000D02*
X5270000Y27284000D01*
X5750000Y27284000D02*
X7070000Y27284000D01*
X7550000Y27284000D02*
X8870000Y27284000D01*
X9350000Y27284000D02*
X10670000Y27284000D01*
X11150000Y27284000D02*
X12470000Y27284000D01*
X12950000Y27284000D02*
X14270000Y27284000D01*
X14750000Y27284000D02*
X15750000Y27284000D01*
X15750000Y27284000D02*
X15750000Y25964000D01*
X15750000Y25484000D02*
X15750000Y24164000D01*
X15750000Y23684000D02*
X15750000Y22364000D01*
X15750000Y21884000D02*
X15750000Y20564000D01*
X15750000Y20084000D02*
X15750000Y18764000D01*
X15750000Y18284000D02*
X15750000Y16964000D01*
X15750000Y16484000D02*
X15750000Y15164000D01*
X15750000Y14684000D02*
X15750000Y13364000D01*
X15750000Y12884000D02*
X15750000Y11564000D01*
X15750000Y11084000D02*
X15750000Y10816000D01*
X15750000Y10816000D02*
X14430000Y10816000D01*
X13950000Y10816000D02*
X12630000Y10816000D01*
X12150000Y10816000D02*
X10830000Y10816000D01*
X10350000Y10816000D02*
X9030000Y10816000D01*
X8550000Y10816000D02*
X7230000Y10816000D01*
X6750000Y10816000D02*
X5430000Y10816000D01*
X4950000Y10816000D02*
X3630000Y10816000D01*
X3150000Y10816000D02*
X2150000Y10816000D01*
X2150000Y10816000D02*
X2150000Y12136000D01*
X2150000Y12616000D02*
X2150000Y13936000D01*
X2150000Y14416000D02*
X2150000Y15736000D01*
X2150000Y16216000D02*
X2150000Y17536000D01*
X2150000Y18016000D02*
X2150000Y19336000D01*
X2150000Y19816000D02*
X2150000Y21136000D01*
X2150000Y21616000D02*
X2150000Y22936000D01*
X2150000Y23416000D02*
X2150000Y24736000D01*
X2150000Y25216000D02*
X2150000Y26536000D01*
X2150000Y27016000D02*
X2150000Y27284000D01*
D11*
X13773809Y25375181D02*
X14345237Y25375181D01*
X14059523Y25375181D02*
X14059523Y26375181D01*
X14059523Y26375181D02*
X14154761Y26232324D01*
X14154761Y26232324D02*
X14249999Y26137086D01*
X14249999Y26137086D02*
X14345237Y26089467D01*
X13392856Y26279943D02*
X13345237Y26327562D01*
X13345237Y26327562D02*
X13249999Y26375181D01*
X13249999Y26375181D02*
X13011904Y26375181D01*
X13011904Y26375181D02*
X12916666Y26327562D01*
X12916666Y26327562D02*
X12869047Y26279943D01*
X12869047Y26279943D02*
X12821428Y26184705D01*
X12821428Y26184705D02*
X12821428Y26089467D01*
X12821428Y26089467D02*
X12869047Y25946610D01*
X12869047Y25946610D02*
X13440475Y25375181D01*
X13440475Y25375181D02*
X12821428Y25375181D01*
X12535713Y26375181D02*
X12202380Y25375181D01*
X12202380Y25375181D02*
X11869047Y26375181D01*
X11535713Y25756134D02*
X10773809Y25756134D01*
X10297618Y26041848D02*
X9535714Y25756134D01*
X9535714Y25756134D02*
X10297618Y25470420D01*
X8583333Y26375181D02*
X9059523Y26375181D01*
X9059523Y26375181D02*
X9107142Y25898991D01*
X9107142Y25898991D02*
X9059523Y25946610D01*
X9059523Y25946610D02*
X8964285Y25994229D01*
X8964285Y25994229D02*
X8726190Y25994229D01*
X8726190Y25994229D02*
X8630952Y25946610D01*
X8630952Y25946610D02*
X8583333Y25898991D01*
X8583333Y25898991D02*
X8535714Y25803753D01*
X8535714Y25803753D02*
X8535714Y25565658D01*
X8535714Y25565658D02*
X8583333Y25470420D01*
X8583333Y25470420D02*
X8630952Y25422800D01*
X8630952Y25422800D02*
X8726190Y25375181D01*
X8726190Y25375181D02*
X8964285Y25375181D01*
X8964285Y25375181D02*
X9059523Y25422800D01*
X9059523Y25422800D02*
X9107142Y25470420D01*
X8249999Y26375181D02*
X7916666Y25375181D01*
X7916666Y25375181D02*
X7583333Y26375181D01*
X5916666Y25375181D02*
X6249999Y25851372D01*
X6488094Y25375181D02*
X6488094Y26375181D01*
X6488094Y26375181D02*
X6107142Y26375181D01*
X6107142Y26375181D02*
X6011904Y26327562D01*
X6011904Y26327562D02*
X5964285Y26279943D01*
X5964285Y26279943D02*
X5916666Y26184705D01*
X5916666Y26184705D02*
X5916666Y26041848D01*
X5916666Y26041848D02*
X5964285Y25946610D01*
X5964285Y25946610D02*
X6011904Y25898991D01*
X6011904Y25898991D02*
X6107142Y25851372D01*
X6107142Y25851372D02*
X6488094Y25851372D01*
X5107142Y25422800D02*
X5202380Y25375181D01*
X5202380Y25375181D02*
X5392856Y25375181D01*
X5392856Y25375181D02*
X5488094Y25422800D01*
X5488094Y25422800D02*
X5535713Y25518039D01*
X5535713Y25518039D02*
X5535713Y25898991D01*
X5535713Y25898991D02*
X5488094Y25994229D01*
X5488094Y25994229D02*
X5392856Y26041848D01*
X5392856Y26041848D02*
X5202380Y26041848D01*
X5202380Y26041848D02*
X5107142Y25994229D01*
X5107142Y25994229D02*
X5059523Y25898991D01*
X5059523Y25898991D02*
X5059523Y25803753D01*
X5059523Y25803753D02*
X5535713Y25708515D01*
X4202380Y26041848D02*
X4202380Y25232324D01*
X4202380Y25232324D02*
X4249999Y25137086D01*
X4249999Y25137086D02*
X4297618Y25089467D01*
X4297618Y25089467D02*
X4392856Y25041848D01*
X4392856Y25041848D02*
X4535713Y25041848D01*
X4535713Y25041848D02*
X4630951Y25089467D01*
X4202380Y25422800D02*
X4297618Y25375181D01*
X4297618Y25375181D02*
X4488094Y25375181D01*
X4488094Y25375181D02*
X4583332Y25422800D01*
X4583332Y25422800D02*
X4630951Y25470420D01*
X4630951Y25470420D02*
X4678570Y25565658D01*
X4678570Y25565658D02*
X4678570Y25851372D01*
X4678570Y25851372D02*
X4630951Y25946610D01*
X4630951Y25946610D02*
X4583332Y25994229D01*
X4583332Y25994229D02*
X4488094Y26041848D01*
X4488094Y26041848D02*
X4297618Y26041848D01*
X4297618Y26041848D02*
X4202380Y25994229D01*
X6366666Y21790420D02*
X6414285Y21742800D01*
X6414285Y21742800D02*
X6557142Y21695181D01*
X6557142Y21695181D02*
X6652380Y21695181D01*
X6652380Y21695181D02*
X6795237Y21742800D01*
X6795237Y21742800D02*
X6890475Y21838039D01*
X6890475Y21838039D02*
X6938094Y21933277D01*
X6938094Y21933277D02*
X6985713Y22123753D01*
X6985713Y22123753D02*
X6985713Y22266610D01*
X6985713Y22266610D02*
X6938094Y22457086D01*
X6938094Y22457086D02*
X6890475Y22552324D01*
X6890475Y22552324D02*
X6795237Y22647562D01*
X6795237Y22647562D02*
X6652380Y22695181D01*
X6652380Y22695181D02*
X6557142Y22695181D01*
X6557142Y22695181D02*
X6414285Y22647562D01*
X6414285Y22647562D02*
X6366666Y22599943D01*
X5414285Y21695181D02*
X5985713Y21695181D01*
X5699999Y21695181D02*
X5699999Y22695181D01*
X5699999Y22695181D02*
X5795237Y22552324D01*
X5795237Y22552324D02*
X5890475Y22457086D01*
X5890475Y22457086D02*
X5985713Y22409467D01*
X5711904Y14895181D02*
X5711904Y14085658D01*
X5711904Y14085658D02*
X5664285Y13990420D01*
X5664285Y13990420D02*
X5616666Y13942800D01*
X5616666Y13942800D02*
X5521428Y13895181D01*
X5521428Y13895181D02*
X5330952Y13895181D01*
X5330952Y13895181D02*
X5235714Y13942800D01*
X5235714Y13942800D02*
X5188095Y13990420D01*
X5188095Y13990420D02*
X5140476Y14085658D01*
X5140476Y14085658D02*
X5140476Y14895181D01*
X4140476Y13895181D02*
X4711904Y13895181D01*
X4426190Y13895181D02*
X4426190Y14895181D01*
X4426190Y14895181D02*
X4521428Y14752324D01*
X4521428Y14752324D02*
X4616666Y14657086D01*
X4616666Y14657086D02*
X4711904Y14609467D01*
X8716666Y11440420D02*
X8764285Y11392800D01*
X8764285Y11392800D02*
X8907142Y11345181D01*
X8907142Y11345181D02*
X9002380Y11345181D01*
X9002380Y11345181D02*
X9145237Y11392800D01*
X9145237Y11392800D02*
X9240475Y11488039D01*
X9240475Y11488039D02*
X9288094Y11583277D01*
X9288094Y11583277D02*
X9335713Y11773753D01*
X9335713Y11773753D02*
X9335713Y11916610D01*
X9335713Y11916610D02*
X9288094Y12107086D01*
X9288094Y12107086D02*
X9240475Y12202324D01*
X9240475Y12202324D02*
X9145237Y12297562D01*
X9145237Y12297562D02*
X9002380Y12345181D01*
X9002380Y12345181D02*
X8907142Y12345181D01*
X8907142Y12345181D02*
X8764285Y12297562D01*
X8764285Y12297562D02*
X8716666Y12249943D01*
X8335713Y12249943D02*
X8288094Y12297562D01*
X8288094Y12297562D02*
X8192856Y12345181D01*
X8192856Y12345181D02*
X7954761Y12345181D01*
X7954761Y12345181D02*
X7859523Y12297562D01*
X7859523Y12297562D02*
X7811904Y12249943D01*
X7811904Y12249943D02*
X7764285Y12154705D01*
X7764285Y12154705D02*
X7764285Y12059467D01*
X7764285Y12059467D02*
X7811904Y11916610D01*
X7811904Y11916610D02*
X8383332Y11345181D01*
X8383332Y11345181D02*
X7764285Y11345181D01*
X14716666Y20040420D02*
X14764285Y19992800D01*
X14764285Y19992800D02*
X14907142Y19945181D01*
X14907142Y19945181D02*
X15002380Y19945181D01*
X15002380Y19945181D02*
X15145237Y19992800D01*
X15145237Y19992800D02*
X15240475Y20088039D01*
X15240475Y20088039D02*
X15288094Y20183277D01*
X15288094Y20183277D02*
X15335713Y20373753D01*
X15335713Y20373753D02*
X15335713Y20516610D01*
X15335713Y20516610D02*
X15288094Y20707086D01*
X15288094Y20707086D02*
X15240475Y20802324D01*
X15240475Y20802324D02*
X15145237Y20897562D01*
X15145237Y20897562D02*
X15002380Y20945181D01*
X15002380Y20945181D02*
X14907142Y20945181D01*
X14907142Y20945181D02*
X14764285Y20897562D01*
X14764285Y20897562D02*
X14716666Y20849943D01*
X14383332Y20945181D02*
X13764285Y20945181D01*
X13764285Y20945181D02*
X14097618Y20564229D01*
X14097618Y20564229D02*
X13954761Y20564229D01*
X13954761Y20564229D02*
X13859523Y20516610D01*
X13859523Y20516610D02*
X13811904Y20468991D01*
X13811904Y20468991D02*
X13764285Y20373753D01*
X13764285Y20373753D02*
X13764285Y20135658D01*
X13764285Y20135658D02*
X13811904Y20040420D01*
X13811904Y20040420D02*
X13859523Y19992800D01*
X13859523Y19992800D02*
X13954761Y19945181D01*
X13954761Y19945181D02*
X14240475Y19945181D01*
X14240475Y19945181D02*
X14335713Y19992800D01*
X14335713Y19992800D02*
X14383332Y20040420D01*
X14716666Y23090420D02*
X14764285Y23042800D01*
X14764285Y23042800D02*
X14907142Y22995181D01*
X14907142Y22995181D02*
X15002380Y22995181D01*
X15002380Y22995181D02*
X15145237Y23042800D01*
X15145237Y23042800D02*
X15240475Y23138039D01*
X15240475Y23138039D02*
X15288094Y23233277D01*
X15288094Y23233277D02*
X15335713Y23423753D01*
X15335713Y23423753D02*
X15335713Y23566610D01*
X15335713Y23566610D02*
X15288094Y23757086D01*
X15288094Y23757086D02*
X15240475Y23852324D01*
X15240475Y23852324D02*
X15145237Y23947562D01*
X15145237Y23947562D02*
X15002380Y23995181D01*
X15002380Y23995181D02*
X14907142Y23995181D01*
X14907142Y23995181D02*
X14764285Y23947562D01*
X14764285Y23947562D02*
X14716666Y23899943D01*
X13859523Y23661848D02*
X13859523Y22995181D01*
X14097618Y24042800D02*
X14335713Y23328515D01*
X14335713Y23328515D02*
X13716666Y23328515D01*
X14566666Y16695181D02*
X15042856Y16695181D01*
X15042856Y16695181D02*
X15042856Y17695181D01*
X13709523Y16695181D02*
X14280951Y16695181D01*
X13995237Y16695181D02*
X13995237Y17695181D01*
X13995237Y17695181D02*
X14090475Y17552324D01*
X14090475Y17552324D02*
X14185713Y17457086D01*
X14185713Y17457086D02*
X14280951Y17409467D01*
D10*
%TO.C,C1*%
X5488748Y21210000D02*
X6911252Y21210000D01*
X5488748Y19390000D02*
X6911252Y19390000D01*
%TO.C,U1*%
X5350000Y18605000D02*
X6150000Y18605000D01*
X5350000Y15485000D02*
X6150000Y15485000D01*
X6950000Y18605000D02*
X6150000Y18605000D01*
X6950000Y15485000D02*
X6150000Y15485000D01*
X5090000Y15205000D02*
X4610000Y15205000D01*
X4850000Y15535000D01*
X5090000Y15205000D01*
G36*
X5090000Y15205000D02*
G01*
X4610000Y15205000D01*
X4850000Y15535000D01*
X5090000Y15205000D01*
G37*
%TO.C,C2*%
X7838748Y14455000D02*
X9261252Y14455000D01*
X7838748Y12635000D02*
X9261252Y12635000D01*
%TO.C,C3*%
X11961252Y21255000D02*
X10538748Y21255000D01*
X11961252Y19435000D02*
X10538748Y19435000D01*
%TO.C,C4*%
X11961252Y24255000D02*
X10538748Y24255000D01*
X11961252Y22435000D02*
X10538748Y22435000D01*
%TO.C,L1*%
X11852064Y18405000D02*
X10647936Y18405000D01*
X11852064Y15685000D02*
X10647936Y15685000D01*
%TD*%
%LPC*%
D12*
%TO.C,REF\u002A\u002A*%
X39150000Y13150000D03*
D13*
X41690000Y13150000D03*
X39150000Y10610000D03*
X41690000Y10610000D03*
%TD*%
D12*
%TO.C,REF\u002A\u002A*%
X43310000Y42200000D03*
D13*
X45850000Y42200000D03*
X43310000Y39660000D03*
X45850000Y39660000D03*
X43310000Y37120000D03*
X45850000Y37120000D03*
X43310000Y34580000D03*
X45850000Y34580000D03*
X43310000Y32040000D03*
X45850000Y32040000D03*
X43310000Y29500000D03*
X45850000Y29500000D03*
X43310000Y26960000D03*
X45850000Y26960000D03*
X43310000Y24420000D03*
X45850000Y24420000D03*
X43310000Y21880000D03*
X45850000Y21880000D03*
X43310000Y19340000D03*
X45850000Y19340000D03*
%TD*%
D14*
%TO.C,H1*%
X5000000Y95000000D03*
%TD*%
%TO.C,H3*%
X65000000Y95000000D03*
%TD*%
%TO.C,H2*%
X5000000Y5000000D03*
%TD*%
%TO.C,H4*%
X65000000Y5000000D03*
%TD*%
D15*
%TO.C,A1*%
X20010000Y42360000D03*
D16*
X20010000Y39820000D03*
X20010000Y34740000D03*
X20010000Y32200000D03*
X20010000Y29660000D03*
X20010000Y27120000D03*
X20010000Y24580000D03*
X20010000Y22040000D03*
X20010000Y19500000D03*
X20010000Y16960000D03*
X20010000Y14420000D03*
X20010000Y11880000D03*
X20010000Y9340000D03*
X20010000Y6800000D03*
X35250000Y6800000D03*
X35250000Y9340000D03*
X35250000Y11880000D03*
X35250000Y14420000D03*
X35250000Y16960000D03*
X35250000Y19500000D03*
X35250000Y22040000D03*
X35250000Y24580000D03*
X35250000Y27120000D03*
X35250000Y29660000D03*
X35250000Y32200000D03*
X35250000Y34740000D03*
X35250000Y37280000D03*
X35250000Y39820000D03*
X35250000Y42360000D03*
%TD*%
D12*
%TO.C,J1*%
X3600000Y61450000D03*
D17*
X3600000Y58910000D03*
X3600000Y56370000D03*
X3600000Y53830000D03*
X3600000Y51290000D03*
X3600000Y48750000D03*
X3600000Y46210000D03*
X3600000Y43670000D03*
X3600000Y41130000D03*
X3600000Y38590000D03*
%TD*%
D15*
%TO.C,*%
X16990000Y88210000D03*
D18*
X19530000Y88210000D03*
X44930000Y88210000D03*
D15*
X47470000Y88210000D03*
%TD*%
%TO.C,*%
X16990000Y78050000D03*
D18*
X19530000Y78050000D03*
X44930000Y78050000D03*
D15*
X47470000Y78050000D03*
%TD*%
D12*
%TO.C,*%
X18050000Y95630000D03*
X20590000Y95630000D03*
X20590000Y93090000D03*
X18050000Y93090000D03*
X15510000Y93090000D03*
X15510000Y95630000D03*
X15510000Y98170000D03*
X18050000Y98170000D03*
X20590000Y98170000D03*
X23130000Y98170000D03*
X23130000Y95630000D03*
X23130000Y93090000D03*
X23130000Y90550000D03*
X20590000Y90550000D03*
X18050000Y90550000D03*
X15510000Y90550000D03*
%TD*%
D15*
%TO.C,*%
X16990000Y60270000D03*
D18*
X19530000Y60270000D03*
X44930000Y60270000D03*
D15*
X47470000Y60270000D03*
%TD*%
D12*
%TO.C,*%
X53185000Y85670000D03*
X55725000Y85670000D03*
X55725000Y83130000D03*
X53185000Y83130000D03*
X50645000Y83130000D03*
X50645000Y85670000D03*
X50645000Y88210000D03*
X53185000Y88210000D03*
X55725000Y88210000D03*
X58265000Y88210000D03*
X58265000Y85670000D03*
X58265000Y83130000D03*
X58265000Y80590000D03*
X55725000Y80590000D03*
X53185000Y80590000D03*
X50645000Y80590000D03*
%TD*%
D19*
%TO.C,*%
X47475000Y55360000D03*
X32235000Y55360000D03*
%TD*%
%TO.C,*%
X47475000Y57900000D03*
X32235000Y57900000D03*
%TD*%
D20*
%TO.C,*%
X64665000Y49280000D03*
X64665000Y46740000D03*
X64665000Y44200000D03*
X64665000Y41660000D03*
D21*
X64665000Y21340000D03*
X64665000Y18800000D03*
X64665000Y16260000D03*
X64665000Y13720000D03*
%TD*%
D12*
%TO.C,*%
X9370000Y85670000D03*
X11910000Y85670000D03*
X11910000Y83130000D03*
X9370000Y83130000D03*
X6830000Y83130000D03*
X6830000Y85670000D03*
X6830000Y88210000D03*
X9370000Y88210000D03*
X11910000Y88210000D03*
X14450000Y88210000D03*
X14450000Y85670000D03*
X14450000Y83130000D03*
X14450000Y80590000D03*
X11910000Y80590000D03*
X9370000Y80590000D03*
X6830000Y80590000D03*
%TD*%
%TO.C,REF\u002A\u002A*%
X38925000Y45100000D03*
D17*
X38925000Y42560000D03*
X38925000Y40020000D03*
%TD*%
D20*
%TO.C,*%
X54505000Y49280000D03*
X54505000Y46740000D03*
X54505000Y44200000D03*
X54505000Y41660000D03*
D21*
X54505000Y21340000D03*
X54505000Y18800000D03*
X54505000Y16260000D03*
X54505000Y13720000D03*
%TD*%
D15*
%TO.C,*%
X16990000Y72970000D03*
D18*
X19530000Y72970000D03*
X44930000Y72970000D03*
D15*
X47470000Y72970000D03*
%TD*%
D20*
%TO.C,*%
X59585000Y49280000D03*
X59585000Y46740000D03*
X59585000Y44200000D03*
X59585000Y41660000D03*
D21*
X59585000Y21340000D03*
X59585000Y18800000D03*
X59585000Y16260000D03*
X59585000Y13720000D03*
%TD*%
D15*
%TO.C,*%
X16990000Y80590000D03*
D18*
X19530000Y80590000D03*
X44930000Y80590000D03*
D15*
X47470000Y80590000D03*
%TD*%
D12*
%TO.C,*%
X63345000Y85670000D03*
X65885000Y85670000D03*
X65885000Y83130000D03*
X63345000Y83130000D03*
X60805000Y83130000D03*
X60805000Y85670000D03*
X60805000Y88210000D03*
X63345000Y88210000D03*
X65885000Y88210000D03*
X68425000Y88210000D03*
X68425000Y85670000D03*
X68425000Y83130000D03*
X68425000Y80590000D03*
X65885000Y80590000D03*
X63345000Y80590000D03*
X60805000Y80590000D03*
%TD*%
D20*
%TO.C,*%
X49425000Y49280000D03*
X49425000Y46740000D03*
X49425000Y44200000D03*
X49425000Y41660000D03*
D21*
X49425000Y21340000D03*
X49425000Y18800000D03*
X49425000Y16260000D03*
X49425000Y13720000D03*
%TD*%
D12*
%TO.C,REF\u002A\u002A*%
X38975000Y31990000D03*
D17*
X38975000Y29450000D03*
X38975000Y26910000D03*
X38975000Y24370000D03*
X38975000Y21830000D03*
X38975000Y19290000D03*
%TD*%
D20*
%TO.C,*%
X62125000Y49280000D03*
X62125000Y46740000D03*
X62125000Y44200000D03*
X62125000Y41660000D03*
D21*
X62125000Y21340000D03*
X62125000Y18800000D03*
X62125000Y16260000D03*
X62125000Y13720000D03*
%TD*%
D12*
%TO.C,*%
X63345000Y75510000D03*
X65885000Y75510000D03*
X65885000Y72970000D03*
X63345000Y72970000D03*
X60805000Y72970000D03*
X60805000Y75510000D03*
X60805000Y78050000D03*
X63345000Y78050000D03*
X65885000Y78050000D03*
X68425000Y78050000D03*
X68425000Y75510000D03*
X68425000Y72970000D03*
X68425000Y70430000D03*
X65885000Y70430000D03*
X63345000Y70430000D03*
X60805000Y70430000D03*
%TD*%
%TO.C,*%
X63345000Y65350000D03*
X65885000Y65350000D03*
X65885000Y62810000D03*
X63345000Y62810000D03*
X60805000Y62810000D03*
X60805000Y65350000D03*
X60805000Y67890000D03*
X63345000Y67890000D03*
X65885000Y67890000D03*
X68425000Y67890000D03*
X68425000Y65350000D03*
X68425000Y62810000D03*
X68425000Y60270000D03*
X65885000Y60270000D03*
X63345000Y60270000D03*
X60805000Y60270000D03*
%TD*%
%TO.C,*%
X53185000Y75510000D03*
X55725000Y75510000D03*
X55725000Y72970000D03*
X53185000Y72970000D03*
X50645000Y72970000D03*
X50645000Y75510000D03*
X50645000Y78050000D03*
X53185000Y78050000D03*
X55725000Y78050000D03*
X58265000Y78050000D03*
X58265000Y75510000D03*
X58265000Y72970000D03*
X58265000Y70430000D03*
X55725000Y70430000D03*
X53185000Y70430000D03*
X50645000Y70430000D03*
%TD*%
D22*
%TO.C,REF\u002A\u002A*%
X28765000Y48700000D03*
D17*
X31305000Y48700000D03*
X33845000Y48700000D03*
X36385000Y48700000D03*
X38925000Y48700000D03*
%TD*%
D23*
%TO.C,*%
X14373516Y48361797D03*
X17516606Y47912784D03*
X17067593Y51055874D03*
X10781414Y57342053D03*
X7638324Y57791066D03*
X8087337Y54647976D03*
%TD*%
D20*
%TO.C,*%
X57045000Y49280000D03*
X57045000Y46740000D03*
X57045000Y44200000D03*
X57045000Y41660000D03*
D21*
X57045000Y21340000D03*
X57045000Y18800000D03*
X57045000Y16260000D03*
X57045000Y13720000D03*
%TD*%
D12*
%TO.C,*%
X48530000Y95630000D03*
X51070000Y95630000D03*
X51070000Y93090000D03*
X48530000Y93090000D03*
X45990000Y93090000D03*
X45990000Y95630000D03*
X45990000Y98170000D03*
X48530000Y98170000D03*
X51070000Y98170000D03*
X53610000Y98170000D03*
X53610000Y95630000D03*
X53610000Y93090000D03*
X53610000Y90550000D03*
X51070000Y90550000D03*
X48530000Y90550000D03*
X45990000Y90550000D03*
%TD*%
D23*
%TO.C,*%
X21389680Y48366243D03*
X24532770Y47917230D03*
X24083757Y51060320D03*
X17797578Y57346499D03*
X14654488Y57795512D03*
X15103501Y54652422D03*
%TD*%
D20*
%TO.C,*%
X67205000Y49280000D03*
X67205000Y46740000D03*
X67205000Y44200000D03*
X67205000Y41660000D03*
D21*
X67205000Y21340000D03*
X67205000Y18800000D03*
X67205000Y16260000D03*
X67205000Y13720000D03*
%TD*%
D15*
%TO.C,*%
X16990000Y85670000D03*
D18*
X19530000Y85670000D03*
X44930000Y85670000D03*
D15*
X47470000Y85670000D03*
%TD*%
D12*
%TO.C,*%
X9370000Y65350000D03*
X11910000Y65350000D03*
X11910000Y62810000D03*
X9370000Y62810000D03*
X6830000Y62810000D03*
X6830000Y65350000D03*
X6830000Y67890000D03*
X9370000Y67890000D03*
X11910000Y67890000D03*
X14450000Y67890000D03*
X14450000Y65350000D03*
X14450000Y62810000D03*
X14450000Y60270000D03*
X11910000Y60270000D03*
X9370000Y60270000D03*
X6830000Y60270000D03*
%TD*%
D15*
%TO.C,*%
X16990000Y83130000D03*
D18*
X19530000Y83130000D03*
X44930000Y83130000D03*
D15*
X47470000Y83130000D03*
%TD*%
%TO.C,*%
X16990000Y62810000D03*
D18*
X19530000Y62810000D03*
X44930000Y62810000D03*
D15*
X47470000Y62810000D03*
%TD*%
D12*
%TO.C,*%
X38370000Y95630000D03*
X40910000Y95630000D03*
X40910000Y93090000D03*
X38370000Y93090000D03*
X35830000Y93090000D03*
X35830000Y95630000D03*
X35830000Y98170000D03*
X38370000Y98170000D03*
X40910000Y98170000D03*
X43450000Y98170000D03*
X43450000Y95630000D03*
X43450000Y93090000D03*
X43450000Y90550000D03*
X40910000Y90550000D03*
X38370000Y90550000D03*
X35830000Y90550000D03*
%TD*%
%TO.C,*%
X28210000Y95630000D03*
X30750000Y95630000D03*
X30750000Y93090000D03*
X28210000Y93090000D03*
X25670000Y93090000D03*
X25670000Y95630000D03*
X25670000Y98170000D03*
X28210000Y98170000D03*
X30750000Y98170000D03*
X33290000Y98170000D03*
X33290000Y95630000D03*
X33290000Y93090000D03*
X33290000Y90550000D03*
X30750000Y90550000D03*
X28210000Y90550000D03*
X25670000Y90550000D03*
%TD*%
D19*
%TO.C,*%
X65875000Y57840000D03*
X50635000Y57840000D03*
%TD*%
D12*
%TO.C,*%
X9370000Y75510000D03*
X11910000Y75510000D03*
X11910000Y72970000D03*
X9370000Y72970000D03*
X6830000Y72970000D03*
X6830000Y75510000D03*
X6830000Y78050000D03*
X9370000Y78050000D03*
X11910000Y78050000D03*
X14450000Y78050000D03*
X14450000Y75510000D03*
X14450000Y72970000D03*
X14450000Y70430000D03*
X11910000Y70430000D03*
X9370000Y70430000D03*
X6830000Y70430000D03*
%TD*%
D19*
%TO.C,*%
X47475000Y52820000D03*
X32235000Y52820000D03*
%TD*%
D12*
%TO.C,*%
X53185000Y65350000D03*
X55725000Y65350000D03*
X55725000Y62810000D03*
X53185000Y62810000D03*
X50645000Y62810000D03*
X50645000Y65350000D03*
X50645000Y67890000D03*
X53185000Y67890000D03*
X55725000Y67890000D03*
X58265000Y67890000D03*
X58265000Y65350000D03*
X58265000Y62810000D03*
X58265000Y60270000D03*
X55725000Y60270000D03*
X53185000Y60270000D03*
X50645000Y60270000D03*
%TD*%
D15*
%TO.C,*%
X16990000Y70430000D03*
D18*
X19530000Y70430000D03*
X44930000Y70430000D03*
D15*
X47470000Y70430000D03*
%TD*%
%TO.C,*%
X16990000Y67890000D03*
D18*
X19530000Y67890000D03*
X44930000Y67890000D03*
D15*
X47470000Y67890000D03*
%TD*%
%TO.C,*%
X16990000Y65350000D03*
D18*
X19530000Y65350000D03*
X44930000Y65350000D03*
D15*
X47470000Y65350000D03*
%TD*%
D20*
%TO.C,*%
X51965000Y49280000D03*
X51965000Y46740000D03*
X51965000Y44200000D03*
X51965000Y41660000D03*
D21*
X51965000Y21340000D03*
X51965000Y18800000D03*
X51965000Y16260000D03*
X51965000Y13720000D03*
%TD*%
D15*
%TO.C,*%
X16990000Y75510000D03*
D18*
X19530000Y75510000D03*
X44930000Y75510000D03*
D15*
X47470000Y75510000D03*
%TD*%
D19*
%TO.C,*%
X65875000Y55300000D03*
X50635000Y55300000D03*
%TD*%
D24*
%TO.C,C1*%
X7675000Y20300000D03*
X4725000Y20300000D03*
%TD*%
D25*
%TO.C,U1*%
X5012500Y16095000D03*
X5012500Y17045000D03*
X5012500Y17995000D03*
X7287500Y17995000D03*
X7287500Y17045000D03*
X7287500Y16095000D03*
%TD*%
D24*
%TO.C,C2*%
X10025000Y13545000D03*
X7075000Y13545000D03*
%TD*%
D26*
%TO.C,C3*%
X9775000Y20345000D03*
X12725000Y20345000D03*
%TD*%
%TO.C,C4*%
X9775000Y23345000D03*
X12725000Y23345000D03*
%TD*%
D27*
%TO.C,L1*%
X9850000Y17045000D03*
X12650000Y17045000D03*
%TD*%
%LPD*%
M02*
