M48
; DRILL file {KiCad 9.0.1} date 2025-05-07T10:28:04-0400
; FORMAT={-:-/ absolute / inch / decimal}
; #@! TF.CreationDate,2025-05-07T10:28:04-04:00
; #@! TF.GenerationSoftware,Kicad,Pcbnew,9.0.1
; #@! TF.FileFunction,Plated,1,2,PTH
FMAT,2
INCH
; #@! TA.AperFunction,Plated,PTH,ViaDrill
T1C0.0118
; #@! TA.AperFunction,Plated,PTH,ViaDrill
T2C0.0157
; #@! TA.AperFunction,Plated,PTH,ViaDrill
T3C0.0315
; #@! TA.AperFunction,Plated,PTH,ComponentDrill
T4C0.0394
%
G90
G05
T1
X0.2421Y0.6356
X0.2854Y0.7419
X0.2933Y0.86
X0.3209Y0.7419
X0.3366Y0.8285
X0.3366Y0.7695
X0.3839Y0.86
X1.1102Y1.5669
X1.9329Y1.5572
X1.9329Y0.9232
X2.0329Y1.5572
X2.0329Y0.9232
X2.1329Y1.5572
X2.1329Y0.9232
X2.2329Y1.5572
X2.2329Y0.9232
X2.3329Y1.5572
X2.3329Y0.9232
X2.4329Y1.5572
X2.4329Y0.9232
X2.5329Y1.5572
X2.5329Y0.9232
X2.6329Y1.5572
X2.6329Y0.9232
T2
X0.1398Y0.6533
X0.1476Y0.5254
X0.2894Y0.9289
X0.561Y0.862
X0.561Y0.7478
X0.561Y0.551
X2.0866Y0.1535
T3
X0.2008Y1.0276
X0.498Y0.4173
T4
X0.1417Y2.4193
X0.1417Y2.3193
X0.1417Y2.2193
X0.1417Y2.1193
X0.1417Y2.0193
X0.1417Y1.9193
X0.1417Y1.8193
X0.1417Y1.7193
X0.1417Y1.6193
X0.1417Y1.5193
X0.2689Y3.4728
X0.2689Y3.3728
X0.2689Y3.2728
X0.2689Y3.1728
X0.2689Y3.0728
X0.2689Y2.9728
X0.2689Y2.8728
X0.2689Y2.7728
X0.2689Y2.6728
X0.2689Y2.5728
X0.2689Y2.4728
X0.2689Y2.3728
X0.3007Y2.2752
X0.3184Y2.1515
X0.3689Y3.4728
X0.3689Y3.3728
X0.3689Y3.2728
X0.3689Y3.1728
X0.3689Y3.0728
X0.3689Y2.9728
X0.3689Y2.8728
X0.3689Y2.7728
X0.3689Y2.6728
X0.3689Y2.5728
X0.3689Y2.4728
X0.3689Y2.3728
X0.4245Y2.2576
X0.4689Y3.4728
X0.4689Y3.3728
X0.4689Y3.2728
X0.4689Y3.1728
X0.4689Y3.0728
X0.4689Y2.9728
X0.4689Y2.8728
X0.4689Y2.7728
X0.4689Y2.6728
X0.4689Y2.5728
X0.4689Y2.4728
X0.4689Y2.3728
X0.5659Y1.904
X0.5689Y3.4728
X0.5689Y3.3728
X0.5689Y3.2728
X0.5689Y3.1728
X0.5689Y3.0728
X0.5689Y2.9728
X0.5689Y2.8728
X0.5689Y2.7728
X0.5689Y2.6728
X0.5689Y2.5728
X0.5689Y2.4728
X0.5689Y2.3728
X0.5769Y2.2754
X0.5946Y2.1517
X0.6106Y3.865
X0.6106Y3.765
X0.6106Y3.665
X0.6106Y3.565
X0.6689Y3.4728
X0.6689Y3.3728
X0.6689Y3.2728
X0.6689Y3.1728
X0.6689Y3.0728
X0.6689Y2.9728
X0.6689Y2.8728
X0.6689Y2.7728
X0.6689Y2.6728
X0.6689Y2.5728
X0.6689Y2.4728
X0.6689Y2.3728
X0.672Y2.0101
X0.6896Y1.8863
X0.7007Y2.2577
X0.7106Y3.865
X0.7106Y3.765
X0.7106Y3.665
X0.7106Y3.565
X0.7689Y3.4728
X0.7689Y3.3728
X0.7689Y3.2728
X0.7689Y3.1728
X0.7689Y3.0728
X0.7689Y2.9728
X0.7689Y2.8728
X0.7689Y2.7728
X0.7689Y2.6728
X0.7689Y2.5728
X0.7689Y2.4728
X0.7689Y2.3728
X0.7878Y1.6677
X0.7878Y1.5677
X0.7878Y1.3677
X0.7878Y1.2677
X0.7878Y1.1677
X0.7878Y1.0677
X0.7878Y0.9677
X0.7878Y0.8677
X0.7878Y0.7677
X0.7878Y0.6677
X0.7878Y0.5677
X0.7878Y0.4677
X0.7878Y0.3677
X0.7878Y0.2677
X0.8106Y3.865
X0.8106Y3.765
X0.8106Y3.665
X0.8106Y3.565
X0.8421Y1.9042
X0.9106Y3.865
X0.9106Y3.765
X0.9106Y3.665
X0.9106Y3.565
X0.9482Y2.0102
X0.9659Y1.8865
X1.0106Y3.865
X1.0106Y3.765
X1.0106Y3.665
X1.0106Y3.565
X1.1106Y3.865
X1.1106Y3.765
X1.1106Y3.665
X1.1106Y3.565
X1.1325Y1.9173
X1.2106Y3.865
X1.2106Y3.765
X1.2106Y3.665
X1.2106Y3.565
X1.2325Y1.9173
X1.2691Y2.2795
X1.2691Y2.1795
X1.2691Y2.0795
X1.3106Y3.865
X1.3106Y3.765
X1.3106Y3.665
X1.3106Y3.565
X1.3325Y1.9173
X1.3878Y1.6677
X1.3878Y1.5677
X1.3878Y1.4677
X1.3878Y1.3677
X1.3878Y1.2677
X1.3878Y1.1677
X1.3878Y1.0677
X1.3878Y0.9677
X1.3878Y0.8677
X1.3878Y0.7677
X1.3878Y0.6677
X1.3878Y0.5677
X1.3878Y0.4677
X1.3878Y0.3677
X1.3878Y0.2677
X1.4106Y3.865
X1.4106Y3.765
X1.4106Y3.665
X1.4106Y3.565
X1.4325Y1.9173
X1.5106Y3.865
X1.5106Y3.765
X1.5106Y3.665
X1.5106Y3.565
X1.5325Y1.9173
X1.5325Y1.7756
X1.5325Y1.6756
X1.5325Y1.5756
X1.5344Y1.2594
X1.5344Y1.1594
X1.5344Y1.0594
X1.5344Y0.9594
X1.5344Y0.8594
X1.5344Y0.7594
X1.5413Y0.5177
X1.5413Y0.4177
X1.6106Y3.865
X1.6106Y3.765
X1.6106Y3.665
X1.6106Y3.565
X1.6413Y0.5177
X1.6413Y0.4177
X1.7051Y1.6614
X1.7051Y1.5614
X1.7051Y1.4614
X1.7051Y1.3614
X1.7051Y1.2614
X1.7051Y1.1614
X1.7051Y1.0614
X1.7051Y0.9614
X1.7051Y0.8614
X1.7051Y0.7614
X1.7106Y3.865
X1.7106Y3.765
X1.7106Y3.665
X1.7106Y3.565
X1.7689Y3.4728
X1.7689Y3.3728
X1.7689Y3.2728
X1.7689Y3.1728
X1.7689Y3.0728
X1.7689Y2.9728
X1.7689Y2.8728
X1.7689Y2.7728
X1.7689Y2.6728
X1.7689Y2.5728
X1.7689Y2.4728
X1.7689Y2.3728
X1.8051Y1.6614
X1.8051Y1.5614
X1.8051Y1.4614
X1.8051Y1.3614
X1.8051Y1.2614
X1.8051Y1.1614
X1.8051Y1.0614
X1.8051Y0.9614
X1.8051Y0.8614
X1.8051Y0.7614
X1.8106Y3.865
X1.8106Y3.765
X1.8106Y3.665
X1.8106Y3.565
X1.8689Y3.4728
X1.8689Y3.3728
X1.8689Y3.2728
X1.8689Y3.1728
X1.8689Y3.0728
X1.8689Y2.9728
X1.8689Y2.8728
X1.8689Y2.7728
X1.8689Y2.6728
X1.8689Y2.5728
X1.8689Y2.4728
X1.8689Y2.3728
X1.8691Y2.2795
X1.8691Y2.1795
X1.8691Y2.0795
X1.9106Y3.865
X1.9106Y3.765
X1.9106Y3.665
X1.9106Y3.565
X1.9459Y1.9402
X1.9459Y1.8402
X1.9459Y1.7402
X1.9459Y1.6402
X1.9459Y0.8402
X1.9459Y0.7402
X1.9459Y0.6402
X1.9459Y0.5402
X1.9935Y2.2772
X1.9935Y2.1772
X1.9939Y3.4728
X1.9939Y3.3728
X1.9939Y3.2728
X1.9939Y3.1728
X1.9939Y3.0728
X1.9939Y2.9728
X1.9939Y2.8728
X1.9939Y2.7728
X1.9939Y2.6728
X1.9939Y2.5728
X1.9939Y2.4728
X1.9939Y2.3728
X2.0106Y3.865
X2.0106Y3.765
X2.0106Y3.665
X2.0106Y3.565
X2.0459Y1.9402
X2.0459Y1.8402
X2.0459Y1.7402
X2.0459Y1.6402
X2.0459Y0.8402
X2.0459Y0.7402
X2.0459Y0.6402
X2.0459Y0.5402
X2.0939Y3.4728
X2.0939Y3.3728
X2.0939Y3.2728
X2.0939Y3.1728
X2.0939Y3.0728
X2.0939Y2.9728
X2.0939Y2.8728
X2.0939Y2.7728
X2.0939Y2.6728
X2.0939Y2.5728
X2.0939Y2.4728
X2.0939Y2.3728
X2.1106Y3.865
X2.1106Y3.765
X2.1106Y3.665
X2.1106Y3.565
X2.1459Y1.9402
X2.1459Y1.8402
X2.1459Y1.7402
X2.1459Y1.6402
X2.1459Y0.8402
X2.1459Y0.7402
X2.1459Y0.6402
X2.1459Y0.5402
X2.1939Y3.4728
X2.1939Y3.3728
X2.1939Y3.2728
X2.1939Y3.1728
X2.1939Y3.0728
X2.1939Y2.9728
X2.1939Y2.8728
X2.1939Y2.7728
X2.1939Y2.6728
X2.1939Y2.5728
X2.1939Y2.4728
X2.1939Y2.3728
X2.2459Y1.9402
X2.2459Y1.8402
X2.2459Y1.7402
X2.2459Y1.6402
X2.2459Y0.8402
X2.2459Y0.7402
X2.2459Y0.6402
X2.2459Y0.5402
X2.2939Y3.4728
X2.2939Y3.3728
X2.2939Y3.2728
X2.2939Y3.1728
X2.2939Y3.0728
X2.2939Y2.9728
X2.2939Y2.8728
X2.2939Y2.7728
X2.2939Y2.6728
X2.2939Y2.5728
X2.2939Y2.4728
X2.2939Y2.3728
X2.3459Y1.9402
X2.3459Y1.8402
X2.3459Y1.7402
X2.3459Y1.6402
X2.3459Y0.8402
X2.3459Y0.7402
X2.3459Y0.6402
X2.3459Y0.5402
X2.3939Y3.4728
X2.3939Y3.3728
X2.3939Y3.2728
X2.3939Y3.1728
X2.3939Y3.0728
X2.3939Y2.9728
X2.3939Y2.8728
X2.3939Y2.7728
X2.3939Y2.6728
X2.3939Y2.5728
X2.3939Y2.4728
X2.3939Y2.3728
X2.4459Y1.9402
X2.4459Y1.8402
X2.4459Y1.7402
X2.4459Y1.6402
X2.4459Y0.8402
X2.4459Y0.7402
X2.4459Y0.6402
X2.4459Y0.5402
X2.4939Y3.4728
X2.4939Y3.3728
X2.4939Y3.2728
X2.4939Y3.1728
X2.4939Y3.0728
X2.4939Y2.9728
X2.4939Y2.8728
X2.4939Y2.7728
X2.4939Y2.6728
X2.4939Y2.5728
X2.4939Y2.4728
X2.4939Y2.3728
X2.5459Y1.9402
X2.5459Y1.8402
X2.5459Y1.7402
X2.5459Y1.6402
X2.5459Y0.8402
X2.5459Y0.7402
X2.5459Y0.6402
X2.5459Y0.5402
X2.5935Y2.2772
X2.5935Y2.1772
X2.5939Y3.4728
X2.5939Y3.3728
X2.5939Y3.2728
X2.5939Y3.1728
X2.5939Y3.0728
X2.5939Y2.9728
X2.5939Y2.8728
X2.5939Y2.7728
X2.5939Y2.6728
X2.5939Y2.5728
X2.5939Y2.4728
X2.5939Y2.3728
X2.6459Y1.9402
X2.6459Y1.8402
X2.6459Y1.7402
X2.6459Y1.6402
X2.6459Y0.8402
X2.6459Y0.7402
X2.6459Y0.6402
X2.6459Y0.5402
X2.6939Y3.4728
X2.6939Y3.3728
X2.6939Y3.2728
X2.6939Y3.1728
X2.6939Y3.0728
X2.6939Y2.9728
X2.6939Y2.8728
X2.6939Y2.7728
X2.6939Y2.6728
X2.6939Y2.5728
X2.6939Y2.4728
X2.6939Y2.3728
M30
