%TF.GenerationSoftware,KiCad,Pcbnew,9.0.1*%
%TF.CreationDate,2025-05-07T10:28:02-04:00*%
%TF.ProjectId,BREAD_Slice_smtProto,42524541-445f-4536-9c69-63655f736d74,rev?*%
%TF.SameCoordinates,PX74eba40PY8552dc0*%
%TF.FileFunction,Legend,Top*%
%TF.FilePolarity,Positive*%
%FSLAX46Y46*%
G04 Gerber Fmt 4.6, Leading zero omitted, Abs format (unit mm)*
G04 Created by KiCad (PCBNEW 9.0.1) date 2025-05-07 10:28:02*
%MOMM*%
%LPD*%
G01*
G04 APERTURE LIST*
G04 Aperture macros list*
%AMRoundRect*
0 Rectangle with rounded corners*
0 $1 Rounding radius*
0 $2 $3 $4 $5 $6 $7 $8 $9 X,Y pos of 4 corners*
0 Add a 4 corners polygon primitive as box body*
4,1,4,$2,$3,$4,$5,$6,$7,$8,$9,$2,$3,0*
0 Add four circle primitives for the rounded corners*
1,1,$1+$1,$2,$3*
1,1,$1+$1,$4,$5*
1,1,$1+$1,$6,$7*
1,1,$1+$1,$8,$9*
0 Add four rect primitives between the rounded corners*
20,1,$1+$1,$2,$3,$4,$5,0*
20,1,$1+$1,$4,$5,$6,$7,0*
20,1,$1+$1,$6,$7,$8,$9,0*
20,1,$1+$1,$8,$9,$2,$3,0*%
G04 Aperture macros list end*
%ADD10C,0.250000*%
%ADD11C,0.100000*%
%ADD12C,0.200000*%
%ADD13C,0.150000*%
%ADD14C,0.120000*%
%ADD15C,0.010000*%
%ADD16C,0.127000*%
%ADD17C,0.177800*%
%ADD18R,1.600000X1.600000*%
%ADD19O,1.900000X1.400000*%
%ADD20R,1.700000X1.700000*%
%ADD21O,1.300000X1.900000*%
%ADD22O,1.400000X1.700000*%
%ADD23C,2.060000*%
%ADD24RoundRect,0.050000X-0.850000X-0.850000X0.850000X-0.850000X0.850000X0.850000X-0.850000X0.850000X0*%
%ADD25C,1.800000*%
%ADD26C,5.100000*%
%ADD27RoundRect,0.050000X-0.800000X-0.800000X0.800000X-0.800000X0.800000X0.800000X-0.800000X0.800000X0*%
%ADD28O,1.700000X1.700000*%
%ADD29O,1.800000X1.800000*%
%ADD30RoundRect,0.050000X-4.445000X-0.325000X4.445000X-0.325000X4.445000X0.325000X-4.445000X0.325000X0*%
%ADD31O,2.000000X1.500000*%
%ADD32RoundRect,1.008333X-5.041667X-5.041667X5.041667X-5.041667X5.041667X5.041667X-5.041667X5.041667X0*%
%ADD33RoundRect,0.050000X0.800000X0.800000X-0.800000X0.800000X-0.800000X-0.800000X0.800000X-0.800000X0*%
%ADD34O,1.400000X2.000000*%
%ADD35RoundRect,0.050000X-0.175000X-3.000000X0.175000X-3.000000X0.175000X3.000000X-0.175000X3.000000X0*%
%ADD36O,1.500000X1.800000*%
%ADD37RoundRect,0.101600X-0.825500X-0.500000X0.825500X-0.500000X0.825500X0.500000X-0.825500X0.500000X0*%
%ADD38RoundRect,0.050000X0.850000X-0.850000X0.850000X0.850000X-0.850000X0.850000X-0.850000X-0.850000X0*%
%ADD39C,2.160000*%
%ADD40RoundRect,0.050000X1.078338X-0.689429X-0.689429X1.078338X-1.078338X0.689429X0.689429X-1.078338X0*%
G04 APERTURE END LIST*
D10*
X41102568Y48285381D02*
X41102568Y49285381D01*
X41102568Y49285381D02*
X41340663Y49285381D01*
X41340663Y49285381D02*
X41483520Y49237762D01*
X41483520Y49237762D02*
X41578758Y49142524D01*
X41578758Y49142524D02*
X41626377Y49047286D01*
X41626377Y49047286D02*
X41673996Y48856810D01*
X41673996Y48856810D02*
X41673996Y48713953D01*
X41673996Y48713953D02*
X41626377Y48523477D01*
X41626377Y48523477D02*
X41578758Y48428239D01*
X41578758Y48428239D02*
X41483520Y48333000D01*
X41483520Y48333000D02*
X41340663Y48285381D01*
X41340663Y48285381D02*
X41102568Y48285381D01*
X42626377Y48285381D02*
X42054949Y48285381D01*
X42340663Y48285381D02*
X42340663Y49285381D01*
X42340663Y49285381D02*
X42245425Y49142524D01*
X42245425Y49142524D02*
X42150187Y49047286D01*
X42150187Y49047286D02*
X42054949Y48999667D01*
X43245425Y49285381D02*
X43340663Y49285381D01*
X43340663Y49285381D02*
X43435901Y49237762D01*
X43435901Y49237762D02*
X43483520Y49190143D01*
X43483520Y49190143D02*
X43531139Y49094905D01*
X43531139Y49094905D02*
X43578758Y48904429D01*
X43578758Y48904429D02*
X43578758Y48666334D01*
X43578758Y48666334D02*
X43531139Y48475858D01*
X43531139Y48475858D02*
X43483520Y48380620D01*
X43483520Y48380620D02*
X43435901Y48333000D01*
X43435901Y48333000D02*
X43340663Y48285381D01*
X43340663Y48285381D02*
X43245425Y48285381D01*
X43245425Y48285381D02*
X43150187Y48333000D01*
X43150187Y48333000D02*
X43102568Y48380620D01*
X43102568Y48380620D02*
X43054949Y48475858D01*
X43054949Y48475858D02*
X43007330Y48666334D01*
X43007330Y48666334D02*
X43007330Y48904429D01*
X43007330Y48904429D02*
X43054949Y49094905D01*
X43054949Y49094905D02*
X43102568Y49190143D01*
X43102568Y49190143D02*
X43150187Y49237762D01*
X43150187Y49237762D02*
X43245425Y49285381D01*
X27752568Y50885381D02*
X27752568Y51885381D01*
X27752568Y51885381D02*
X27990663Y51885381D01*
X27990663Y51885381D02*
X28133520Y51837762D01*
X28133520Y51837762D02*
X28228758Y51742524D01*
X28228758Y51742524D02*
X28276377Y51647286D01*
X28276377Y51647286D02*
X28323996Y51456810D01*
X28323996Y51456810D02*
X28323996Y51313953D01*
X28323996Y51313953D02*
X28276377Y51123477D01*
X28276377Y51123477D02*
X28228758Y51028239D01*
X28228758Y51028239D02*
X28133520Y50933000D01*
X28133520Y50933000D02*
X27990663Y50885381D01*
X27990663Y50885381D02*
X27752568Y50885381D01*
X29181139Y51885381D02*
X28990663Y51885381D01*
X28990663Y51885381D02*
X28895425Y51837762D01*
X28895425Y51837762D02*
X28847806Y51790143D01*
X28847806Y51790143D02*
X28752568Y51647286D01*
X28752568Y51647286D02*
X28704949Y51456810D01*
X28704949Y51456810D02*
X28704949Y51075858D01*
X28704949Y51075858D02*
X28752568Y50980620D01*
X28752568Y50980620D02*
X28800187Y50933000D01*
X28800187Y50933000D02*
X28895425Y50885381D01*
X28895425Y50885381D02*
X29085901Y50885381D01*
X29085901Y50885381D02*
X29181139Y50933000D01*
X29181139Y50933000D02*
X29228758Y50980620D01*
X29228758Y50980620D02*
X29276377Y51075858D01*
X29276377Y51075858D02*
X29276377Y51313953D01*
X29276377Y51313953D02*
X29228758Y51409191D01*
X29228758Y51409191D02*
X29181139Y51456810D01*
X29181139Y51456810D02*
X29085901Y51504429D01*
X29085901Y51504429D02*
X28895425Y51504429D01*
X28895425Y51504429D02*
X28800187Y51456810D01*
X28800187Y51456810D02*
X28752568Y51409191D01*
X28752568Y51409191D02*
X28704949Y51313953D01*
X37752568Y37085381D02*
X37752568Y38085381D01*
X37752568Y38085381D02*
X37990663Y38085381D01*
X37990663Y38085381D02*
X38133520Y38037762D01*
X38133520Y38037762D02*
X38228758Y37942524D01*
X38228758Y37942524D02*
X38276377Y37847286D01*
X38276377Y37847286D02*
X38323996Y37656810D01*
X38323996Y37656810D02*
X38323996Y37513953D01*
X38323996Y37513953D02*
X38276377Y37323477D01*
X38276377Y37323477D02*
X38228758Y37228239D01*
X38228758Y37228239D02*
X38133520Y37133000D01*
X38133520Y37133000D02*
X37990663Y37085381D01*
X37990663Y37085381D02*
X37752568Y37085381D01*
X39276377Y37085381D02*
X38704949Y37085381D01*
X38990663Y37085381D02*
X38990663Y38085381D01*
X38990663Y38085381D02*
X38895425Y37942524D01*
X38895425Y37942524D02*
X38800187Y37847286D01*
X38800187Y37847286D02*
X38704949Y37799667D01*
X39609711Y38085381D02*
X40228758Y38085381D01*
X40228758Y38085381D02*
X39895425Y37704429D01*
X39895425Y37704429D02*
X40038282Y37704429D01*
X40038282Y37704429D02*
X40133520Y37656810D01*
X40133520Y37656810D02*
X40181139Y37609191D01*
X40181139Y37609191D02*
X40228758Y37513953D01*
X40228758Y37513953D02*
X40228758Y37275858D01*
X40228758Y37275858D02*
X40181139Y37180620D01*
X40181139Y37180620D02*
X40133520Y37133000D01*
X40133520Y37133000D02*
X40038282Y37085381D01*
X40038282Y37085381D02*
X39752568Y37085381D01*
X39752568Y37085381D02*
X39657330Y37133000D01*
X39657330Y37133000D02*
X39609711Y37180620D01*
X38454949Y34221096D02*
X38931139Y34221096D01*
X38359711Y33935381D02*
X38693044Y34935381D01*
X38693044Y34935381D02*
X39026377Y33935381D01*
X39264473Y34935381D02*
X39931139Y34935381D01*
X39931139Y34935381D02*
X39502568Y33935381D01*
X38354949Y16821096D02*
X38831139Y16821096D01*
X38259711Y16535381D02*
X38593044Y17535381D01*
X38593044Y17535381D02*
X38926377Y16535381D01*
X39450187Y17535381D02*
X39545425Y17535381D01*
X39545425Y17535381D02*
X39640663Y17487762D01*
X39640663Y17487762D02*
X39688282Y17440143D01*
X39688282Y17440143D02*
X39735901Y17344905D01*
X39735901Y17344905D02*
X39783520Y17154429D01*
X39783520Y17154429D02*
X39783520Y16916334D01*
X39783520Y16916334D02*
X39735901Y16725858D01*
X39735901Y16725858D02*
X39688282Y16630620D01*
X39688282Y16630620D02*
X39640663Y16583000D01*
X39640663Y16583000D02*
X39545425Y16535381D01*
X39545425Y16535381D02*
X39450187Y16535381D01*
X39450187Y16535381D02*
X39354949Y16583000D01*
X39354949Y16583000D02*
X39307330Y16630620D01*
X39307330Y16630620D02*
X39259711Y16725858D01*
X39259711Y16725858D02*
X39212092Y16916334D01*
X39212092Y16916334D02*
X39212092Y17154429D01*
X39212092Y17154429D02*
X39259711Y17344905D01*
X39259711Y17344905D02*
X39307330Y17440143D01*
X39307330Y17440143D02*
X39354949Y17487762D01*
X39354949Y17487762D02*
X39450187Y17535381D01*
X37507330Y8435381D02*
X38126377Y8435381D01*
X38126377Y8435381D02*
X37793044Y8054429D01*
X37793044Y8054429D02*
X37935901Y8054429D01*
X37935901Y8054429D02*
X38031139Y8006810D01*
X38031139Y8006810D02*
X38078758Y7959191D01*
X38078758Y7959191D02*
X38126377Y7863953D01*
X38126377Y7863953D02*
X38126377Y7625858D01*
X38126377Y7625858D02*
X38078758Y7530620D01*
X38078758Y7530620D02*
X38031139Y7483000D01*
X38031139Y7483000D02*
X37935901Y7435381D01*
X37935901Y7435381D02*
X37650187Y7435381D01*
X37650187Y7435381D02*
X37554949Y7483000D01*
X37554949Y7483000D02*
X37507330Y7530620D01*
X38412092Y8435381D02*
X38745425Y7435381D01*
X38745425Y7435381D02*
X39078758Y8435381D01*
X39316854Y8435381D02*
X39935901Y8435381D01*
X39935901Y8435381D02*
X39602568Y8054429D01*
X39602568Y8054429D02*
X39745425Y8054429D01*
X39745425Y8054429D02*
X39840663Y8006810D01*
X39840663Y8006810D02*
X39888282Y7959191D01*
X39888282Y7959191D02*
X39935901Y7863953D01*
X39935901Y7863953D02*
X39935901Y7625858D01*
X39935901Y7625858D02*
X39888282Y7530620D01*
X39888282Y7530620D02*
X39840663Y7483000D01*
X39840663Y7483000D02*
X39745425Y7435381D01*
X39745425Y7435381D02*
X39459711Y7435381D01*
X39459711Y7435381D02*
X39364473Y7483000D01*
X39364473Y7483000D02*
X39316854Y7530620D01*
X41650187Y8387762D02*
X41554949Y8435381D01*
X41554949Y8435381D02*
X41412092Y8435381D01*
X41412092Y8435381D02*
X41269235Y8387762D01*
X41269235Y8387762D02*
X41173997Y8292524D01*
X41173997Y8292524D02*
X41126378Y8197286D01*
X41126378Y8197286D02*
X41078759Y8006810D01*
X41078759Y8006810D02*
X41078759Y7863953D01*
X41078759Y7863953D02*
X41126378Y7673477D01*
X41126378Y7673477D02*
X41173997Y7578239D01*
X41173997Y7578239D02*
X41269235Y7483000D01*
X41269235Y7483000D02*
X41412092Y7435381D01*
X41412092Y7435381D02*
X41507330Y7435381D01*
X41507330Y7435381D02*
X41650187Y7483000D01*
X41650187Y7483000D02*
X41697806Y7530620D01*
X41697806Y7530620D02*
X41697806Y7863953D01*
X41697806Y7863953D02*
X41507330Y7863953D01*
X42126378Y7435381D02*
X42126378Y8435381D01*
X42126378Y8435381D02*
X42697806Y7435381D01*
X42697806Y7435381D02*
X42697806Y8435381D01*
X43173997Y7435381D02*
X43173997Y8435381D01*
X43173997Y8435381D02*
X43412092Y8435381D01*
X43412092Y8435381D02*
X43554949Y8387762D01*
X43554949Y8387762D02*
X43650187Y8292524D01*
X43650187Y8292524D02*
X43697806Y8197286D01*
X43697806Y8197286D02*
X43745425Y8006810D01*
X43745425Y8006810D02*
X43745425Y7863953D01*
X43745425Y7863953D02*
X43697806Y7673477D01*
X43697806Y7673477D02*
X43650187Y7578239D01*
X43650187Y7578239D02*
X43554949Y7483000D01*
X43554949Y7483000D02*
X43412092Y7435381D01*
X43412092Y7435381D02*
X43173997Y7435381D01*
X42228758Y45085381D02*
X41752568Y45085381D01*
X41752568Y45085381D02*
X41704949Y44609191D01*
X41704949Y44609191D02*
X41752568Y44656810D01*
X41752568Y44656810D02*
X41847806Y44704429D01*
X41847806Y44704429D02*
X42085901Y44704429D01*
X42085901Y44704429D02*
X42181139Y44656810D01*
X42181139Y44656810D02*
X42228758Y44609191D01*
X42228758Y44609191D02*
X42276377Y44513953D01*
X42276377Y44513953D02*
X42276377Y44275858D01*
X42276377Y44275858D02*
X42228758Y44180620D01*
X42228758Y44180620D02*
X42181139Y44133000D01*
X42181139Y44133000D02*
X42085901Y44085381D01*
X42085901Y44085381D02*
X41847806Y44085381D01*
X41847806Y44085381D02*
X41752568Y44133000D01*
X41752568Y44133000D02*
X41704949Y44180620D01*
X42562092Y45085381D02*
X42895425Y44085381D01*
X42895425Y44085381D02*
X43228758Y45085381D01*
X44847806Y45037762D02*
X44752568Y45085381D01*
X44752568Y45085381D02*
X44609711Y45085381D01*
X44609711Y45085381D02*
X44466854Y45037762D01*
X44466854Y45037762D02*
X44371616Y44942524D01*
X44371616Y44942524D02*
X44323997Y44847286D01*
X44323997Y44847286D02*
X44276378Y44656810D01*
X44276378Y44656810D02*
X44276378Y44513953D01*
X44276378Y44513953D02*
X44323997Y44323477D01*
X44323997Y44323477D02*
X44371616Y44228239D01*
X44371616Y44228239D02*
X44466854Y44133000D01*
X44466854Y44133000D02*
X44609711Y44085381D01*
X44609711Y44085381D02*
X44704949Y44085381D01*
X44704949Y44085381D02*
X44847806Y44133000D01*
X44847806Y44133000D02*
X44895425Y44180620D01*
X44895425Y44180620D02*
X44895425Y44513953D01*
X44895425Y44513953D02*
X44704949Y44513953D01*
X45323997Y44085381D02*
X45323997Y45085381D01*
X45323997Y45085381D02*
X45895425Y44085381D01*
X45895425Y44085381D02*
X45895425Y45085381D01*
X46371616Y44085381D02*
X46371616Y45085381D01*
X46371616Y45085381D02*
X46609711Y45085381D01*
X46609711Y45085381D02*
X46752568Y45037762D01*
X46752568Y45037762D02*
X46847806Y44942524D01*
X46847806Y44942524D02*
X46895425Y44847286D01*
X46895425Y44847286D02*
X46943044Y44656810D01*
X46943044Y44656810D02*
X46943044Y44513953D01*
X46943044Y44513953D02*
X46895425Y44323477D01*
X46895425Y44323477D02*
X46847806Y44228239D01*
X46847806Y44228239D02*
X46752568Y44133000D01*
X46752568Y44133000D02*
X46609711Y44085381D01*
X46609711Y44085381D02*
X46371616Y44085381D01*
D11*
X14200000Y99550000D02*
X54950000Y99550000D01*
X54950000Y96850000D01*
X14200000Y96850000D01*
X14200000Y99550000D01*
D12*
X62075000Y89480000D02*
X62075000Y58840000D01*
X59535000Y58840000D02*
X59535000Y89480000D01*
X62075000Y58840000D02*
X59535000Y58840000D01*
X59535000Y89480000D02*
X62075000Y89480000D01*
D13*
X620238Y51624610D02*
X544048Y51662705D01*
X544048Y51662705D02*
X429762Y51662705D01*
X429762Y51662705D02*
X315476Y51624610D01*
X315476Y51624610D02*
X239286Y51548420D01*
X239286Y51548420D02*
X201191Y51472229D01*
X201191Y51472229D02*
X163095Y51319848D01*
X163095Y51319848D02*
X163095Y51205562D01*
X163095Y51205562D02*
X201191Y51053181D01*
X201191Y51053181D02*
X239286Y50976991D01*
X239286Y50976991D02*
X315476Y50900800D01*
X315476Y50900800D02*
X429762Y50862705D01*
X429762Y50862705D02*
X505953Y50862705D01*
X505953Y50862705D02*
X620238Y50900800D01*
X620238Y50900800D02*
X658334Y50938896D01*
X658334Y50938896D02*
X658334Y51205562D01*
X658334Y51205562D02*
X505953Y51205562D01*
X1001191Y50862705D02*
X1001191Y51662705D01*
X1001191Y51662705D02*
X1458334Y50862705D01*
X1458334Y50862705D02*
X1458334Y51662705D01*
X1839286Y50862705D02*
X1839286Y51662705D01*
X1839286Y51662705D02*
X2029762Y51662705D01*
X2029762Y51662705D02*
X2144048Y51624610D01*
X2144048Y51624610D02*
X2220238Y51548420D01*
X2220238Y51548420D02*
X2258333Y51472229D01*
X2258333Y51472229D02*
X2296429Y51319848D01*
X2296429Y51319848D02*
X2296429Y51205562D01*
X2296429Y51205562D02*
X2258333Y51053181D01*
X2258333Y51053181D02*
X2220238Y50976991D01*
X2220238Y50976991D02*
X2144048Y50900800D01*
X2144048Y50900800D02*
X2029762Y50862705D01*
X2029762Y50862705D02*
X1839286Y50862705D01*
X55157142Y3145181D02*
X54680952Y3145181D01*
X54680952Y3145181D02*
X54680952Y4145181D01*
X55490476Y3668991D02*
X55823809Y3668991D01*
X55966666Y3145181D02*
X55490476Y3145181D01*
X55490476Y3145181D02*
X55490476Y4145181D01*
X55490476Y4145181D02*
X55966666Y4145181D01*
X56395238Y3145181D02*
X56395238Y4145181D01*
X56395238Y4145181D02*
X56633333Y4145181D01*
X56633333Y4145181D02*
X56776190Y4097562D01*
X56776190Y4097562D02*
X56871428Y4002324D01*
X56871428Y4002324D02*
X56919047Y3907086D01*
X56919047Y3907086D02*
X56966666Y3716610D01*
X56966666Y3716610D02*
X56966666Y3573753D01*
X56966666Y3573753D02*
X56919047Y3383277D01*
X56919047Y3383277D02*
X56871428Y3288039D01*
X56871428Y3288039D02*
X56776190Y3192800D01*
X56776190Y3192800D02*
X56633333Y3145181D01*
X56633333Y3145181D02*
X56395238Y3145181D01*
X620238Y40712705D02*
X163095Y40712705D01*
X391667Y40712705D02*
X391667Y41512705D01*
X391667Y41512705D02*
X315476Y41398420D01*
X315476Y41398420D02*
X239286Y41322229D01*
X239286Y41322229D02*
X163095Y41284134D01*
X925000Y41436515D02*
X963096Y41474610D01*
X963096Y41474610D02*
X1039286Y41512705D01*
X1039286Y41512705D02*
X1229762Y41512705D01*
X1229762Y41512705D02*
X1305953Y41474610D01*
X1305953Y41474610D02*
X1344048Y41436515D01*
X1344048Y41436515D02*
X1382143Y41360324D01*
X1382143Y41360324D02*
X1382143Y41284134D01*
X1382143Y41284134D02*
X1344048Y41169848D01*
X1344048Y41169848D02*
X886905Y40712705D01*
X886905Y40712705D02*
X1382143Y40712705D01*
X1610715Y41512705D02*
X1877382Y40712705D01*
X1877382Y40712705D02*
X2144048Y41512705D01*
X163095Y45850800D02*
X277381Y45812705D01*
X277381Y45812705D02*
X467857Y45812705D01*
X467857Y45812705D02*
X544048Y45850800D01*
X544048Y45850800D02*
X582143Y45888896D01*
X582143Y45888896D02*
X620238Y45965086D01*
X620238Y45965086D02*
X620238Y46041277D01*
X620238Y46041277D02*
X582143Y46117467D01*
X582143Y46117467D02*
X544048Y46155562D01*
X544048Y46155562D02*
X467857Y46193658D01*
X467857Y46193658D02*
X315476Y46231753D01*
X315476Y46231753D02*
X239286Y46269848D01*
X239286Y46269848D02*
X201191Y46307943D01*
X201191Y46307943D02*
X163095Y46384134D01*
X163095Y46384134D02*
X163095Y46460324D01*
X163095Y46460324D02*
X201191Y46536515D01*
X201191Y46536515D02*
X239286Y46574610D01*
X239286Y46574610D02*
X315476Y46612705D01*
X315476Y46612705D02*
X505953Y46612705D01*
X505953Y46612705D02*
X620238Y46574610D01*
X1115477Y46193658D02*
X1115477Y45812705D01*
X848810Y46612705D02*
X1115477Y46193658D01*
X1115477Y46193658D02*
X1382143Y46612705D01*
X1648810Y45812705D02*
X1648810Y46612705D01*
X1648810Y46612705D02*
X2105953Y45812705D01*
X2105953Y45812705D02*
X2105953Y46612705D01*
X2944048Y45888896D02*
X2905952Y45850800D01*
X2905952Y45850800D02*
X2791667Y45812705D01*
X2791667Y45812705D02*
X2715476Y45812705D01*
X2715476Y45812705D02*
X2601190Y45850800D01*
X2601190Y45850800D02*
X2525000Y45926991D01*
X2525000Y45926991D02*
X2486905Y46003181D01*
X2486905Y46003181D02*
X2448809Y46155562D01*
X2448809Y46155562D02*
X2448809Y46269848D01*
X2448809Y46269848D02*
X2486905Y46422229D01*
X2486905Y46422229D02*
X2525000Y46498420D01*
X2525000Y46498420D02*
X2601190Y46574610D01*
X2601190Y46574610D02*
X2715476Y46612705D01*
X2715476Y46612705D02*
X2791667Y46612705D01*
X2791667Y46612705D02*
X2905952Y46574610D01*
X2905952Y46574610D02*
X2944048Y46536515D01*
X620238Y38974610D02*
X544048Y39012705D01*
X544048Y39012705D02*
X429762Y39012705D01*
X429762Y39012705D02*
X315476Y38974610D01*
X315476Y38974610D02*
X239286Y38898420D01*
X239286Y38898420D02*
X201191Y38822229D01*
X201191Y38822229D02*
X163095Y38669848D01*
X163095Y38669848D02*
X163095Y38555562D01*
X163095Y38555562D02*
X201191Y38403181D01*
X201191Y38403181D02*
X239286Y38326991D01*
X239286Y38326991D02*
X315476Y38250800D01*
X315476Y38250800D02*
X429762Y38212705D01*
X429762Y38212705D02*
X505953Y38212705D01*
X505953Y38212705D02*
X620238Y38250800D01*
X620238Y38250800D02*
X658334Y38288896D01*
X658334Y38288896D02*
X658334Y38555562D01*
X658334Y38555562D02*
X505953Y38555562D01*
X1001191Y38212705D02*
X1001191Y39012705D01*
X1001191Y39012705D02*
X1458334Y38212705D01*
X1458334Y38212705D02*
X1458334Y39012705D01*
X1839286Y38212705D02*
X1839286Y39012705D01*
X1839286Y39012705D02*
X2029762Y39012705D01*
X2029762Y39012705D02*
X2144048Y38974610D01*
X2144048Y38974610D02*
X2220238Y38898420D01*
X2220238Y38898420D02*
X2258333Y38822229D01*
X2258333Y38822229D02*
X2296429Y38669848D01*
X2296429Y38669848D02*
X2296429Y38555562D01*
X2296429Y38555562D02*
X2258333Y38403181D01*
X2258333Y38403181D02*
X2220238Y38326991D01*
X2220238Y38326991D02*
X2144048Y38250800D01*
X2144048Y38250800D02*
X2029762Y38212705D01*
X2029762Y38212705D02*
X1839286Y38212705D01*
X9138878Y35579888D02*
X9091259Y35437031D01*
X9091259Y35437031D02*
X9043640Y35389412D01*
X9043640Y35389412D02*
X8948402Y35341793D01*
X8948402Y35341793D02*
X8805545Y35341793D01*
X8805545Y35341793D02*
X8710307Y35389412D01*
X8710307Y35389412D02*
X8662688Y35437031D01*
X8662688Y35437031D02*
X8615068Y35532269D01*
X8615068Y35532269D02*
X8615068Y35913221D01*
X8615068Y35913221D02*
X9615068Y35913221D01*
X9615068Y35913221D02*
X9615068Y35579888D01*
X9615068Y35579888D02*
X9567449Y35484650D01*
X9567449Y35484650D02*
X9519830Y35437031D01*
X9519830Y35437031D02*
X9424592Y35389412D01*
X9424592Y35389412D02*
X9329354Y35389412D01*
X9329354Y35389412D02*
X9234116Y35437031D01*
X9234116Y35437031D02*
X9186497Y35484650D01*
X9186497Y35484650D02*
X9138878Y35579888D01*
X9138878Y35579888D02*
X9138878Y35913221D01*
X8615068Y34341793D02*
X9091259Y34675126D01*
X8615068Y34913221D02*
X9615068Y34913221D01*
X9615068Y34913221D02*
X9615068Y34532269D01*
X9615068Y34532269D02*
X9567449Y34437031D01*
X9567449Y34437031D02*
X9519830Y34389412D01*
X9519830Y34389412D02*
X9424592Y34341793D01*
X9424592Y34341793D02*
X9281735Y34341793D01*
X9281735Y34341793D02*
X9186497Y34389412D01*
X9186497Y34389412D02*
X9138878Y34437031D01*
X9138878Y34437031D02*
X9091259Y34532269D01*
X9091259Y34532269D02*
X9091259Y34913221D01*
X9138878Y33913221D02*
X9138878Y33579888D01*
X8615068Y33437031D02*
X8615068Y33913221D01*
X8615068Y33913221D02*
X9615068Y33913221D01*
X9615068Y33913221D02*
X9615068Y33437031D01*
X8900783Y33056078D02*
X8900783Y32579888D01*
X8615068Y33151316D02*
X9615068Y32817983D01*
X9615068Y32817983D02*
X8615068Y32484650D01*
X8615068Y32151316D02*
X9615068Y32151316D01*
X9615068Y32151316D02*
X9615068Y31913221D01*
X9615068Y31913221D02*
X9567449Y31770364D01*
X9567449Y31770364D02*
X9472211Y31675126D01*
X9472211Y31675126D02*
X9376973Y31627507D01*
X9376973Y31627507D02*
X9186497Y31579888D01*
X9186497Y31579888D02*
X9043640Y31579888D01*
X9043640Y31579888D02*
X8853164Y31627507D01*
X8853164Y31627507D02*
X8757926Y31675126D01*
X8757926Y31675126D02*
X8662688Y31770364D01*
X8662688Y31770364D02*
X8615068Y31913221D01*
X8615068Y31913221D02*
X8615068Y32151316D01*
X8662688Y30437030D02*
X8615068Y30294173D01*
X8615068Y30294173D02*
X8615068Y30056078D01*
X8615068Y30056078D02*
X8662688Y29960840D01*
X8662688Y29960840D02*
X8710307Y29913221D01*
X8710307Y29913221D02*
X8805545Y29865602D01*
X8805545Y29865602D02*
X8900783Y29865602D01*
X8900783Y29865602D02*
X8996021Y29913221D01*
X8996021Y29913221D02*
X9043640Y29960840D01*
X9043640Y29960840D02*
X9091259Y30056078D01*
X9091259Y30056078D02*
X9138878Y30246554D01*
X9138878Y30246554D02*
X9186497Y30341792D01*
X9186497Y30341792D02*
X9234116Y30389411D01*
X9234116Y30389411D02*
X9329354Y30437030D01*
X9329354Y30437030D02*
X9424592Y30437030D01*
X9424592Y30437030D02*
X9519830Y30389411D01*
X9519830Y30389411D02*
X9567449Y30341792D01*
X9567449Y30341792D02*
X9615068Y30246554D01*
X9615068Y30246554D02*
X9615068Y30008459D01*
X9615068Y30008459D02*
X9567449Y29865602D01*
X8615068Y29294173D02*
X8662688Y29389411D01*
X8662688Y29389411D02*
X8757926Y29437030D01*
X8757926Y29437030D02*
X9615068Y29437030D01*
X8615068Y28913220D02*
X9281735Y28913220D01*
X9615068Y28913220D02*
X9567449Y28960839D01*
X9567449Y28960839D02*
X9519830Y28913220D01*
X9519830Y28913220D02*
X9567449Y28865601D01*
X9567449Y28865601D02*
X9615068Y28913220D01*
X9615068Y28913220D02*
X9519830Y28913220D01*
X8662688Y28008459D02*
X8615068Y28103697D01*
X8615068Y28103697D02*
X8615068Y28294173D01*
X8615068Y28294173D02*
X8662688Y28389411D01*
X8662688Y28389411D02*
X8710307Y28437030D01*
X8710307Y28437030D02*
X8805545Y28484649D01*
X8805545Y28484649D02*
X9091259Y28484649D01*
X9091259Y28484649D02*
X9186497Y28437030D01*
X9186497Y28437030D02*
X9234116Y28389411D01*
X9234116Y28389411D02*
X9281735Y28294173D01*
X9281735Y28294173D02*
X9281735Y28103697D01*
X9281735Y28103697D02*
X9234116Y28008459D01*
X8662688Y27198935D02*
X8615068Y27294173D01*
X8615068Y27294173D02*
X8615068Y27484649D01*
X8615068Y27484649D02*
X8662688Y27579887D01*
X8662688Y27579887D02*
X8757926Y27627506D01*
X8757926Y27627506D02*
X9138878Y27627506D01*
X9138878Y27627506D02*
X9234116Y27579887D01*
X9234116Y27579887D02*
X9281735Y27484649D01*
X9281735Y27484649D02*
X9281735Y27294173D01*
X9281735Y27294173D02*
X9234116Y27198935D01*
X9234116Y27198935D02*
X9138878Y27151316D01*
X9138878Y27151316D02*
X9043640Y27151316D01*
X9043640Y27151316D02*
X8948402Y27627506D01*
X8005124Y36056078D02*
X8005124Y35484650D01*
X7005124Y35770364D02*
X8005124Y35770364D01*
X7052744Y34770364D02*
X7005124Y34865602D01*
X7005124Y34865602D02*
X7005124Y35056078D01*
X7005124Y35056078D02*
X7052744Y35151316D01*
X7052744Y35151316D02*
X7147982Y35198935D01*
X7147982Y35198935D02*
X7528934Y35198935D01*
X7528934Y35198935D02*
X7624172Y35151316D01*
X7624172Y35151316D02*
X7671791Y35056078D01*
X7671791Y35056078D02*
X7671791Y34865602D01*
X7671791Y34865602D02*
X7624172Y34770364D01*
X7624172Y34770364D02*
X7528934Y34722745D01*
X7528934Y34722745D02*
X7433696Y34722745D01*
X7433696Y34722745D02*
X7338458Y35198935D01*
X7005124Y34294173D02*
X7671791Y34294173D01*
X7576553Y34294173D02*
X7624172Y34246554D01*
X7624172Y34246554D02*
X7671791Y34151316D01*
X7671791Y34151316D02*
X7671791Y34008459D01*
X7671791Y34008459D02*
X7624172Y33913221D01*
X7624172Y33913221D02*
X7528934Y33865602D01*
X7528934Y33865602D02*
X7005124Y33865602D01*
X7528934Y33865602D02*
X7624172Y33817983D01*
X7624172Y33817983D02*
X7671791Y33722745D01*
X7671791Y33722745D02*
X7671791Y33579888D01*
X7671791Y33579888D02*
X7624172Y33484649D01*
X7624172Y33484649D02*
X7528934Y33437030D01*
X7528934Y33437030D02*
X7005124Y33437030D01*
X7671791Y32960840D02*
X6671791Y32960840D01*
X7624172Y32960840D02*
X7671791Y32865602D01*
X7671791Y32865602D02*
X7671791Y32675126D01*
X7671791Y32675126D02*
X7624172Y32579888D01*
X7624172Y32579888D02*
X7576553Y32532269D01*
X7576553Y32532269D02*
X7481315Y32484650D01*
X7481315Y32484650D02*
X7195601Y32484650D01*
X7195601Y32484650D02*
X7100363Y32532269D01*
X7100363Y32532269D02*
X7052744Y32579888D01*
X7052744Y32579888D02*
X7005124Y32675126D01*
X7005124Y32675126D02*
X7005124Y32865602D01*
X7005124Y32865602D02*
X7052744Y32960840D01*
X7005124Y31913221D02*
X7052744Y32008459D01*
X7052744Y32008459D02*
X7147982Y32056078D01*
X7147982Y32056078D02*
X8005124Y32056078D01*
X7005124Y31103697D02*
X7528934Y31103697D01*
X7528934Y31103697D02*
X7624172Y31151316D01*
X7624172Y31151316D02*
X7671791Y31246554D01*
X7671791Y31246554D02*
X7671791Y31437030D01*
X7671791Y31437030D02*
X7624172Y31532268D01*
X7052744Y31103697D02*
X7005124Y31198935D01*
X7005124Y31198935D02*
X7005124Y31437030D01*
X7005124Y31437030D02*
X7052744Y31532268D01*
X7052744Y31532268D02*
X7147982Y31579887D01*
X7147982Y31579887D02*
X7243220Y31579887D01*
X7243220Y31579887D02*
X7338458Y31532268D01*
X7338458Y31532268D02*
X7386077Y31437030D01*
X7386077Y31437030D02*
X7386077Y31198935D01*
X7386077Y31198935D02*
X7433696Y31103697D01*
X7671791Y30770363D02*
X7671791Y30389411D01*
X8005124Y30627506D02*
X7147982Y30627506D01*
X7147982Y30627506D02*
X7052744Y30579887D01*
X7052744Y30579887D02*
X7005124Y30484649D01*
X7005124Y30484649D02*
X7005124Y30389411D01*
X7052744Y29675125D02*
X7005124Y29770363D01*
X7005124Y29770363D02*
X7005124Y29960839D01*
X7005124Y29960839D02*
X7052744Y30056077D01*
X7052744Y30056077D02*
X7147982Y30103696D01*
X7147982Y30103696D02*
X7528934Y30103696D01*
X7528934Y30103696D02*
X7624172Y30056077D01*
X7624172Y30056077D02*
X7671791Y29960839D01*
X7671791Y29960839D02*
X7671791Y29770363D01*
X7671791Y29770363D02*
X7624172Y29675125D01*
X7624172Y29675125D02*
X7528934Y29627506D01*
X7528934Y29627506D02*
X7433696Y29627506D01*
X7433696Y29627506D02*
X7338458Y30103696D01*
X7100363Y29198934D02*
X7052744Y29151315D01*
X7052744Y29151315D02*
X7005124Y29198934D01*
X7005124Y29198934D02*
X7052744Y29246553D01*
X7052744Y29246553D02*
X7100363Y29198934D01*
X7100363Y29198934D02*
X7005124Y29198934D01*
X7624172Y29198934D02*
X7576553Y29151315D01*
X7576553Y29151315D02*
X7528934Y29198934D01*
X7528934Y29198934D02*
X7576553Y29246553D01*
X7576553Y29246553D02*
X7624172Y29198934D01*
X7624172Y29198934D02*
X7528934Y29198934D01*
X5776133Y35913221D02*
X5776133Y35151316D01*
X6061847Y34675126D02*
X5776133Y33913221D01*
X5776133Y33913221D02*
X5490419Y34675126D01*
X5442800Y33484650D02*
X5395180Y33389412D01*
X5395180Y33389412D02*
X5395180Y33198936D01*
X5395180Y33198936D02*
X5442800Y33103698D01*
X5442800Y33103698D02*
X5538038Y33056079D01*
X5538038Y33056079D02*
X5585657Y33056079D01*
X5585657Y33056079D02*
X5680895Y33103698D01*
X5680895Y33103698D02*
X5728514Y33198936D01*
X5728514Y33198936D02*
X5728514Y33341793D01*
X5728514Y33341793D02*
X5776133Y33437031D01*
X5776133Y33437031D02*
X5871371Y33484650D01*
X5871371Y33484650D02*
X5918990Y33484650D01*
X5918990Y33484650D02*
X6014228Y33437031D01*
X6014228Y33437031D02*
X6061847Y33341793D01*
X6061847Y33341793D02*
X6061847Y33198936D01*
X6061847Y33198936D02*
X6014228Y33103698D01*
X5395180Y32627507D02*
X6061847Y32627507D01*
X5966609Y32627507D02*
X6014228Y32579888D01*
X6014228Y32579888D02*
X6061847Y32484650D01*
X6061847Y32484650D02*
X6061847Y32341793D01*
X6061847Y32341793D02*
X6014228Y32246555D01*
X6014228Y32246555D02*
X5918990Y32198936D01*
X5918990Y32198936D02*
X5395180Y32198936D01*
X5918990Y32198936D02*
X6014228Y32151317D01*
X6014228Y32151317D02*
X6061847Y32056079D01*
X6061847Y32056079D02*
X6061847Y31913222D01*
X6061847Y31913222D02*
X6014228Y31817983D01*
X6014228Y31817983D02*
X5918990Y31770364D01*
X5918990Y31770364D02*
X5395180Y31770364D01*
X6061847Y31437031D02*
X6061847Y31056079D01*
X6395180Y31294174D02*
X5538038Y31294174D01*
X5538038Y31294174D02*
X5442800Y31246555D01*
X5442800Y31246555D02*
X5395180Y31151317D01*
X5395180Y31151317D02*
X5395180Y31056079D01*
X5395180Y30722745D02*
X6395180Y30722745D01*
X6395180Y30722745D02*
X6395180Y30341793D01*
X6395180Y30341793D02*
X6347561Y30246555D01*
X6347561Y30246555D02*
X6299942Y30198936D01*
X6299942Y30198936D02*
X6204704Y30151317D01*
X6204704Y30151317D02*
X6061847Y30151317D01*
X6061847Y30151317D02*
X5966609Y30198936D01*
X5966609Y30198936D02*
X5918990Y30246555D01*
X5918990Y30246555D02*
X5871371Y30341793D01*
X5871371Y30341793D02*
X5871371Y30722745D01*
X5395180Y29722745D02*
X6061847Y29722745D01*
X5871371Y29722745D02*
X5966609Y29675126D01*
X5966609Y29675126D02*
X6014228Y29627507D01*
X6014228Y29627507D02*
X6061847Y29532269D01*
X6061847Y29532269D02*
X6061847Y29437031D01*
X5395180Y28960840D02*
X5442800Y29056078D01*
X5442800Y29056078D02*
X5490419Y29103697D01*
X5490419Y29103697D02*
X5585657Y29151316D01*
X5585657Y29151316D02*
X5871371Y29151316D01*
X5871371Y29151316D02*
X5966609Y29103697D01*
X5966609Y29103697D02*
X6014228Y29056078D01*
X6014228Y29056078D02*
X6061847Y28960840D01*
X6061847Y28960840D02*
X6061847Y28817983D01*
X6061847Y28817983D02*
X6014228Y28722745D01*
X6014228Y28722745D02*
X5966609Y28675126D01*
X5966609Y28675126D02*
X5871371Y28627507D01*
X5871371Y28627507D02*
X5585657Y28627507D01*
X5585657Y28627507D02*
X5490419Y28675126D01*
X5490419Y28675126D02*
X5442800Y28722745D01*
X5442800Y28722745D02*
X5395180Y28817983D01*
X5395180Y28817983D02*
X5395180Y28960840D01*
X6061847Y28341792D02*
X6061847Y27960840D01*
X6395180Y28198935D02*
X5538038Y28198935D01*
X5538038Y28198935D02*
X5442800Y28151316D01*
X5442800Y28151316D02*
X5395180Y28056078D01*
X5395180Y28056078D02*
X5395180Y27960840D01*
X5395180Y27484649D02*
X5442800Y27579887D01*
X5442800Y27579887D02*
X5490419Y27627506D01*
X5490419Y27627506D02*
X5585657Y27675125D01*
X5585657Y27675125D02*
X5871371Y27675125D01*
X5871371Y27675125D02*
X5966609Y27627506D01*
X5966609Y27627506D02*
X6014228Y27579887D01*
X6014228Y27579887D02*
X6061847Y27484649D01*
X6061847Y27484649D02*
X6061847Y27341792D01*
X6061847Y27341792D02*
X6014228Y27246554D01*
X6014228Y27246554D02*
X5966609Y27198935D01*
X5966609Y27198935D02*
X5871371Y27151316D01*
X5871371Y27151316D02*
X5585657Y27151316D01*
X5585657Y27151316D02*
X5490419Y27198935D01*
X5490419Y27198935D02*
X5442800Y27246554D01*
X5442800Y27246554D02*
X5395180Y27341792D01*
X5395180Y27341792D02*
X5395180Y27484649D01*
X3832856Y35960840D02*
X3785236Y35817983D01*
X3785236Y35817983D02*
X3785236Y35579888D01*
X3785236Y35579888D02*
X3832856Y35484650D01*
X3832856Y35484650D02*
X3880475Y35437031D01*
X3880475Y35437031D02*
X3975713Y35389412D01*
X3975713Y35389412D02*
X4070951Y35389412D01*
X4070951Y35389412D02*
X4166189Y35437031D01*
X4166189Y35437031D02*
X4213808Y35484650D01*
X4213808Y35484650D02*
X4261427Y35579888D01*
X4261427Y35579888D02*
X4309046Y35770364D01*
X4309046Y35770364D02*
X4356665Y35865602D01*
X4356665Y35865602D02*
X4404284Y35913221D01*
X4404284Y35913221D02*
X4499522Y35960840D01*
X4499522Y35960840D02*
X4594760Y35960840D01*
X4594760Y35960840D02*
X4689998Y35913221D01*
X4689998Y35913221D02*
X4737617Y35865602D01*
X4737617Y35865602D02*
X4785236Y35770364D01*
X4785236Y35770364D02*
X4785236Y35532269D01*
X4785236Y35532269D02*
X4737617Y35389412D01*
X3785236Y34484650D02*
X3785236Y34960840D01*
X3785236Y34960840D02*
X4785236Y34960840D01*
X3880475Y33579888D02*
X3832856Y33627507D01*
X3832856Y33627507D02*
X3785236Y33770364D01*
X3785236Y33770364D02*
X3785236Y33865602D01*
X3785236Y33865602D02*
X3832856Y34008459D01*
X3832856Y34008459D02*
X3928094Y34103697D01*
X3928094Y34103697D02*
X4023332Y34151316D01*
X4023332Y34151316D02*
X4213808Y34198935D01*
X4213808Y34198935D02*
X4356665Y34198935D01*
X4356665Y34198935D02*
X4547141Y34151316D01*
X4547141Y34151316D02*
X4642379Y34103697D01*
X4642379Y34103697D02*
X4737617Y34008459D01*
X4737617Y34008459D02*
X4785236Y33865602D01*
X4785236Y33865602D02*
X4785236Y33770364D01*
X4785236Y33770364D02*
X4737617Y33627507D01*
X4737617Y33627507D02*
X4689998Y33579888D01*
X3689998Y33389411D02*
X3689998Y32627507D01*
X3785236Y32389411D02*
X4785236Y32389411D01*
X4785236Y32389411D02*
X4785236Y32008459D01*
X4785236Y32008459D02*
X4737617Y31913221D01*
X4737617Y31913221D02*
X4689998Y31865602D01*
X4689998Y31865602D02*
X4594760Y31817983D01*
X4594760Y31817983D02*
X4451903Y31817983D01*
X4451903Y31817983D02*
X4356665Y31865602D01*
X4356665Y31865602D02*
X4309046Y31913221D01*
X4309046Y31913221D02*
X4261427Y32008459D01*
X4261427Y32008459D02*
X4261427Y32389411D01*
X3785236Y30817983D02*
X4261427Y31151316D01*
X3785236Y31389411D02*
X4785236Y31389411D01*
X4785236Y31389411D02*
X4785236Y31008459D01*
X4785236Y31008459D02*
X4737617Y30913221D01*
X4737617Y30913221D02*
X4689998Y30865602D01*
X4689998Y30865602D02*
X4594760Y30817983D01*
X4594760Y30817983D02*
X4451903Y30817983D01*
X4451903Y30817983D02*
X4356665Y30865602D01*
X4356665Y30865602D02*
X4309046Y30913221D01*
X4309046Y30913221D02*
X4261427Y31008459D01*
X4261427Y31008459D02*
X4261427Y31389411D01*
X4785236Y30532268D02*
X4785236Y29960840D01*
X3785236Y30246554D02*
X4785236Y30246554D01*
X4785236Y29437030D02*
X4785236Y29246554D01*
X4785236Y29246554D02*
X4737617Y29151316D01*
X4737617Y29151316D02*
X4642379Y29056078D01*
X4642379Y29056078D02*
X4451903Y29008459D01*
X4451903Y29008459D02*
X4118570Y29008459D01*
X4118570Y29008459D02*
X3928094Y29056078D01*
X3928094Y29056078D02*
X3832856Y29151316D01*
X3832856Y29151316D02*
X3785236Y29246554D01*
X3785236Y29246554D02*
X3785236Y29437030D01*
X3785236Y29437030D02*
X3832856Y29532268D01*
X3832856Y29532268D02*
X3928094Y29627506D01*
X3928094Y29627506D02*
X4118570Y29675125D01*
X4118570Y29675125D02*
X4451903Y29675125D01*
X4451903Y29675125D02*
X4642379Y29627506D01*
X4642379Y29627506D02*
X4737617Y29532268D01*
X4737617Y29532268D02*
X4785236Y29437030D01*
X2175292Y35341793D02*
X2651483Y35675126D01*
X2175292Y35913221D02*
X3175292Y35913221D01*
X3175292Y35913221D02*
X3175292Y35532269D01*
X3175292Y35532269D02*
X3127673Y35437031D01*
X3127673Y35437031D02*
X3080054Y35389412D01*
X3080054Y35389412D02*
X2984816Y35341793D01*
X2984816Y35341793D02*
X2841959Y35341793D01*
X2841959Y35341793D02*
X2746721Y35389412D01*
X2746721Y35389412D02*
X2699102Y35437031D01*
X2699102Y35437031D02*
X2651483Y35532269D01*
X2651483Y35532269D02*
X2651483Y35913221D01*
X3080054Y34960840D02*
X3127673Y34913221D01*
X3127673Y34913221D02*
X3175292Y34817983D01*
X3175292Y34817983D02*
X3175292Y34579888D01*
X3175292Y34579888D02*
X3127673Y34484650D01*
X3127673Y34484650D02*
X3080054Y34437031D01*
X3080054Y34437031D02*
X2984816Y34389412D01*
X2984816Y34389412D02*
X2889578Y34389412D01*
X2889578Y34389412D02*
X2746721Y34437031D01*
X2746721Y34437031D02*
X2175292Y35008459D01*
X2175292Y35008459D02*
X2175292Y34389412D01*
X3175292Y33008459D02*
X3175292Y32913221D01*
X3175292Y32913221D02*
X3127673Y32817983D01*
X3127673Y32817983D02*
X3080054Y32770364D01*
X3080054Y32770364D02*
X2984816Y32722745D01*
X2984816Y32722745D02*
X2794340Y32675126D01*
X2794340Y32675126D02*
X2556245Y32675126D01*
X2556245Y32675126D02*
X2365769Y32722745D01*
X2365769Y32722745D02*
X2270531Y32770364D01*
X2270531Y32770364D02*
X2222912Y32817983D01*
X2222912Y32817983D02*
X2175292Y32913221D01*
X2175292Y32913221D02*
X2175292Y33008459D01*
X2175292Y33008459D02*
X2222912Y33103697D01*
X2222912Y33103697D02*
X2270531Y33151316D01*
X2270531Y33151316D02*
X2365769Y33198935D01*
X2365769Y33198935D02*
X2556245Y33246554D01*
X2556245Y33246554D02*
X2794340Y33246554D01*
X2794340Y33246554D02*
X2984816Y33198935D01*
X2984816Y33198935D02*
X3080054Y33151316D01*
X3080054Y33151316D02*
X3127673Y33103697D01*
X3127673Y33103697D02*
X3175292Y33008459D01*
X2841959Y31817983D02*
X2175292Y31817983D01*
X3222912Y32056078D02*
X2508626Y32294173D01*
X2508626Y32294173D02*
X2508626Y31675126D01*
X2556245Y31294173D02*
X2556245Y30532268D01*
X3080054Y30103697D02*
X3127673Y30056078D01*
X3127673Y30056078D02*
X3175292Y29960840D01*
X3175292Y29960840D02*
X3175292Y29722745D01*
X3175292Y29722745D02*
X3127673Y29627507D01*
X3127673Y29627507D02*
X3080054Y29579888D01*
X3080054Y29579888D02*
X2984816Y29532269D01*
X2984816Y29532269D02*
X2889578Y29532269D01*
X2889578Y29532269D02*
X2746721Y29579888D01*
X2746721Y29579888D02*
X2175292Y30151316D01*
X2175292Y30151316D02*
X2175292Y29532269D01*
X3175292Y28913221D02*
X3175292Y28817983D01*
X3175292Y28817983D02*
X3127673Y28722745D01*
X3127673Y28722745D02*
X3080054Y28675126D01*
X3080054Y28675126D02*
X2984816Y28627507D01*
X2984816Y28627507D02*
X2794340Y28579888D01*
X2794340Y28579888D02*
X2556245Y28579888D01*
X2556245Y28579888D02*
X2365769Y28627507D01*
X2365769Y28627507D02*
X2270531Y28675126D01*
X2270531Y28675126D02*
X2222912Y28722745D01*
X2222912Y28722745D02*
X2175292Y28817983D01*
X2175292Y28817983D02*
X2175292Y28913221D01*
X2175292Y28913221D02*
X2222912Y29008459D01*
X2222912Y29008459D02*
X2270531Y29056078D01*
X2270531Y29056078D02*
X2365769Y29103697D01*
X2365769Y29103697D02*
X2556245Y29151316D01*
X2556245Y29151316D02*
X2794340Y29151316D01*
X2794340Y29151316D02*
X2984816Y29103697D01*
X2984816Y29103697D02*
X3080054Y29056078D01*
X3080054Y29056078D02*
X3127673Y29008459D01*
X3127673Y29008459D02*
X3175292Y28913221D01*
X3080054Y28198935D02*
X3127673Y28151316D01*
X3127673Y28151316D02*
X3175292Y28056078D01*
X3175292Y28056078D02*
X3175292Y27817983D01*
X3175292Y27817983D02*
X3127673Y27722745D01*
X3127673Y27722745D02*
X3080054Y27675126D01*
X3080054Y27675126D02*
X2984816Y27627507D01*
X2984816Y27627507D02*
X2889578Y27627507D01*
X2889578Y27627507D02*
X2746721Y27675126D01*
X2746721Y27675126D02*
X2175292Y28246554D01*
X2175292Y28246554D02*
X2175292Y27627507D01*
X3175292Y26722745D02*
X3175292Y27198935D01*
X3175292Y27198935D02*
X2699102Y27246554D01*
X2699102Y27246554D02*
X2746721Y27198935D01*
X2746721Y27198935D02*
X2794340Y27103697D01*
X2794340Y27103697D02*
X2794340Y26865602D01*
X2794340Y26865602D02*
X2746721Y26770364D01*
X2746721Y26770364D02*
X2699102Y26722745D01*
X2699102Y26722745D02*
X2603864Y26675126D01*
X2603864Y26675126D02*
X2365769Y26675126D01*
X2365769Y26675126D02*
X2270531Y26722745D01*
X2270531Y26722745D02*
X2222912Y26770364D01*
X2222912Y26770364D02*
X2175292Y26865602D01*
X2175292Y26865602D02*
X2175292Y27103697D01*
X2175292Y27103697D02*
X2222912Y27198935D01*
X2222912Y27198935D02*
X2270531Y27246554D01*
X620238Y61824610D02*
X544048Y61862705D01*
X544048Y61862705D02*
X429762Y61862705D01*
X429762Y61862705D02*
X315476Y61824610D01*
X315476Y61824610D02*
X239286Y61748420D01*
X239286Y61748420D02*
X201191Y61672229D01*
X201191Y61672229D02*
X163095Y61519848D01*
X163095Y61519848D02*
X163095Y61405562D01*
X163095Y61405562D02*
X201191Y61253181D01*
X201191Y61253181D02*
X239286Y61176991D01*
X239286Y61176991D02*
X315476Y61100800D01*
X315476Y61100800D02*
X429762Y61062705D01*
X429762Y61062705D02*
X505953Y61062705D01*
X505953Y61062705D02*
X620238Y61100800D01*
X620238Y61100800D02*
X658334Y61138896D01*
X658334Y61138896D02*
X658334Y61405562D01*
X658334Y61405562D02*
X505953Y61405562D01*
X1001191Y61062705D02*
X1001191Y61862705D01*
X1001191Y61862705D02*
X1458334Y61062705D01*
X1458334Y61062705D02*
X1458334Y61862705D01*
X1839286Y61062705D02*
X1839286Y61862705D01*
X1839286Y61862705D02*
X2029762Y61862705D01*
X2029762Y61862705D02*
X2144048Y61824610D01*
X2144048Y61824610D02*
X2220238Y61748420D01*
X2220238Y61748420D02*
X2258333Y61672229D01*
X2258333Y61672229D02*
X2296429Y61519848D01*
X2296429Y61519848D02*
X2296429Y61405562D01*
X2296429Y61405562D02*
X2258333Y61253181D01*
X2258333Y61253181D02*
X2220238Y61176991D01*
X2220238Y61176991D02*
X2144048Y61100800D01*
X2144048Y61100800D02*
X2029762Y61062705D01*
X2029762Y61062705D02*
X1839286Y61062705D01*
X201190Y48781753D02*
X467856Y48781753D01*
X582142Y48362705D02*
X201190Y48362705D01*
X201190Y48362705D02*
X201190Y49162705D01*
X201190Y49162705D02*
X582142Y49162705D01*
X886904Y48400800D02*
X1001190Y48362705D01*
X1001190Y48362705D02*
X1191666Y48362705D01*
X1191666Y48362705D02*
X1267857Y48400800D01*
X1267857Y48400800D02*
X1305952Y48438896D01*
X1305952Y48438896D02*
X1344047Y48515086D01*
X1344047Y48515086D02*
X1344047Y48591277D01*
X1344047Y48591277D02*
X1305952Y48667467D01*
X1305952Y48667467D02*
X1267857Y48705562D01*
X1267857Y48705562D02*
X1191666Y48743658D01*
X1191666Y48743658D02*
X1039285Y48781753D01*
X1039285Y48781753D02*
X963095Y48819848D01*
X963095Y48819848D02*
X925000Y48857943D01*
X925000Y48857943D02*
X886904Y48934134D01*
X886904Y48934134D02*
X886904Y49010324D01*
X886904Y49010324D02*
X925000Y49086515D01*
X925000Y49086515D02*
X963095Y49124610D01*
X963095Y49124610D02*
X1039285Y49162705D01*
X1039285Y49162705D02*
X1229762Y49162705D01*
X1229762Y49162705D02*
X1344047Y49124610D01*
X1572619Y49162705D02*
X2029762Y49162705D01*
X1801190Y48362705D02*
X1801190Y49162705D01*
X2448810Y49162705D02*
X2601191Y49162705D01*
X2601191Y49162705D02*
X2677381Y49124610D01*
X2677381Y49124610D02*
X2753572Y49048420D01*
X2753572Y49048420D02*
X2791667Y48896039D01*
X2791667Y48896039D02*
X2791667Y48629372D01*
X2791667Y48629372D02*
X2753572Y48476991D01*
X2753572Y48476991D02*
X2677381Y48400800D01*
X2677381Y48400800D02*
X2601191Y48362705D01*
X2601191Y48362705D02*
X2448810Y48362705D01*
X2448810Y48362705D02*
X2372619Y48400800D01*
X2372619Y48400800D02*
X2296429Y48476991D01*
X2296429Y48476991D02*
X2258333Y48629372D01*
X2258333Y48629372D02*
X2258333Y48896039D01*
X2258333Y48896039D02*
X2296429Y49048420D01*
X2296429Y49048420D02*
X2372619Y49124610D01*
X2372619Y49124610D02*
X2448810Y49162705D01*
X3134524Y48362705D02*
X3134524Y49162705D01*
X3134524Y49162705D02*
X3439286Y49162705D01*
X3439286Y49162705D02*
X3515476Y49124610D01*
X3515476Y49124610D02*
X3553571Y49086515D01*
X3553571Y49086515D02*
X3591667Y49010324D01*
X3591667Y49010324D02*
X3591667Y48896039D01*
X3591667Y48896039D02*
X3553571Y48819848D01*
X3553571Y48819848D02*
X3515476Y48781753D01*
X3515476Y48781753D02*
X3439286Y48743658D01*
X3439286Y48743658D02*
X3134524Y48743658D01*
X201191Y43262705D02*
X201191Y44062705D01*
X582143Y43262705D02*
X582143Y44062705D01*
X582143Y44062705D02*
X1039286Y43262705D01*
X1039286Y43262705D02*
X1039286Y44062705D01*
X1305952Y44062705D02*
X1763095Y44062705D01*
X1534523Y43262705D02*
X1534523Y44062705D01*
X163095Y53450800D02*
X277381Y53412705D01*
X277381Y53412705D02*
X467857Y53412705D01*
X467857Y53412705D02*
X544048Y53450800D01*
X544048Y53450800D02*
X582143Y53488896D01*
X582143Y53488896D02*
X620238Y53565086D01*
X620238Y53565086D02*
X620238Y53641277D01*
X620238Y53641277D02*
X582143Y53717467D01*
X582143Y53717467D02*
X544048Y53755562D01*
X544048Y53755562D02*
X467857Y53793658D01*
X467857Y53793658D02*
X315476Y53831753D01*
X315476Y53831753D02*
X239286Y53869848D01*
X239286Y53869848D02*
X201191Y53907943D01*
X201191Y53907943D02*
X163095Y53984134D01*
X163095Y53984134D02*
X163095Y54060324D01*
X163095Y54060324D02*
X201191Y54136515D01*
X201191Y54136515D02*
X239286Y54174610D01*
X239286Y54174610D02*
X315476Y54212705D01*
X315476Y54212705D02*
X505953Y54212705D01*
X505953Y54212705D02*
X620238Y54174610D01*
X963096Y53412705D02*
X963096Y54212705D01*
X963096Y54212705D02*
X1153572Y54212705D01*
X1153572Y54212705D02*
X1267858Y54174610D01*
X1267858Y54174610D02*
X1344048Y54098420D01*
X1344048Y54098420D02*
X1382143Y54022229D01*
X1382143Y54022229D02*
X1420239Y53869848D01*
X1420239Y53869848D02*
X1420239Y53755562D01*
X1420239Y53755562D02*
X1382143Y53603181D01*
X1382143Y53603181D02*
X1344048Y53526991D01*
X1344048Y53526991D02*
X1267858Y53450800D01*
X1267858Y53450800D02*
X1153572Y53412705D01*
X1153572Y53412705D02*
X963096Y53412705D01*
X1725000Y53641277D02*
X2105953Y53641277D01*
X1648810Y53412705D02*
X1915477Y54212705D01*
X1915477Y54212705D02*
X2182143Y53412705D01*
X163095Y56000800D02*
X277381Y55962705D01*
X277381Y55962705D02*
X467857Y55962705D01*
X467857Y55962705D02*
X544048Y56000800D01*
X544048Y56000800D02*
X582143Y56038896D01*
X582143Y56038896D02*
X620238Y56115086D01*
X620238Y56115086D02*
X620238Y56191277D01*
X620238Y56191277D02*
X582143Y56267467D01*
X582143Y56267467D02*
X544048Y56305562D01*
X544048Y56305562D02*
X467857Y56343658D01*
X467857Y56343658D02*
X315476Y56381753D01*
X315476Y56381753D02*
X239286Y56419848D01*
X239286Y56419848D02*
X201191Y56457943D01*
X201191Y56457943D02*
X163095Y56534134D01*
X163095Y56534134D02*
X163095Y56610324D01*
X163095Y56610324D02*
X201191Y56686515D01*
X201191Y56686515D02*
X239286Y56724610D01*
X239286Y56724610D02*
X315476Y56762705D01*
X315476Y56762705D02*
X505953Y56762705D01*
X505953Y56762705D02*
X620238Y56724610D01*
X1420239Y56038896D02*
X1382143Y56000800D01*
X1382143Y56000800D02*
X1267858Y55962705D01*
X1267858Y55962705D02*
X1191667Y55962705D01*
X1191667Y55962705D02*
X1077381Y56000800D01*
X1077381Y56000800D02*
X1001191Y56076991D01*
X1001191Y56076991D02*
X963096Y56153181D01*
X963096Y56153181D02*
X925000Y56305562D01*
X925000Y56305562D02*
X925000Y56419848D01*
X925000Y56419848D02*
X963096Y56572229D01*
X963096Y56572229D02*
X1001191Y56648420D01*
X1001191Y56648420D02*
X1077381Y56724610D01*
X1077381Y56724610D02*
X1191667Y56762705D01*
X1191667Y56762705D02*
X1267858Y56762705D01*
X1267858Y56762705D02*
X1382143Y56724610D01*
X1382143Y56724610D02*
X1420239Y56686515D01*
X2144048Y55962705D02*
X1763096Y55962705D01*
X1763096Y55962705D02*
X1763096Y56762705D01*
X27966009Y12452858D02*
X27966009Y13405239D01*
X28537438Y12262382D02*
X26537438Y12929048D01*
X26537438Y12929048D02*
X28537438Y13595715D01*
X28537438Y15405239D02*
X27585057Y14738572D01*
X28537438Y14262382D02*
X26537438Y14262382D01*
X26537438Y14262382D02*
X26537438Y15024287D01*
X26537438Y15024287D02*
X26632676Y15214763D01*
X26632676Y15214763D02*
X26727914Y15310001D01*
X26727914Y15310001D02*
X26918390Y15405239D01*
X26918390Y15405239D02*
X27204104Y15405239D01*
X27204104Y15405239D02*
X27394580Y15310001D01*
X27394580Y15310001D02*
X27489819Y15214763D01*
X27489819Y15214763D02*
X27585057Y15024287D01*
X27585057Y15024287D02*
X27585057Y14262382D01*
X28537438Y16262382D02*
X26537438Y16262382D01*
X26537438Y16262382D02*
X26537438Y16738572D01*
X26537438Y16738572D02*
X26632676Y17024287D01*
X26632676Y17024287D02*
X26823152Y17214763D01*
X26823152Y17214763D02*
X27013628Y17310001D01*
X27013628Y17310001D02*
X27394580Y17405239D01*
X27394580Y17405239D02*
X27680295Y17405239D01*
X27680295Y17405239D02*
X28061247Y17310001D01*
X28061247Y17310001D02*
X28251723Y17214763D01*
X28251723Y17214763D02*
X28442200Y17024287D01*
X28442200Y17024287D02*
X28537438Y16738572D01*
X28537438Y16738572D02*
X28537438Y16262382D01*
X26537438Y18262382D02*
X28156485Y18262382D01*
X28156485Y18262382D02*
X28346961Y18357620D01*
X28346961Y18357620D02*
X28442200Y18452858D01*
X28442200Y18452858D02*
X28537438Y18643334D01*
X28537438Y18643334D02*
X28537438Y19024287D01*
X28537438Y19024287D02*
X28442200Y19214763D01*
X28442200Y19214763D02*
X28346961Y19310001D01*
X28346961Y19310001D02*
X28156485Y19405239D01*
X28156485Y19405239D02*
X26537438Y19405239D01*
X28537438Y20357620D02*
X26537438Y20357620D01*
X28537438Y21310001D02*
X26537438Y21310001D01*
X26537438Y21310001D02*
X28537438Y22452858D01*
X28537438Y22452858D02*
X26537438Y22452858D01*
X26537438Y23786191D02*
X26537438Y24167144D01*
X26537438Y24167144D02*
X26632676Y24357620D01*
X26632676Y24357620D02*
X26823152Y24548096D01*
X26823152Y24548096D02*
X27204104Y24643334D01*
X27204104Y24643334D02*
X27870771Y24643334D01*
X27870771Y24643334D02*
X28251723Y24548096D01*
X28251723Y24548096D02*
X28442200Y24357620D01*
X28442200Y24357620D02*
X28537438Y24167144D01*
X28537438Y24167144D02*
X28537438Y23786191D01*
X28537438Y23786191D02*
X28442200Y23595715D01*
X28442200Y23595715D02*
X28251723Y23405239D01*
X28251723Y23405239D02*
X27870771Y23310001D01*
X27870771Y23310001D02*
X27204104Y23310001D01*
X27204104Y23310001D02*
X26823152Y23405239D01*
X26823152Y23405239D02*
X26632676Y23595715D01*
X26632676Y23595715D02*
X26537438Y23786191D01*
X28537438Y27024287D02*
X26537438Y27024287D01*
X26537438Y27024287D02*
X28537438Y28167144D01*
X28537438Y28167144D02*
X26537438Y28167144D01*
X27966009Y29024287D02*
X27966009Y29976668D01*
X28537438Y28833811D02*
X26537438Y29500477D01*
X26537438Y29500477D02*
X28537438Y30167144D01*
X28537438Y30833811D02*
X26537438Y30833811D01*
X26537438Y30833811D02*
X28537438Y31976668D01*
X28537438Y31976668D02*
X26537438Y31976668D01*
X26537438Y33310001D02*
X26537438Y33690954D01*
X26537438Y33690954D02*
X26632676Y33881430D01*
X26632676Y33881430D02*
X26823152Y34071906D01*
X26823152Y34071906D02*
X27204104Y34167144D01*
X27204104Y34167144D02*
X27870771Y34167144D01*
X27870771Y34167144D02*
X28251723Y34071906D01*
X28251723Y34071906D02*
X28442200Y33881430D01*
X28442200Y33881430D02*
X28537438Y33690954D01*
X28537438Y33690954D02*
X28537438Y33310001D01*
X28537438Y33310001D02*
X28442200Y33119525D01*
X28442200Y33119525D02*
X28251723Y32929049D01*
X28251723Y32929049D02*
X27870771Y32833811D01*
X27870771Y32833811D02*
X27204104Y32833811D01*
X27204104Y32833811D02*
X26823152Y32929049D01*
X26823152Y32929049D02*
X26632676Y33119525D01*
X26632676Y33119525D02*
X26537438Y33310001D01*
X620238Y58512705D02*
X163095Y58512705D01*
X391667Y58512705D02*
X391667Y59312705D01*
X391667Y59312705D02*
X315476Y59198420D01*
X315476Y59198420D02*
X239286Y59122229D01*
X239286Y59122229D02*
X163095Y59084134D01*
X925000Y59236515D02*
X963096Y59274610D01*
X963096Y59274610D02*
X1039286Y59312705D01*
X1039286Y59312705D02*
X1229762Y59312705D01*
X1229762Y59312705D02*
X1305953Y59274610D01*
X1305953Y59274610D02*
X1344048Y59236515D01*
X1344048Y59236515D02*
X1382143Y59160324D01*
X1382143Y59160324D02*
X1382143Y59084134D01*
X1382143Y59084134D02*
X1344048Y58969848D01*
X1344048Y58969848D02*
X886905Y58512705D01*
X886905Y58512705D02*
X1382143Y58512705D01*
X1610715Y59312705D02*
X1877382Y58512705D01*
X1877382Y58512705D02*
X2144048Y59312705D01*
X16071714Y44554896D02*
X16547904Y44554896D01*
X15976476Y44269181D02*
X16309809Y45269181D01*
X16309809Y45269181D02*
X16643142Y44269181D01*
X17500285Y44269181D02*
X16928857Y44269181D01*
X17214571Y44269181D02*
X17214571Y45269181D01*
X17214571Y45269181D02*
X17119333Y45126324D01*
X17119333Y45126324D02*
X17024095Y45031086D01*
X17024095Y45031086D02*
X16928857Y44983467D01*
X26368095Y7345181D02*
X26368095Y6535658D01*
X26368095Y6535658D02*
X26415714Y6440420D01*
X26415714Y6440420D02*
X26463333Y6392800D01*
X26463333Y6392800D02*
X26558571Y6345181D01*
X26558571Y6345181D02*
X26749047Y6345181D01*
X26749047Y6345181D02*
X26844285Y6392800D01*
X26844285Y6392800D02*
X26891904Y6440420D01*
X26891904Y6440420D02*
X26939523Y6535658D01*
X26939523Y6535658D02*
X26939523Y7345181D01*
X27368095Y6392800D02*
X27510952Y6345181D01*
X27510952Y6345181D02*
X27749047Y6345181D01*
X27749047Y6345181D02*
X27844285Y6392800D01*
X27844285Y6392800D02*
X27891904Y6440420D01*
X27891904Y6440420D02*
X27939523Y6535658D01*
X27939523Y6535658D02*
X27939523Y6630896D01*
X27939523Y6630896D02*
X27891904Y6726134D01*
X27891904Y6726134D02*
X27844285Y6773753D01*
X27844285Y6773753D02*
X27749047Y6821372D01*
X27749047Y6821372D02*
X27558571Y6868991D01*
X27558571Y6868991D02*
X27463333Y6916610D01*
X27463333Y6916610D02*
X27415714Y6964229D01*
X27415714Y6964229D02*
X27368095Y7059467D01*
X27368095Y7059467D02*
X27368095Y7154705D01*
X27368095Y7154705D02*
X27415714Y7249943D01*
X27415714Y7249943D02*
X27463333Y7297562D01*
X27463333Y7297562D02*
X27558571Y7345181D01*
X27558571Y7345181D02*
X27796666Y7345181D01*
X27796666Y7345181D02*
X27939523Y7297562D01*
X28701428Y6868991D02*
X28844285Y6821372D01*
X28844285Y6821372D02*
X28891904Y6773753D01*
X28891904Y6773753D02*
X28939523Y6678515D01*
X28939523Y6678515D02*
X28939523Y6535658D01*
X28939523Y6535658D02*
X28891904Y6440420D01*
X28891904Y6440420D02*
X28844285Y6392800D01*
X28844285Y6392800D02*
X28749047Y6345181D01*
X28749047Y6345181D02*
X28368095Y6345181D01*
X28368095Y6345181D02*
X28368095Y7345181D01*
X28368095Y7345181D02*
X28701428Y7345181D01*
X28701428Y7345181D02*
X28796666Y7297562D01*
X28796666Y7297562D02*
X28844285Y7249943D01*
X28844285Y7249943D02*
X28891904Y7154705D01*
X28891904Y7154705D02*
X28891904Y7059467D01*
X28891904Y7059467D02*
X28844285Y6964229D01*
X28844285Y6964229D02*
X28796666Y6916610D01*
X28796666Y6916610D02*
X28701428Y6868991D01*
X28701428Y6868991D02*
X28368095Y6868991D01*
X666666Y59445181D02*
X666666Y58730896D01*
X666666Y58730896D02*
X619047Y58588039D01*
X619047Y58588039D02*
X523809Y58492800D01*
X523809Y58492800D02*
X380952Y58445181D01*
X380952Y58445181D02*
X285714Y58445181D01*
X1666666Y58445181D02*
X1095238Y58445181D01*
X1380952Y58445181D02*
X1380952Y59445181D01*
X1380952Y59445181D02*
X1285714Y59302324D01*
X1285714Y59302324D02*
X1190476Y59207086D01*
X1190476Y59207086D02*
X1095238Y59159467D01*
D11*
X4445238Y11192581D02*
X4445238Y12192581D01*
X4445238Y11716391D02*
X5016666Y11716391D01*
X5016666Y11192581D02*
X5016666Y12192581D01*
X5873809Y11240200D02*
X5778571Y11192581D01*
X5778571Y11192581D02*
X5588095Y11192581D01*
X5588095Y11192581D02*
X5492857Y11240200D01*
X5492857Y11240200D02*
X5445238Y11335439D01*
X5445238Y11335439D02*
X5445238Y11716391D01*
X5445238Y11716391D02*
X5492857Y11811629D01*
X5492857Y11811629D02*
X5588095Y11859248D01*
X5588095Y11859248D02*
X5778571Y11859248D01*
X5778571Y11859248D02*
X5873809Y11811629D01*
X5873809Y11811629D02*
X5921428Y11716391D01*
X5921428Y11716391D02*
X5921428Y11621153D01*
X5921428Y11621153D02*
X5445238Y11525915D01*
X6778571Y11192581D02*
X6778571Y11716391D01*
X6778571Y11716391D02*
X6730952Y11811629D01*
X6730952Y11811629D02*
X6635714Y11859248D01*
X6635714Y11859248D02*
X6445238Y11859248D01*
X6445238Y11859248D02*
X6350000Y11811629D01*
X6778571Y11240200D02*
X6683333Y11192581D01*
X6683333Y11192581D02*
X6445238Y11192581D01*
X6445238Y11192581D02*
X6350000Y11240200D01*
X6350000Y11240200D02*
X6302381Y11335439D01*
X6302381Y11335439D02*
X6302381Y11430677D01*
X6302381Y11430677D02*
X6350000Y11525915D01*
X6350000Y11525915D02*
X6445238Y11573534D01*
X6445238Y11573534D02*
X6683333Y11573534D01*
X6683333Y11573534D02*
X6778571Y11621153D01*
X7111905Y11859248D02*
X7492857Y11859248D01*
X7254762Y12192581D02*
X7254762Y11335439D01*
X7254762Y11335439D02*
X7302381Y11240200D01*
X7302381Y11240200D02*
X7397619Y11192581D01*
X7397619Y11192581D02*
X7492857Y11192581D01*
X8540477Y11240200D02*
X8683334Y11192581D01*
X8683334Y11192581D02*
X8921429Y11192581D01*
X8921429Y11192581D02*
X9016667Y11240200D01*
X9016667Y11240200D02*
X9064286Y11287820D01*
X9064286Y11287820D02*
X9111905Y11383058D01*
X9111905Y11383058D02*
X9111905Y11478296D01*
X9111905Y11478296D02*
X9064286Y11573534D01*
X9064286Y11573534D02*
X9016667Y11621153D01*
X9016667Y11621153D02*
X8921429Y11668772D01*
X8921429Y11668772D02*
X8730953Y11716391D01*
X8730953Y11716391D02*
X8635715Y11764010D01*
X8635715Y11764010D02*
X8588096Y11811629D01*
X8588096Y11811629D02*
X8540477Y11906867D01*
X8540477Y11906867D02*
X8540477Y12002105D01*
X8540477Y12002105D02*
X8588096Y12097343D01*
X8588096Y12097343D02*
X8635715Y12144962D01*
X8635715Y12144962D02*
X8730953Y12192581D01*
X8730953Y12192581D02*
X8969048Y12192581D01*
X8969048Y12192581D02*
X9111905Y12144962D01*
X9540477Y11192581D02*
X9540477Y11859248D01*
X9540477Y12192581D02*
X9492858Y12144962D01*
X9492858Y12144962D02*
X9540477Y12097343D01*
X9540477Y12097343D02*
X9588096Y12144962D01*
X9588096Y12144962D02*
X9540477Y12192581D01*
X9540477Y12192581D02*
X9540477Y12097343D01*
X10016667Y11859248D02*
X10016667Y11192581D01*
X10016667Y11764010D02*
X10064286Y11811629D01*
X10064286Y11811629D02*
X10159524Y11859248D01*
X10159524Y11859248D02*
X10302381Y11859248D01*
X10302381Y11859248D02*
X10397619Y11811629D01*
X10397619Y11811629D02*
X10445238Y11716391D01*
X10445238Y11716391D02*
X10445238Y11192581D01*
X10921429Y11192581D02*
X10921429Y12192581D01*
X11016667Y11573534D02*
X11302381Y11192581D01*
X11302381Y11859248D02*
X10921429Y11478296D01*
D13*
X49761905Y3597412D02*
X49761905Y4597412D01*
X49761905Y4597412D02*
X50000000Y4597412D01*
X50000000Y4597412D02*
X50142857Y4549793D01*
X50142857Y4549793D02*
X50238095Y4454555D01*
X50238095Y4454555D02*
X50285714Y4359317D01*
X50285714Y4359317D02*
X50333333Y4168841D01*
X50333333Y4168841D02*
X50333333Y4025984D01*
X50333333Y4025984D02*
X50285714Y3835508D01*
X50285714Y3835508D02*
X50238095Y3740270D01*
X50238095Y3740270D02*
X50142857Y3645031D01*
X50142857Y3645031D02*
X50000000Y3597412D01*
X50000000Y3597412D02*
X49761905Y3597412D01*
X51285714Y3597412D02*
X50714286Y3597412D01*
X51000000Y3597412D02*
X51000000Y4597412D01*
X51000000Y4597412D02*
X50904762Y4454555D01*
X50904762Y4454555D02*
X50809524Y4359317D01*
X50809524Y4359317D02*
X50714286Y4311698D01*
D14*
%TO.C,REF\u002A\u002A*%
X37770000Y14530000D02*
X39150000Y14530000D01*
X37770000Y13150000D02*
X37770000Y14530000D01*
X37770000Y11880000D02*
X37770000Y9230000D01*
X37770000Y11880000D02*
X40420000Y11880000D01*
X37770000Y9230000D02*
X43070000Y9230000D01*
X40420000Y14530000D02*
X43070000Y14530000D01*
X40420000Y11880000D02*
X40420000Y14530000D01*
X43070000Y14530000D02*
X43070000Y9230000D01*
X41930000Y43580000D02*
X43310000Y43580000D01*
X41930000Y42200000D02*
X41930000Y43580000D01*
X41930000Y40930000D02*
X41930000Y17960000D01*
X41930000Y40930000D02*
X44580000Y40930000D01*
X41930000Y17960000D02*
X47230000Y17960000D01*
X44580000Y43580000D02*
X47230000Y43580000D01*
X44580000Y40930000D02*
X44580000Y43580000D01*
X47230000Y43580000D02*
X47230000Y17960000D01*
%TO.C,A1*%
X18610000Y46300000D02*
X18610000Y43630000D01*
X18610000Y41090000D02*
X18610000Y2860000D01*
X18610000Y2860000D02*
X23690000Y2860000D01*
X21280000Y43630000D02*
X18610000Y43630000D01*
X21280000Y41090000D02*
X18610000Y41090000D01*
X21280000Y41090000D02*
X21280000Y43630000D01*
X21280000Y41090000D02*
X21280000Y5530000D01*
X21280000Y5530000D02*
X18610000Y5530000D01*
X23690000Y10740000D02*
X31570000Y10740000D01*
X23690000Y320000D02*
X23690000Y10740000D01*
X31570000Y10740000D02*
X31570000Y320000D01*
X31570000Y320000D02*
X23690000Y320000D01*
X33980000Y43630000D02*
X33980000Y5530000D01*
X33980000Y43630000D02*
X36650000Y43630000D01*
X33980000Y5530000D02*
X36650000Y5530000D01*
X36650000Y46300000D02*
X18610000Y46300000D01*
X36650000Y2860000D02*
X31570000Y2860000D01*
X36650000Y2860000D02*
X36650000Y46300000D01*
%TO.C,J1*%
X-6490000Y62780000D02*
X-6490000Y37260000D01*
X-6490000Y62780000D02*
X2140000Y62780000D01*
X-6490000Y62660000D02*
X2140000Y62660000D01*
X-6490000Y62541905D02*
X2140000Y62541905D01*
X-6490000Y62423810D02*
X2140000Y62423810D01*
X-6490000Y62305715D02*
X2140000Y62305715D01*
X-6490000Y62187620D02*
X2140000Y62187620D01*
X-6490000Y62069525D02*
X2140000Y62069525D01*
X-6490000Y61951430D02*
X2140000Y61951430D01*
X-6490000Y61833335D02*
X2140000Y61833335D01*
X-6490000Y61715240D02*
X2140000Y61715240D01*
X-6490000Y61597145D02*
X2140000Y61597145D01*
X-6490000Y61479050D02*
X2140000Y61479050D01*
X-6490000Y61360955D02*
X2140000Y61360955D01*
X-6490000Y61242860D02*
X2140000Y61242860D01*
X-6490000Y61124765D02*
X2140000Y61124765D01*
X-6490000Y61006670D02*
X2140000Y61006670D01*
X-6490000Y60888575D02*
X2140000Y60888575D01*
X-6490000Y60770480D02*
X2140000Y60770480D01*
X-6490000Y60652385D02*
X2140000Y60652385D01*
X-6490000Y60534290D02*
X2140000Y60534290D01*
X-6490000Y60416195D02*
X2140000Y60416195D01*
X-6490000Y60298100D02*
X2140000Y60298100D01*
X-6490000Y60180000D02*
X2140000Y60180000D01*
X-6490000Y57640000D02*
X2140000Y57640000D01*
X-6490000Y55100000D02*
X2140000Y55100000D01*
X-6490000Y52560000D02*
X2140000Y52560000D01*
X-6490000Y50020000D02*
X2140000Y50020000D01*
X-6490000Y47480000D02*
X2140000Y47480000D01*
X-6490000Y44940000D02*
X2140000Y44940000D01*
X-6490000Y42400000D02*
X2140000Y42400000D01*
X-6490000Y39860000D02*
X2140000Y39860000D01*
X-6490000Y37260000D02*
X2140000Y37260000D01*
X2140000Y62780000D02*
X2140000Y37260000D01*
X2140000Y61810000D02*
X2490000Y61810000D01*
X2140000Y61090000D02*
X2490000Y61090000D01*
X2140000Y59270000D02*
X2550000Y59270000D01*
X2140000Y58550000D02*
X2550000Y58550000D01*
X2140000Y56730000D02*
X2550000Y56730000D01*
X2140000Y56010000D02*
X2550000Y56010000D01*
X2140000Y54190000D02*
X2550000Y54190000D01*
X2140000Y53470000D02*
X2550000Y53470000D01*
X2140000Y51650000D02*
X2550000Y51650000D01*
X2140000Y50930000D02*
X2550000Y50930000D01*
X2140000Y49110000D02*
X2550000Y49110000D01*
X2140000Y48390000D02*
X2550000Y48390000D01*
X2140000Y46570000D02*
X2550000Y46570000D01*
X2140000Y45850000D02*
X2550000Y45850000D01*
X2140000Y44030000D02*
X2550000Y44030000D01*
X2140000Y43310000D02*
X2550000Y43310000D01*
X2140000Y41490000D02*
X2550000Y41490000D01*
X2140000Y40770000D02*
X2550000Y40770000D01*
X2140000Y38950000D02*
X2550000Y38950000D01*
X2140000Y38230000D02*
X2550000Y38230000D01*
X3600000Y62780000D02*
X4710000Y62780000D01*
X4710000Y62780000D02*
X4710000Y61450000D01*
D15*
%TO.C,Logo1*%
X5182872Y70600977D02*
X5286471Y70598382D01*
X5375632Y70594246D01*
X5443928Y70588563D01*
X5484934Y70581331D01*
X5493326Y70576971D01*
X5501792Y70552698D01*
X5515565Y70497426D01*
X5533450Y70416662D01*
X5554252Y70315912D01*
X5576777Y70200683D01*
X5588582Y70137902D01*
X5610849Y70018787D01*
X5631021Y69912565D01*
X5648085Y69824427D01*
X5661031Y69759566D01*
X5668845Y69723174D01*
X5670578Y69717184D01*
X5690110Y69707061D01*
X5737157Y69685662D01*
X5804997Y69655839D01*
X5886909Y69620445D01*
X5976172Y69582332D01*
X6066065Y69544353D01*
X6149865Y69509360D01*
X6220853Y69480206D01*
X6272306Y69459743D01*
X6297503Y69450823D01*
X6298604Y69450657D01*
X6318481Y69460769D01*
X6364223Y69489117D01*
X6431283Y69532723D01*
X6515116Y69588606D01*
X6611174Y69653787D01*
X6666350Y69691679D01*
X6767519Y69760725D01*
X6859370Y69822050D01*
X6937256Y69872663D01*
X6996531Y69909571D01*
X7032549Y69929782D01*
X7040623Y69932701D01*
X7059416Y69920153D01*
X7099543Y69885463D01*
X7156507Y69833063D01*
X7225815Y69767384D01*
X7302969Y69692856D01*
X7383475Y69613913D01*
X7462837Y69534983D01*
X7536560Y69460500D01*
X7600148Y69394894D01*
X7649106Y69342596D01*
X7678939Y69308039D01*
X7686058Y69296478D01*
X7676047Y69277654D01*
X7647922Y69232631D01*
X7604546Y69165787D01*
X7548782Y69081499D01*
X7483494Y68984144D01*
X7433754Y68910707D01*
X7181449Y68539667D01*
X7436445Y67921095D01*
X7881069Y67837275D01*
X8325693Y67753454D01*
X8325693Y66828006D01*
X7881069Y66744186D01*
X7436445Y66660365D01*
X7308947Y66351080D01*
X7181449Y66041794D01*
X7433754Y65670754D01*
X7504004Y65566843D01*
X7566728Y65472913D01*
X7619062Y65393348D01*
X7658143Y65332530D01*
X7681107Y65294843D01*
X7686058Y65284579D01*
X7673324Y65266090D01*
X7638118Y65226580D01*
X7584938Y65170478D01*
X7518282Y65102213D01*
X7442646Y65026214D01*
X7362528Y64946908D01*
X7282426Y64868725D01*
X7206836Y64796093D01*
X7140255Y64733441D01*
X7087182Y64685197D01*
X7052113Y64655790D01*
X7040377Y64648759D01*
X7018740Y64658877D01*
X6971338Y64687241D01*
X6902807Y64730871D01*
X6817785Y64786782D01*
X6720907Y64851994D01*
X6665650Y64889781D01*
X6564752Y64958657D01*
X6473701Y65019860D01*
X6397030Y65070422D01*
X6339272Y65107372D01*
X6304957Y65127742D01*
X6297746Y65130803D01*
X6277252Y65123864D01*
X6229487Y65104949D01*
X6161168Y65076913D01*
X6079011Y65042609D01*
X5989730Y65004891D01*
X5900042Y64966613D01*
X5816662Y64930630D01*
X5746306Y64899794D01*
X5695690Y64876961D01*
X5671529Y64864983D01*
X5670578Y64864276D01*
X5665964Y64845469D01*
X5655672Y64795382D01*
X5640713Y64719207D01*
X5622099Y64622135D01*
X5600841Y64509357D01*
X5588582Y64443558D01*
X5565638Y64323050D01*
X5543805Y64214203D01*
X5524278Y64122524D01*
X5508252Y64053519D01*
X5496921Y64012696D01*
X5493326Y64004489D01*
X5468994Y63996452D01*
X5414041Y63989967D01*
X5334892Y63985030D01*
X5237974Y63981636D01*
X5129713Y63979782D01*
X5016535Y63979462D01*
X4904865Y63980673D01*
X4801132Y63983410D01*
X4711759Y63987669D01*
X4643174Y63993445D01*
X4601803Y64000733D01*
X4593190Y64005105D01*
X4582867Y64031236D01*
X4568108Y64086607D01*
X4550648Y64163893D01*
X4532220Y64255770D01*
X4526259Y64287842D01*
X4497934Y64442476D01*
X4475124Y64564625D01*
X4456920Y64658327D01*
X4442417Y64727616D01*
X4430708Y64776529D01*
X4420885Y64809103D01*
X4412044Y64829372D01*
X4403276Y64841374D01*
X4401543Y64843053D01*
X4373629Y64859816D01*
X4319305Y64885386D01*
X4245223Y64917212D01*
X4158035Y64952740D01*
X4064392Y64989417D01*
X3970948Y65024689D01*
X3884353Y65056004D01*
X3811260Y65080807D01*
X3758322Y65096546D01*
X3732189Y65100668D01*
X3731274Y65100324D01*
X3709914Y65086359D01*
X3662916Y65054678D01*
X3595173Y65008609D01*
X3511577Y64951482D01*
X3417018Y64886627D01*
X3390146Y64868157D01*
X3292725Y64802301D01*
X3203837Y64744350D01*
X3128588Y64697462D01*
X3072080Y64664793D01*
X3039419Y64649500D01*
X3035407Y64648759D01*
X3014316Y64661608D01*
X2972536Y64697112D01*
X2914555Y64750707D01*
X2844865Y64817829D01*
X2767955Y64893913D01*
X2688317Y64974396D01*
X2610439Y65054713D01*
X2538814Y65130301D01*
X2477930Y65196595D01*
X2432279Y65249031D01*
X2406350Y65283045D01*
X2402117Y65292455D01*
X2412088Y65314357D01*
X2438980Y65359200D01*
X2478264Y65419679D01*
X2509883Y65466211D01*
X2567902Y65550525D01*
X2636216Y65650374D01*
X2704421Y65750527D01*
X2740925Y65804373D01*
X2864200Y65986629D01*
X2781480Y66139619D01*
X2745241Y66209318D01*
X2717074Y66268586D01*
X2701009Y66308689D01*
X2698774Y66318897D01*
X2715278Y66331171D01*
X2761918Y66355387D01*
X2834391Y66389737D01*
X2928394Y66432412D01*
X3039626Y66481606D01*
X3163785Y66535510D01*
X3296568Y66592316D01*
X3433673Y66650218D01*
X3570798Y66707407D01*
X3703642Y66762076D01*
X3827902Y66812416D01*
X3939275Y66856620D01*
X4033461Y66892881D01*
X4106156Y66919391D01*
X4153059Y66934342D01*
X4169167Y66936746D01*
X4189714Y66917689D01*
X4223067Y66875964D01*
X4262298Y66820294D01*
X4265401Y66815622D01*
X4380577Y66671736D01*
X4514947Y66555717D01*
X4664216Y66468570D01*
X4824087Y66411301D01*
X4990263Y66384914D01*
X5158448Y66390415D01*
X5324345Y66428810D01*
X5483658Y66501105D01*
X5518513Y66522374D01*
X5659263Y66633004D01*
X5772286Y66763698D01*
X5856997Y66909936D01*
X5912806Y67067192D01*
X5939126Y67230943D01*
X5935370Y67396667D01*
X5900950Y67559838D01*
X5835277Y67715935D01*
X5737765Y67860433D01*
X5698187Y67905131D01*
X5574297Y68018888D01*
X5443876Y68101782D01*
X5297685Y68158644D01*
X5152912Y68190313D01*
X4990140Y68198131D01*
X4826560Y68172062D01*
X4667702Y68114755D01*
X4519094Y68028856D01*
X4386265Y67917014D01*
X4274744Y67781877D01*
X4262989Y67764117D01*
X4224492Y67707850D01*
X4191137Y67665077D01*
X4169840Y67644628D01*
X4169167Y67644331D01*
X4146129Y67648721D01*
X4093843Y67666124D01*
X4016610Y67694732D01*
X3918732Y67732735D01*
X3804509Y67778326D01*
X3678242Y67829697D01*
X3544233Y67885038D01*
X3406782Y67942542D01*
X3270192Y68000399D01*
X3138763Y68056802D01*
X3016795Y68109942D01*
X2908591Y68158010D01*
X2818451Y68199199D01*
X2750677Y68231699D01*
X2709570Y68253703D01*
X2698774Y68262564D01*
X2707181Y68289640D01*
X2729728Y68340303D01*
X2762387Y68405817D01*
X2781480Y68441841D01*
X2864200Y68594832D01*
X2740925Y68777088D01*
X2677772Y68870125D01*
X2608273Y68971985D01*
X2542835Y69067438D01*
X2509883Y69115250D01*
X2464727Y69182495D01*
X2428943Y69239436D01*
X2407062Y69278646D01*
X2402437Y69291381D01*
X2414915Y69309917D01*
X2449748Y69350941D01*
X2503322Y69410475D01*
X2572017Y69484542D01*
X2652219Y69569165D01*
X2703714Y69622685D01*
X2795714Y69716319D01*
X2878001Y69797241D01*
X2947055Y69862177D01*
X2999356Y69907858D01*
X3031384Y69931011D01*
X3037884Y69933232D01*
X3062606Y69922924D01*
X3112595Y69894439D01*
X3182788Y69850937D01*
X3268125Y69795577D01*
X3363544Y69731520D01*
X3390146Y69713303D01*
X3486833Y69646927D01*
X3573883Y69587378D01*
X3646405Y69537984D01*
X3699507Y69502075D01*
X3728297Y69482981D01*
X3731274Y69481136D01*
X3754218Y69483895D01*
X3804664Y69498538D01*
X3875959Y69522513D01*
X3961453Y69553266D01*
X4054493Y69588244D01*
X4148426Y69624893D01*
X4236601Y69660661D01*
X4312366Y69692994D01*
X4369069Y69719338D01*
X4400057Y69737142D01*
X4401543Y69738407D01*
X4410399Y69749294D01*
X4419157Y69767682D01*
X4428723Y69797606D01*
X4440004Y69843103D01*
X4453907Y69908209D01*
X4471337Y69996961D01*
X4493202Y70113393D01*
X4520409Y70261542D01*
X4526259Y70293618D01*
X4544626Y70388686D01*
X4562595Y70471565D01*
X4578431Y70534930D01*
X4590400Y70571458D01*
X4593190Y70576356D01*
X4617928Y70584427D01*
X4673210Y70590987D01*
X4752611Y70596033D01*
X4849704Y70599559D01*
X4958062Y70601561D01*
X5071260Y70602036D01*
X5182872Y70600977D01*
G36*
X5182872Y70600977D02*
G01*
X5286471Y70598382D01*
X5375632Y70594246D01*
X5443928Y70588563D01*
X5484934Y70581331D01*
X5493326Y70576971D01*
X5501792Y70552698D01*
X5515565Y70497426D01*
X5533450Y70416662D01*
X5554252Y70315912D01*
X5576777Y70200683D01*
X5588582Y70137902D01*
X5610849Y70018787D01*
X5631021Y69912565D01*
X5648085Y69824427D01*
X5661031Y69759566D01*
X5668845Y69723174D01*
X5670578Y69717184D01*
X5690110Y69707061D01*
X5737157Y69685662D01*
X5804997Y69655839D01*
X5886909Y69620445D01*
X5976172Y69582332D01*
X6066065Y69544353D01*
X6149865Y69509360D01*
X6220853Y69480206D01*
X6272306Y69459743D01*
X6297503Y69450823D01*
X6298604Y69450657D01*
X6318481Y69460769D01*
X6364223Y69489117D01*
X6431283Y69532723D01*
X6515116Y69588606D01*
X6611174Y69653787D01*
X6666350Y69691679D01*
X6767519Y69760725D01*
X6859370Y69822050D01*
X6937256Y69872663D01*
X6996531Y69909571D01*
X7032549Y69929782D01*
X7040623Y69932701D01*
X7059416Y69920153D01*
X7099543Y69885463D01*
X7156507Y69833063D01*
X7225815Y69767384D01*
X7302969Y69692856D01*
X7383475Y69613913D01*
X7462837Y69534983D01*
X7536560Y69460500D01*
X7600148Y69394894D01*
X7649106Y69342596D01*
X7678939Y69308039D01*
X7686058Y69296478D01*
X7676047Y69277654D01*
X7647922Y69232631D01*
X7604546Y69165787D01*
X7548782Y69081499D01*
X7483494Y68984144D01*
X7433754Y68910707D01*
X7181449Y68539667D01*
X7436445Y67921095D01*
X7881069Y67837275D01*
X8325693Y67753454D01*
X8325693Y66828006D01*
X7881069Y66744186D01*
X7436445Y66660365D01*
X7308947Y66351080D01*
X7181449Y66041794D01*
X7433754Y65670754D01*
X7504004Y65566843D01*
X7566728Y65472913D01*
X7619062Y65393348D01*
X7658143Y65332530D01*
X7681107Y65294843D01*
X7686058Y65284579D01*
X7673324Y65266090D01*
X7638118Y65226580D01*
X7584938Y65170478D01*
X7518282Y65102213D01*
X7442646Y65026214D01*
X7362528Y64946908D01*
X7282426Y64868725D01*
X7206836Y64796093D01*
X7140255Y64733441D01*
X7087182Y64685197D01*
X7052113Y64655790D01*
X7040377Y64648759D01*
X7018740Y64658877D01*
X6971338Y64687241D01*
X6902807Y64730871D01*
X6817785Y64786782D01*
X6720907Y64851994D01*
X6665650Y64889781D01*
X6564752Y64958657D01*
X6473701Y65019860D01*
X6397030Y65070422D01*
X6339272Y65107372D01*
X6304957Y65127742D01*
X6297746Y65130803D01*
X6277252Y65123864D01*
X6229487Y65104949D01*
X6161168Y65076913D01*
X6079011Y65042609D01*
X5989730Y65004891D01*
X5900042Y64966613D01*
X5816662Y64930630D01*
X5746306Y64899794D01*
X5695690Y64876961D01*
X5671529Y64864983D01*
X5670578Y64864276D01*
X5665964Y64845469D01*
X5655672Y64795382D01*
X5640713Y64719207D01*
X5622099Y64622135D01*
X5600841Y64509357D01*
X5588582Y64443558D01*
X5565638Y64323050D01*
X5543805Y64214203D01*
X5524278Y64122524D01*
X5508252Y64053519D01*
X5496921Y64012696D01*
X5493326Y64004489D01*
X5468994Y63996452D01*
X5414041Y63989967D01*
X5334892Y63985030D01*
X5237974Y63981636D01*
X5129713Y63979782D01*
X5016535Y63979462D01*
X4904865Y63980673D01*
X4801132Y63983410D01*
X4711759Y63987669D01*
X4643174Y63993445D01*
X4601803Y64000733D01*
X4593190Y64005105D01*
X4582867Y64031236D01*
X4568108Y64086607D01*
X4550648Y64163893D01*
X4532220Y64255770D01*
X4526259Y64287842D01*
X4497934Y64442476D01*
X4475124Y64564625D01*
X4456920Y64658327D01*
X4442417Y64727616D01*
X4430708Y64776529D01*
X4420885Y64809103D01*
X4412044Y64829372D01*
X4403276Y64841374D01*
X4401543Y64843053D01*
X4373629Y64859816D01*
X4319305Y64885386D01*
X4245223Y64917212D01*
X4158035Y64952740D01*
X4064392Y64989417D01*
X3970948Y65024689D01*
X3884353Y65056004D01*
X3811260Y65080807D01*
X3758322Y65096546D01*
X3732189Y65100668D01*
X3731274Y65100324D01*
X3709914Y65086359D01*
X3662916Y65054678D01*
X3595173Y65008609D01*
X3511577Y64951482D01*
X3417018Y64886627D01*
X3390146Y64868157D01*
X3292725Y64802301D01*
X3203837Y64744350D01*
X3128588Y64697462D01*
X3072080Y64664793D01*
X3039419Y64649500D01*
X3035407Y64648759D01*
X3014316Y64661608D01*
X2972536Y64697112D01*
X2914555Y64750707D01*
X2844865Y64817829D01*
X2767955Y64893913D01*
X2688317Y64974396D01*
X2610439Y65054713D01*
X2538814Y65130301D01*
X2477930Y65196595D01*
X2432279Y65249031D01*
X2406350Y65283045D01*
X2402117Y65292455D01*
X2412088Y65314357D01*
X2438980Y65359200D01*
X2478264Y65419679D01*
X2509883Y65466211D01*
X2567902Y65550525D01*
X2636216Y65650374D01*
X2704421Y65750527D01*
X2740925Y65804373D01*
X2864200Y65986629D01*
X2781480Y66139619D01*
X2745241Y66209318D01*
X2717074Y66268586D01*
X2701009Y66308689D01*
X2698774Y66318897D01*
X2715278Y66331171D01*
X2761918Y66355387D01*
X2834391Y66389737D01*
X2928394Y66432412D01*
X3039626Y66481606D01*
X3163785Y66535510D01*
X3296568Y66592316D01*
X3433673Y66650218D01*
X3570798Y66707407D01*
X3703642Y66762076D01*
X3827902Y66812416D01*
X3939275Y66856620D01*
X4033461Y66892881D01*
X4106156Y66919391D01*
X4153059Y66934342D01*
X4169167Y66936746D01*
X4189714Y66917689D01*
X4223067Y66875964D01*
X4262298Y66820294D01*
X4265401Y66815622D01*
X4380577Y66671736D01*
X4514947Y66555717D01*
X4664216Y66468570D01*
X4824087Y66411301D01*
X4990263Y66384914D01*
X5158448Y66390415D01*
X5324345Y66428810D01*
X5483658Y66501105D01*
X5518513Y66522374D01*
X5659263Y66633004D01*
X5772286Y66763698D01*
X5856997Y66909936D01*
X5912806Y67067192D01*
X5939126Y67230943D01*
X5935370Y67396667D01*
X5900950Y67559838D01*
X5835277Y67715935D01*
X5737765Y67860433D01*
X5698187Y67905131D01*
X5574297Y68018888D01*
X5443876Y68101782D01*
X5297685Y68158644D01*
X5152912Y68190313D01*
X4990140Y68198131D01*
X4826560Y68172062D01*
X4667702Y68114755D01*
X4519094Y68028856D01*
X4386265Y67917014D01*
X4274744Y67781877D01*
X4262989Y67764117D01*
X4224492Y67707850D01*
X4191137Y67665077D01*
X4169840Y67644628D01*
X4169167Y67644331D01*
X4146129Y67648721D01*
X4093843Y67666124D01*
X4016610Y67694732D01*
X3918732Y67732735D01*
X3804509Y67778326D01*
X3678242Y67829697D01*
X3544233Y67885038D01*
X3406782Y67942542D01*
X3270192Y68000399D01*
X3138763Y68056802D01*
X3016795Y68109942D01*
X2908591Y68158010D01*
X2818451Y68199199D01*
X2750677Y68231699D01*
X2709570Y68253703D01*
X2698774Y68262564D01*
X2707181Y68289640D01*
X2729728Y68340303D01*
X2762387Y68405817D01*
X2781480Y68441841D01*
X2864200Y68594832D01*
X2740925Y68777088D01*
X2677772Y68870125D01*
X2608273Y68971985D01*
X2542835Y69067438D01*
X2509883Y69115250D01*
X2464727Y69182495D01*
X2428943Y69239436D01*
X2407062Y69278646D01*
X2402437Y69291381D01*
X2414915Y69309917D01*
X2449748Y69350941D01*
X2503322Y69410475D01*
X2572017Y69484542D01*
X2652219Y69569165D01*
X2703714Y69622685D01*
X2795714Y69716319D01*
X2878001Y69797241D01*
X2947055Y69862177D01*
X2999356Y69907858D01*
X3031384Y69931011D01*
X3037884Y69933232D01*
X3062606Y69922924D01*
X3112595Y69894439D01*
X3182788Y69850937D01*
X3268125Y69795577D01*
X3363544Y69731520D01*
X3390146Y69713303D01*
X3486833Y69646927D01*
X3573883Y69587378D01*
X3646405Y69537984D01*
X3699507Y69502075D01*
X3728297Y69482981D01*
X3731274Y69481136D01*
X3754218Y69483895D01*
X3804664Y69498538D01*
X3875959Y69522513D01*
X3961453Y69553266D01*
X4054493Y69588244D01*
X4148426Y69624893D01*
X4236601Y69660661D01*
X4312366Y69692994D01*
X4369069Y69719338D01*
X4400057Y69737142D01*
X4401543Y69738407D01*
X4410399Y69749294D01*
X4419157Y69767682D01*
X4428723Y69797606D01*
X4440004Y69843103D01*
X4453907Y69908209D01*
X4471337Y69996961D01*
X4493202Y70113393D01*
X4520409Y70261542D01*
X4526259Y70293618D01*
X4544626Y70388686D01*
X4562595Y70471565D01*
X4578431Y70534930D01*
X4590400Y70571458D01*
X4593190Y70576356D01*
X4617928Y70584427D01*
X4673210Y70590987D01*
X4752611Y70596033D01*
X4849704Y70599559D01*
X4958062Y70601561D01*
X5071260Y70602036D01*
X5182872Y70600977D01*
G37*
D16*
%TO.C,*%
X35029000Y56376000D02*
X39601000Y56376000D01*
X35029000Y55360000D02*
X33251000Y55360000D01*
X35029000Y55360000D02*
X35029000Y56376000D01*
X35029000Y54344000D02*
X35029000Y55360000D01*
X39601000Y56376000D02*
X39601000Y55868000D01*
X39601000Y55868000D02*
X40109000Y55868000D01*
X39601000Y55106000D02*
X39601000Y54344000D01*
X39601000Y54344000D02*
X35029000Y54344000D01*
X40109000Y56376000D02*
X44681000Y56376000D01*
X40109000Y55868000D02*
X40109000Y56376000D01*
X40109000Y55106000D02*
X39601000Y55106000D01*
X40109000Y54344000D02*
X40109000Y55106000D01*
X44681000Y56376000D02*
X44681000Y55360000D01*
X44681000Y55360000D02*
X44681000Y54344000D01*
X44681000Y54344000D02*
X40109000Y54344000D01*
X46459000Y55360000D02*
X44681000Y55360000D01*
X35029000Y58916000D02*
X39601000Y58916000D01*
X35029000Y57900000D02*
X33251000Y57900000D01*
X35029000Y57900000D02*
X35029000Y58916000D01*
X35029000Y56884000D02*
X35029000Y57900000D01*
X39601000Y58916000D02*
X39601000Y58408000D01*
X39601000Y58408000D02*
X40109000Y58408000D01*
X39601000Y57646000D02*
X39601000Y56884000D01*
X39601000Y56884000D02*
X35029000Y56884000D01*
X40109000Y58916000D02*
X44681000Y58916000D01*
X40109000Y58408000D02*
X40109000Y58916000D01*
X40109000Y57646000D02*
X39601000Y57646000D01*
X40109000Y56884000D02*
X40109000Y57646000D01*
X44681000Y58916000D02*
X44681000Y57900000D01*
X44681000Y57900000D02*
X44681000Y56884000D01*
X44681000Y56884000D02*
X40109000Y56884000D01*
X46459000Y57900000D02*
X44681000Y57900000D01*
D14*
%TO.C,REF\u002A\u002A*%
X37595000Y46430000D02*
X38925000Y46430000D01*
X37595000Y45100000D02*
X37595000Y46430000D01*
X37595000Y43830000D02*
X37595000Y38690000D01*
X37595000Y43830000D02*
X40255000Y43830000D01*
X37595000Y38690000D02*
X40255000Y38690000D01*
X40255000Y43830000D02*
X40255000Y38690000D01*
X37645000Y33320000D02*
X38975000Y33320000D01*
X37645000Y31990000D02*
X37645000Y33320000D01*
X37645000Y30720000D02*
X37645000Y17960000D01*
X37645000Y30720000D02*
X40305000Y30720000D01*
X37645000Y17960000D02*
X40305000Y17960000D01*
X40305000Y30720000D02*
X40305000Y17960000D01*
D17*
%TO.C,D1*%
X48000000Y6667231D02*
X53000000Y6667231D01*
X48000000Y6467231D02*
X48000000Y6667231D01*
X48000000Y3167231D02*
X48000000Y4867231D01*
X48000000Y1667231D02*
X48000000Y1467231D01*
X48000000Y1467231D02*
X53000000Y1467231D01*
X53000000Y6667231D02*
X53000000Y6467231D01*
X53000000Y4967231D02*
X53000000Y3967231D01*
X53000000Y3967231D02*
X50400000Y1467231D01*
X53000000Y3967231D02*
X53000000Y3167231D01*
X53000000Y1467231D02*
X53000000Y1667231D01*
D12*
X53408182Y1107769D02*
G75*
G02*
X53208182Y1107769I-100000J0D01*
G01*
X53208182Y1107769D02*
G75*
G02*
X53408182Y1107769I100000J0D01*
G01*
D14*
%TO.C,REF\u002A\u002A*%
X27435000Y47370000D02*
X27435000Y48700000D01*
X28765000Y47370000D02*
X27435000Y47370000D01*
X30035000Y50030000D02*
X40255000Y50030000D01*
X30035000Y47370000D02*
X30035000Y50030000D01*
X30035000Y47370000D02*
X40255000Y47370000D01*
X40255000Y47370000D02*
X40255000Y50030000D01*
D13*
%TO.C,*%
X11375383Y52003397D02*
X11728937Y51649843D01*
X11728937Y51649843D02*
X13779547Y53700453D01*
X13425993Y54054007D02*
X11375383Y52003397D01*
X13779547Y53700453D02*
X13425993Y54054007D01*
X11758225Y51367001D02*
G75*
G02*
X11558227Y51367001I-99999J0D01*
G01*
X11558227Y51367001D02*
G75*
G02*
X11758225Y51367001I99999J0D01*
G01*
X18391547Y52007843D02*
X18745101Y51654289D01*
X18745101Y51654289D02*
X20795711Y53704899D01*
X20442157Y54058453D02*
X18391547Y52007843D01*
X20795711Y53704899D02*
X20442157Y54058453D01*
X18774389Y51371447D02*
G75*
G02*
X18574391Y51371447I-99999J0D01*
G01*
X18574391Y51371447D02*
G75*
G02*
X18774389Y51371447I99999J0D01*
G01*
D16*
X53429000Y58856000D02*
X58001000Y58856000D01*
X53429000Y57840000D02*
X51651000Y57840000D01*
X53429000Y57840000D02*
X53429000Y58856000D01*
X53429000Y56824000D02*
X53429000Y57840000D01*
X58001000Y58856000D02*
X58001000Y58348000D01*
X58001000Y58348000D02*
X58509000Y58348000D01*
X58001000Y57586000D02*
X58001000Y56824000D01*
X58001000Y56824000D02*
X53429000Y56824000D01*
X58509000Y58856000D02*
X63081000Y58856000D01*
X58509000Y58348000D02*
X58509000Y58856000D01*
X58509000Y57586000D02*
X58001000Y57586000D01*
X58509000Y56824000D02*
X58509000Y57586000D01*
X63081000Y58856000D02*
X63081000Y57840000D01*
X63081000Y57840000D02*
X63081000Y56824000D01*
X63081000Y56824000D02*
X58509000Y56824000D01*
X64859000Y57840000D02*
X63081000Y57840000D01*
X35029000Y53836000D02*
X39601000Y53836000D01*
X35029000Y52820000D02*
X33251000Y52820000D01*
X35029000Y52820000D02*
X35029000Y53836000D01*
X35029000Y51804000D02*
X35029000Y52820000D01*
X39601000Y53836000D02*
X39601000Y53328000D01*
X39601000Y53328000D02*
X40109000Y53328000D01*
X39601000Y52566000D02*
X39601000Y51804000D01*
X39601000Y51804000D02*
X35029000Y51804000D01*
X40109000Y53836000D02*
X44681000Y53836000D01*
X40109000Y53328000D02*
X40109000Y53836000D01*
X40109000Y52566000D02*
X39601000Y52566000D01*
X40109000Y51804000D02*
X40109000Y52566000D01*
X44681000Y53836000D02*
X44681000Y52820000D01*
X44681000Y52820000D02*
X44681000Y51804000D01*
X44681000Y51804000D02*
X40109000Y51804000D01*
X46459000Y52820000D02*
X44681000Y52820000D01*
X53429000Y56316000D02*
X58001000Y56316000D01*
X53429000Y55300000D02*
X51651000Y55300000D01*
X53429000Y55300000D02*
X53429000Y56316000D01*
X53429000Y54284000D02*
X53429000Y55300000D01*
X58001000Y56316000D02*
X58001000Y55808000D01*
X58001000Y55808000D02*
X58509000Y55808000D01*
X58001000Y55046000D02*
X58001000Y54284000D01*
X58001000Y54284000D02*
X53429000Y54284000D01*
X58509000Y56316000D02*
X63081000Y56316000D01*
X58509000Y55808000D02*
X58509000Y56316000D01*
X58509000Y55046000D02*
X58001000Y55046000D01*
X58509000Y54284000D02*
X58509000Y55046000D01*
X63081000Y56316000D02*
X63081000Y55300000D01*
X63081000Y55300000D02*
X63081000Y54284000D01*
X63081000Y54284000D02*
X58509000Y54284000D01*
X64859000Y55300000D02*
X63081000Y55300000D01*
%TD*%
D18*
%TO.C,*%
X16990000Y88210000D03*
D19*
X19530000Y88210000D03*
X44930000Y88210000D03*
D18*
X47470000Y88210000D03*
%TD*%
%TO.C,*%
X16990000Y78050000D03*
D19*
X19530000Y78050000D03*
X44930000Y78050000D03*
D18*
X47470000Y78050000D03*
%TD*%
D20*
%TO.C,*%
X18050000Y95630000D03*
X20590000Y95630000D03*
X20590000Y93090000D03*
X18050000Y93090000D03*
X15510000Y93090000D03*
X15510000Y95630000D03*
X15510000Y98170000D03*
X18050000Y98170000D03*
X20590000Y98170000D03*
X23130000Y98170000D03*
X23130000Y95630000D03*
X23130000Y93090000D03*
X23130000Y90550000D03*
X20590000Y90550000D03*
X18050000Y90550000D03*
X15510000Y90550000D03*
%TD*%
D18*
%TO.C,*%
X16990000Y60270000D03*
D19*
X19530000Y60270000D03*
X44930000Y60270000D03*
D18*
X47470000Y60270000D03*
%TD*%
D20*
%TO.C,*%
X53185000Y85670000D03*
X55725000Y85670000D03*
X55725000Y83130000D03*
X53185000Y83130000D03*
X50645000Y83130000D03*
X50645000Y85670000D03*
X50645000Y88210000D03*
X53185000Y88210000D03*
X55725000Y88210000D03*
X58265000Y88210000D03*
X58265000Y85670000D03*
X58265000Y83130000D03*
X58265000Y80590000D03*
X55725000Y80590000D03*
X53185000Y80590000D03*
X50645000Y80590000D03*
%TD*%
D18*
%TO.C,*%
X47475000Y55360000D03*
X32235000Y55360000D03*
%TD*%
%TO.C,*%
X47475000Y57900000D03*
X32235000Y57900000D03*
%TD*%
D21*
%TO.C,*%
X64665000Y49280000D03*
X64665000Y46740000D03*
X64665000Y44200000D03*
X64665000Y41660000D03*
D22*
X64665000Y21340000D03*
X64665000Y18800000D03*
X64665000Y16260000D03*
X64665000Y13720000D03*
%TD*%
D20*
%TO.C,*%
X9370000Y85670000D03*
X11910000Y85670000D03*
X11910000Y83130000D03*
X9370000Y83130000D03*
X6830000Y83130000D03*
X6830000Y85670000D03*
X6830000Y88210000D03*
X9370000Y88210000D03*
X11910000Y88210000D03*
X14450000Y88210000D03*
X14450000Y85670000D03*
X14450000Y83130000D03*
X14450000Y80590000D03*
X11910000Y80590000D03*
X9370000Y80590000D03*
X6830000Y80590000D03*
%TD*%
D21*
%TO.C,*%
X54505000Y49280000D03*
X54505000Y46740000D03*
X54505000Y44200000D03*
X54505000Y41660000D03*
D22*
X54505000Y21340000D03*
X54505000Y18800000D03*
X54505000Y16260000D03*
X54505000Y13720000D03*
%TD*%
D18*
%TO.C,*%
X16990000Y72970000D03*
D19*
X19530000Y72970000D03*
X44930000Y72970000D03*
D18*
X47470000Y72970000D03*
%TD*%
D21*
%TO.C,*%
X59585000Y49280000D03*
X59585000Y46740000D03*
X59585000Y44200000D03*
X59585000Y41660000D03*
D22*
X59585000Y21340000D03*
X59585000Y18800000D03*
X59585000Y16260000D03*
X59585000Y13720000D03*
%TD*%
D18*
%TO.C,*%
X16990000Y80590000D03*
D19*
X19530000Y80590000D03*
X44930000Y80590000D03*
D18*
X47470000Y80590000D03*
%TD*%
D20*
%TO.C,*%
X63345000Y85670000D03*
X65885000Y85670000D03*
X65885000Y83130000D03*
X63345000Y83130000D03*
X60805000Y83130000D03*
X60805000Y85670000D03*
X60805000Y88210000D03*
X63345000Y88210000D03*
X65885000Y88210000D03*
X68425000Y88210000D03*
X68425000Y85670000D03*
X68425000Y83130000D03*
X68425000Y80590000D03*
X65885000Y80590000D03*
X63345000Y80590000D03*
X60805000Y80590000D03*
%TD*%
D21*
%TO.C,*%
X49425000Y49280000D03*
X49425000Y46740000D03*
X49425000Y44200000D03*
X49425000Y41660000D03*
D22*
X49425000Y21340000D03*
X49425000Y18800000D03*
X49425000Y16260000D03*
X49425000Y13720000D03*
%TD*%
D21*
%TO.C,*%
X62125000Y49280000D03*
X62125000Y46740000D03*
X62125000Y44200000D03*
X62125000Y41660000D03*
D22*
X62125000Y21340000D03*
X62125000Y18800000D03*
X62125000Y16260000D03*
X62125000Y13720000D03*
%TD*%
D20*
%TO.C,*%
X63345000Y75510000D03*
X65885000Y75510000D03*
X65885000Y72970000D03*
X63345000Y72970000D03*
X60805000Y72970000D03*
X60805000Y75510000D03*
X60805000Y78050000D03*
X63345000Y78050000D03*
X65885000Y78050000D03*
X68425000Y78050000D03*
X68425000Y75510000D03*
X68425000Y72970000D03*
X68425000Y70430000D03*
X65885000Y70430000D03*
X63345000Y70430000D03*
X60805000Y70430000D03*
%TD*%
%TO.C,*%
X63345000Y65350000D03*
X65885000Y65350000D03*
X65885000Y62810000D03*
X63345000Y62810000D03*
X60805000Y62810000D03*
X60805000Y65350000D03*
X60805000Y67890000D03*
X63345000Y67890000D03*
X65885000Y67890000D03*
X68425000Y67890000D03*
X68425000Y65350000D03*
X68425000Y62810000D03*
X68425000Y60270000D03*
X65885000Y60270000D03*
X63345000Y60270000D03*
X60805000Y60270000D03*
%TD*%
%TO.C,*%
X53185000Y75510000D03*
X55725000Y75510000D03*
X55725000Y72970000D03*
X53185000Y72970000D03*
X50645000Y72970000D03*
X50645000Y75510000D03*
X50645000Y78050000D03*
X53185000Y78050000D03*
X55725000Y78050000D03*
X58265000Y78050000D03*
X58265000Y75510000D03*
X58265000Y72970000D03*
X58265000Y70430000D03*
X55725000Y70430000D03*
X53185000Y70430000D03*
X50645000Y70430000D03*
%TD*%
D23*
%TO.C,*%
X14373516Y48361797D03*
X17516606Y47912784D03*
X17067593Y51055874D03*
X10781414Y57342053D03*
X7638324Y57791066D03*
X8087337Y54647976D03*
%TD*%
D21*
%TO.C,*%
X57045000Y49280000D03*
X57045000Y46740000D03*
X57045000Y44200000D03*
X57045000Y41660000D03*
D22*
X57045000Y21340000D03*
X57045000Y18800000D03*
X57045000Y16260000D03*
X57045000Y13720000D03*
%TD*%
D20*
%TO.C,*%
X48530000Y95630000D03*
X51070000Y95630000D03*
X51070000Y93090000D03*
X48530000Y93090000D03*
X45990000Y93090000D03*
X45990000Y95630000D03*
X45990000Y98170000D03*
X48530000Y98170000D03*
X51070000Y98170000D03*
X53610000Y98170000D03*
X53610000Y95630000D03*
X53610000Y93090000D03*
X53610000Y90550000D03*
X51070000Y90550000D03*
X48530000Y90550000D03*
X45990000Y90550000D03*
%TD*%
D23*
%TO.C,*%
X21389680Y48366243D03*
X24532770Y47917230D03*
X24083757Y51060320D03*
X17797578Y57346499D03*
X14654488Y57795512D03*
X15103501Y54652422D03*
%TD*%
D21*
%TO.C,*%
X67205000Y49280000D03*
X67205000Y46740000D03*
X67205000Y44200000D03*
X67205000Y41660000D03*
D22*
X67205000Y21340000D03*
X67205000Y18800000D03*
X67205000Y16260000D03*
X67205000Y13720000D03*
%TD*%
D18*
%TO.C,*%
X16990000Y85670000D03*
D19*
X19530000Y85670000D03*
X44930000Y85670000D03*
D18*
X47470000Y85670000D03*
%TD*%
D20*
%TO.C,*%
X9370000Y65350000D03*
X11910000Y65350000D03*
X11910000Y62810000D03*
X9370000Y62810000D03*
X6830000Y62810000D03*
X6830000Y65350000D03*
X6830000Y67890000D03*
X9370000Y67890000D03*
X11910000Y67890000D03*
X14450000Y67890000D03*
X14450000Y65350000D03*
X14450000Y62810000D03*
X14450000Y60270000D03*
X11910000Y60270000D03*
X9370000Y60270000D03*
X6830000Y60270000D03*
%TD*%
D18*
%TO.C,*%
X16990000Y83130000D03*
D19*
X19530000Y83130000D03*
X44930000Y83130000D03*
D18*
X47470000Y83130000D03*
%TD*%
%TO.C,*%
X16990000Y62810000D03*
D19*
X19530000Y62810000D03*
X44930000Y62810000D03*
D18*
X47470000Y62810000D03*
%TD*%
D20*
%TO.C,*%
X38370000Y95630000D03*
X40910000Y95630000D03*
X40910000Y93090000D03*
X38370000Y93090000D03*
X35830000Y93090000D03*
X35830000Y95630000D03*
X35830000Y98170000D03*
X38370000Y98170000D03*
X40910000Y98170000D03*
X43450000Y98170000D03*
X43450000Y95630000D03*
X43450000Y93090000D03*
X43450000Y90550000D03*
X40910000Y90550000D03*
X38370000Y90550000D03*
X35830000Y90550000D03*
%TD*%
%TO.C,*%
X28210000Y95630000D03*
X30750000Y95630000D03*
X30750000Y93090000D03*
X28210000Y93090000D03*
X25670000Y93090000D03*
X25670000Y95630000D03*
X25670000Y98170000D03*
X28210000Y98170000D03*
X30750000Y98170000D03*
X33290000Y98170000D03*
X33290000Y95630000D03*
X33290000Y93090000D03*
X33290000Y90550000D03*
X30750000Y90550000D03*
X28210000Y90550000D03*
X25670000Y90550000D03*
%TD*%
D18*
%TO.C,*%
X65875000Y57840000D03*
X50635000Y57840000D03*
%TD*%
D20*
%TO.C,*%
X9370000Y75510000D03*
X11910000Y75510000D03*
X11910000Y72970000D03*
X9370000Y72970000D03*
X6830000Y72970000D03*
X6830000Y75510000D03*
X6830000Y78050000D03*
X9370000Y78050000D03*
X11910000Y78050000D03*
X14450000Y78050000D03*
X14450000Y75510000D03*
X14450000Y72970000D03*
X14450000Y70430000D03*
X11910000Y70430000D03*
X9370000Y70430000D03*
X6830000Y70430000D03*
%TD*%
D18*
%TO.C,*%
X47475000Y52820000D03*
X32235000Y52820000D03*
%TD*%
D20*
%TO.C,*%
X53185000Y65350000D03*
X55725000Y65350000D03*
X55725000Y62810000D03*
X53185000Y62810000D03*
X50645000Y62810000D03*
X50645000Y65350000D03*
X50645000Y67890000D03*
X53185000Y67890000D03*
X55725000Y67890000D03*
X58265000Y67890000D03*
X58265000Y65350000D03*
X58265000Y62810000D03*
X58265000Y60270000D03*
X55725000Y60270000D03*
X53185000Y60270000D03*
X50645000Y60270000D03*
%TD*%
D18*
%TO.C,*%
X16990000Y70430000D03*
D19*
X19530000Y70430000D03*
X44930000Y70430000D03*
D18*
X47470000Y70430000D03*
%TD*%
%TO.C,*%
X16990000Y67890000D03*
D19*
X19530000Y67890000D03*
X44930000Y67890000D03*
D18*
X47470000Y67890000D03*
%TD*%
%TO.C,*%
X16990000Y65350000D03*
D19*
X19530000Y65350000D03*
X44930000Y65350000D03*
D18*
X47470000Y65350000D03*
%TD*%
D21*
%TO.C,*%
X51965000Y49280000D03*
X51965000Y46740000D03*
X51965000Y44200000D03*
X51965000Y41660000D03*
D22*
X51965000Y21340000D03*
X51965000Y18800000D03*
X51965000Y16260000D03*
X51965000Y13720000D03*
%TD*%
D18*
%TO.C,*%
X16990000Y75510000D03*
D19*
X19530000Y75510000D03*
X44930000Y75510000D03*
D18*
X47470000Y75510000D03*
%TD*%
%TO.C,*%
X65875000Y55300000D03*
X50635000Y55300000D03*
%TD*%
%LPC*%
D24*
%TO.C,REF\u002A\u002A*%
X39150000Y13150000D03*
D25*
X41690000Y13150000D03*
X39150000Y10610000D03*
X41690000Y10610000D03*
%TD*%
D24*
%TO.C,REF\u002A\u002A*%
X43310000Y42200000D03*
D25*
X45850000Y42200000D03*
X43310000Y39660000D03*
X45850000Y39660000D03*
X43310000Y37120000D03*
X45850000Y37120000D03*
X43310000Y34580000D03*
X45850000Y34580000D03*
X43310000Y32040000D03*
X45850000Y32040000D03*
X43310000Y29500000D03*
X45850000Y29500000D03*
X43310000Y26960000D03*
X45850000Y26960000D03*
X43310000Y24420000D03*
X45850000Y24420000D03*
X43310000Y21880000D03*
X45850000Y21880000D03*
X43310000Y19340000D03*
X45850000Y19340000D03*
%TD*%
D26*
%TO.C,H1*%
X5000000Y95000000D03*
%TD*%
%TO.C,H3*%
X65000000Y95000000D03*
%TD*%
%TO.C,H2*%
X5000000Y5000000D03*
%TD*%
%TO.C,H4*%
X65000000Y5000000D03*
%TD*%
D27*
%TO.C,A1*%
X20010000Y42360000D03*
D28*
X20010000Y39820000D03*
X20010000Y34740000D03*
X20010000Y32200000D03*
X20010000Y29660000D03*
X20010000Y27120000D03*
X20010000Y24580000D03*
X20010000Y22040000D03*
X20010000Y19500000D03*
X20010000Y16960000D03*
X20010000Y14420000D03*
X20010000Y11880000D03*
X20010000Y9340000D03*
X20010000Y6800000D03*
X35250000Y6800000D03*
X35250000Y9340000D03*
X35250000Y11880000D03*
X35250000Y14420000D03*
X35250000Y16960000D03*
X35250000Y19500000D03*
X35250000Y22040000D03*
X35250000Y24580000D03*
X35250000Y27120000D03*
X35250000Y29660000D03*
X35250000Y32200000D03*
X35250000Y34740000D03*
X35250000Y37280000D03*
X35250000Y39820000D03*
X35250000Y42360000D03*
%TD*%
D24*
%TO.C,J1*%
X3600000Y61450000D03*
D29*
X3600000Y58910000D03*
X3600000Y56370000D03*
X3600000Y53830000D03*
X3600000Y51290000D03*
X3600000Y48750000D03*
X3600000Y46210000D03*
X3600000Y43670000D03*
X3600000Y41130000D03*
X3600000Y38590000D03*
%TD*%
D27*
%TO.C,*%
X16990000Y88210000D03*
D30*
X25880000Y88845000D03*
D31*
X19530000Y88210000D03*
D30*
X25880000Y87575000D03*
X38580000Y87575000D03*
D31*
X44930000Y88210000D03*
D30*
X38580000Y88845000D03*
D27*
X47470000Y88210000D03*
%TD*%
D32*
%TO.C,HS1*%
X9200000Y18350000D03*
%TD*%
D27*
%TO.C,*%
X16990000Y78050000D03*
D30*
X25880000Y78685000D03*
D31*
X19530000Y78050000D03*
D30*
X25880000Y77415000D03*
X38580000Y77415000D03*
D31*
X44930000Y78050000D03*
D30*
X38580000Y78685000D03*
D27*
X47470000Y78050000D03*
%TD*%
D24*
%TO.C,*%
X18050000Y95630000D03*
X20590000Y95630000D03*
X20590000Y93090000D03*
X18050000Y93090000D03*
X15510000Y93090000D03*
X15510000Y95630000D03*
X15510000Y98170000D03*
X18050000Y98170000D03*
X20590000Y98170000D03*
X23130000Y98170000D03*
X23130000Y95630000D03*
X23130000Y93090000D03*
X23130000Y90550000D03*
X20590000Y90550000D03*
X18050000Y90550000D03*
X15510000Y90550000D03*
%TD*%
D27*
%TO.C,*%
X16990000Y60270000D03*
D30*
X25880000Y60905000D03*
D31*
X19530000Y60270000D03*
D30*
X25880000Y59635000D03*
X38580000Y59635000D03*
D31*
X44930000Y60270000D03*
D30*
X38580000Y60905000D03*
D27*
X47470000Y60270000D03*
%TD*%
D24*
%TO.C,*%
X53185000Y85670000D03*
X55725000Y85670000D03*
X55725000Y83130000D03*
X53185000Y83130000D03*
X50645000Y83130000D03*
X50645000Y85670000D03*
X50645000Y88210000D03*
X53185000Y88210000D03*
X55725000Y88210000D03*
X58265000Y88210000D03*
X58265000Y85670000D03*
X58265000Y83130000D03*
X58265000Y80590000D03*
X55725000Y80590000D03*
X53185000Y80590000D03*
X50645000Y80590000D03*
%TD*%
D33*
%TO.C,*%
X47475000Y55360000D03*
X43665000Y55360000D03*
X36045000Y55360000D03*
X32235000Y55360000D03*
X41125000Y55360000D03*
X38585000Y55360000D03*
%TD*%
%TO.C,*%
X47475000Y57900000D03*
X43665000Y57900000D03*
X36045000Y57900000D03*
X32235000Y57900000D03*
X41125000Y57900000D03*
X38585000Y57900000D03*
%TD*%
D34*
%TO.C,*%
X64665000Y49280000D03*
D35*
X65640000Y36000000D03*
D34*
X64665000Y46740000D03*
D35*
X64990000Y36000000D03*
D34*
X64665000Y44200000D03*
D35*
X64340000Y36000000D03*
D34*
X64665000Y41660000D03*
D35*
X63690000Y36000000D03*
X63690000Y27000000D03*
D36*
X64665000Y21340000D03*
D35*
X64340000Y27000000D03*
D36*
X64665000Y18800000D03*
D35*
X64990000Y27000000D03*
D36*
X64665000Y16260000D03*
D35*
X65640000Y27000000D03*
D36*
X64665000Y13720000D03*
%TD*%
D24*
%TO.C,*%
X9370000Y85670000D03*
X11910000Y85670000D03*
X11910000Y83130000D03*
X9370000Y83130000D03*
X6830000Y83130000D03*
X6830000Y85670000D03*
X6830000Y88210000D03*
X9370000Y88210000D03*
X11910000Y88210000D03*
X14450000Y88210000D03*
X14450000Y85670000D03*
X14450000Y83130000D03*
X14450000Y80590000D03*
X11910000Y80590000D03*
X9370000Y80590000D03*
X6830000Y80590000D03*
%TD*%
%TO.C,REF\u002A\u002A*%
X38925000Y45100000D03*
D29*
X38925000Y42560000D03*
X38925000Y40020000D03*
%TD*%
D34*
%TO.C,*%
X54505000Y49280000D03*
D35*
X55480000Y36000000D03*
D34*
X54505000Y46740000D03*
D35*
X54830000Y36000000D03*
D34*
X54505000Y44200000D03*
D35*
X54180000Y36000000D03*
D34*
X54505000Y41660000D03*
D35*
X53530000Y36000000D03*
X53530000Y27000000D03*
D36*
X54505000Y21340000D03*
D35*
X54180000Y27000000D03*
D36*
X54505000Y18800000D03*
D35*
X54830000Y27000000D03*
D36*
X54505000Y16260000D03*
D35*
X55480000Y27000000D03*
D36*
X54505000Y13720000D03*
%TD*%
D27*
%TO.C,*%
X16990000Y72970000D03*
D30*
X25880000Y73605000D03*
D31*
X19530000Y72970000D03*
D30*
X25880000Y72335000D03*
X38580000Y72335000D03*
D31*
X44930000Y72970000D03*
D30*
X38580000Y73605000D03*
D27*
X47470000Y72970000D03*
%TD*%
D34*
%TO.C,*%
X59585000Y49280000D03*
D35*
X60560000Y36000000D03*
D34*
X59585000Y46740000D03*
D35*
X59910000Y36000000D03*
D34*
X59585000Y44200000D03*
D35*
X59260000Y36000000D03*
D34*
X59585000Y41660000D03*
D35*
X58610000Y36000000D03*
X58610000Y27000000D03*
D36*
X59585000Y21340000D03*
D35*
X59260000Y27000000D03*
D36*
X59585000Y18800000D03*
D35*
X59910000Y27000000D03*
D36*
X59585000Y16260000D03*
D35*
X60560000Y27000000D03*
D36*
X59585000Y13720000D03*
%TD*%
D27*
%TO.C,*%
X16990000Y80590000D03*
D30*
X25880000Y81225000D03*
D31*
X19530000Y80590000D03*
D30*
X25880000Y79955000D03*
X38580000Y79955000D03*
D31*
X44930000Y80590000D03*
D30*
X38580000Y81225000D03*
D27*
X47470000Y80590000D03*
%TD*%
D24*
%TO.C,*%
X63345000Y85670000D03*
X65885000Y85670000D03*
X65885000Y83130000D03*
X63345000Y83130000D03*
X60805000Y83130000D03*
X60805000Y85670000D03*
X60805000Y88210000D03*
X63345000Y88210000D03*
X65885000Y88210000D03*
X68425000Y88210000D03*
X68425000Y85670000D03*
X68425000Y83130000D03*
X68425000Y80590000D03*
X65885000Y80590000D03*
X63345000Y80590000D03*
X60805000Y80590000D03*
%TD*%
D34*
%TO.C,*%
X49425000Y49280000D03*
D35*
X50400000Y36000000D03*
D34*
X49425000Y46740000D03*
D35*
X49750000Y36000000D03*
D34*
X49425000Y44200000D03*
D35*
X49100000Y36000000D03*
D34*
X49425000Y41660000D03*
D35*
X48450000Y36000000D03*
X48450000Y27000000D03*
D36*
X49425000Y21340000D03*
D35*
X49100000Y27000000D03*
D36*
X49425000Y18800000D03*
D35*
X49750000Y27000000D03*
D36*
X49425000Y16260000D03*
D35*
X50400000Y27000000D03*
D36*
X49425000Y13720000D03*
%TD*%
D24*
%TO.C,REF\u002A\u002A*%
X38975000Y31990000D03*
D29*
X38975000Y29450000D03*
X38975000Y26910000D03*
X38975000Y24370000D03*
X38975000Y21830000D03*
X38975000Y19290000D03*
%TD*%
D34*
%TO.C,*%
X62125000Y49280000D03*
D35*
X63100000Y36000000D03*
D34*
X62125000Y46740000D03*
D35*
X62450000Y36000000D03*
D34*
X62125000Y44200000D03*
D35*
X61800000Y36000000D03*
D34*
X62125000Y41660000D03*
D35*
X61150000Y36000000D03*
X61150000Y27000000D03*
D36*
X62125000Y21340000D03*
D35*
X61800000Y27000000D03*
D36*
X62125000Y18800000D03*
D35*
X62450000Y27000000D03*
D36*
X62125000Y16260000D03*
D35*
X63100000Y27000000D03*
D36*
X62125000Y13720000D03*
%TD*%
D24*
%TO.C,*%
X63345000Y75510000D03*
X65885000Y75510000D03*
X65885000Y72970000D03*
X63345000Y72970000D03*
X60805000Y72970000D03*
X60805000Y75510000D03*
X60805000Y78050000D03*
X63345000Y78050000D03*
X65885000Y78050000D03*
X68425000Y78050000D03*
X68425000Y75510000D03*
X68425000Y72970000D03*
X68425000Y70430000D03*
X65885000Y70430000D03*
X63345000Y70430000D03*
X60805000Y70430000D03*
%TD*%
D37*
%TO.C,D1*%
X47923000Y5667231D03*
X47923000Y2467231D03*
X53077000Y2467231D03*
X53077000Y5667231D03*
%TD*%
D24*
%TO.C,*%
X63345000Y65350000D03*
X65885000Y65350000D03*
X65885000Y62810000D03*
X63345000Y62810000D03*
X60805000Y62810000D03*
X60805000Y65350000D03*
X60805000Y67890000D03*
X63345000Y67890000D03*
X65885000Y67890000D03*
X68425000Y67890000D03*
X68425000Y65350000D03*
X68425000Y62810000D03*
X68425000Y60270000D03*
X65885000Y60270000D03*
X63345000Y60270000D03*
X60805000Y60270000D03*
%TD*%
%TO.C,*%
X53185000Y75510000D03*
X55725000Y75510000D03*
X55725000Y72970000D03*
X53185000Y72970000D03*
X50645000Y72970000D03*
X50645000Y75510000D03*
X50645000Y78050000D03*
X53185000Y78050000D03*
X55725000Y78050000D03*
X58265000Y78050000D03*
X58265000Y75510000D03*
X58265000Y72970000D03*
X58265000Y70430000D03*
X55725000Y70430000D03*
X53185000Y70430000D03*
X50645000Y70430000D03*
%TD*%
D38*
%TO.C,REF\u002A\u002A*%
X28765000Y48700000D03*
D29*
X31305000Y48700000D03*
X33845000Y48700000D03*
X36385000Y48700000D03*
X38925000Y48700000D03*
%TD*%
D39*
%TO.C,*%
X14373516Y48361797D03*
D40*
X13037084Y51048803D03*
D39*
X17516606Y47912784D03*
D40*
X13708836Y51720554D03*
D39*
X17067593Y51055874D03*
D40*
X14380587Y52392306D03*
X12117846Y54655047D03*
D39*
X10781414Y57342053D03*
D40*
X11446094Y53983296D03*
D39*
X7638324Y57791066D03*
D40*
X10774343Y53311544D03*
D39*
X8087337Y54647976D03*
%TD*%
D34*
%TO.C,*%
X57045000Y49280000D03*
D35*
X58020000Y36000000D03*
D34*
X57045000Y46740000D03*
D35*
X57370000Y36000000D03*
D34*
X57045000Y44200000D03*
D35*
X56720000Y36000000D03*
D34*
X57045000Y41660000D03*
D35*
X56070000Y36000000D03*
X56070000Y27000000D03*
D36*
X57045000Y21340000D03*
D35*
X56720000Y27000000D03*
D36*
X57045000Y18800000D03*
D35*
X57370000Y27000000D03*
D36*
X57045000Y16260000D03*
D35*
X58020000Y27000000D03*
D36*
X57045000Y13720000D03*
%TD*%
D24*
%TO.C,*%
X48530000Y95630000D03*
X51070000Y95630000D03*
X51070000Y93090000D03*
X48530000Y93090000D03*
X45990000Y93090000D03*
X45990000Y95630000D03*
X45990000Y98170000D03*
X48530000Y98170000D03*
X51070000Y98170000D03*
X53610000Y98170000D03*
X53610000Y95630000D03*
X53610000Y93090000D03*
X53610000Y90550000D03*
X51070000Y90550000D03*
X48530000Y90550000D03*
X45990000Y90550000D03*
%TD*%
D39*
%TO.C,*%
X21389680Y48366243D03*
D40*
X20053248Y51053249D03*
D39*
X24532770Y47917230D03*
D40*
X20725000Y51725000D03*
D39*
X24083757Y51060320D03*
D40*
X21396751Y52396752D03*
X19134010Y54659493D03*
D39*
X17797578Y57346499D03*
D40*
X18462258Y53987742D03*
D39*
X14654488Y57795512D03*
D40*
X17790507Y53315990D03*
D39*
X15103501Y54652422D03*
%TD*%
D34*
%TO.C,*%
X67205000Y49280000D03*
D35*
X68180000Y36000000D03*
D34*
X67205000Y46740000D03*
D35*
X67530000Y36000000D03*
D34*
X67205000Y44200000D03*
D35*
X66880000Y36000000D03*
D34*
X67205000Y41660000D03*
D35*
X66230000Y36000000D03*
X66230000Y27000000D03*
D36*
X67205000Y21340000D03*
D35*
X66880000Y27000000D03*
D36*
X67205000Y18800000D03*
D35*
X67530000Y27000000D03*
D36*
X67205000Y16260000D03*
D35*
X68180000Y27000000D03*
D36*
X67205000Y13720000D03*
%TD*%
D27*
%TO.C,*%
X16990000Y85670000D03*
D30*
X25880000Y86305000D03*
D31*
X19530000Y85670000D03*
D30*
X25880000Y85035000D03*
X38580000Y85035000D03*
D31*
X44930000Y85670000D03*
D30*
X38580000Y86305000D03*
D27*
X47470000Y85670000D03*
%TD*%
D24*
%TO.C,*%
X9370000Y65350000D03*
X11910000Y65350000D03*
X11910000Y62810000D03*
X9370000Y62810000D03*
X6830000Y62810000D03*
X6830000Y65350000D03*
X6830000Y67890000D03*
X9370000Y67890000D03*
X11910000Y67890000D03*
X14450000Y67890000D03*
X14450000Y65350000D03*
X14450000Y62810000D03*
X14450000Y60270000D03*
X11910000Y60270000D03*
X9370000Y60270000D03*
X6830000Y60270000D03*
%TD*%
D27*
%TO.C,*%
X16990000Y83130000D03*
D30*
X25880000Y83765000D03*
D31*
X19530000Y83130000D03*
D30*
X25880000Y82495000D03*
X38580000Y82495000D03*
D31*
X44930000Y83130000D03*
D30*
X38580000Y83765000D03*
D27*
X47470000Y83130000D03*
%TD*%
%TO.C,*%
X16990000Y62810000D03*
D30*
X25880000Y63445000D03*
D31*
X19530000Y62810000D03*
D30*
X25880000Y62175000D03*
X38580000Y62175000D03*
D31*
X44930000Y62810000D03*
D30*
X38580000Y63445000D03*
D27*
X47470000Y62810000D03*
%TD*%
D24*
%TO.C,*%
X38370000Y95630000D03*
X40910000Y95630000D03*
X40910000Y93090000D03*
X38370000Y93090000D03*
X35830000Y93090000D03*
X35830000Y95630000D03*
X35830000Y98170000D03*
X38370000Y98170000D03*
X40910000Y98170000D03*
X43450000Y98170000D03*
X43450000Y95630000D03*
X43450000Y93090000D03*
X43450000Y90550000D03*
X40910000Y90550000D03*
X38370000Y90550000D03*
X35830000Y90550000D03*
%TD*%
%TO.C,*%
X28210000Y95630000D03*
X30750000Y95630000D03*
X30750000Y93090000D03*
X28210000Y93090000D03*
X25670000Y93090000D03*
X25670000Y95630000D03*
X25670000Y98170000D03*
X28210000Y98170000D03*
X30750000Y98170000D03*
X33290000Y98170000D03*
X33290000Y95630000D03*
X33290000Y93090000D03*
X33290000Y90550000D03*
X30750000Y90550000D03*
X28210000Y90550000D03*
X25670000Y90550000D03*
%TD*%
D33*
%TO.C,*%
X65875000Y57840000D03*
X62065000Y57840000D03*
X54445000Y57840000D03*
X50635000Y57840000D03*
X59525000Y57840000D03*
X56985000Y57840000D03*
%TD*%
D24*
%TO.C,*%
X9370000Y75510000D03*
X11910000Y75510000D03*
X11910000Y72970000D03*
X9370000Y72970000D03*
X6830000Y72970000D03*
X6830000Y75510000D03*
X6830000Y78050000D03*
X9370000Y78050000D03*
X11910000Y78050000D03*
X14450000Y78050000D03*
X14450000Y75510000D03*
X14450000Y72970000D03*
X14450000Y70430000D03*
X11910000Y70430000D03*
X9370000Y70430000D03*
X6830000Y70430000D03*
%TD*%
D33*
%TO.C,*%
X47475000Y52820000D03*
X43665000Y52820000D03*
X36045000Y52820000D03*
X32235000Y52820000D03*
X41125000Y52820000D03*
X38585000Y52820000D03*
%TD*%
D24*
%TO.C,*%
X53185000Y65350000D03*
X55725000Y65350000D03*
X55725000Y62810000D03*
X53185000Y62810000D03*
X50645000Y62810000D03*
X50645000Y65350000D03*
X50645000Y67890000D03*
X53185000Y67890000D03*
X55725000Y67890000D03*
X58265000Y67890000D03*
X58265000Y65350000D03*
X58265000Y62810000D03*
X58265000Y60270000D03*
X55725000Y60270000D03*
X53185000Y60270000D03*
X50645000Y60270000D03*
%TD*%
D27*
%TO.C,*%
X16990000Y70430000D03*
D30*
X25880000Y71065000D03*
D31*
X19530000Y70430000D03*
D30*
X25880000Y69795000D03*
X38580000Y69795000D03*
D31*
X44930000Y70430000D03*
D30*
X38580000Y71065000D03*
D27*
X47470000Y70430000D03*
%TD*%
%TO.C,*%
X16990000Y67890000D03*
D30*
X25880000Y68525000D03*
D31*
X19530000Y67890000D03*
D30*
X25880000Y67255000D03*
X38580000Y67255000D03*
D31*
X44930000Y67890000D03*
D30*
X38580000Y68525000D03*
D27*
X47470000Y67890000D03*
%TD*%
%TO.C,*%
X16990000Y65350000D03*
D30*
X25880000Y65985000D03*
D31*
X19530000Y65350000D03*
D30*
X25880000Y64715000D03*
X38580000Y64715000D03*
D31*
X44930000Y65350000D03*
D30*
X38580000Y65985000D03*
D27*
X47470000Y65350000D03*
%TD*%
D34*
%TO.C,*%
X51965000Y49280000D03*
D35*
X52940000Y36000000D03*
D34*
X51965000Y46740000D03*
D35*
X52290000Y36000000D03*
D34*
X51965000Y44200000D03*
D35*
X51640000Y36000000D03*
D34*
X51965000Y41660000D03*
D35*
X50990000Y36000000D03*
X50990000Y27000000D03*
D36*
X51965000Y21340000D03*
D35*
X51640000Y27000000D03*
D36*
X51965000Y18800000D03*
D35*
X52290000Y27000000D03*
D36*
X51965000Y16260000D03*
D35*
X52940000Y27000000D03*
D36*
X51965000Y13720000D03*
%TD*%
D27*
%TO.C,*%
X16990000Y75510000D03*
D30*
X25880000Y76145000D03*
D31*
X19530000Y75510000D03*
D30*
X25880000Y74875000D03*
X38580000Y74875000D03*
D31*
X44930000Y75510000D03*
D30*
X38580000Y76145000D03*
D27*
X47470000Y75510000D03*
%TD*%
D33*
%TO.C,*%
X65875000Y55300000D03*
X62065000Y55300000D03*
X54445000Y55300000D03*
X50635000Y55300000D03*
X59525000Y55300000D03*
X56985000Y55300000D03*
%TD*%
%LPD*%
M02*
