%TF.GenerationSoftware,KiCad,Pcbnew,9.0.1*%
%TF.CreationDate,2025-05-07T10:28:01-04:00*%
%TF.ProjectId,BREAD_Slice_smtProto,42524541-445f-4536-9c69-63655f736d74,rev?*%
%TF.SameCoordinates,PX74eba40PY8552dc0*%
%TF.FileFunction,Copper,L1,Top*%
%TF.FilePolarity,Positive*%
%FSLAX46Y46*%
G04 Gerber Fmt 4.6, Leading zero omitted, Abs format (unit mm)*
G04 Created by KiCad (PCBNEW 9.0.1) date 2025-05-07 10:28:01*
%MOMM*%
%LPD*%
G01*
G04 APERTURE LIST*
G04 Aperture macros list*
%AMRoundRect*
0 Rectangle with rounded corners*
0 $1 Rounding radius*
0 $2 $3 $4 $5 $6 $7 $8 $9 X,Y pos of 4 corners*
0 Add a 4 corners polygon primitive as box body*
4,1,4,$2,$3,$4,$5,$6,$7,$8,$9,$2,$3,0*
0 Add four circle primitives for the rounded corners*
1,1,$1+$1,$2,$3*
1,1,$1+$1,$4,$5*
1,1,$1+$1,$6,$7*
1,1,$1+$1,$8,$9*
0 Add four rect primitives between the rounded corners*
20,1,$1+$1,$2,$3,$4,$5,0*
20,1,$1+$1,$4,$5,$6,$7,0*
20,1,$1+$1,$6,$7,$8,$9,0*
20,1,$1+$1,$8,$9,$2,$3,0*%
%AMRotRect*
0 Rectangle, with rotation*
0 The origin of the aperture is its center*
0 $1 length*
0 $2 width*
0 $3 Rotation angle, in degrees counterclockwise*
0 Add horizontal line*
21,1,$1,$2,0,0,$3*%
G04 Aperture macros list end*
%TA.AperFunction,ComponentPad*%
%ADD10R,1.700000X1.700000*%
%TD*%
%TA.AperFunction,ComponentPad*%
%ADD11C,1.700000*%
%TD*%
%TA.AperFunction,ComponentPad*%
%ADD12R,1.600000X1.600000*%
%TD*%
%TA.AperFunction,ComponentPad*%
%ADD13O,1.600000X1.600000*%
%TD*%
%TA.AperFunction,ComponentPad*%
%ADD14O,1.700000X1.700000*%
%TD*%
%TA.AperFunction,SMDPad,CuDef*%
%ADD15R,8.890000X0.650000*%
%TD*%
%TA.AperFunction,ComponentPad*%
%ADD16O,1.900000X1.400000*%
%TD*%
%TA.AperFunction,SMDPad,CuDef*%
%ADD17RoundRect,1.000000X-5.000000X-5.000000X5.000000X-5.000000X5.000000X5.000000X-5.000000X5.000000X0*%
%TD*%
%TA.AperFunction,SMDPad,CuDef*%
%ADD18R,1.600000X1.600000*%
%TD*%
%TA.AperFunction,ComponentPad*%
%ADD19O,1.300000X1.900000*%
%TD*%
%TA.AperFunction,SMDPad,CuDef*%
%ADD20R,0.350000X6.000000*%
%TD*%
%TA.AperFunction,ComponentPad*%
%ADD21O,1.400000X1.700000*%
%TD*%
%TA.AperFunction,SMDPad,CuDef*%
%ADD22R,1.651000X1.000000*%
%TD*%
%TA.AperFunction,ComponentPad*%
%ADD23C,2.060000*%
%TD*%
%TA.AperFunction,SMDPad,CuDef*%
%ADD24RotRect,2.500000X0.550000X135.000000*%
%TD*%
%TA.AperFunction,ViaPad*%
%ADD25C,0.800000*%
%TD*%
%TA.AperFunction,ViaPad*%
%ADD26C,0.500000*%
%TD*%
%TA.AperFunction,ViaPad*%
%ADD27C,0.600000*%
%TD*%
%TA.AperFunction,ViaPad*%
%ADD28C,1.600000*%
%TD*%
%TA.AperFunction,Conductor*%
%ADD29C,0.500000*%
%TD*%
%TA.AperFunction,Conductor*%
%ADD30C,1.500000*%
%TD*%
%TA.AperFunction,Conductor*%
%ADD31C,1.000000*%
%TD*%
%TA.AperFunction,Conductor*%
%ADD32C,0.254000*%
%TD*%
%TA.AperFunction,Conductor*%
%ADD33C,0.203200*%
%TD*%
%TA.AperFunction,Conductor*%
%ADD34C,1.016000*%
%TD*%
%TA.AperFunction,Conductor*%
%ADD35C,0.355600*%
%TD*%
%TA.AperFunction,Conductor*%
%ADD36C,0.508000*%
%TD*%
%TA.AperFunction,Conductor*%
%ADD37C,0.400000*%
%TD*%
G04 APERTURE END LIST*
D10*
%TO.P,REF\u002A\u002A,1*%
%TO.N,+3.3V*%
X39150000Y13150000D03*
D11*
%TO.P,REF\u002A\u002A,2*%
%TO.N,GND*%
X41690000Y13150000D03*
%TO.P,REF\u002A\u002A,3*%
%TO.N,+3.3V*%
X39150000Y10610000D03*
%TO.P,REF\u002A\u002A,4*%
%TO.N,GND*%
X41690000Y10610000D03*
%TD*%
D10*
%TO.P,REF\u002A\u002A,1*%
%TO.N,+5V*%
X43310000Y42200000D03*
D11*
%TO.P,REF\u002A\u002A,2*%
%TO.N,GND*%
X45850000Y42200000D03*
%TO.P,REF\u002A\u002A,3*%
%TO.N,+5V*%
X43310000Y39660000D03*
%TO.P,REF\u002A\u002A,4*%
%TO.N,GND*%
X45850000Y39660000D03*
%TO.P,REF\u002A\u002A,5*%
%TO.N,+5V*%
X43310000Y37120000D03*
%TO.P,REF\u002A\u002A,6*%
%TO.N,GND*%
X45850000Y37120000D03*
%TO.P,REF\u002A\u002A,7*%
%TO.N,+5V*%
X43310000Y34580000D03*
%TO.P,REF\u002A\u002A,8*%
%TO.N,GND*%
X45850000Y34580000D03*
%TO.P,REF\u002A\u002A,9*%
%TO.N,+5V*%
X43310000Y32040000D03*
%TO.P,REF\u002A\u002A,10*%
%TO.N,GND*%
X45850000Y32040000D03*
%TO.P,REF\u002A\u002A,11*%
%TO.N,+5V*%
X43310000Y29500000D03*
%TO.P,REF\u002A\u002A,12*%
%TO.N,GND*%
X45850000Y29500000D03*
%TO.P,REF\u002A\u002A,13*%
%TO.N,+5V*%
X43310000Y26960000D03*
%TO.P,REF\u002A\u002A,14*%
%TO.N,GND*%
X45850000Y26960000D03*
%TO.P,REF\u002A\u002A,15*%
%TO.N,+5V*%
X43310000Y24420000D03*
%TO.P,REF\u002A\u002A,16*%
%TO.N,GND*%
X45850000Y24420000D03*
%TO.P,REF\u002A\u002A,17*%
%TO.N,+5V*%
X43310000Y21880000D03*
%TO.P,REF\u002A\u002A,18*%
%TO.N,GND*%
X45850000Y21880000D03*
%TO.P,REF\u002A\u002A,19*%
%TO.N,+5V*%
X43310000Y19340000D03*
%TO.P,REF\u002A\u002A,20*%
%TO.N,GND*%
X45850000Y19340000D03*
%TD*%
D12*
%TO.P,A1,1,D1/TX*%
%TO.N,unconnected-(A1-D1{slash}TX-Pad1)*%
X20010000Y42360000D03*
D13*
%TO.P,A1,2,D0/RX*%
%TO.N,unconnected-(A1-D0{slash}RX-Pad2)*%
X20010000Y39820000D03*
%TO.P,A1,4,GND*%
%TO.N,GND*%
X20010000Y34740000D03*
%TO.P,A1,5,D2*%
%TO.N,/E_STOP*%
X20010000Y32200000D03*
%TO.P,A1,6,D3*%
%TO.N,/INT*%
X20010000Y29660000D03*
%TO.P,A1,7,D4*%
%TO.N,/SYNC*%
X20010000Y27120000D03*
%TO.P,A1,8,D5*%
%TO.N,/LED*%
X20010000Y24580000D03*
%TO.P,A1,9,D6*%
%TO.N,/D6*%
X20010000Y22040000D03*
%TO.P,A1,10,D7*%
%TO.N,/D7*%
X20010000Y19500000D03*
%TO.P,A1,11,D8*%
%TO.N,/D8*%
X20010000Y16960000D03*
%TO.P,A1,12,D9*%
%TO.N,/D9*%
X20010000Y14420000D03*
%TO.P,A1,13,D10*%
%TO.N,/D10*%
X20010000Y11880000D03*
%TO.P,A1,14,D11*%
%TO.N,/D11*%
X20010000Y9340000D03*
%TO.P,A1,15,D12*%
%TO.N,/D12*%
X20010000Y6800000D03*
%TO.P,A1,16,D13*%
%TO.N,/D13*%
X35250000Y6800000D03*
%TO.P,A1,17,3V3*%
%TO.N,+3.3V*%
X35250000Y9340000D03*
%TO.P,A1,18,AREF*%
%TO.N,/AREF*%
X35250000Y11880000D03*
%TO.P,A1,19,A0*%
%TO.N,/A0*%
X35250000Y14420000D03*
%TO.P,A1,20,A1*%
%TO.N,/A1*%
X35250000Y16960000D03*
%TO.P,A1,21,A2*%
%TO.N,/A2*%
X35250000Y19500000D03*
%TO.P,A1,22,A3*%
%TO.N,/A3*%
X35250000Y22040000D03*
%TO.P,A1,23,A4*%
%TO.N,/I2C_DAT*%
X35250000Y24580000D03*
%TO.P,A1,24,A5*%
%TO.N,/I2C_CLK*%
X35250000Y27120000D03*
%TO.P,A1,25,A6*%
%TO.N,/A6*%
X35250000Y29660000D03*
%TO.P,A1,26,A7*%
%TO.N,/A7*%
X35250000Y32200000D03*
%TO.P,A1,27,+5V*%
%TO.N,+5V*%
X35250000Y34740000D03*
%TO.P,A1,28,~{RESET}*%
%TO.N,/RESET*%
X35250000Y37280000D03*
%TO.P,A1,29,GND*%
%TO.N,GND*%
X35250000Y39820000D03*
%TO.P,A1,30,VIN*%
%TO.N,unconnected-(A1-VIN-Pad30)*%
X35250000Y42360000D03*
%TD*%
D10*
%TO.P,J1,1,Pin_1*%
%TO.N,GND*%
X3600000Y61450000D03*
D14*
%TO.P,J1,2,Pin_2*%
%TO.N,+12V*%
X3600000Y58910000D03*
%TO.P,J1,3,Pin_3*%
%TO.N,/I2C_CLK*%
X3600000Y56370000D03*
%TO.P,J1,4,Pin_4*%
%TO.N,/I2C_DAT*%
X3600000Y53830000D03*
%TO.P,J1,5,Pin_5*%
%TO.N,GND*%
X3600000Y51290000D03*
%TO.P,J1,6,Pin_6*%
%TO.N,/E_STOP*%
X3600000Y48750000D03*
%TO.P,J1,7,Pin_7*%
%TO.N,/INT*%
X3600000Y46210000D03*
%TO.P,J1,8,Pin_8*%
%TO.N,/SYNC*%
X3600000Y43670000D03*
%TO.P,J1,9,Pin_9*%
%TO.N,+12V*%
X3600000Y41130000D03*
%TO.P,J1,10,Pin_10*%
%TO.N,GND*%
X3600000Y38590000D03*
%TD*%
D12*
%TO.P,,1*%
%TO.N,N/C*%
X16990000Y88210000D03*
D15*
X25880000Y88845000D03*
D16*
%TO.P,,2*%
X19530000Y88210000D03*
D15*
X25880000Y87575000D03*
%TO.P,,3*%
X38580000Y87575000D03*
D16*
X44930000Y88210000D03*
D15*
%TO.P,,4*%
X38580000Y88845000D03*
D12*
X47470000Y88210000D03*
%TD*%
D17*
%TO.P,HS1,1*%
%TO.N,GND*%
X9200000Y18350000D03*
%TD*%
D12*
%TO.P,,1*%
%TO.N,N/C*%
X16990000Y78050000D03*
D15*
X25880000Y78685000D03*
D16*
%TO.P,,2*%
X19530000Y78050000D03*
D15*
X25880000Y77415000D03*
%TO.P,,3*%
X38580000Y77415000D03*
D16*
X44930000Y78050000D03*
D15*
%TO.P,,4*%
X38580000Y78685000D03*
D12*
X47470000Y78050000D03*
%TD*%
D10*
%TO.P,,1*%
%TO.N,N/C*%
X18050000Y95630000D03*
%TO.P,,2*%
X20590000Y95630000D03*
%TO.P,,3*%
X20590000Y93090000D03*
%TO.P,,4*%
X18050000Y93090000D03*
%TO.P,,5*%
X15510000Y93090000D03*
%TO.P,,6*%
X15510000Y95630000D03*
%TO.P,,7*%
X15510000Y98170000D03*
%TO.P,,8*%
X18050000Y98170000D03*
%TO.P,,9*%
X20590000Y98170000D03*
%TO.P,,10*%
X23130000Y98170000D03*
%TO.P,,11*%
X23130000Y95630000D03*
%TO.P,,12*%
X23130000Y93090000D03*
%TO.P,,13*%
X23130000Y90550000D03*
%TO.P,,14*%
X20590000Y90550000D03*
%TO.P,,15*%
X18050000Y90550000D03*
%TO.P,,16*%
X15510000Y90550000D03*
%TD*%
D12*
%TO.P,,1*%
%TO.N,N/C*%
X16990000Y60270000D03*
D15*
X25880000Y60905000D03*
D16*
%TO.P,,2*%
X19530000Y60270000D03*
D15*
X25880000Y59635000D03*
%TO.P,,3*%
X38580000Y59635000D03*
D16*
X44930000Y60270000D03*
D15*
%TO.P,,4*%
X38580000Y60905000D03*
D12*
X47470000Y60270000D03*
%TD*%
D10*
%TO.P,,1*%
%TO.N,N/C*%
X53185000Y85670000D03*
%TO.P,,2*%
X55725000Y85670000D03*
%TO.P,,3*%
X55725000Y83130000D03*
%TO.P,,4*%
X53185000Y83130000D03*
%TO.P,,5*%
X50645000Y83130000D03*
%TO.P,,6*%
X50645000Y85670000D03*
%TO.P,,7*%
X50645000Y88210000D03*
%TO.P,,8*%
X53185000Y88210000D03*
%TO.P,,9*%
X55725000Y88210000D03*
%TO.P,,10*%
X58265000Y88210000D03*
%TO.P,,11*%
X58265000Y85670000D03*
%TO.P,,12*%
X58265000Y83130000D03*
%TO.P,,13*%
X58265000Y80590000D03*
%TO.P,,14*%
X55725000Y80590000D03*
%TO.P,,15*%
X53185000Y80590000D03*
%TO.P,,16*%
X50645000Y80590000D03*
%TD*%
D12*
%TO.P,,1*%
%TO.N,N/C*%
X47475000Y55360000D03*
D18*
X43665000Y55360000D03*
%TO.P,,2*%
X36045000Y55360000D03*
D12*
X32235000Y55360000D03*
D18*
%TO.P,,3*%
X41125000Y55360000D03*
X38585000Y55360000D03*
%TD*%
D12*
%TO.P,,1*%
%TO.N,N/C*%
X47475000Y57900000D03*
D18*
X43665000Y57900000D03*
%TO.P,,2*%
X36045000Y57900000D03*
D12*
X32235000Y57900000D03*
D18*
%TO.P,,3*%
X41125000Y57900000D03*
X38585000Y57900000D03*
%TD*%
D19*
%TO.P,,1*%
%TO.N,N/C*%
X64665000Y49280000D03*
D20*
X65640000Y36000000D03*
D19*
%TO.P,,2*%
X64665000Y46740000D03*
D20*
X64990000Y36000000D03*
D19*
%TO.P,,3*%
X64665000Y44200000D03*
D20*
X64340000Y36000000D03*
D19*
%TO.P,,4*%
X64665000Y41660000D03*
D20*
X63690000Y36000000D03*
%TO.P,,5*%
X63690000Y27000000D03*
D21*
X64665000Y21340000D03*
D20*
%TO.P,,6*%
X64340000Y27000000D03*
D21*
X64665000Y18800000D03*
D20*
%TO.P,,7*%
X64990000Y27000000D03*
D21*
X64665000Y16260000D03*
D20*
%TO.P,,8*%
X65640000Y27000000D03*
D21*
X64665000Y13720000D03*
%TD*%
D10*
%TO.P,,1*%
%TO.N,N/C*%
X9370000Y85670000D03*
%TO.P,,2*%
X11910000Y85670000D03*
%TO.P,,3*%
X11910000Y83130000D03*
%TO.P,,4*%
X9370000Y83130000D03*
%TO.P,,5*%
X6830000Y83130000D03*
%TO.P,,6*%
X6830000Y85670000D03*
%TO.P,,7*%
X6830000Y88210000D03*
%TO.P,,8*%
X9370000Y88210000D03*
%TO.P,,9*%
X11910000Y88210000D03*
%TO.P,,10*%
X14450000Y88210000D03*
%TO.P,,11*%
X14450000Y85670000D03*
%TO.P,,12*%
X14450000Y83130000D03*
%TO.P,,13*%
X14450000Y80590000D03*
%TO.P,,14*%
X11910000Y80590000D03*
%TO.P,,15*%
X9370000Y80590000D03*
%TO.P,,16*%
X6830000Y80590000D03*
%TD*%
%TO.P,REF\u002A\u002A,1*%
%TO.N,/D11*%
X38925000Y45100000D03*
D14*
%TO.P,REF\u002A\u002A,2*%
%TO.N,/D12*%
X38925000Y42560000D03*
%TO.P,REF\u002A\u002A,3*%
%TO.N,/D13*%
X38925000Y40020000D03*
%TD*%
D19*
%TO.P,,1*%
%TO.N,N/C*%
X54505000Y49280000D03*
D20*
X55480000Y36000000D03*
D19*
%TO.P,,2*%
X54505000Y46740000D03*
D20*
X54830000Y36000000D03*
D19*
%TO.P,,3*%
X54505000Y44200000D03*
D20*
X54180000Y36000000D03*
D19*
%TO.P,,4*%
X54505000Y41660000D03*
D20*
X53530000Y36000000D03*
%TO.P,,5*%
X53530000Y27000000D03*
D21*
X54505000Y21340000D03*
D20*
%TO.P,,6*%
X54180000Y27000000D03*
D21*
X54505000Y18800000D03*
D20*
%TO.P,,7*%
X54830000Y27000000D03*
D21*
X54505000Y16260000D03*
D20*
%TO.P,,8*%
X55480000Y27000000D03*
D21*
X54505000Y13720000D03*
%TD*%
D12*
%TO.P,,1*%
%TO.N,N/C*%
X16990000Y72970000D03*
D15*
X25880000Y73605000D03*
D16*
%TO.P,,2*%
X19530000Y72970000D03*
D15*
X25880000Y72335000D03*
%TO.P,,3*%
X38580000Y72335000D03*
D16*
X44930000Y72970000D03*
D15*
%TO.P,,4*%
X38580000Y73605000D03*
D12*
X47470000Y72970000D03*
%TD*%
D19*
%TO.P,,1*%
%TO.N,N/C*%
X59585000Y49280000D03*
D20*
X60560000Y36000000D03*
D19*
%TO.P,,2*%
X59585000Y46740000D03*
D20*
X59910000Y36000000D03*
D19*
%TO.P,,3*%
X59585000Y44200000D03*
D20*
X59260000Y36000000D03*
D19*
%TO.P,,4*%
X59585000Y41660000D03*
D20*
X58610000Y36000000D03*
%TO.P,,5*%
X58610000Y27000000D03*
D21*
X59585000Y21340000D03*
D20*
%TO.P,,6*%
X59260000Y27000000D03*
D21*
X59585000Y18800000D03*
D20*
%TO.P,,7*%
X59910000Y27000000D03*
D21*
X59585000Y16260000D03*
D20*
%TO.P,,8*%
X60560000Y27000000D03*
D21*
X59585000Y13720000D03*
%TD*%
D12*
%TO.P,,1*%
%TO.N,N/C*%
X16990000Y80590000D03*
D15*
X25880000Y81225000D03*
D16*
%TO.P,,2*%
X19530000Y80590000D03*
D15*
X25880000Y79955000D03*
%TO.P,,3*%
X38580000Y79955000D03*
D16*
X44930000Y80590000D03*
D15*
%TO.P,,4*%
X38580000Y81225000D03*
D12*
X47470000Y80590000D03*
%TD*%
D10*
%TO.P,,1*%
%TO.N,N/C*%
X63345000Y85670000D03*
%TO.P,,2*%
X65885000Y85670000D03*
%TO.P,,3*%
X65885000Y83130000D03*
%TO.P,,4*%
X63345000Y83130000D03*
%TO.P,,5*%
X60805000Y83130000D03*
%TO.P,,6*%
X60805000Y85670000D03*
%TO.P,,7*%
X60805000Y88210000D03*
%TO.P,,8*%
X63345000Y88210000D03*
%TO.P,,9*%
X65885000Y88210000D03*
%TO.P,,10*%
X68425000Y88210000D03*
%TO.P,,11*%
X68425000Y85670000D03*
%TO.P,,12*%
X68425000Y83130000D03*
%TO.P,,13*%
X68425000Y80590000D03*
%TO.P,,14*%
X65885000Y80590000D03*
%TO.P,,15*%
X63345000Y80590000D03*
%TO.P,,16*%
X60805000Y80590000D03*
%TD*%
D19*
%TO.P,,1*%
%TO.N,N/C*%
X49425000Y49280000D03*
D20*
X50400000Y36000000D03*
D19*
%TO.P,,2*%
X49425000Y46740000D03*
D20*
X49750000Y36000000D03*
D19*
%TO.P,,3*%
X49425000Y44200000D03*
D20*
X49100000Y36000000D03*
D19*
%TO.P,,4*%
X49425000Y41660000D03*
D20*
X48450000Y36000000D03*
%TO.P,,5*%
X48450000Y27000000D03*
D21*
X49425000Y21340000D03*
D20*
%TO.P,,6*%
X49100000Y27000000D03*
D21*
X49425000Y18800000D03*
D20*
%TO.P,,7*%
X49750000Y27000000D03*
D21*
X49425000Y16260000D03*
D20*
%TO.P,,8*%
X50400000Y27000000D03*
D21*
X49425000Y13720000D03*
%TD*%
D10*
%TO.P,REF\u002A\u002A,1*%
%TO.N,/A7*%
X38975000Y31990000D03*
D14*
%TO.P,REF\u002A\u002A,2*%
%TO.N,/A6*%
X38975000Y29450000D03*
%TO.P,REF\u002A\u002A,3*%
%TO.N,/A3*%
X38975000Y26910000D03*
%TO.P,REF\u002A\u002A,4*%
%TO.N,/A2*%
X38975000Y24370000D03*
%TO.P,REF\u002A\u002A,5*%
%TO.N,/A1*%
X38975000Y21830000D03*
%TO.P,REF\u002A\u002A,6*%
%TO.N,/A0*%
X38975000Y19290000D03*
%TD*%
D19*
%TO.P,,1*%
%TO.N,N/C*%
X62125000Y49280000D03*
D20*
X63100000Y36000000D03*
D19*
%TO.P,,2*%
X62125000Y46740000D03*
D20*
X62450000Y36000000D03*
D19*
%TO.P,,3*%
X62125000Y44200000D03*
D20*
X61800000Y36000000D03*
D19*
%TO.P,,4*%
X62125000Y41660000D03*
D20*
X61150000Y36000000D03*
%TO.P,,5*%
X61150000Y27000000D03*
D21*
X62125000Y21340000D03*
D20*
%TO.P,,6*%
X61800000Y27000000D03*
D21*
X62125000Y18800000D03*
D20*
%TO.P,,7*%
X62450000Y27000000D03*
D21*
X62125000Y16260000D03*
D20*
%TO.P,,8*%
X63100000Y27000000D03*
D21*
X62125000Y13720000D03*
%TD*%
D10*
%TO.P,,1*%
%TO.N,N/C*%
X63345000Y75510000D03*
%TO.P,,2*%
X65885000Y75510000D03*
%TO.P,,3*%
X65885000Y72970000D03*
%TO.P,,4*%
X63345000Y72970000D03*
%TO.P,,5*%
X60805000Y72970000D03*
%TO.P,,6*%
X60805000Y75510000D03*
%TO.P,,7*%
X60805000Y78050000D03*
%TO.P,,8*%
X63345000Y78050000D03*
%TO.P,,9*%
X65885000Y78050000D03*
%TO.P,,10*%
X68425000Y78050000D03*
%TO.P,,11*%
X68425000Y75510000D03*
%TO.P,,12*%
X68425000Y72970000D03*
%TO.P,,13*%
X68425000Y70430000D03*
%TO.P,,14*%
X65885000Y70430000D03*
%TO.P,,15*%
X63345000Y70430000D03*
%TO.P,,16*%
X60805000Y70430000D03*
%TD*%
D22*
%TO.P,D1,1,VDD*%
%TO.N,+5V*%
X47923000Y5667231D03*
%TO.P,D1,2,DOUT*%
%TO.N,unconnected-(D1-DOUT-Pad2)*%
X47923000Y2467231D03*
%TO.P,D1,3,VSS*%
%TO.N,GND*%
X53077000Y2467231D03*
%TO.P,D1,4,DIN*%
%TO.N,/LED*%
X53077000Y5667231D03*
%TD*%
D10*
%TO.P,,1*%
%TO.N,N/C*%
X63345000Y65350000D03*
%TO.P,,2*%
X65885000Y65350000D03*
%TO.P,,3*%
X65885000Y62810000D03*
%TO.P,,4*%
X63345000Y62810000D03*
%TO.P,,5*%
X60805000Y62810000D03*
%TO.P,,6*%
X60805000Y65350000D03*
%TO.P,,7*%
X60805000Y67890000D03*
%TO.P,,8*%
X63345000Y67890000D03*
%TO.P,,9*%
X65885000Y67890000D03*
%TO.P,,10*%
X68425000Y67890000D03*
%TO.P,,11*%
X68425000Y65350000D03*
%TO.P,,12*%
X68425000Y62810000D03*
%TO.P,,13*%
X68425000Y60270000D03*
%TO.P,,14*%
X65885000Y60270000D03*
%TO.P,,15*%
X63345000Y60270000D03*
%TO.P,,16*%
X60805000Y60270000D03*
%TD*%
%TO.P,,1*%
%TO.N,N/C*%
X53185000Y75510000D03*
%TO.P,,2*%
X55725000Y75510000D03*
%TO.P,,3*%
X55725000Y72970000D03*
%TO.P,,4*%
X53185000Y72970000D03*
%TO.P,,5*%
X50645000Y72970000D03*
%TO.P,,6*%
X50645000Y75510000D03*
%TO.P,,7*%
X50645000Y78050000D03*
%TO.P,,8*%
X53185000Y78050000D03*
%TO.P,,9*%
X55725000Y78050000D03*
%TO.P,,10*%
X58265000Y78050000D03*
%TO.P,,11*%
X58265000Y75510000D03*
%TO.P,,12*%
X58265000Y72970000D03*
%TO.P,,13*%
X58265000Y70430000D03*
%TO.P,,14*%
X55725000Y70430000D03*
%TO.P,,15*%
X53185000Y70430000D03*
%TO.P,,16*%
X50645000Y70430000D03*
%TD*%
%TO.P,REF\u002A\u002A,1*%
%TO.N,/D6*%
X28765000Y48700000D03*
D14*
%TO.P,REF\u002A\u002A,2*%
%TO.N,/D7*%
X31305000Y48700000D03*
%TO.P,REF\u002A\u002A,3*%
%TO.N,/D8*%
X33845000Y48700000D03*
%TO.P,REF\u002A\u002A,4*%
%TO.N,/D9*%
X36385000Y48700000D03*
%TO.P,REF\u002A\u002A,5*%
%TO.N,/D10*%
X38925000Y48700000D03*
%TD*%
D23*
%TO.P,,1*%
%TO.N,N/C*%
X14373516Y48361797D03*
D24*
X13037084Y51048803D03*
D23*
%TO.P,,2*%
X17516606Y47912784D03*
D24*
X13708836Y51720554D03*
D23*
%TO.P,,3*%
X17067593Y51055874D03*
D24*
X14380587Y52392306D03*
%TO.P,,4*%
X12117846Y54655047D03*
D23*
X10781414Y57342053D03*
D24*
%TO.P,,5*%
X11446094Y53983296D03*
D23*
X7638324Y57791066D03*
D24*
%TO.P,,6*%
X10774343Y53311544D03*
D23*
X8087337Y54647976D03*
%TD*%
D19*
%TO.P,,1*%
%TO.N,N/C*%
X57045000Y49280000D03*
D20*
X58020000Y36000000D03*
D19*
%TO.P,,2*%
X57045000Y46740000D03*
D20*
X57370000Y36000000D03*
D19*
%TO.P,,3*%
X57045000Y44200000D03*
D20*
X56720000Y36000000D03*
D19*
%TO.P,,4*%
X57045000Y41660000D03*
D20*
X56070000Y36000000D03*
%TO.P,,5*%
X56070000Y27000000D03*
D21*
X57045000Y21340000D03*
D20*
%TO.P,,6*%
X56720000Y27000000D03*
D21*
X57045000Y18800000D03*
D20*
%TO.P,,7*%
X57370000Y27000000D03*
D21*
X57045000Y16260000D03*
D20*
%TO.P,,8*%
X58020000Y27000000D03*
D21*
X57045000Y13720000D03*
%TD*%
D10*
%TO.P,,1*%
%TO.N,N/C*%
X48530000Y95630000D03*
%TO.P,,2*%
X51070000Y95630000D03*
%TO.P,,3*%
X51070000Y93090000D03*
%TO.P,,4*%
X48530000Y93090000D03*
%TO.P,,5*%
X45990000Y93090000D03*
%TO.P,,6*%
X45990000Y95630000D03*
%TO.P,,7*%
X45990000Y98170000D03*
%TO.P,,8*%
X48530000Y98170000D03*
%TO.P,,9*%
X51070000Y98170000D03*
%TO.P,,10*%
X53610000Y98170000D03*
%TO.P,,11*%
X53610000Y95630000D03*
%TO.P,,12*%
X53610000Y93090000D03*
%TO.P,,13*%
X53610000Y90550000D03*
%TO.P,,14*%
X51070000Y90550000D03*
%TO.P,,15*%
X48530000Y90550000D03*
%TO.P,,16*%
X45990000Y90550000D03*
%TD*%
D23*
%TO.P,,1*%
%TO.N,N/C*%
X21389680Y48366243D03*
D24*
X20053248Y51053249D03*
D23*
%TO.P,,2*%
X24532770Y47917230D03*
D24*
X20725000Y51725000D03*
D23*
%TO.P,,3*%
X24083757Y51060320D03*
D24*
X21396751Y52396752D03*
%TO.P,,4*%
X19134010Y54659493D03*
D23*
X17797578Y57346499D03*
D24*
%TO.P,,5*%
X18462258Y53987742D03*
D23*
X14654488Y57795512D03*
D24*
%TO.P,,6*%
X17790507Y53315990D03*
D23*
X15103501Y54652422D03*
%TD*%
D19*
%TO.P,,1*%
%TO.N,N/C*%
X67205000Y49280000D03*
D20*
X68180000Y36000000D03*
D19*
%TO.P,,2*%
X67205000Y46740000D03*
D20*
X67530000Y36000000D03*
D19*
%TO.P,,3*%
X67205000Y44200000D03*
D20*
X66880000Y36000000D03*
D19*
%TO.P,,4*%
X67205000Y41660000D03*
D20*
X66230000Y36000000D03*
%TO.P,,5*%
X66230000Y27000000D03*
D21*
X67205000Y21340000D03*
D20*
%TO.P,,6*%
X66880000Y27000000D03*
D21*
X67205000Y18800000D03*
D20*
%TO.P,,7*%
X67530000Y27000000D03*
D21*
X67205000Y16260000D03*
D20*
%TO.P,,8*%
X68180000Y27000000D03*
D21*
X67205000Y13720000D03*
%TD*%
D12*
%TO.P,,1*%
%TO.N,N/C*%
X16990000Y85670000D03*
D15*
X25880000Y86305000D03*
D16*
%TO.P,,2*%
X19530000Y85670000D03*
D15*
X25880000Y85035000D03*
%TO.P,,3*%
X38580000Y85035000D03*
D16*
X44930000Y85670000D03*
D15*
%TO.P,,4*%
X38580000Y86305000D03*
D12*
X47470000Y85670000D03*
%TD*%
D10*
%TO.P,,1*%
%TO.N,N/C*%
X9370000Y65350000D03*
%TO.P,,2*%
X11910000Y65350000D03*
%TO.P,,3*%
X11910000Y62810000D03*
%TO.P,,4*%
X9370000Y62810000D03*
%TO.P,,5*%
X6830000Y62810000D03*
%TO.P,,6*%
X6830000Y65350000D03*
%TO.P,,7*%
X6830000Y67890000D03*
%TO.P,,8*%
X9370000Y67890000D03*
%TO.P,,9*%
X11910000Y67890000D03*
%TO.P,,10*%
X14450000Y67890000D03*
%TO.P,,11*%
X14450000Y65350000D03*
%TO.P,,12*%
X14450000Y62810000D03*
%TO.P,,13*%
X14450000Y60270000D03*
%TO.P,,14*%
X11910000Y60270000D03*
%TO.P,,15*%
X9370000Y60270000D03*
%TO.P,,16*%
X6830000Y60270000D03*
%TD*%
D12*
%TO.P,,1*%
%TO.N,N/C*%
X16990000Y83130000D03*
D15*
X25880000Y83765000D03*
D16*
%TO.P,,2*%
X19530000Y83130000D03*
D15*
X25880000Y82495000D03*
%TO.P,,3*%
X38580000Y82495000D03*
D16*
X44930000Y83130000D03*
D15*
%TO.P,,4*%
X38580000Y83765000D03*
D12*
X47470000Y83130000D03*
%TD*%
%TO.P,,1*%
%TO.N,N/C*%
X16990000Y62810000D03*
D15*
X25880000Y63445000D03*
D16*
%TO.P,,2*%
X19530000Y62810000D03*
D15*
X25880000Y62175000D03*
%TO.P,,3*%
X38580000Y62175000D03*
D16*
X44930000Y62810000D03*
D15*
%TO.P,,4*%
X38580000Y63445000D03*
D12*
X47470000Y62810000D03*
%TD*%
D10*
%TO.P,,1*%
%TO.N,N/C*%
X38370000Y95630000D03*
%TO.P,,2*%
X40910000Y95630000D03*
%TO.P,,3*%
X40910000Y93090000D03*
%TO.P,,4*%
X38370000Y93090000D03*
%TO.P,,5*%
X35830000Y93090000D03*
%TO.P,,6*%
X35830000Y95630000D03*
%TO.P,,7*%
X35830000Y98170000D03*
%TO.P,,8*%
X38370000Y98170000D03*
%TO.P,,9*%
X40910000Y98170000D03*
%TO.P,,10*%
X43450000Y98170000D03*
%TO.P,,11*%
X43450000Y95630000D03*
%TO.P,,12*%
X43450000Y93090000D03*
%TO.P,,13*%
X43450000Y90550000D03*
%TO.P,,14*%
X40910000Y90550000D03*
%TO.P,,15*%
X38370000Y90550000D03*
%TO.P,,16*%
X35830000Y90550000D03*
%TD*%
%TO.P,,1*%
%TO.N,N/C*%
X28210000Y95630000D03*
%TO.P,,2*%
X30750000Y95630000D03*
%TO.P,,3*%
X30750000Y93090000D03*
%TO.P,,4*%
X28210000Y93090000D03*
%TO.P,,5*%
X25670000Y93090000D03*
%TO.P,,6*%
X25670000Y95630000D03*
%TO.P,,7*%
X25670000Y98170000D03*
%TO.P,,8*%
X28210000Y98170000D03*
%TO.P,,9*%
X30750000Y98170000D03*
%TO.P,,10*%
X33290000Y98170000D03*
%TO.P,,11*%
X33290000Y95630000D03*
%TO.P,,12*%
X33290000Y93090000D03*
%TO.P,,13*%
X33290000Y90550000D03*
%TO.P,,14*%
X30750000Y90550000D03*
%TO.P,,15*%
X28210000Y90550000D03*
%TO.P,,16*%
X25670000Y90550000D03*
%TD*%
D12*
%TO.P,,1*%
%TO.N,N/C*%
X65875000Y57840000D03*
D18*
X62065000Y57840000D03*
%TO.P,,2*%
X54445000Y57840000D03*
D12*
X50635000Y57840000D03*
D18*
%TO.P,,3*%
X59525000Y57840000D03*
X56985000Y57840000D03*
%TD*%
D10*
%TO.P,,1*%
%TO.N,N/C*%
X9370000Y75510000D03*
%TO.P,,2*%
X11910000Y75510000D03*
%TO.P,,3*%
X11910000Y72970000D03*
%TO.P,,4*%
X9370000Y72970000D03*
%TO.P,,5*%
X6830000Y72970000D03*
%TO.P,,6*%
X6830000Y75510000D03*
%TO.P,,7*%
X6830000Y78050000D03*
%TO.P,,8*%
X9370000Y78050000D03*
%TO.P,,9*%
X11910000Y78050000D03*
%TO.P,,10*%
X14450000Y78050000D03*
%TO.P,,11*%
X14450000Y75510000D03*
%TO.P,,12*%
X14450000Y72970000D03*
%TO.P,,13*%
X14450000Y70430000D03*
%TO.P,,14*%
X11910000Y70430000D03*
%TO.P,,15*%
X9370000Y70430000D03*
%TO.P,,16*%
X6830000Y70430000D03*
%TD*%
D12*
%TO.P,,1*%
%TO.N,N/C*%
X47475000Y52820000D03*
D18*
X43665000Y52820000D03*
%TO.P,,2*%
X36045000Y52820000D03*
D12*
X32235000Y52820000D03*
D18*
%TO.P,,3*%
X41125000Y52820000D03*
X38585000Y52820000D03*
%TD*%
D10*
%TO.P,,1*%
%TO.N,N/C*%
X53185000Y65350000D03*
%TO.P,,2*%
X55725000Y65350000D03*
%TO.P,,3*%
X55725000Y62810000D03*
%TO.P,,4*%
X53185000Y62810000D03*
%TO.P,,5*%
X50645000Y62810000D03*
%TO.P,,6*%
X50645000Y65350000D03*
%TO.P,,7*%
X50645000Y67890000D03*
%TO.P,,8*%
X53185000Y67890000D03*
%TO.P,,9*%
X55725000Y67890000D03*
%TO.P,,10*%
X58265000Y67890000D03*
%TO.P,,11*%
X58265000Y65350000D03*
%TO.P,,12*%
X58265000Y62810000D03*
%TO.P,,13*%
X58265000Y60270000D03*
%TO.P,,14*%
X55725000Y60270000D03*
%TO.P,,15*%
X53185000Y60270000D03*
%TO.P,,16*%
X50645000Y60270000D03*
%TD*%
D12*
%TO.P,,1*%
%TO.N,N/C*%
X16990000Y70430000D03*
D15*
X25880000Y71065000D03*
D16*
%TO.P,,2*%
X19530000Y70430000D03*
D15*
X25880000Y69795000D03*
%TO.P,,3*%
X38580000Y69795000D03*
D16*
X44930000Y70430000D03*
D15*
%TO.P,,4*%
X38580000Y71065000D03*
D12*
X47470000Y70430000D03*
%TD*%
%TO.P,,1*%
%TO.N,N/C*%
X16990000Y67890000D03*
D15*
X25880000Y68525000D03*
D16*
%TO.P,,2*%
X19530000Y67890000D03*
D15*
X25880000Y67255000D03*
%TO.P,,3*%
X38580000Y67255000D03*
D16*
X44930000Y67890000D03*
D15*
%TO.P,,4*%
X38580000Y68525000D03*
D12*
X47470000Y67890000D03*
%TD*%
%TO.P,,1*%
%TO.N,N/C*%
X16990000Y65350000D03*
D15*
X25880000Y65985000D03*
D16*
%TO.P,,2*%
X19530000Y65350000D03*
D15*
X25880000Y64715000D03*
%TO.P,,3*%
X38580000Y64715000D03*
D16*
X44930000Y65350000D03*
D15*
%TO.P,,4*%
X38580000Y65985000D03*
D12*
X47470000Y65350000D03*
%TD*%
D19*
%TO.P,,1*%
%TO.N,N/C*%
X51965000Y49280000D03*
D20*
X52940000Y36000000D03*
D19*
%TO.P,,2*%
X51965000Y46740000D03*
D20*
X52290000Y36000000D03*
D19*
%TO.P,,3*%
X51965000Y44200000D03*
D20*
X51640000Y36000000D03*
D19*
%TO.P,,4*%
X51965000Y41660000D03*
D20*
X50990000Y36000000D03*
%TO.P,,5*%
X50990000Y27000000D03*
D21*
X51965000Y21340000D03*
D20*
%TO.P,,6*%
X51640000Y27000000D03*
D21*
X51965000Y18800000D03*
D20*
%TO.P,,7*%
X52290000Y27000000D03*
D21*
X51965000Y16260000D03*
D20*
%TO.P,,8*%
X52940000Y27000000D03*
D21*
X51965000Y13720000D03*
%TD*%
D12*
%TO.P,,1*%
%TO.N,N/C*%
X16990000Y75510000D03*
D15*
X25880000Y76145000D03*
D16*
%TO.P,,2*%
X19530000Y75510000D03*
D15*
X25880000Y74875000D03*
%TO.P,,3*%
X38580000Y74875000D03*
D16*
X44930000Y75510000D03*
D15*
%TO.P,,4*%
X38580000Y76145000D03*
D12*
X47470000Y75510000D03*
%TD*%
%TO.P,,1*%
%TO.N,N/C*%
X65875000Y55300000D03*
D18*
X62065000Y55300000D03*
%TO.P,,2*%
X54445000Y55300000D03*
D12*
X50635000Y55300000D03*
D18*
%TO.P,,3*%
X59525000Y55300000D03*
X56985000Y55300000D03*
%TD*%
D25*
%TO.N,GND*%
X14250000Y21895000D03*
X3750000Y13345000D03*
D26*
X7250000Y18845000D03*
D25*
X7350000Y23595000D03*
D26*
X8550000Y19545000D03*
D27*
X56714800Y39551800D03*
X61794800Y23448200D03*
X28200000Y39800000D03*
D26*
X8550000Y21045000D03*
D27*
X54174800Y23448200D03*
X59254800Y39551800D03*
X56714800Y23448200D03*
X51634800Y23448200D03*
X49094800Y39551800D03*
X51634800Y39551800D03*
D26*
X7450000Y21845000D03*
D25*
X53000000Y3900000D03*
D26*
X9750000Y21845000D03*
D27*
X54174800Y39551800D03*
X49094800Y23448200D03*
X61794800Y39551800D03*
D25*
X3550000Y16595000D03*
X14250000Y13995000D03*
X14250000Y18995000D03*
D27*
X59254800Y23448200D03*
D26*
X8150000Y18845000D03*
X6150000Y16145000D03*
D27*
X66874800Y23448200D03*
X64334800Y39551800D03*
X66874800Y39551800D03*
X64334800Y23448200D03*
D28*
%TO.N,+5V*%
X12650000Y10600000D03*
%TO.N,+12V*%
X5100000Y26100000D03*
%TD*%
D29*
%TO.N,+5V*%
X45982769Y5667231D02*
X47923000Y5667231D01*
X44750000Y6900000D02*
X45982769Y5667231D01*
D30*
X12650000Y6550000D02*
X12650000Y10600000D01*
X16700000Y2500000D02*
X12650000Y6550000D01*
X42150000Y2500000D02*
X16700000Y2500000D01*
X44049000Y18594001D02*
X44049000Y18601000D01*
X44750000Y6900000D02*
X44750000Y5100000D01*
X44750000Y17893001D02*
X44049000Y18594001D01*
X44049000Y18601000D02*
X43310000Y19340000D01*
X44750000Y6900000D02*
X44750000Y17893001D01*
X44750000Y5100000D02*
X42150000Y2500000D01*
X43310000Y32040000D02*
X43310000Y42200000D01*
X43310000Y32540000D02*
X43310000Y32040000D01*
X41110000Y34740000D02*
X43310000Y32540000D01*
X35250000Y34740000D02*
X41110000Y34740000D01*
X43310000Y19340000D02*
X43310000Y32040000D01*
D31*
%TO.N,+3.3V*%
X39150000Y10610000D02*
X39150000Y13150000D01*
X37880000Y9340000D02*
X39150000Y10610000D01*
X35250000Y9340000D02*
X37880000Y9340000D01*
D32*
%TO.N,*%
X21181000Y86305000D02*
X25880000Y86305000D01*
X18260000Y81860000D02*
X20546000Y81860000D01*
D33*
X51939600Y21365400D02*
X51965000Y21340000D01*
D32*
X43279000Y68525000D02*
X43914000Y69160000D01*
D33*
X59585000Y16742600D02*
X60651800Y17809400D01*
D32*
X38580000Y85035000D02*
X44295000Y85035000D01*
D33*
X53412800Y15167800D02*
X51965000Y13720000D01*
D32*
X46200000Y61540000D02*
X47470000Y60270000D01*
D33*
X50400000Y22676400D02*
X50872800Y22203600D01*
D32*
X38580000Y74875000D02*
X44295000Y74875000D01*
D33*
X59585000Y16260000D02*
X59585000Y16742600D01*
D32*
X38580000Y82495000D02*
X44295000Y82495000D01*
X21181000Y73605000D02*
X25880000Y73605000D01*
D33*
X59559600Y21365400D02*
X59585000Y21340000D01*
D32*
X43279000Y76145000D02*
X43914000Y76780000D01*
D33*
X60855000Y48010000D02*
X59585000Y49280000D01*
D32*
X46200000Y76780000D02*
X47470000Y75510000D01*
X38580000Y73605000D02*
X43279000Y73605000D01*
X46200000Y84400000D02*
X47470000Y83130000D01*
D34*
X60800000Y88205000D02*
X60800000Y60275000D01*
D35*
X14373517Y49712371D02*
X14373517Y48361797D01*
X21490090Y52396752D02*
X21396752Y52396752D01*
D33*
X55571800Y22025800D02*
X54830000Y22767600D01*
X62125000Y16260000D02*
X62125000Y16742600D01*
D32*
X19530000Y72970000D02*
X20546000Y72970000D01*
D33*
X52940000Y22676400D02*
X53412800Y22203600D01*
D32*
X20546000Y69160000D02*
X21181000Y68525000D01*
D33*
X56070000Y36000000D02*
X56070000Y39846800D01*
D32*
X44295000Y85035000D02*
X44930000Y85670000D01*
D33*
X51965000Y16260000D02*
X51965000Y16742600D01*
D36*
X47475000Y55360000D02*
X43665000Y55360000D01*
D33*
X55775000Y48010000D02*
X54505000Y49280000D01*
D32*
X21181000Y60905000D02*
X25880000Y60905000D01*
D33*
X55775000Y40644000D02*
X55775000Y48010000D01*
X57019600Y21365400D02*
X57019600Y22254400D01*
D32*
X16990000Y65350000D02*
X18260000Y66620000D01*
X44295000Y69795000D02*
X44930000Y70430000D01*
D33*
X54830000Y22767600D02*
X54830000Y27000000D01*
X63690000Y23204000D02*
X64639600Y22254400D01*
X52940000Y27000000D02*
X52940000Y22676400D01*
X63191800Y22025800D02*
X62450000Y22767600D01*
D32*
X46200000Y71700000D02*
X47470000Y70430000D01*
D33*
X58111800Y22025800D02*
X57370000Y22767600D01*
D32*
X19530000Y62810000D02*
X20546000Y62810000D01*
D33*
X68180000Y40349000D02*
X68475000Y40644000D01*
D32*
X20546000Y67890000D02*
X21181000Y67255000D01*
D33*
X58020000Y22676400D02*
X58492800Y22203600D01*
X50400000Y27000000D02*
X50400000Y22676400D01*
X57370000Y40334000D02*
X57934000Y40898000D01*
D32*
X38580000Y83765000D02*
X43279000Y83765000D01*
D33*
X50491800Y22025800D02*
X49750000Y22767600D01*
D32*
X19530000Y80590000D02*
X20546000Y80590000D01*
D35*
X13037085Y50955465D02*
X13037085Y51048803D01*
D33*
X57045000Y16260000D02*
X57045000Y16742600D01*
X60855000Y40644000D02*
X60855000Y48010000D01*
D32*
X43914000Y61540000D02*
X46200000Y61540000D01*
X18260000Y79320000D02*
X20546000Y79320000D01*
D33*
X57045000Y16742600D02*
X58111800Y17809400D01*
X66230000Y23204000D02*
X67179600Y22254400D01*
D32*
X21181000Y59635000D02*
X25880000Y59635000D01*
D35*
X11446095Y53983296D02*
X7638325Y57791066D01*
D33*
X54830000Y36000000D02*
X54830000Y40334000D01*
D35*
X17516606Y47912785D02*
X13708836Y51720555D01*
D32*
X19530000Y70430000D02*
X20546000Y70430000D01*
X38580000Y64715000D02*
X44295000Y64715000D01*
D35*
X21396752Y52396752D02*
X22733184Y51060320D01*
D32*
X43279000Y60905000D02*
X43914000Y61540000D01*
D35*
X13037085Y51048803D02*
X14373517Y49712371D01*
D32*
X21181000Y87575000D02*
X25880000Y87575000D01*
D33*
X59910000Y40334000D02*
X60474000Y40898000D01*
D32*
X19530000Y83130000D02*
X20546000Y83130000D01*
X16990000Y78050000D02*
X18260000Y79320000D01*
D33*
X67205000Y16260000D02*
X67205000Y16742600D01*
X68271800Y22025800D02*
X67530000Y22767600D01*
X58111800Y17809400D02*
X58111800Y22025800D01*
D32*
X20546000Y84400000D02*
X21181000Y83765000D01*
X43279000Y65985000D02*
X43914000Y66620000D01*
D33*
X56070000Y23204000D02*
X57019600Y22254400D01*
D35*
X20053249Y50959911D02*
X20053249Y51053249D01*
D32*
X21181000Y78685000D02*
X25880000Y78685000D01*
D33*
X50491800Y17809400D02*
X50491800Y22025800D01*
D32*
X21181000Y77415000D02*
X25880000Y77415000D01*
X16990000Y83130000D02*
X18260000Y84400000D01*
D33*
X64990000Y22767600D02*
X64990000Y27000000D01*
X66230000Y36000000D02*
X66230000Y39846800D01*
X68652800Y15167800D02*
X67205000Y13720000D01*
D32*
X44295000Y77415000D02*
X44930000Y78050000D01*
X20546000Y85670000D02*
X21181000Y85035000D01*
X18260000Y84400000D02*
X20546000Y84400000D01*
D36*
X59525000Y55300000D02*
X56985000Y55300000D01*
D32*
X16990000Y70430000D02*
X18260000Y71700000D01*
D35*
X10774343Y53311545D02*
X9437911Y54647977D01*
D33*
X59910000Y22767600D02*
X59910000Y27000000D01*
X65640000Y27000000D02*
X65640000Y22676400D01*
D32*
X44295000Y67255000D02*
X44930000Y67890000D01*
X38580000Y86305000D02*
X43279000Y86305000D01*
D35*
X17797578Y55995926D02*
X17797578Y57346499D01*
D33*
X65640000Y36000000D02*
X65640000Y40349000D01*
D32*
X21181000Y79955000D02*
X25880000Y79955000D01*
X20546000Y75510000D02*
X21181000Y74875000D01*
D33*
X61150000Y23204000D02*
X62099600Y22254400D01*
D32*
X44295000Y79955000D02*
X44930000Y80590000D01*
D36*
X54445000Y55300000D02*
X50635000Y55300000D01*
D33*
X55480000Y40349000D02*
X55775000Y40644000D01*
X53031800Y17809400D02*
X53031800Y22025800D01*
X67179600Y21365400D02*
X67205000Y21340000D01*
D32*
X38580000Y65985000D02*
X43279000Y65985000D01*
X43279000Y83765000D02*
X43914000Y84400000D01*
D35*
X14473926Y52392306D02*
X14380588Y52392306D01*
D32*
X43279000Y86305000D02*
X43914000Y86940000D01*
D33*
X48450000Y23204000D02*
X49399600Y22254400D01*
D32*
X43914000Y81860000D02*
X46200000Y81860000D01*
D33*
X56070000Y39846800D02*
X57045000Y40821800D01*
X58020000Y36000000D02*
X58020000Y40349000D01*
X58492800Y15167800D02*
X57045000Y13720000D01*
D35*
X22733184Y51060320D02*
X24083757Y51060320D01*
D32*
X21181000Y69795000D02*
X25880000Y69795000D01*
X38580000Y67255000D02*
X44295000Y67255000D01*
X46200000Y79320000D02*
X47470000Y78050000D01*
D35*
X19134010Y54659494D02*
X17797578Y55995926D01*
D36*
X41125000Y52820000D02*
X38585000Y52820000D01*
D32*
X46200000Y69160000D02*
X47470000Y67890000D01*
D33*
X49425000Y16742600D02*
X50491800Y17809400D01*
X63100000Y27000000D02*
X63100000Y22676400D01*
D32*
X18260000Y66620000D02*
X20546000Y66620000D01*
D35*
X21389681Y49716817D02*
X21389681Y48366243D01*
D32*
X43914000Y79320000D02*
X46200000Y79320000D01*
X20546000Y70430000D02*
X21181000Y69795000D01*
D34*
X15510000Y98170000D02*
X53610000Y98170000D01*
D32*
X46200000Y89480000D02*
X47470000Y88210000D01*
D33*
X60651800Y17809400D02*
X60651800Y22025800D01*
X49399600Y21365400D02*
X49425000Y21340000D01*
X60474000Y40898000D02*
X60474000Y45851000D01*
X58492800Y22203600D02*
X58492800Y15167800D01*
X57934000Y40898000D02*
X57934000Y45851000D01*
D32*
X16990000Y60270000D02*
X18260000Y61540000D01*
D33*
X65935000Y48010000D02*
X64665000Y49280000D01*
D32*
X44295000Y82495000D02*
X44930000Y83130000D01*
X18260000Y86940000D02*
X20546000Y86940000D01*
X38580000Y71065000D02*
X43279000Y71065000D01*
D33*
X60651800Y22025800D02*
X59910000Y22767600D01*
D32*
X43279000Y88845000D02*
X43914000Y89480000D01*
D36*
X41125000Y57900000D02*
X38585000Y57900000D01*
D33*
X58020000Y27000000D02*
X58020000Y22676400D01*
X53031800Y22025800D02*
X52290000Y22767600D01*
D32*
X38580000Y59635000D02*
X44295000Y59635000D01*
X46200000Y86940000D02*
X47470000Y85670000D01*
D33*
X68271800Y17809400D02*
X68271800Y22025800D01*
X55571800Y17809400D02*
X55571800Y22025800D01*
X60560000Y40349000D02*
X60855000Y40644000D01*
X57370000Y22767600D02*
X57370000Y27000000D01*
X63690000Y36000000D02*
X63690000Y39846800D01*
X55394000Y45851000D02*
X54505000Y46740000D01*
X51965000Y16742600D02*
X53031800Y17809400D01*
D35*
X17790507Y53315991D02*
X16454075Y54652423D01*
D32*
X20546000Y65350000D02*
X21181000Y64715000D01*
D33*
X52290000Y22767600D02*
X52290000Y27000000D01*
X63100000Y22676400D02*
X63572800Y22203600D01*
D32*
X18260000Y76780000D02*
X20546000Y76780000D01*
D33*
X65731800Y22025800D02*
X64990000Y22767600D01*
X65935000Y40644000D02*
X65935000Y48010000D01*
X49399600Y21365400D02*
X49399600Y22254400D01*
D32*
X43914000Y84400000D02*
X46200000Y84400000D01*
D33*
X55952800Y22203600D02*
X55952800Y15167800D01*
D32*
X43279000Y63445000D02*
X43914000Y64080000D01*
X43914000Y66620000D02*
X46200000Y66620000D01*
X43914000Y69160000D02*
X46200000Y69160000D01*
D33*
X50872800Y15167800D02*
X49425000Y13720000D01*
D36*
X36045000Y57900000D02*
X32235000Y57900000D01*
D33*
X63572800Y22203600D02*
X63572800Y15167800D01*
X57019600Y21365400D02*
X57045000Y21340000D01*
D32*
X18260000Y89480000D02*
X20546000Y89480000D01*
D33*
X58610000Y23204000D02*
X58610000Y27000000D01*
X62450000Y40334000D02*
X63014000Y40898000D01*
D32*
X16990000Y75510000D02*
X18260000Y76780000D01*
X16990000Y72970000D02*
X18260000Y74240000D01*
D33*
X53530000Y23204000D02*
X54479600Y22254400D01*
D32*
X20546000Y71700000D02*
X21181000Y71065000D01*
X19530000Y75510000D02*
X20546000Y75510000D01*
X21181000Y71065000D02*
X25880000Y71065000D01*
X44295000Y72335000D02*
X44930000Y72970000D01*
X38580000Y81225000D02*
X43279000Y81225000D01*
D33*
X63395000Y40644000D02*
X63395000Y48010000D01*
D32*
X20546000Y86940000D02*
X21181000Y86305000D01*
D33*
X53530000Y36000000D02*
X53530000Y39846800D01*
X68180000Y27000000D02*
X68180000Y22676400D01*
X61032800Y15167800D02*
X59585000Y13720000D01*
X49425000Y16260000D02*
X49425000Y16742600D01*
D32*
X20546000Y74240000D02*
X21181000Y73605000D01*
D33*
X63395000Y48010000D02*
X62125000Y49280000D01*
D35*
X10781414Y55991480D02*
X10781414Y57342053D01*
D32*
X20546000Y78050000D02*
X21181000Y77415000D01*
D33*
X61032800Y22203600D02*
X61032800Y15167800D01*
D32*
X20546000Y83130000D02*
X21181000Y82495000D01*
X20546000Y64080000D02*
X21181000Y63445000D01*
X43914000Y64080000D02*
X46200000Y64080000D01*
D35*
X18462259Y53987742D02*
X14654489Y57795512D01*
D33*
X54505000Y16742600D02*
X55571800Y17809400D01*
X64665000Y16260000D02*
X64665000Y16742600D01*
X63014000Y45851000D02*
X62125000Y46740000D01*
D32*
X38580000Y87575000D02*
X44295000Y87575000D01*
D36*
X41125000Y55360000D02*
X38585000Y55360000D01*
D32*
X16990000Y80590000D02*
X18260000Y81860000D01*
D33*
X65640000Y22676400D02*
X66112800Y22203600D01*
D32*
X46200000Y66620000D02*
X47470000Y65350000D01*
X38580000Y72335000D02*
X44295000Y72335000D01*
D36*
X59525000Y57840000D02*
X56985000Y57840000D01*
D32*
X21181000Y88845000D02*
X25880000Y88845000D01*
X19530000Y78050000D02*
X20546000Y78050000D01*
D33*
X63014000Y40898000D02*
X63014000Y45851000D01*
D32*
X43914000Y71700000D02*
X46200000Y71700000D01*
D33*
X66112800Y22203600D02*
X66112800Y15167800D01*
D32*
X46200000Y64080000D02*
X47470000Y62810000D01*
D33*
X68094000Y40898000D02*
X68094000Y45851000D01*
D32*
X19530000Y85670000D02*
X20546000Y85670000D01*
D33*
X62099600Y21365400D02*
X62099600Y22254400D01*
D32*
X21181000Y85035000D02*
X25880000Y85035000D01*
D36*
X65875000Y55300000D02*
X62065000Y55300000D01*
D33*
X61150000Y23204000D02*
X61150000Y27000000D01*
X50990000Y39846800D02*
X51965000Y40821800D01*
X58315000Y40644000D02*
X58315000Y48010000D01*
X68475000Y40644000D02*
X68475000Y48010000D01*
X57934000Y45851000D02*
X57045000Y46740000D01*
D32*
X19530000Y65350000D02*
X20546000Y65350000D01*
D33*
X48450000Y36000000D02*
X48450000Y39846800D01*
X54479600Y21365400D02*
X54505000Y21340000D01*
X55480000Y36000000D02*
X55480000Y40349000D01*
X62450000Y22767600D02*
X62450000Y27000000D01*
D32*
X21181000Y64715000D02*
X25880000Y64715000D01*
D33*
X65640000Y40349000D02*
X65935000Y40644000D01*
X50990000Y36000000D02*
X50990000Y39846800D01*
X64639600Y21365400D02*
X64639600Y22254400D01*
X54479600Y21365400D02*
X54479600Y22254400D01*
X66230000Y39846800D02*
X67205000Y40821800D01*
D32*
X21181000Y72335000D02*
X25880000Y72335000D01*
D33*
X50872800Y22203600D02*
X50872800Y15167800D01*
X49750000Y22767600D02*
X49750000Y27000000D01*
X64990000Y40334000D02*
X65554000Y40898000D01*
X53412800Y22203600D02*
X53412800Y15167800D01*
D32*
X18260000Y64080000D02*
X20546000Y64080000D01*
X20546000Y79320000D02*
X21181000Y78685000D01*
D33*
X58315000Y48010000D02*
X57045000Y49280000D01*
D32*
X20546000Y80590000D02*
X21181000Y79955000D01*
X20546000Y89480000D02*
X21181000Y88845000D01*
D33*
X68180000Y22676400D02*
X68652800Y22203600D01*
D36*
X36045000Y52820000D02*
X32235000Y52820000D01*
D32*
X43279000Y81225000D02*
X43914000Y81860000D01*
X43914000Y86940000D02*
X46200000Y86940000D01*
D33*
X63690000Y39846800D02*
X64665000Y40821800D01*
X67179600Y21365400D02*
X67179600Y22254400D01*
X59910000Y36000000D02*
X59910000Y40334000D01*
D32*
X21181000Y65985000D02*
X25880000Y65985000D01*
D33*
X67205000Y16742600D02*
X68271800Y17809400D01*
D32*
X43279000Y78685000D02*
X43914000Y79320000D01*
D33*
X67530000Y22767600D02*
X67530000Y27000000D01*
D32*
X19530000Y67890000D02*
X20546000Y67890000D01*
D33*
X58610000Y36000000D02*
X58610000Y39846800D01*
D32*
X43914000Y74240000D02*
X46200000Y74240000D01*
X21181000Y74875000D02*
X25880000Y74875000D01*
X16990000Y62810000D02*
X18260000Y64080000D01*
D34*
X60805000Y88210000D02*
X60800000Y88205000D01*
D36*
X47475000Y52820000D02*
X43665000Y52820000D01*
D33*
X48450000Y23204000D02*
X48450000Y27000000D01*
D35*
X16454075Y54652423D02*
X15103501Y54652423D01*
D33*
X64639600Y21365400D02*
X64665000Y21340000D01*
X62125000Y16742600D02*
X63191800Y17809400D01*
D36*
X36045000Y55360000D02*
X32235000Y55360000D01*
D32*
X38580000Y68525000D02*
X43279000Y68525000D01*
X21181000Y83765000D02*
X25880000Y83765000D01*
X38580000Y63445000D02*
X43279000Y63445000D01*
D33*
X50990000Y23204000D02*
X50990000Y27000000D01*
D36*
X47475000Y57900000D02*
X43665000Y57900000D01*
D32*
X44295000Y62175000D02*
X44930000Y62810000D01*
D33*
X57370000Y36000000D02*
X57370000Y40334000D01*
D32*
X16990000Y88210000D02*
X18260000Y89480000D01*
D35*
X24532770Y47917231D02*
X20725000Y51725001D01*
D32*
X19530000Y60270000D02*
X20546000Y60270000D01*
X38580000Y77415000D02*
X44295000Y77415000D01*
X38580000Y76145000D02*
X43279000Y76145000D01*
D33*
X55480000Y22676400D02*
X55952800Y22203600D01*
D35*
X15717020Y51055874D02*
X17067593Y51055874D01*
D32*
X20546000Y88210000D02*
X21181000Y87575000D01*
D33*
X53530000Y23204000D02*
X53530000Y27000000D01*
D32*
X20546000Y66620000D02*
X21181000Y65985000D01*
X43279000Y71065000D02*
X43914000Y71700000D01*
X44295000Y74875000D02*
X44930000Y75510000D01*
X18260000Y71700000D02*
X20546000Y71700000D01*
D33*
X50990000Y23204000D02*
X51939600Y22254400D01*
D32*
X19530000Y88210000D02*
X20546000Y88210000D01*
X20546000Y60270000D02*
X21181000Y59635000D01*
X43279000Y73605000D02*
X43914000Y74240000D01*
X46200000Y81860000D02*
X47470000Y80590000D01*
X21181000Y76145000D02*
X25880000Y76145000D01*
D36*
X54445000Y57840000D02*
X50635000Y57840000D01*
D33*
X56070000Y23204000D02*
X56070000Y27000000D01*
X61150000Y39846800D02*
X62125000Y40821800D01*
X60560000Y36000000D02*
X60560000Y40349000D01*
X58610000Y23204000D02*
X59559600Y22254400D01*
X65554000Y40898000D02*
X65554000Y45851000D01*
D32*
X43914000Y89480000D02*
X46200000Y89480000D01*
D33*
X54830000Y40334000D02*
X55394000Y40898000D01*
D32*
X21181000Y82495000D02*
X25880000Y82495000D01*
D33*
X59559600Y21365400D02*
X59559600Y22254400D01*
X60560000Y22676400D02*
X61032800Y22203600D01*
D35*
X14380588Y52392306D02*
X15717020Y51055874D01*
D32*
X38580000Y79955000D02*
X44295000Y79955000D01*
D33*
X63690000Y23204000D02*
X63690000Y27000000D01*
D32*
X38580000Y78685000D02*
X43279000Y78685000D01*
X38580000Y88845000D02*
X43279000Y88845000D01*
D34*
X60800000Y60275000D02*
X60805000Y60270000D01*
D33*
X64665000Y16742600D02*
X65731800Y17809400D01*
X68652800Y22203600D02*
X68652800Y15167800D01*
D35*
X12117846Y54655048D02*
X10781414Y55991480D01*
D33*
X55480000Y27000000D02*
X55480000Y22676400D01*
D32*
X21181000Y81225000D02*
X25880000Y81225000D01*
X20546000Y72970000D02*
X21181000Y72335000D01*
X44295000Y59635000D02*
X44930000Y60270000D01*
D33*
X60560000Y27000000D02*
X60560000Y22676400D01*
X68094000Y45851000D02*
X67205000Y46740000D01*
D32*
X18260000Y69160000D02*
X20546000Y69160000D01*
D36*
X65875000Y57840000D02*
X62065000Y57840000D01*
D33*
X64990000Y36000000D02*
X64990000Y40334000D01*
D32*
X43914000Y76780000D02*
X46200000Y76780000D01*
X20546000Y81860000D02*
X21181000Y81225000D01*
D35*
X20053249Y51053249D02*
X21389681Y49716817D01*
D32*
X20546000Y62810000D02*
X21181000Y62175000D01*
D33*
X51939600Y21365400D02*
X51939600Y22254400D01*
D32*
X20546000Y61540000D02*
X21181000Y60905000D01*
D33*
X62450000Y36000000D02*
X62450000Y40334000D01*
X48450000Y39846800D02*
X49425000Y40821800D01*
X58610000Y39846800D02*
X59585000Y40821800D01*
X63191800Y17809400D02*
X63191800Y22025800D01*
D32*
X18260000Y74240000D02*
X20546000Y74240000D01*
X20546000Y76780000D02*
X21181000Y76145000D01*
D33*
X61150000Y36000000D02*
X61150000Y39846800D01*
X55952800Y15167800D02*
X54505000Y13720000D01*
X68475000Y48010000D02*
X67205000Y49280000D01*
X67530000Y40334000D02*
X68094000Y40898000D01*
X63100000Y40349000D02*
X63395000Y40644000D01*
X54505000Y16260000D02*
X54505000Y16742600D01*
D32*
X38580000Y60905000D02*
X43279000Y60905000D01*
X18260000Y61540000D02*
X20546000Y61540000D01*
D33*
X66230000Y23204000D02*
X66230000Y27000000D01*
D32*
X16990000Y67890000D02*
X18260000Y69160000D01*
X38580000Y69795000D02*
X44295000Y69795000D01*
X21181000Y68525000D02*
X25880000Y68525000D01*
X21181000Y62175000D02*
X25880000Y62175000D01*
D33*
X53530000Y39846800D02*
X54505000Y40821800D01*
D32*
X44295000Y64715000D02*
X44930000Y65350000D01*
D35*
X9437911Y54647977D02*
X8087337Y54647977D01*
D33*
X68180000Y36000000D02*
X68180000Y40349000D01*
X55394000Y40898000D02*
X55394000Y45851000D01*
D32*
X38580000Y62175000D02*
X44295000Y62175000D01*
D33*
X63100000Y36000000D02*
X63100000Y40349000D01*
X62099600Y21365400D02*
X62125000Y21340000D01*
D32*
X46200000Y74240000D02*
X47470000Y72970000D01*
X21181000Y67255000D02*
X25880000Y67255000D01*
D33*
X58020000Y40349000D02*
X58315000Y40644000D01*
D32*
X44295000Y87575000D02*
X44930000Y88210000D01*
D33*
X67530000Y36000000D02*
X67530000Y40334000D01*
X66112800Y15167800D02*
X64665000Y13720000D01*
X60474000Y45851000D02*
X59585000Y46740000D01*
X63572800Y15167800D02*
X62125000Y13720000D01*
X65731800Y17809400D02*
X65731800Y22025800D01*
D32*
X21181000Y63445000D02*
X25880000Y63445000D01*
D33*
X65554000Y45851000D02*
X64665000Y46740000D01*
D32*
X16990000Y85670000D02*
X18260000Y86940000D01*
D33*
%TO.N,GND*%
X61800000Y39546600D02*
X61794800Y39551800D01*
X66880000Y39546600D02*
X66874800Y39551800D01*
X56720000Y27000000D02*
X56720000Y23453400D01*
X49750000Y36000000D02*
X49750000Y40334000D01*
X52854000Y45851000D02*
X51965000Y46740000D01*
X56720000Y23453400D02*
X56714800Y23448200D01*
X54180000Y27000000D02*
X54180000Y23453400D01*
X66880000Y36000000D02*
X66880000Y39546600D01*
X64340000Y23453400D02*
X64334800Y23448200D01*
X51640000Y36000000D02*
X51640000Y39546600D01*
X49100000Y39546600D02*
X49094800Y39551800D01*
X50695000Y48010000D02*
X49425000Y49280000D01*
X52854000Y40898000D02*
X52854000Y45851000D01*
X56720000Y39546600D02*
X56714800Y39551800D01*
X59260000Y23453400D02*
X59254800Y23448200D01*
X59260000Y39546600D02*
X59254800Y39551800D01*
X52290000Y40334000D02*
X52854000Y40898000D01*
X53235000Y48010000D02*
X51965000Y49280000D01*
X50314000Y40898000D02*
X50314000Y45851000D01*
X61800000Y23453400D02*
X61794800Y23448200D01*
X51640000Y39546600D02*
X51634800Y39551800D01*
X59260000Y27000000D02*
X59260000Y23453400D01*
X66880000Y23453400D02*
X66874800Y23448200D01*
X52290000Y36000000D02*
X52290000Y40334000D01*
X53235000Y40644000D02*
X53235000Y48010000D01*
X49100000Y27000000D02*
X49100000Y23453400D01*
X52940000Y40349000D02*
X53235000Y40644000D01*
D29*
X53000000Y3900000D02*
X53000000Y2544231D01*
D33*
X54180000Y36000000D02*
X54180000Y39546600D01*
X50314000Y45851000D02*
X49425000Y46740000D01*
X52940000Y36000000D02*
X52940000Y40349000D01*
X61800000Y27000000D02*
X61800000Y23453400D01*
X51640000Y23453400D02*
X51634800Y23448200D01*
X66880000Y27000000D02*
X66880000Y23453400D01*
X49100000Y23453400D02*
X49094800Y23448200D01*
X56720000Y36000000D02*
X56720000Y39546600D01*
X54180000Y39546600D02*
X54174800Y39551800D01*
X64340000Y36000000D02*
X64340000Y39546600D01*
X64340000Y39546600D02*
X64334800Y39551800D01*
X59260000Y36000000D02*
X59260000Y39546600D01*
X50400000Y40349000D02*
X50695000Y40644000D01*
X50400000Y36000000D02*
X50400000Y40349000D01*
X64340000Y27000000D02*
X64340000Y23453400D01*
X54180000Y23453400D02*
X54174800Y23448200D01*
D37*
X28220000Y39820000D02*
X28200000Y39800000D01*
D33*
X50695000Y40644000D02*
X50695000Y48010000D01*
X61800000Y36000000D02*
X61800000Y39546600D01*
X49750000Y40334000D02*
X50314000Y40898000D01*
D37*
X35250000Y39820000D02*
X28220000Y39820000D01*
D33*
X49100000Y36000000D02*
X49100000Y39546600D01*
X51640000Y27000000D02*
X51640000Y23453400D01*
D29*
%TO.N,+5V*%
X47932769Y5667231D02*
X47923000Y5667231D01*
D30*
X35230000Y34740000D02*
X35250000Y34740000D01*
D29*
%TO.N,/LED*%
X54150000Y1200000D02*
X16302944Y1200000D01*
X8596307Y11503693D02*
X3496307Y11503693D01*
X19740000Y24850000D02*
X20010000Y24580000D01*
X53077000Y5667231D02*
X54400000Y4344231D01*
X11400000Y8700000D02*
X8596307Y11503693D01*
X2700000Y24350000D02*
X3200000Y24850000D01*
X2700000Y12300000D02*
X2700000Y24350000D01*
X54400000Y4344231D02*
X54400000Y1450000D01*
X20010000Y24580000D02*
X20090000Y24580000D01*
X16302944Y1200000D02*
X11400000Y6102944D01*
X11400000Y6102944D02*
X11400000Y8700000D01*
X54400000Y1450000D02*
X54150000Y1200000D01*
X3200000Y24850000D02*
X19740000Y24850000D01*
X3496307Y11503693D02*
X2700000Y12300000D01*
%TO.N,/I2C_CLK*%
X23150000Y37800000D02*
X17839950Y37800000D01*
X7050000Y48589950D02*
X7050000Y52920000D01*
X35250000Y27120000D02*
X33830000Y27120000D01*
X17839950Y37800000D02*
X7050000Y48589950D01*
X7050000Y52920000D02*
X3600000Y56370000D01*
X33830000Y27120000D02*
X23150000Y37800000D01*
%TO.N,/I2C_DAT*%
X22730000Y37100000D02*
X35250000Y24580000D01*
X3600000Y53830000D02*
X4570000Y53830000D01*
X6350000Y48300000D02*
X17550000Y37100000D01*
X17550000Y37100000D02*
X22730000Y37100000D01*
X4570000Y53830000D02*
X6350000Y52050000D01*
X6350000Y52050000D02*
X6350000Y48300000D01*
%TO.N,/SYNC*%
X20010000Y27840000D02*
X20010000Y27120000D01*
X3600000Y43670000D02*
X4180000Y43670000D01*
X4180000Y43670000D02*
X20010000Y27840000D01*
%TO.N,/E_STOP*%
X19550000Y32200000D02*
X20010000Y32200000D01*
X3600000Y48150000D02*
X19550000Y32200000D01*
X3600000Y48750000D02*
X3600000Y48150000D01*
D30*
%TO.N,+12V*%
X1700000Y42800000D02*
X3370000Y41130000D01*
X3370000Y41130000D02*
X3600000Y41130000D01*
X3600000Y58910000D02*
X3260000Y58910000D01*
X3230000Y41130000D02*
X3600000Y41130000D01*
X1700000Y36760000D02*
X1700000Y39600000D01*
X5100000Y33360000D02*
X1700000Y36760000D01*
X1700000Y39600000D02*
X3230000Y41130000D01*
X5100000Y26100000D02*
X5100000Y33360000D01*
D31*
X3600000Y58910000D02*
X3610000Y58900000D01*
D30*
X1700000Y57350000D02*
X1700000Y42800000D01*
X3260000Y58910000D02*
X1700000Y57350000D01*
D29*
%TO.N,/INT*%
X3600000Y46210000D02*
X20010000Y29800000D01*
X20010000Y29800000D02*
X20010000Y29660000D01*
%TD*%
M02*
