%TF.GenerationSoftware,KiCad,Pcbnew,9.0.1*%
%TF.CreationDate,2025-05-07T10:28:02-04:00*%
%TF.ProjectId,BREAD_Slice_smtProto,42524541-445f-4536-9c69-63655f736d74,rev?*%
%TF.SameCoordinates,PX74eba40PY8552dc0*%
%TF.FileFunction,Soldermask,Top*%
%TF.FilePolarity,Negative*%
%FSLAX46Y46*%
G04 Gerber Fmt 4.6, Leading zero omitted, Abs format (unit mm)*
G04 Created by KiCad (PCBNEW 9.0.1) date 2025-05-07 10:28:02*
%MOMM*%
%LPD*%
G01*
G04 APERTURE LIST*
G04 Aperture macros list*
%AMRoundRect*
0 Rectangle with rounded corners*
0 $1 Rounding radius*
0 $2 $3 $4 $5 $6 $7 $8 $9 X,Y pos of 4 corners*
0 Add a 4 corners polygon primitive as box body*
4,1,4,$2,$3,$4,$5,$6,$7,$8,$9,$2,$3,0*
0 Add four circle primitives for the rounded corners*
1,1,$1+$1,$2,$3*
1,1,$1+$1,$4,$5*
1,1,$1+$1,$6,$7*
1,1,$1+$1,$8,$9*
0 Add four rect primitives between the rounded corners*
20,1,$1+$1,$2,$3,$4,$5,0*
20,1,$1+$1,$4,$5,$6,$7,0*
20,1,$1+$1,$6,$7,$8,$9,0*
20,1,$1+$1,$8,$9,$2,$3,0*%
G04 Aperture macros list end*
%ADD10RoundRect,0.050000X-0.850000X-0.850000X0.850000X-0.850000X0.850000X0.850000X-0.850000X0.850000X0*%
%ADD11C,1.800000*%
%ADD12C,5.100000*%
%ADD13RoundRect,0.050000X-0.800000X-0.800000X0.800000X-0.800000X0.800000X0.800000X-0.800000X0.800000X0*%
%ADD14O,1.700000X1.700000*%
%ADD15O,1.800000X1.800000*%
%ADD16RoundRect,0.050000X-4.445000X-0.325000X4.445000X-0.325000X4.445000X0.325000X-4.445000X0.325000X0*%
%ADD17O,2.000000X1.500000*%
%ADD18RoundRect,1.008333X-5.041667X-5.041667X5.041667X-5.041667X5.041667X5.041667X-5.041667X5.041667X0*%
%ADD19RoundRect,0.050000X0.800000X0.800000X-0.800000X0.800000X-0.800000X-0.800000X0.800000X-0.800000X0*%
%ADD20O,1.400000X2.000000*%
%ADD21RoundRect,0.050000X-0.175000X-3.000000X0.175000X-3.000000X0.175000X3.000000X-0.175000X3.000000X0*%
%ADD22O,1.500000X1.800000*%
%ADD23RoundRect,0.101600X-0.825500X-0.500000X0.825500X-0.500000X0.825500X0.500000X-0.825500X0.500000X0*%
%ADD24RoundRect,0.050000X0.850000X-0.850000X0.850000X0.850000X-0.850000X0.850000X-0.850000X-0.850000X0*%
%ADD25C,2.160000*%
%ADD26RoundRect,0.050000X1.078338X-0.689429X-0.689429X1.078338X-1.078338X0.689429X0.689429X-1.078338X0*%
G04 APERTURE END LIST*
D10*
%TO.C,REF\u002A\u002A*%
X39150000Y13150000D03*
D11*
X41690000Y13150000D03*
X39150000Y10610000D03*
X41690000Y10610000D03*
%TD*%
D10*
%TO.C,REF\u002A\u002A*%
X43310000Y42200000D03*
D11*
X45850000Y42200000D03*
X43310000Y39660000D03*
X45850000Y39660000D03*
X43310000Y37120000D03*
X45850000Y37120000D03*
X43310000Y34580000D03*
X45850000Y34580000D03*
X43310000Y32040000D03*
X45850000Y32040000D03*
X43310000Y29500000D03*
X45850000Y29500000D03*
X43310000Y26960000D03*
X45850000Y26960000D03*
X43310000Y24420000D03*
X45850000Y24420000D03*
X43310000Y21880000D03*
X45850000Y21880000D03*
X43310000Y19340000D03*
X45850000Y19340000D03*
%TD*%
D12*
%TO.C,H1*%
X5000000Y95000000D03*
%TD*%
%TO.C,H3*%
X65000000Y95000000D03*
%TD*%
%TO.C,H2*%
X5000000Y5000000D03*
%TD*%
%TO.C,H4*%
X65000000Y5000000D03*
%TD*%
D13*
%TO.C,A1*%
X20010000Y42360000D03*
D14*
X20010000Y39820000D03*
X20010000Y34740000D03*
X20010000Y32200000D03*
X20010000Y29660000D03*
X20010000Y27120000D03*
X20010000Y24580000D03*
X20010000Y22040000D03*
X20010000Y19500000D03*
X20010000Y16960000D03*
X20010000Y14420000D03*
X20010000Y11880000D03*
X20010000Y9340000D03*
X20010000Y6800000D03*
X35250000Y6800000D03*
X35250000Y9340000D03*
X35250000Y11880000D03*
X35250000Y14420000D03*
X35250000Y16960000D03*
X35250000Y19500000D03*
X35250000Y22040000D03*
X35250000Y24580000D03*
X35250000Y27120000D03*
X35250000Y29660000D03*
X35250000Y32200000D03*
X35250000Y34740000D03*
X35250000Y37280000D03*
X35250000Y39820000D03*
X35250000Y42360000D03*
%TD*%
D10*
%TO.C,J1*%
X3600000Y61450000D03*
D15*
X3600000Y58910000D03*
X3600000Y56370000D03*
X3600000Y53830000D03*
X3600000Y51290000D03*
X3600000Y48750000D03*
X3600000Y46210000D03*
X3600000Y43670000D03*
X3600000Y41130000D03*
X3600000Y38590000D03*
%TD*%
D13*
%TO.C,*%
X16990000Y88210000D03*
D16*
X25880000Y88845000D03*
D17*
X19530000Y88210000D03*
D16*
X25880000Y87575000D03*
X38580000Y87575000D03*
D17*
X44930000Y88210000D03*
D16*
X38580000Y88845000D03*
D13*
X47470000Y88210000D03*
%TD*%
D18*
%TO.C,HS1*%
X9200000Y18350000D03*
%TD*%
D13*
%TO.C,*%
X16990000Y78050000D03*
D16*
X25880000Y78685000D03*
D17*
X19530000Y78050000D03*
D16*
X25880000Y77415000D03*
X38580000Y77415000D03*
D17*
X44930000Y78050000D03*
D16*
X38580000Y78685000D03*
D13*
X47470000Y78050000D03*
%TD*%
D10*
%TO.C,*%
X18050000Y95630000D03*
X20590000Y95630000D03*
X20590000Y93090000D03*
X18050000Y93090000D03*
X15510000Y93090000D03*
X15510000Y95630000D03*
X15510000Y98170000D03*
X18050000Y98170000D03*
X20590000Y98170000D03*
X23130000Y98170000D03*
X23130000Y95630000D03*
X23130000Y93090000D03*
X23130000Y90550000D03*
X20590000Y90550000D03*
X18050000Y90550000D03*
X15510000Y90550000D03*
%TD*%
D13*
%TO.C,*%
X16990000Y60270000D03*
D16*
X25880000Y60905000D03*
D17*
X19530000Y60270000D03*
D16*
X25880000Y59635000D03*
X38580000Y59635000D03*
D17*
X44930000Y60270000D03*
D16*
X38580000Y60905000D03*
D13*
X47470000Y60270000D03*
%TD*%
D10*
%TO.C,*%
X53185000Y85670000D03*
X55725000Y85670000D03*
X55725000Y83130000D03*
X53185000Y83130000D03*
X50645000Y83130000D03*
X50645000Y85670000D03*
X50645000Y88210000D03*
X53185000Y88210000D03*
X55725000Y88210000D03*
X58265000Y88210000D03*
X58265000Y85670000D03*
X58265000Y83130000D03*
X58265000Y80590000D03*
X55725000Y80590000D03*
X53185000Y80590000D03*
X50645000Y80590000D03*
%TD*%
D19*
%TO.C,*%
X47475000Y55360000D03*
X43665000Y55360000D03*
X36045000Y55360000D03*
X32235000Y55360000D03*
X41125000Y55360000D03*
X38585000Y55360000D03*
%TD*%
%TO.C,*%
X47475000Y57900000D03*
X43665000Y57900000D03*
X36045000Y57900000D03*
X32235000Y57900000D03*
X41125000Y57900000D03*
X38585000Y57900000D03*
%TD*%
D20*
%TO.C,*%
X64665000Y49280000D03*
D21*
X65640000Y36000000D03*
D20*
X64665000Y46740000D03*
D21*
X64990000Y36000000D03*
D20*
X64665000Y44200000D03*
D21*
X64340000Y36000000D03*
D20*
X64665000Y41660000D03*
D21*
X63690000Y36000000D03*
X63690000Y27000000D03*
D22*
X64665000Y21340000D03*
D21*
X64340000Y27000000D03*
D22*
X64665000Y18800000D03*
D21*
X64990000Y27000000D03*
D22*
X64665000Y16260000D03*
D21*
X65640000Y27000000D03*
D22*
X64665000Y13720000D03*
%TD*%
D10*
%TO.C,*%
X9370000Y85670000D03*
X11910000Y85670000D03*
X11910000Y83130000D03*
X9370000Y83130000D03*
X6830000Y83130000D03*
X6830000Y85670000D03*
X6830000Y88210000D03*
X9370000Y88210000D03*
X11910000Y88210000D03*
X14450000Y88210000D03*
X14450000Y85670000D03*
X14450000Y83130000D03*
X14450000Y80590000D03*
X11910000Y80590000D03*
X9370000Y80590000D03*
X6830000Y80590000D03*
%TD*%
%TO.C,REF\u002A\u002A*%
X38925000Y45100000D03*
D15*
X38925000Y42560000D03*
X38925000Y40020000D03*
%TD*%
D20*
%TO.C,*%
X54505000Y49280000D03*
D21*
X55480000Y36000000D03*
D20*
X54505000Y46740000D03*
D21*
X54830000Y36000000D03*
D20*
X54505000Y44200000D03*
D21*
X54180000Y36000000D03*
D20*
X54505000Y41660000D03*
D21*
X53530000Y36000000D03*
X53530000Y27000000D03*
D22*
X54505000Y21340000D03*
D21*
X54180000Y27000000D03*
D22*
X54505000Y18800000D03*
D21*
X54830000Y27000000D03*
D22*
X54505000Y16260000D03*
D21*
X55480000Y27000000D03*
D22*
X54505000Y13720000D03*
%TD*%
D13*
%TO.C,*%
X16990000Y72970000D03*
D16*
X25880000Y73605000D03*
D17*
X19530000Y72970000D03*
D16*
X25880000Y72335000D03*
X38580000Y72335000D03*
D17*
X44930000Y72970000D03*
D16*
X38580000Y73605000D03*
D13*
X47470000Y72970000D03*
%TD*%
D20*
%TO.C,*%
X59585000Y49280000D03*
D21*
X60560000Y36000000D03*
D20*
X59585000Y46740000D03*
D21*
X59910000Y36000000D03*
D20*
X59585000Y44200000D03*
D21*
X59260000Y36000000D03*
D20*
X59585000Y41660000D03*
D21*
X58610000Y36000000D03*
X58610000Y27000000D03*
D22*
X59585000Y21340000D03*
D21*
X59260000Y27000000D03*
D22*
X59585000Y18800000D03*
D21*
X59910000Y27000000D03*
D22*
X59585000Y16260000D03*
D21*
X60560000Y27000000D03*
D22*
X59585000Y13720000D03*
%TD*%
D13*
%TO.C,*%
X16990000Y80590000D03*
D16*
X25880000Y81225000D03*
D17*
X19530000Y80590000D03*
D16*
X25880000Y79955000D03*
X38580000Y79955000D03*
D17*
X44930000Y80590000D03*
D16*
X38580000Y81225000D03*
D13*
X47470000Y80590000D03*
%TD*%
D10*
%TO.C,*%
X63345000Y85670000D03*
X65885000Y85670000D03*
X65885000Y83130000D03*
X63345000Y83130000D03*
X60805000Y83130000D03*
X60805000Y85670000D03*
X60805000Y88210000D03*
X63345000Y88210000D03*
X65885000Y88210000D03*
X68425000Y88210000D03*
X68425000Y85670000D03*
X68425000Y83130000D03*
X68425000Y80590000D03*
X65885000Y80590000D03*
X63345000Y80590000D03*
X60805000Y80590000D03*
%TD*%
D20*
%TO.C,*%
X49425000Y49280000D03*
D21*
X50400000Y36000000D03*
D20*
X49425000Y46740000D03*
D21*
X49750000Y36000000D03*
D20*
X49425000Y44200000D03*
D21*
X49100000Y36000000D03*
D20*
X49425000Y41660000D03*
D21*
X48450000Y36000000D03*
X48450000Y27000000D03*
D22*
X49425000Y21340000D03*
D21*
X49100000Y27000000D03*
D22*
X49425000Y18800000D03*
D21*
X49750000Y27000000D03*
D22*
X49425000Y16260000D03*
D21*
X50400000Y27000000D03*
D22*
X49425000Y13720000D03*
%TD*%
D10*
%TO.C,REF\u002A\u002A*%
X38975000Y31990000D03*
D15*
X38975000Y29450000D03*
X38975000Y26910000D03*
X38975000Y24370000D03*
X38975000Y21830000D03*
X38975000Y19290000D03*
%TD*%
D20*
%TO.C,*%
X62125000Y49280000D03*
D21*
X63100000Y36000000D03*
D20*
X62125000Y46740000D03*
D21*
X62450000Y36000000D03*
D20*
X62125000Y44200000D03*
D21*
X61800000Y36000000D03*
D20*
X62125000Y41660000D03*
D21*
X61150000Y36000000D03*
X61150000Y27000000D03*
D22*
X62125000Y21340000D03*
D21*
X61800000Y27000000D03*
D22*
X62125000Y18800000D03*
D21*
X62450000Y27000000D03*
D22*
X62125000Y16260000D03*
D21*
X63100000Y27000000D03*
D22*
X62125000Y13720000D03*
%TD*%
D10*
%TO.C,*%
X63345000Y75510000D03*
X65885000Y75510000D03*
X65885000Y72970000D03*
X63345000Y72970000D03*
X60805000Y72970000D03*
X60805000Y75510000D03*
X60805000Y78050000D03*
X63345000Y78050000D03*
X65885000Y78050000D03*
X68425000Y78050000D03*
X68425000Y75510000D03*
X68425000Y72970000D03*
X68425000Y70430000D03*
X65885000Y70430000D03*
X63345000Y70430000D03*
X60805000Y70430000D03*
%TD*%
D23*
%TO.C,D1*%
X47923000Y5667231D03*
X47923000Y2467231D03*
X53077000Y2467231D03*
X53077000Y5667231D03*
%TD*%
D10*
%TO.C,*%
X63345000Y65350000D03*
X65885000Y65350000D03*
X65885000Y62810000D03*
X63345000Y62810000D03*
X60805000Y62810000D03*
X60805000Y65350000D03*
X60805000Y67890000D03*
X63345000Y67890000D03*
X65885000Y67890000D03*
X68425000Y67890000D03*
X68425000Y65350000D03*
X68425000Y62810000D03*
X68425000Y60270000D03*
X65885000Y60270000D03*
X63345000Y60270000D03*
X60805000Y60270000D03*
%TD*%
%TO.C,*%
X53185000Y75510000D03*
X55725000Y75510000D03*
X55725000Y72970000D03*
X53185000Y72970000D03*
X50645000Y72970000D03*
X50645000Y75510000D03*
X50645000Y78050000D03*
X53185000Y78050000D03*
X55725000Y78050000D03*
X58265000Y78050000D03*
X58265000Y75510000D03*
X58265000Y72970000D03*
X58265000Y70430000D03*
X55725000Y70430000D03*
X53185000Y70430000D03*
X50645000Y70430000D03*
%TD*%
D24*
%TO.C,REF\u002A\u002A*%
X28765000Y48700000D03*
D15*
X31305000Y48700000D03*
X33845000Y48700000D03*
X36385000Y48700000D03*
X38925000Y48700000D03*
%TD*%
D25*
%TO.C,*%
X14373516Y48361797D03*
D26*
X13037084Y51048803D03*
D25*
X17516606Y47912784D03*
D26*
X13708836Y51720554D03*
D25*
X17067593Y51055874D03*
D26*
X14380587Y52392306D03*
X12117846Y54655047D03*
D25*
X10781414Y57342053D03*
D26*
X11446094Y53983296D03*
D25*
X7638324Y57791066D03*
D26*
X10774343Y53311544D03*
D25*
X8087337Y54647976D03*
%TD*%
D20*
%TO.C,*%
X57045000Y49280000D03*
D21*
X58020000Y36000000D03*
D20*
X57045000Y46740000D03*
D21*
X57370000Y36000000D03*
D20*
X57045000Y44200000D03*
D21*
X56720000Y36000000D03*
D20*
X57045000Y41660000D03*
D21*
X56070000Y36000000D03*
X56070000Y27000000D03*
D22*
X57045000Y21340000D03*
D21*
X56720000Y27000000D03*
D22*
X57045000Y18800000D03*
D21*
X57370000Y27000000D03*
D22*
X57045000Y16260000D03*
D21*
X58020000Y27000000D03*
D22*
X57045000Y13720000D03*
%TD*%
D10*
%TO.C,*%
X48530000Y95630000D03*
X51070000Y95630000D03*
X51070000Y93090000D03*
X48530000Y93090000D03*
X45990000Y93090000D03*
X45990000Y95630000D03*
X45990000Y98170000D03*
X48530000Y98170000D03*
X51070000Y98170000D03*
X53610000Y98170000D03*
X53610000Y95630000D03*
X53610000Y93090000D03*
X53610000Y90550000D03*
X51070000Y90550000D03*
X48530000Y90550000D03*
X45990000Y90550000D03*
%TD*%
D25*
%TO.C,*%
X21389680Y48366243D03*
D26*
X20053248Y51053249D03*
D25*
X24532770Y47917230D03*
D26*
X20725000Y51725000D03*
D25*
X24083757Y51060320D03*
D26*
X21396751Y52396752D03*
X19134010Y54659493D03*
D25*
X17797578Y57346499D03*
D26*
X18462258Y53987742D03*
D25*
X14654488Y57795512D03*
D26*
X17790507Y53315990D03*
D25*
X15103501Y54652422D03*
%TD*%
D20*
%TO.C,*%
X67205000Y49280000D03*
D21*
X68180000Y36000000D03*
D20*
X67205000Y46740000D03*
D21*
X67530000Y36000000D03*
D20*
X67205000Y44200000D03*
D21*
X66880000Y36000000D03*
D20*
X67205000Y41660000D03*
D21*
X66230000Y36000000D03*
X66230000Y27000000D03*
D22*
X67205000Y21340000D03*
D21*
X66880000Y27000000D03*
D22*
X67205000Y18800000D03*
D21*
X67530000Y27000000D03*
D22*
X67205000Y16260000D03*
D21*
X68180000Y27000000D03*
D22*
X67205000Y13720000D03*
%TD*%
D13*
%TO.C,*%
X16990000Y85670000D03*
D16*
X25880000Y86305000D03*
D17*
X19530000Y85670000D03*
D16*
X25880000Y85035000D03*
X38580000Y85035000D03*
D17*
X44930000Y85670000D03*
D16*
X38580000Y86305000D03*
D13*
X47470000Y85670000D03*
%TD*%
D10*
%TO.C,*%
X9370000Y65350000D03*
X11910000Y65350000D03*
X11910000Y62810000D03*
X9370000Y62810000D03*
X6830000Y62810000D03*
X6830000Y65350000D03*
X6830000Y67890000D03*
X9370000Y67890000D03*
X11910000Y67890000D03*
X14450000Y67890000D03*
X14450000Y65350000D03*
X14450000Y62810000D03*
X14450000Y60270000D03*
X11910000Y60270000D03*
X9370000Y60270000D03*
X6830000Y60270000D03*
%TD*%
D13*
%TO.C,*%
X16990000Y83130000D03*
D16*
X25880000Y83765000D03*
D17*
X19530000Y83130000D03*
D16*
X25880000Y82495000D03*
X38580000Y82495000D03*
D17*
X44930000Y83130000D03*
D16*
X38580000Y83765000D03*
D13*
X47470000Y83130000D03*
%TD*%
%TO.C,*%
X16990000Y62810000D03*
D16*
X25880000Y63445000D03*
D17*
X19530000Y62810000D03*
D16*
X25880000Y62175000D03*
X38580000Y62175000D03*
D17*
X44930000Y62810000D03*
D16*
X38580000Y63445000D03*
D13*
X47470000Y62810000D03*
%TD*%
D10*
%TO.C,*%
X38370000Y95630000D03*
X40910000Y95630000D03*
X40910000Y93090000D03*
X38370000Y93090000D03*
X35830000Y93090000D03*
X35830000Y95630000D03*
X35830000Y98170000D03*
X38370000Y98170000D03*
X40910000Y98170000D03*
X43450000Y98170000D03*
X43450000Y95630000D03*
X43450000Y93090000D03*
X43450000Y90550000D03*
X40910000Y90550000D03*
X38370000Y90550000D03*
X35830000Y90550000D03*
%TD*%
%TO.C,*%
X28210000Y95630000D03*
X30750000Y95630000D03*
X30750000Y93090000D03*
X28210000Y93090000D03*
X25670000Y93090000D03*
X25670000Y95630000D03*
X25670000Y98170000D03*
X28210000Y98170000D03*
X30750000Y98170000D03*
X33290000Y98170000D03*
X33290000Y95630000D03*
X33290000Y93090000D03*
X33290000Y90550000D03*
X30750000Y90550000D03*
X28210000Y90550000D03*
X25670000Y90550000D03*
%TD*%
D19*
%TO.C,*%
X65875000Y57840000D03*
X62065000Y57840000D03*
X54445000Y57840000D03*
X50635000Y57840000D03*
X59525000Y57840000D03*
X56985000Y57840000D03*
%TD*%
D10*
%TO.C,*%
X9370000Y75510000D03*
X11910000Y75510000D03*
X11910000Y72970000D03*
X9370000Y72970000D03*
X6830000Y72970000D03*
X6830000Y75510000D03*
X6830000Y78050000D03*
X9370000Y78050000D03*
X11910000Y78050000D03*
X14450000Y78050000D03*
X14450000Y75510000D03*
X14450000Y72970000D03*
X14450000Y70430000D03*
X11910000Y70430000D03*
X9370000Y70430000D03*
X6830000Y70430000D03*
%TD*%
D19*
%TO.C,*%
X47475000Y52820000D03*
X43665000Y52820000D03*
X36045000Y52820000D03*
X32235000Y52820000D03*
X41125000Y52820000D03*
X38585000Y52820000D03*
%TD*%
D10*
%TO.C,*%
X53185000Y65350000D03*
X55725000Y65350000D03*
X55725000Y62810000D03*
X53185000Y62810000D03*
X50645000Y62810000D03*
X50645000Y65350000D03*
X50645000Y67890000D03*
X53185000Y67890000D03*
X55725000Y67890000D03*
X58265000Y67890000D03*
X58265000Y65350000D03*
X58265000Y62810000D03*
X58265000Y60270000D03*
X55725000Y60270000D03*
X53185000Y60270000D03*
X50645000Y60270000D03*
%TD*%
D13*
%TO.C,*%
X16990000Y70430000D03*
D16*
X25880000Y71065000D03*
D17*
X19530000Y70430000D03*
D16*
X25880000Y69795000D03*
X38580000Y69795000D03*
D17*
X44930000Y70430000D03*
D16*
X38580000Y71065000D03*
D13*
X47470000Y70430000D03*
%TD*%
%TO.C,*%
X16990000Y67890000D03*
D16*
X25880000Y68525000D03*
D17*
X19530000Y67890000D03*
D16*
X25880000Y67255000D03*
X38580000Y67255000D03*
D17*
X44930000Y67890000D03*
D16*
X38580000Y68525000D03*
D13*
X47470000Y67890000D03*
%TD*%
%TO.C,*%
X16990000Y65350000D03*
D16*
X25880000Y65985000D03*
D17*
X19530000Y65350000D03*
D16*
X25880000Y64715000D03*
X38580000Y64715000D03*
D17*
X44930000Y65350000D03*
D16*
X38580000Y65985000D03*
D13*
X47470000Y65350000D03*
%TD*%
D20*
%TO.C,*%
X51965000Y49280000D03*
D21*
X52940000Y36000000D03*
D20*
X51965000Y46740000D03*
D21*
X52290000Y36000000D03*
D20*
X51965000Y44200000D03*
D21*
X51640000Y36000000D03*
D20*
X51965000Y41660000D03*
D21*
X50990000Y36000000D03*
X50990000Y27000000D03*
D22*
X51965000Y21340000D03*
D21*
X51640000Y27000000D03*
D22*
X51965000Y18800000D03*
D21*
X52290000Y27000000D03*
D22*
X51965000Y16260000D03*
D21*
X52940000Y27000000D03*
D22*
X51965000Y13720000D03*
%TD*%
D13*
%TO.C,*%
X16990000Y75510000D03*
D16*
X25880000Y76145000D03*
D17*
X19530000Y75510000D03*
D16*
X25880000Y74875000D03*
X38580000Y74875000D03*
D17*
X44930000Y75510000D03*
D16*
X38580000Y76145000D03*
D13*
X47470000Y75510000D03*
%TD*%
D19*
%TO.C,*%
X65875000Y55300000D03*
X62065000Y55300000D03*
X54445000Y55300000D03*
X50635000Y55300000D03*
X59525000Y55300000D03*
X56985000Y55300000D03*
%TD*%
M02*
